<svg width="20" height="15" viewBox="0 0 20 15" fill="none" xmlns="http://www.w3.org/2000/svg">
<path d="M18.9988 -0.000104904L0.998816 -0.000104904C0.816574 0.000466427 0.63794 0.0507296 0.48214 0.145273C0.326339 0.239817 0.199274 0.37506 0.11462 0.536448C0.0299663 0.697835 -0.00907029 0.879255 0.0017128 1.06118C0.0124959 1.2431 0.0726896 1.41864 0.175816 1.5689L9.17582 14.5689C9.54882 15.1079 10.4468 15.1079 10.8208 14.5689L19.8208 1.5689C19.925 1.41895 19.9861 1.24333 19.9975 1.0611C20.0088 0.878874 19.97 0.697017 19.8853 0.535288C19.8006 0.373559 19.6731 0.238141 19.5169 0.143751C19.3606 0.0493609 19.1814 -0.000392488 18.9988 -0.000104904Z" fill="#9F9F9F"/>
</svg>
