<svg width="225" height="226" viewBox="0 0 225 226" fill="none" xmlns="http://www.w3.org/2000/svg">
<circle cx="112.5" cy="113.688" r="100.5" stroke="#2A2A2A"/>
<line x1="114" y1="213.188" x2="114" y2="13.1875" stroke="#2A2A2A" stroke-linecap="round"/>
<line x1="13" y1="113.188" x2="212" y2="113.188" stroke="#2A2A2A" stroke-linecap="round"/>
<line x1="42.5" y1="184.402" x2="183.214" y2="43.6875" stroke="#2A2A2A" stroke-linecap="round"/>
<line x1="43.2071" y1="42.6875" x2="183.921" y2="183.402" stroke="#2A2A2A" stroke-linecap="round"/>
<circle cx="113.5" cy="113.688" r="24.5" fill="#111111" stroke="#2A2A2A"/>
<path d="M162.096 113.5C162.096 140.944 139.848 163.191 112.404 163.191C84.9605 163.191 62.7129 140.944 62.7129 113.5C62.7129 86.0562 84.9605 63.8086 112.404 63.8086C139.848 63.8086 162.096 86.0562 162.096 113.5ZM80.1049 113.5C80.1049 131.338 94.5658 145.799 112.404 145.799C130.243 145.799 144.704 131.338 144.704 113.5C144.704 95.6615 130.243 81.2006 112.404 81.2006C94.5658 81.2006 80.1049 95.6615 80.1049 113.5Z" fill="#241C28"/>
<path d="M181.54 113.5C181.54 151.683 150.587 182.636 112.404 182.636C74.2217 182.636 43.2686 151.683 43.2686 113.5C43.2686 75.3174 74.2217 44.3643 112.404 44.3643C150.587 44.3643 181.54 75.3174 181.54 113.5ZM60.2568 113.5C60.2568 142.3 83.6041 165.648 112.404 165.648C141.205 165.648 164.552 142.3 164.552 113.5C164.552 84.6998 141.205 61.3525 112.404 61.3525C83.6041 61.3525 60.2568 84.6998 60.2568 113.5Z" fill="#281C13"/>
<path d="M199.904 113.5C199.904 161.825 160.729 201 112.404 201C64.0794 201 24.9043 161.825 24.9043 113.5C24.9043 65.1751 64.0794 26 112.404 26C160.729 26 199.904 65.1751 199.904 113.5ZM40.8991 113.5C40.8991 152.991 72.9131 185.005 112.404 185.005C151.896 185.005 183.909 152.991 183.909 113.5C183.909 74.0088 151.896 41.9948 112.404 41.9948C72.9131 41.9948 40.8991 74.0088 40.8991 113.5Z" fill="#282828"/>
<path d="M66.7128 113.5C64.5037 113.5 62.6961 111.706 62.8737 109.504C63.7651 98.4505 68.3353 87.9687 75.9147 79.7694C84.4025 70.5874 96.0399 64.9428 108.505 63.9618C120.971 62.9807 133.348 66.7353 143.168 74.4765C152.987 82.2177 159.528 93.3764 161.484 105.727C163.44 118.077 160.668 130.71 153.721 141.107C146.774 151.504 136.163 158.899 124.004 161.818C111.846 164.737 99.0337 162.965 88.1239 156.855C78.3818 151.4 70.7962 142.843 66.5327 132.606C65.6834 130.567 66.8481 128.302 68.9491 127.619L77.8814 124.717C79.9824 124.034 82.2169 125.199 83.1538 127.199C86.0043 133.286 90.7002 138.365 96.622 141.681C103.713 145.652 112.041 146.804 119.944 144.907C127.847 143.01 134.745 138.202 139.26 131.445C143.776 124.687 145.577 116.475 144.306 108.447C143.034 100.42 138.783 93.1665 132.401 88.1347C126.018 83.1029 117.973 80.6624 109.87 81.3001C101.767 81.9378 94.2031 85.6068 88.686 91.5751C84.0789 96.5591 81.1822 102.841 80.3521 109.51C80.0792 111.702 78.3139 113.5 76.1048 113.5L66.7128 113.5Z" fill="#D387FF"/>
<path d="M47.2685 113.5C45.0594 113.5 43.2564 111.707 43.3841 109.502C44.2009 95.3969 49.3242 81.8442 58.1108 70.6985C67.7248 58.5032 81.1647 49.8997 96.2649 46.2745C111.365 42.6493 127.246 44.2134 141.349 50.7149C155.451 57.2163 166.955 68.2764 174.005 82.1131C181.055 95.9497 183.241 111.757 180.212 126.988C177.182 142.219 169.113 155.986 157.304 166.071C145.496 176.157 130.636 181.973 115.119 182.583C100.937 183.14 86.9611 179.318 75.0698 171.689C73.2105 170.496 72.82 167.983 74.1185 166.196L79.4016 158.924C80.7001 157.137 83.1945 156.756 85.076 157.913C93.8619 163.32 104.084 166.015 114.452 165.607C126.156 165.148 137.365 160.761 146.271 153.153C155.178 145.546 161.265 135.162 163.55 123.674C165.835 112.185 164.186 100.262 158.868 89.8256C153.55 79.3889 144.874 71.0465 134.236 66.1426C123.599 61.2387 111.62 60.0589 100.231 62.7934C88.841 65.5278 78.7036 72.0172 71.452 81.2158C65.0283 89.3642 61.2005 99.218 60.4101 109.504C60.2408 111.706 58.4659 113.5 56.2568 113.5L47.2685 113.5Z" fill="#FF812A"/>
<path d="M28.9043 113.5C26.6952 113.5 24.8948 111.708 24.9957 109.501C25.5643 97.0716 28.7784 84.8897 34.4412 73.7758C40.7101 61.4724 49.8019 50.8274 60.9731 42.711C72.1443 34.5946 85.0779 29.2374 98.7163 27.0773C112.355 24.9172 126.311 26.0155 139.443 30.2826C152.576 34.5496 164.512 41.8641 174.276 51.6282C184.04 61.3922 191.355 73.3284 195.622 86.461C199.889 99.5936 200.987 113.55 198.827 127.188C196.876 139.508 192.316 151.252 185.47 161.642C184.254 163.487 181.744 163.879 179.957 162.58L173.489 157.881C171.702 156.582 171.316 154.087 172.513 152.229C177.886 143.891 181.473 134.512 183.029 124.686C184.794 113.541 183.897 102.136 180.41 91.4037C176.923 80.6717 170.945 70.9174 162.966 62.9382C154.987 54.959 145.233 48.9816 134.501 45.4945C123.769 42.0075 112.364 41.1099 101.218 42.8752C90.0731 44.6404 79.5038 49.0184 70.3746 55.6511C61.2455 62.2838 53.8157 70.983 48.6927 81.0373C44.176 89.9018 41.5656 99.5978 41.011 109.502C40.8875 111.708 39.1083 113.5 36.8991 113.5L28.9043 113.5Z" fill="white"/>
<path d="M8 124.76H3.496L3.752 125.752H3.008L2.4 124.376V123.776H8V124.76ZM8.096 120.419C8.096 120.925 7.976 121.36 7.736 121.723C7.49067 122.085 7.152 122.365 6.72 122.563C6.28267 122.755 5.776 122.851 5.2 122.851C4.624 122.851 4.12 122.755 3.688 122.563C3.25067 122.365 2.912 122.085 2.672 121.723C2.42667 121.36 2.304 120.925 2.304 120.419C2.304 119.917 2.42667 119.488 2.672 119.131C2.912 118.768 3.25067 118.491 3.688 118.299C4.12 118.101 4.624 118.003 5.2 118.003C5.776 118.003 6.28267 118.101 6.72 118.299C7.152 118.491 7.49067 118.768 7.736 119.131C7.976 119.488 8.096 119.917 8.096 120.419ZM7.232 120.427C7.232 120.144 7.152 119.893 6.992 119.675C6.82667 119.456 6.592 119.288 6.288 119.171C5.984 119.048 5.62133 118.987 5.2 118.987C4.77867 118.987 4.416 119.048 4.112 119.171C3.808 119.288 3.576 119.456 3.416 119.675C3.25067 119.893 3.168 120.144 3.168 120.427C3.168 120.709 3.25067 120.96 3.416 121.179C3.576 121.397 3.808 121.568 4.112 121.691C4.416 121.808 4.77867 121.867 5.2 121.867C5.62133 121.867 5.984 121.808 6.288 121.691C6.592 121.568 6.82667 121.397 6.992 121.179C7.152 120.96 7.232 120.709 7.232 120.427ZM8.096 114.833C8.096 115.339 7.976 115.774 7.736 116.137C7.49067 116.499 7.152 116.779 6.72 116.977C6.28267 117.169 5.776 117.265 5.2 117.265C4.624 117.265 4.12 117.169 3.688 116.977C3.25067 116.779 2.912 116.499 2.672 116.137C2.42667 115.774 2.304 115.339 2.304 114.833C2.304 114.331 2.42667 113.902 2.672 113.545C2.912 113.182 3.25067 112.905 3.688 112.713C4.12 112.515 4.624 112.417 5.2 112.417C5.776 112.417 6.28267 112.515 6.72 112.713C7.152 112.905 7.49067 113.182 7.736 113.545C7.976 113.902 8.096 114.331 8.096 114.833ZM7.232 114.841C7.232 114.558 7.152 114.307 6.992 114.089C6.82667 113.87 6.592 113.702 6.288 113.585C5.984 113.462 5.62133 113.401 5.2 113.401C4.77867 113.401 4.416 113.462 4.112 113.585C3.808 113.702 3.576 113.87 3.416 114.089C3.25067 114.307 3.168 114.558 3.168 114.841C3.168 115.123 3.25067 115.374 3.416 115.593C3.576 115.811 3.808 115.982 4.112 116.105C4.416 116.222 4.77867 116.281 5.2 116.281C5.62133 116.281 5.984 116.222 6.288 116.105C6.592 115.982 6.82667 115.811 6.992 115.593C7.152 115.374 7.232 115.123 7.232 114.841ZM8.864 112.175L1.8 110.167V109.231L8.864 111.239V112.175ZM8.096 106.387C8.096 106.894 7.976 107.329 7.736 107.691C7.49067 108.054 7.152 108.334 6.72 108.531C6.28267 108.723 5.776 108.819 5.2 108.819C4.624 108.819 4.12 108.723 3.688 108.531C3.25067 108.334 2.912 108.054 2.672 107.691C2.42667 107.329 2.304 106.894 2.304 106.387C2.304 105.886 2.42667 105.457 2.672 105.099C2.912 104.737 3.25067 104.459 3.688 104.267C4.12 104.07 4.624 103.971 5.2 103.971C5.776 103.971 6.28267 104.07 6.72 104.267C7.152 104.459 7.49067 104.737 7.736 105.099C7.976 105.457 8.096 105.886 8.096 106.387ZM7.232 106.395C7.232 106.113 7.152 105.862 6.992 105.643C6.82667 105.425 6.592 105.257 6.288 105.139C5.984 105.017 5.62133 104.955 5.2 104.955C4.77867 104.955 4.416 105.017 4.112 105.139C3.808 105.257 3.576 105.425 3.416 105.643C3.25067 105.862 3.168 106.113 3.168 106.395C3.168 106.678 3.25067 106.929 3.416 107.147C3.576 107.366 3.808 107.537 4.112 107.659C4.416 107.777 4.77867 107.835 5.2 107.835C5.62133 107.835 5.984 107.777 6.288 107.659C6.592 107.537 6.82667 107.366 6.992 107.147C7.152 106.929 7.232 106.678 7.232 106.395ZM8 102.21L2.4 99.0336V98.0896L8 101.266V102.21ZM8.096 98.3456C8.096 98.5962 8.04 98.8256 7.928 99.0336C7.81067 99.2362 7.648 99.3989 7.44 99.5216C7.22667 99.6442 6.976 99.7056 6.688 99.7056C6.39467 99.7056 6.144 99.6442 5.936 99.5216C5.728 99.3989 5.568 99.2362 5.456 99.0336C5.33867 98.8256 5.28 98.5962 5.28 98.3456C5.28 98.0842 5.33867 97.8549 5.456 97.6576C5.568 97.4549 5.728 97.2949 5.936 97.1776C6.144 97.0549 6.39467 96.9936 6.688 96.9936C6.976 96.9936 7.22667 97.0549 7.44 97.1776C7.648 97.2949 7.81067 97.4549 7.928 97.6576C8.04 97.8602 8.096 98.0896 8.096 98.3456ZM7.424 98.3536C7.424 98.2416 7.39733 98.1402 7.344 98.0496C7.28533 97.9589 7.20267 97.8869 7.096 97.8336C6.984 97.7802 6.848 97.7536 6.688 97.7536C6.52267 97.7536 6.38667 97.7802 6.28 97.8336C6.17333 97.8869 6.09333 97.9589 6.04 98.0496C5.98133 98.1349 5.952 98.2336 5.952 98.3456C5.952 98.4522 5.98133 98.5509 6.04 98.6416C6.09333 98.7322 6.17333 98.8042 6.28 98.8576C6.38667 98.9109 6.52267 98.9376 6.688 98.9376C6.848 98.9376 6.984 98.9109 7.096 98.8576C7.20267 98.8042 7.28533 98.7349 7.344 98.6496C7.39733 98.5589 7.424 98.4602 7.424 98.3536ZM5.12 101.906C5.12 102.162 5.064 102.394 4.952 102.602C4.84 102.804 4.67733 102.967 4.464 103.09C4.25067 103.207 4 103.266 3.712 103.266C3.424 103.266 3.176 103.207 2.968 103.09C2.75467 102.967 2.592 102.802 2.48 102.594C2.368 102.386 2.312 102.156 2.312 101.906C2.312 101.65 2.368 101.42 2.48 101.218C2.592 101.015 2.75467 100.855 2.968 100.738C3.176 100.615 3.424 100.554 3.712 100.554C4 100.554 4.25067 100.615 4.464 100.738C4.67733 100.855 4.84 101.015 4.952 101.218C5.064 101.42 5.12 101.65 5.12 101.906ZM4.448 101.914C4.448 101.802 4.42133 101.7 4.368 101.61C4.30933 101.519 4.22667 101.45 4.12 101.402C4.008 101.348 3.872 101.322 3.712 101.322C3.552 101.322 3.416 101.348 3.304 101.402C3.192 101.45 3.10933 101.519 3.056 101.61C2.99733 101.7 2.968 101.799 2.968 101.906C2.968 102.012 2.99733 102.114 3.056 102.21C3.10933 102.3 3.192 102.372 3.304 102.426C3.416 102.479 3.552 102.506 3.712 102.506C3.872 102.506 4.008 102.479 4.12 102.426C4.22667 102.372 4.30933 102.3 4.368 102.21C4.42133 102.119 4.448 102.02 4.448 101.914Z" fill="#9F9F9F"/>
<path d="M32.5337 43.3367L29.3489 40.1519L28.8284 41.0343L28.3023 40.5083L28.8454 39.1054L29.2697 38.6811L33.2295 42.6409L32.5337 43.3367ZM33.929 41.9414L33.4368 41.4492C33.4896 40.9967 33.5311 40.5555 33.5613 40.1255C33.5914 39.6956 33.6009 39.2902 33.5896 38.9093C33.5782 38.5284 33.5311 38.1909 33.4481 37.8967C33.3652 37.6026 33.2369 37.3688 33.0635 37.1953C32.9503 37.0821 32.824 36.9973 32.6845 36.9407C32.5449 36.8842 32.3997 36.871 32.2489 36.9011C32.1018 36.9275 31.9547 37.0143 31.8076 37.1613C31.6643 37.3046 31.5738 37.4593 31.5361 37.6252C31.5022 37.7874 31.5154 37.9476 31.5757 38.106C31.6323 38.2607 31.7284 38.4058 31.8642 38.5416L31.208 39.1978C30.9289 38.9037 30.7517 38.602 30.6763 38.2927C30.6008 37.9835 30.6159 37.6818 30.7215 37.3876C30.8234 37.0897 30.9987 36.8163 31.2476 36.5674C31.5154 36.2996 31.7926 36.1205 32.0792 36.03C32.3658 35.9395 32.6486 35.9319 32.9277 36.0073C33.2068 36.0828 33.467 36.2412 33.7083 36.4825C33.8856 36.6598 34.027 36.8691 34.1326 37.1104C34.2382 37.3442 34.3136 37.6007 34.3589 37.8798C34.4004 38.1551 34.423 38.4417 34.4268 38.7396C34.4305 39.03 34.423 39.3204 34.4041 39.6108C34.3815 39.8974 34.3551 40.1689 34.3249 40.4253L36.0955 38.6548L36.6556 39.2148L33.929 41.9414ZM37.5898 38.3371C37.4616 38.4654 37.3183 38.5295 37.1599 38.5295C37.0015 38.5295 36.8676 38.4748 36.7582 38.3654C36.6413 38.2485 36.5829 38.1109 36.5829 37.9525C36.5829 37.7941 36.647 37.6508 36.7752 37.5225C36.8997 37.3981 37.0411 37.3359 37.1995 37.3359C37.3579 37.3359 37.4955 37.3943 37.6124 37.5112C37.7218 37.6206 37.7765 37.7545 37.7765 37.9129C37.7765 38.0713 37.7142 38.2127 37.5898 38.3371ZM40.0863 35.9198C39.8035 36.2026 39.5093 36.3987 39.2039 36.5081C38.8984 36.6099 38.6005 36.6326 38.3101 36.576C38.0159 36.5157 37.7463 36.3855 37.5011 36.1857L38.163 35.5238C38.3629 35.6558 38.5873 35.7105 38.8362 35.6879C39.0813 35.6615 39.3057 35.5464 39.5093 35.3428C39.6639 35.1882 39.7601 35.0204 39.7978 34.8393C39.8318 34.6545 39.8167 34.4698 39.7526 34.285C39.6885 34.0926 39.5772 33.9173 39.4188 33.7589C39.2566 33.5967 39.0832 33.4873 38.8984 33.4308C38.7174 33.3704 38.5401 33.3629 38.3666 33.4082C38.1894 33.4496 38.0291 33.542 37.8858 33.6853C37.7086 33.8626 37.5973 34.0568 37.552 34.268C37.5068 34.4716 37.5162 34.6621 37.5803 34.8393L36.9241 35.4955L35.0178 32.933L37.2013 30.7494L37.7953 31.3434L36.1209 33.0178L36.9185 34.1775C36.9109 33.9965 36.9505 33.806 37.0373 33.6061C37.1202 33.4025 37.2541 33.2083 37.4389 33.0235C37.6463 32.8161 37.8651 32.669 38.0951 32.5823C38.3252 32.4955 38.5571 32.4597 38.7909 32.4748C39.0247 32.4899 39.251 32.554 39.4697 32.6671C39.6885 32.7727 39.8883 32.916 40.0693 33.097C40.273 33.3007 40.4276 33.5232 40.5332 33.7645C40.635 34.0021 40.6878 34.2473 40.6916 34.4999C40.6991 34.7488 40.652 34.9958 40.5502 35.241C40.4521 35.4823 40.2975 35.7086 40.0863 35.9198ZM42.7064 33.164L40.9923 26.9584L41.6599 26.2909L43.3739 32.4965L42.7064 33.164ZM45.5065 30.4996C45.3293 30.6768 45.1275 30.7994 44.9012 30.8673C44.675 30.9276 44.4449 30.9276 44.2111 30.8673C43.9735 30.8032 43.7529 30.6693 43.5492 30.4657C43.3418 30.2582 43.2079 30.0376 43.1476 29.8038C43.0873 29.57 43.0892 29.3418 43.1533 29.1193C43.2174 28.8893 43.3381 28.6856 43.5153 28.5084C43.7001 28.3236 43.9037 28.2029 44.1262 28.1463C44.3487 28.0822 44.575 28.0822 44.8051 28.1463C45.0389 28.2067 45.2595 28.3406 45.4669 28.548C45.6706 28.7516 45.8044 28.9722 45.8686 29.2098C45.9327 29.4399 45.9345 29.668 45.8742 29.8943C45.8101 30.1168 45.6875 30.3186 45.5065 30.4996ZM45.0257 30.0301C45.1049 29.9509 45.1577 29.8604 45.1841 29.7586C45.2067 29.653 45.1992 29.5436 45.1614 29.4305C45.12 29.3135 45.0427 29.1985 44.9295 29.0854C44.8126 28.9685 44.6976 28.8912 44.5844 28.8535C44.4713 28.8157 44.3638 28.8101 44.262 28.8365C44.1602 28.8553 44.0697 28.9044 43.9905 28.9836C43.9151 29.059 43.866 29.1495 43.8434 29.2551C43.817 29.3569 43.8227 29.4644 43.8604 29.5775C43.8981 29.6907 43.9754 29.8057 44.0923 29.9226C44.2054 30.0357 44.3205 30.113 44.4374 30.1545C44.5505 30.1922 44.658 30.2017 44.7598 30.1828C44.8616 30.1564 44.9503 30.1055 45.0257 30.0301ZM40.8849 30.9126C40.7038 31.0936 40.5002 31.218 40.2739 31.2859C40.0514 31.35 39.8214 31.35 39.5838 31.2859C39.35 31.218 39.1312 31.0823 38.9276 30.8786C38.7239 30.675 38.5901 30.4581 38.526 30.2281C38.4618 29.9905 38.4637 29.7586 38.5316 29.5323C38.5995 29.306 38.7221 29.1042 38.8993 28.927C39.0803 28.746 39.2821 28.6234 39.5046 28.5593C39.7271 28.4952 39.9553 28.4971 40.1891 28.565C40.4229 28.6253 40.6416 28.7573 40.8453 28.9609C41.0489 29.1646 41.1828 29.3852 41.2469 29.6228C41.3148 29.8566 41.3167 30.0848 41.2526 30.3073C41.1884 30.5298 41.0659 30.7315 40.8849 30.9126ZM40.404 30.443C40.4832 30.3638 40.536 30.2733 40.5624 30.1715C40.5851 30.0659 40.5756 29.9584 40.5341 29.8491C40.4927 29.7322 40.4153 29.6171 40.3022 29.504C40.1891 29.3909 40.074 29.3135 39.9571 29.2721C39.844 29.2268 39.7365 29.2174 39.6347 29.2438C39.5291 29.2664 39.4386 29.3154 39.3632 29.3909C39.2877 29.4663 39.2368 29.5587 39.2104 29.668C39.184 29.7699 39.1916 29.8792 39.2331 29.9961C39.2745 30.113 39.3519 30.2281 39.465 30.3412C39.5781 30.4543 39.6932 30.5317 39.8101 30.5731C39.9232 30.6109 40.0326 30.6184 40.1382 30.5958C40.24 30.5694 40.3286 30.5185 40.404 30.443Z" fill="#9F9F9F"/>
<path d="M107.432 8V7.304C107.789 7.02133 108.131 6.73867 108.456 6.456C108.781 6.17333 109.075 5.89333 109.336 5.616C109.597 5.33867 109.803 5.06667 109.952 4.8C110.101 4.53333 110.176 4.27733 110.176 4.032C110.176 3.872 110.147 3.72267 110.088 3.584C110.029 3.44533 109.936 3.33333 109.808 3.248C109.685 3.16267 109.52 3.12 109.312 3.12C109.109 3.12 108.936 3.16533 108.792 3.256C108.653 3.34667 108.549 3.46933 108.48 3.624C108.411 3.77333 108.376 3.944 108.376 4.136H107.448C107.459 3.73067 107.547 3.392 107.712 3.12C107.877 2.848 108.101 2.64533 108.384 2.512C108.667 2.37333 108.984 2.304 109.336 2.304C109.715 2.304 110.037 2.37333 110.304 2.512C110.571 2.65067 110.776 2.84533 110.92 3.096C111.064 3.34667 111.136 3.64267 111.136 3.984C111.136 4.23467 111.088 4.48267 110.992 4.728C110.901 4.968 110.773 5.20267 110.608 5.432C110.443 5.656 110.256 5.87467 110.048 6.088C109.845 6.296 109.635 6.496 109.416 6.688C109.197 6.87467 108.987 7.048 108.784 7.208L111.288 7.208V8H107.432ZM114.153 8.096C113.753 8.096 113.407 8.02667 113.113 7.888C112.825 7.744 112.599 7.54933 112.433 7.304C112.268 7.05333 112.169 6.77067 112.137 6.456H113.073C113.121 6.69067 113.241 6.888 113.433 7.048C113.625 7.20267 113.865 7.28 114.153 7.28C114.372 7.28 114.559 7.22933 114.713 7.128C114.868 7.02133 114.988 6.88 115.073 6.704C115.164 6.52267 115.209 6.32 115.209 6.096C115.209 5.86667 115.164 5.66667 115.073 5.496C114.988 5.32533 114.868 5.19467 114.713 5.104C114.559 5.008 114.38 4.96 114.177 4.96C113.927 4.96 113.711 5.01867 113.529 5.136C113.353 5.248 113.225 5.38933 113.145 5.56H112.217L112.681 2.4L115.769 2.4V3.24H113.401L113.145 4.624C113.268 4.49067 113.431 4.384 113.633 4.304C113.836 4.21867 114.068 4.176 114.329 4.176C114.623 4.176 114.881 4.22667 115.105 4.328C115.329 4.42933 115.519 4.568 115.673 4.744C115.828 4.92 115.943 5.12533 116.017 5.36C116.097 5.58933 116.137 5.832 116.137 6.088C116.137 6.376 116.089 6.64267 115.993 6.888C115.897 7.128 115.761 7.33867 115.585 7.52C115.415 7.70133 115.207 7.84267 114.961 7.944C114.721 8.04533 114.452 8.096 114.153 8.096ZM117.955 8L121.131 2.4H122.075L118.899 8H117.955ZM121.819 8.096C121.568 8.096 121.339 8.04 121.131 7.928C120.928 7.81067 120.765 7.648 120.643 7.44C120.52 7.22667 120.459 6.976 120.459 6.688C120.459 6.39467 120.52 6.144 120.643 5.936C120.765 5.728 120.928 5.568 121.131 5.456C121.339 5.33867 121.568 5.28 121.819 5.28C122.08 5.28 122.309 5.33867 122.507 5.456C122.709 5.568 122.869 5.728 122.987 5.936C123.109 6.144 123.171 6.39467 123.171 6.688C123.171 6.976 123.109 7.22667 122.987 7.44C122.869 7.648 122.709 7.81067 122.507 7.928C122.304 8.04 122.075 8.096 121.819 8.096ZM121.811 7.424C121.923 7.424 122.024 7.39733 122.115 7.344C122.205 7.28533 122.277 7.20267 122.331 7.096C122.384 6.984 122.411 6.848 122.411 6.688C122.411 6.52267 122.384 6.38667 122.331 6.28C122.277 6.17333 122.205 6.09333 122.115 6.04C122.029 5.98133 121.931 5.952 121.819 5.952C121.712 5.952 121.613 5.98133 121.523 6.04C121.432 6.09333 121.36 6.17333 121.307 6.28C121.253 6.38667 121.227 6.52267 121.227 6.688C121.227 6.848 121.253 6.984 121.307 7.096C121.36 7.20267 121.429 7.28533 121.515 7.344C121.605 7.39733 121.704 7.424 121.811 7.424ZM118.259 5.12C118.003 5.12 117.771 5.064 117.563 4.952C117.36 4.84 117.197 4.67733 117.075 4.464C116.957 4.25067 116.899 4 116.899 3.712C116.899 3.424 116.957 3.176 117.075 2.968C117.197 2.75467 117.363 2.592 117.571 2.48C117.779 2.368 118.008 2.312 118.259 2.312C118.515 2.312 118.744 2.368 118.947 2.48C119.149 2.592 119.309 2.75467 119.427 2.968C119.549 3.176 119.611 3.424 119.611 3.712C119.611 4 119.549 4.25067 119.427 4.464C119.309 4.67733 119.149 4.84 118.947 4.952C118.744 5.064 118.515 5.12 118.259 5.12ZM118.251 4.448C118.363 4.448 118.464 4.42133 118.555 4.368C118.645 4.30933 118.715 4.22667 118.763 4.12C118.816 4.008 118.843 3.872 118.843 3.712C118.843 3.552 118.816 3.416 118.763 3.304C118.715 3.192 118.645 3.10933 118.555 3.056C118.464 2.99733 118.365 2.968 118.259 2.968C118.152 2.968 118.051 2.99733 117.955 3.056C117.864 3.10933 117.792 3.192 117.739 3.304C117.685 3.416 117.659 3.552 117.659 3.712C117.659 3.872 117.685 4.008 117.739 4.12C117.792 4.22667 117.864 4.30933 117.955 4.368C118.045 4.42133 118.144 4.448 118.251 4.448Z" fill="#9F9F9F"/>
<path d="M183.739 32.4105C183.483 32.154 183.294 31.875 183.174 31.5733C183.057 31.2678 183.028 30.9567 183.089 30.6399C183.157 30.3231 183.332 30.0157 183.615 29.7178L184.282 30.3853C184.154 30.5211 184.064 30.6719 184.011 30.8379C183.966 31.0038 183.966 31.1735 184.011 31.347C184.06 31.5167 184.162 31.6789 184.316 31.8335C184.463 31.9806 184.616 32.0767 184.775 32.122C184.937 32.171 185.093 32.1729 185.244 32.1276C185.395 32.0824 185.531 31.9994 185.651 31.8787C185.798 31.7317 185.883 31.5752 185.906 31.4092C185.932 31.2395 185.908 31.0679 185.832 30.8944C185.757 30.721 185.64 30.555 185.482 30.3966L185.187 30.1025L185.748 29.5425L186.042 29.8366C186.249 30.044 186.466 30.1666 186.692 30.2043C186.922 30.2382 187.13 30.1628 187.314 29.978C187.469 29.8234 187.543 29.648 187.535 29.4519C187.531 29.2596 187.437 29.0711 187.252 28.8863C187.06 28.6939 186.851 28.5978 186.624 28.5978C186.402 28.6015 186.202 28.6807 186.025 28.8353L185.357 28.1678C185.606 27.9416 185.872 27.7964 186.155 27.7323C186.445 27.6681 186.734 27.6851 187.02 27.7832C187.307 27.8812 187.578 28.0585 187.835 28.3149C188.103 28.5827 188.282 28.8561 188.372 29.1352C188.463 29.4142 188.476 29.6801 188.412 29.9328C188.352 30.1892 188.227 30.4117 188.039 30.6003C187.891 30.7474 187.729 30.853 187.552 30.9171C187.375 30.9812 187.196 31.0057 187.015 30.9906C186.841 30.9755 186.671 30.9227 186.506 30.8322C186.622 31.0095 186.694 31.198 186.72 31.3979C186.751 31.6015 186.73 31.8033 186.658 32.0032C186.594 32.2031 186.473 32.3916 186.296 32.5689C186.081 32.7838 185.829 32.9309 185.538 33.0101C185.255 33.0893 184.957 33.0818 184.644 32.9875C184.335 32.897 184.033 32.7046 183.739 32.4105ZM186.126 34.6612L190.979 32.7605L188.988 30.7692L189.571 30.1866L192.258 32.8736L191.771 33.3601L186.833 35.3683L186.126 34.6612ZM188.793 37.3853C188.665 37.2571 188.601 37.1138 188.601 36.9554C188.601 36.797 188.656 36.6631 188.765 36.5537C188.882 36.4368 189.02 36.3784 189.178 36.3784C189.336 36.3784 189.48 36.4425 189.608 36.5707C189.732 36.6952 189.795 36.8366 189.795 36.995C189.795 37.1534 189.736 37.291 189.619 37.4079C189.51 37.5173 189.376 37.572 189.218 37.572C189.059 37.572 188.918 37.5097 188.793 37.3853ZM191.211 39.8818C190.928 39.599 190.732 39.3048 190.622 38.9993C190.521 38.6939 190.498 38.3959 190.554 38.1056C190.615 37.8114 190.745 37.5418 190.945 37.2966L191.607 37.9585C191.475 38.1584 191.42 38.3827 191.443 38.6317C191.469 38.8768 191.584 39.1012 191.788 39.3048C191.942 39.4594 192.11 39.5556 192.291 39.5933C192.476 39.6273 192.661 39.6122 192.845 39.5481C193.038 39.484 193.213 39.3727 193.372 39.2143C193.534 39.0521 193.643 38.8787 193.7 38.6939C193.76 38.5129 193.768 38.3356 193.722 38.1621C193.681 37.9849 193.588 37.8246 193.445 37.6813C193.268 37.5041 193.074 37.3928 192.862 37.3475C192.659 37.3023 192.468 37.3117 192.291 37.3758L191.635 36.7196L194.197 34.8133L196.381 36.9968L195.787 37.5908L194.113 35.9164L192.953 36.714C193.134 36.7064 193.324 36.746 193.524 36.8328C193.728 36.9157 193.922 37.0496 194.107 37.2344C194.314 37.4418 194.461 37.6606 194.548 37.8906C194.635 38.1206 194.671 38.3526 194.656 38.5864C194.641 38.8202 194.576 39.0465 194.463 39.2652C194.358 39.484 194.214 39.6838 194.033 39.8648C193.83 40.0685 193.607 40.2231 193.366 40.3287C193.128 40.4305 192.883 40.4833 192.631 40.4871C192.382 40.4946 192.135 40.4475 191.889 40.3457C191.648 40.2476 191.422 40.093 191.211 39.8818ZM193.966 42.5019L200.172 40.7878L200.84 41.4553L194.634 43.1694L193.966 42.5019ZM196.631 45.302C196.454 45.1248 196.331 44.923 196.263 44.6967C196.203 44.4705 196.203 44.2404 196.263 44.0066C196.327 43.769 196.461 43.5484 196.665 43.3447C196.872 43.1373 197.093 43.0034 197.327 42.9431C197.56 42.8828 197.789 42.8846 198.011 42.9488C198.241 43.0129 198.445 43.1335 198.622 43.3108C198.807 43.4956 198.928 43.6992 198.984 43.9217C199.048 44.1442 199.048 44.3705 198.984 44.6006C198.924 44.8344 198.79 45.055 198.582 45.2624C198.379 45.4661 198.158 45.5999 197.921 45.664C197.691 45.7282 197.462 45.73 197.236 45.6697C197.014 45.6056 196.812 45.483 196.631 45.302ZM197.1 44.8212C197.18 44.9004 197.27 44.9532 197.372 44.9796C197.477 45.0022 197.587 44.9947 197.7 44.9569C197.817 44.9155 197.932 44.8381 198.045 44.725C198.162 44.6081 198.239 44.4931 198.277 44.3799C198.315 44.2668 198.32 44.1593 198.294 44.0575C198.275 43.9557 198.226 43.8652 198.147 43.786C198.071 43.7105 197.981 43.6615 197.875 43.6389C197.774 43.6125 197.666 43.6182 197.553 43.6559C197.44 43.6936 197.325 43.7709 197.208 43.8878C197.095 44.0009 197.017 44.116 196.976 44.2329C196.938 44.346 196.929 44.4535 196.948 44.5553C196.974 44.6571 197.025 44.7458 197.1 44.8212ZM196.218 40.6804C196.037 40.4993 195.912 40.2957 195.845 40.0694C195.78 39.8469 195.78 39.6169 195.845 39.3793C195.912 39.1455 196.048 38.9267 196.252 38.7231C196.455 38.5194 196.672 38.3856 196.902 38.3215C197.14 38.2573 197.372 38.2592 197.598 38.3271C197.824 38.395 198.026 38.5176 198.203 38.6948C198.384 38.8758 198.507 39.0776 198.571 39.3001C198.635 39.5226 198.633 39.7508 198.566 39.9846C198.505 40.2184 198.373 40.4371 198.17 40.6408C197.966 40.8444 197.745 40.9783 197.508 41.0424C197.274 41.1103 197.046 41.1122 196.823 41.0481C196.601 40.9839 196.399 40.8614 196.218 40.6804ZM196.687 40.1995C196.767 40.2787 196.857 40.3315 196.959 40.3579C197.065 40.3805 197.172 40.3711 197.281 40.3296C197.398 40.2882 197.513 40.2108 197.626 40.0977C197.74 39.9846 197.817 39.8695 197.858 39.7526C197.904 39.6395 197.913 39.532 197.887 39.4302C197.864 39.3246 197.815 39.2341 197.74 39.1587C197.664 39.0832 197.572 39.0323 197.462 39.0059C197.361 38.9795 197.251 38.9871 197.134 39.0286C197.017 39.07 196.902 39.1474 196.789 39.2605C196.676 39.3736 196.599 39.4886 196.557 39.6056C196.52 39.7187 196.512 39.8281 196.535 39.9337C196.561 40.0355 196.612 40.1241 196.687 40.1995Z" fill="#9F9F9F"/>
<path d="M216.904 105.536C216.904 105.136 216.973 104.789 217.112 104.496C217.256 104.208 217.451 103.981 217.696 103.816C217.947 103.651 218.229 103.552 218.544 103.52V104.456C218.309 104.504 218.112 104.624 217.952 104.816C217.797 105.008 217.72 105.248 217.72 105.536C217.72 105.755 217.771 105.941 217.872 106.096C217.979 106.251 218.12 106.371 218.296 106.456C218.477 106.547 218.68 106.592 218.904 106.592C219.133 106.592 219.333 106.547 219.504 106.456C219.675 106.371 219.805 106.251 219.896 106.096C219.992 105.941 220.04 105.763 220.04 105.56C220.04 105.309 219.981 105.093 219.864 104.912C219.752 104.736 219.611 104.608 219.44 104.528V103.6L222.6 104.064V107.152H221.76V104.784L220.376 104.528C220.509 104.651 220.616 104.813 220.696 105.016C220.781 105.219 220.824 105.451 220.824 105.712C220.824 106.005 220.773 106.264 220.672 106.488C220.571 106.712 220.432 106.901 220.256 107.056C220.08 107.211 219.875 107.325 219.64 107.4C219.411 107.48 219.168 107.52 218.912 107.52C218.624 107.52 218.357 107.472 218.112 107.376C217.872 107.28 217.661 107.144 217.48 106.968C217.299 106.797 217.157 106.589 217.056 106.344C216.955 106.104 216.904 105.835 216.904 105.536ZM216.904 110.745C216.904 110.239 217.024 109.804 217.264 109.441C217.509 109.079 217.848 108.799 218.28 108.601C218.717 108.409 219.224 108.313 219.8 108.313C220.376 108.313 220.88 108.409 221.312 108.601C221.749 108.799 222.088 109.079 222.328 109.441C222.573 109.804 222.696 110.239 222.696 110.745C222.696 111.247 222.573 111.676 222.328 112.033C222.088 112.396 221.749 112.673 221.312 112.865C220.88 113.063 220.376 113.161 219.8 113.161C219.224 113.161 218.717 113.063 218.28 112.865C217.848 112.673 217.509 112.396 217.264 112.033C217.024 111.676 216.904 111.247 216.904 110.745ZM217.768 110.737C217.768 111.02 217.848 111.271 218.008 111.489C218.173 111.708 218.408 111.876 218.712 111.993C219.016 112.116 219.379 112.177 219.8 112.177C220.221 112.177 220.584 112.116 220.888 111.993C221.192 111.876 221.424 111.708 221.584 111.489C221.749 111.271 221.832 111.02 221.832 110.737C221.832 110.455 221.749 110.204 221.584 109.985C221.424 109.767 221.192 109.596 220.888 109.473C220.584 109.356 220.221 109.297 219.8 109.297C219.379 109.297 219.016 109.356 218.712 109.473C218.408 109.596 218.173 109.767 218.008 109.985C217.848 110.204 217.768 110.455 217.768 110.737ZM217 114.923L222.6 118.099V119.043L217 115.867V114.923ZM216.904 118.787C216.904 118.537 216.96 118.307 217.072 118.099C217.189 117.897 217.352 117.734 217.56 117.611C217.773 117.489 218.024 117.427 218.312 117.427C218.605 117.427 218.856 117.489 219.064 117.611C219.272 117.734 219.432 117.897 219.544 118.099C219.661 118.307 219.72 118.537 219.72 118.787C219.72 119.049 219.661 119.278 219.544 119.475C219.432 119.678 219.272 119.838 219.064 119.955C218.856 120.078 218.605 120.139 218.312 120.139C218.024 120.139 217.773 120.078 217.56 119.955C217.352 119.838 217.189 119.678 217.072 119.475C216.96 119.273 216.904 119.043 216.904 118.787ZM217.576 118.779C217.576 118.891 217.603 118.993 217.656 119.083C217.715 119.174 217.797 119.246 217.904 119.299C218.016 119.353 218.152 119.379 218.312 119.379C218.477 119.379 218.613 119.353 218.72 119.299C218.827 119.246 218.907 119.174 218.96 119.083C219.019 118.998 219.048 118.899 219.048 118.787C219.048 118.681 219.019 118.582 218.96 118.491C218.907 118.401 218.827 118.329 218.72 118.275C218.613 118.222 218.477 118.195 218.312 118.195C218.152 118.195 218.016 118.222 217.904 118.275C217.797 118.329 217.715 118.398 217.656 118.483C217.603 118.574 217.576 118.673 217.576 118.779ZM219.88 115.227C219.88 114.971 219.936 114.739 220.048 114.531C220.16 114.329 220.323 114.166 220.536 114.043C220.749 113.926 221 113.867 221.288 113.867C221.576 113.867 221.824 113.926 222.032 114.043C222.245 114.166 222.408 114.331 222.52 114.539C222.632 114.747 222.688 114.977 222.688 115.227C222.688 115.483 222.632 115.713 222.52 115.915C222.408 116.118 222.245 116.278 222.032 116.395C221.824 116.518 221.576 116.579 221.288 116.579C221 116.579 220.749 116.518 220.536 116.395C220.323 116.278 220.16 116.118 220.048 115.915C219.936 115.713 219.88 115.483 219.88 115.227ZM220.552 115.219C220.552 115.331 220.579 115.433 220.632 115.523C220.691 115.614 220.773 115.683 220.88 115.731C220.992 115.785 221.128 115.811 221.288 115.811C221.448 115.811 221.584 115.785 221.696 115.731C221.808 115.683 221.891 115.614 221.944 115.523C222.003 115.433 222.032 115.334 222.032 115.227C222.032 115.121 222.003 115.019 221.944 114.923C221.891 114.833 221.808 114.761 221.696 114.707C221.584 114.654 221.448 114.627 221.288 114.627C221.128 114.627 220.992 114.654 220.88 114.707C220.773 114.761 220.691 114.833 220.632 114.923C220.579 115.014 220.552 115.113 220.552 115.219Z" fill="#9F9F9F"/>
<path d="M196.157 179.92C196.451 179.626 196.754 179.432 197.067 179.338C197.377 179.247 197.682 179.232 197.984 179.292C198.289 179.357 198.583 179.473 198.866 179.643C199.149 179.813 199.409 180.017 199.647 180.254C200.088 180.695 200.409 181.14 200.608 181.589C200.812 182.042 200.889 182.473 200.84 182.885C200.788 183.299 200.597 183.671 200.269 183.999C199.998 184.27 199.717 184.446 199.426 184.525C199.136 184.612 198.853 184.623 198.578 184.559C198.302 184.495 198.053 184.374 197.831 184.197L198.465 183.563C198.676 183.707 198.889 183.765 199.104 183.739C199.319 183.72 199.52 183.616 199.709 183.428C199.879 183.258 199.977 183.054 200.003 182.817C200.03 182.579 199.975 182.317 199.839 182.03C199.703 181.744 199.479 181.433 199.166 181.097C199.158 181.089 199.151 181.082 199.143 181.074C199.14 181.071 199.134 181.065 199.126 181.057C199.175 181.227 199.191 181.404 199.172 181.589C199.157 181.778 199.108 181.962 199.025 182.143C198.938 182.328 198.817 182.498 198.663 182.653C198.44 182.875 198.182 183.028 197.888 183.111C197.593 183.201 197.292 183.209 196.982 183.133C196.669 183.062 196.383 182.896 196.123 182.636C195.885 182.398 195.721 182.121 195.63 181.804C195.54 181.487 195.536 181.163 195.619 180.831C195.702 180.499 195.881 180.196 196.157 179.92ZM196.779 180.463C196.632 180.61 196.534 180.773 196.485 180.95C196.436 181.127 196.434 181.303 196.479 181.476C196.52 181.653 196.611 181.812 196.751 181.951C196.898 182.098 197.06 182.193 197.237 182.234C197.41 182.279 197.586 182.274 197.763 182.217C197.937 182.164 198.097 182.064 198.244 181.917C198.387 181.774 198.485 181.612 198.538 181.431C198.591 181.257 198.597 181.082 198.555 180.905C198.514 180.727 198.423 180.569 198.284 180.429C198.14 180.286 197.98 180.194 197.803 180.152C197.625 180.111 197.448 180.115 197.271 180.164C197.09 180.216 196.926 180.316 196.779 180.463ZM194.294 181.918L194.787 182.41C194.734 182.863 194.692 183.304 194.662 183.734C194.632 184.164 194.622 184.569 194.634 184.95C194.645 185.331 194.692 185.669 194.775 185.963C194.858 186.257 194.986 186.491 195.16 186.664C195.273 186.778 195.399 186.862 195.539 186.919C195.678 186.976 195.824 186.989 195.974 186.959C196.122 186.932 196.269 186.845 196.416 186.698C196.559 186.555 196.65 186.4 196.687 186.234C196.721 186.072 196.708 185.912 196.648 185.754C196.591 185.599 196.495 185.454 196.359 185.318L197.015 184.662C197.294 184.956 197.472 185.258 197.547 185.567C197.622 185.876 197.607 186.178 197.502 186.472C197.4 186.77 197.225 187.043 196.976 187.292C196.708 187.56 196.431 187.739 196.144 187.83C195.858 187.92 195.575 187.928 195.296 187.852C195.017 187.777 194.756 187.619 194.515 187.377C194.338 187.2 194.196 186.991 194.091 186.749C193.985 186.515 193.91 186.259 193.864 185.98C193.823 185.705 193.8 185.418 193.797 185.12C193.793 184.83 193.8 184.539 193.819 184.249C193.842 183.962 193.868 183.691 193.898 183.434L192.128 185.205L191.568 184.645L194.294 181.918ZM190.634 185.523C190.762 185.394 190.905 185.33 191.063 185.33C191.222 185.33 191.356 185.385 191.465 185.494C191.582 185.611 191.64 185.749 191.64 185.907C191.64 186.066 191.576 186.209 191.448 186.337C191.324 186.462 191.182 186.524 191.024 186.524C190.865 186.524 190.728 186.465 190.611 186.348C190.502 186.239 190.447 186.105 190.447 185.947C190.447 185.788 190.509 185.647 190.634 185.523ZM188.137 187.94C188.42 187.657 188.714 187.461 189.019 187.352C189.325 187.25 189.623 187.227 189.913 187.284C190.207 187.344 190.477 187.474 190.722 187.674L190.06 188.336C189.86 188.204 189.636 188.149 189.387 188.172C189.142 188.198 188.918 188.313 188.714 188.517C188.559 188.671 188.463 188.839 188.426 189.02C188.392 189.205 188.407 189.39 188.471 189.575C188.535 189.767 188.646 189.942 188.805 190.101C188.967 190.263 189.14 190.372 189.325 190.429C189.506 190.489 189.683 190.497 189.857 190.452C190.034 190.41 190.194 190.318 190.338 190.174C190.515 189.997 190.626 189.803 190.671 189.592C190.717 189.388 190.707 189.198 190.643 189.02L191.299 188.364L193.206 190.927L191.022 193.11L190.428 192.516L192.102 190.842L191.305 189.682C191.312 189.863 191.273 190.054 191.186 190.254C191.103 190.457 190.969 190.651 190.784 190.836C190.577 191.044 190.358 191.191 190.128 191.277C189.898 191.364 189.666 191.4 189.432 191.385C189.199 191.37 188.972 191.306 188.754 191.193C188.535 191.087 188.335 190.944 188.154 190.763C187.95 190.559 187.796 190.336 187.69 190.095C187.588 189.858 187.536 189.612 187.532 189.36C187.524 189.111 187.571 188.864 187.673 188.619C187.771 188.377 187.926 188.151 188.137 187.94ZM185.517 190.696L187.231 196.901L186.563 197.569L184.849 191.363L185.517 190.696ZM182.717 193.36C182.894 193.183 183.096 193.06 183.322 192.992C183.548 192.932 183.778 192.932 184.012 192.992C184.25 193.056 184.47 193.19 184.674 193.394C184.882 193.601 185.015 193.822 185.076 194.056C185.136 194.29 185.134 194.518 185.07 194.74C185.006 194.97 184.885 195.174 184.708 195.351C184.523 195.536 184.32 195.657 184.097 195.713C183.875 195.777 183.648 195.777 183.418 195.713C183.184 195.653 182.964 195.519 182.756 195.312C182.553 195.108 182.419 194.887 182.355 194.65C182.291 194.42 182.289 194.192 182.349 193.965C182.413 193.743 182.536 193.541 182.717 193.36ZM183.198 193.83C183.118 193.909 183.066 193.999 183.039 194.101C183.017 194.207 183.024 194.316 183.062 194.429C183.103 194.546 183.181 194.661 183.294 194.774C183.411 194.891 183.526 194.968 183.639 195.006C183.752 195.044 183.86 195.05 183.961 195.023C184.063 195.004 184.154 194.955 184.233 194.876C184.308 194.801 184.357 194.71 184.38 194.605C184.406 194.503 184.401 194.395 184.363 194.282C184.325 194.169 184.248 194.054 184.131 193.937C184.018 193.824 183.903 193.747 183.786 193.705C183.673 193.667 183.565 193.658 183.464 193.677C183.362 193.703 183.273 193.754 183.198 193.83ZM187.338 192.947C187.52 192.766 187.723 192.642 187.949 192.574C188.172 192.51 188.402 192.51 188.64 192.574C188.873 192.642 189.092 192.777 189.296 192.981C189.499 193.185 189.633 193.402 189.697 193.632C189.762 193.869 189.76 194.101 189.692 194.327C189.624 194.554 189.501 194.755 189.324 194.933C189.143 195.114 188.941 195.236 188.719 195.3C188.496 195.364 188.268 195.363 188.034 195.295C187.8 195.234 187.582 195.102 187.378 194.899C187.174 194.695 187.041 194.474 186.976 194.237C186.909 194.003 186.907 193.775 186.971 193.552C187.035 193.33 187.157 193.128 187.338 192.947ZM187.819 193.417C187.74 193.496 187.687 193.586 187.661 193.688C187.638 193.794 187.648 193.901 187.689 194.011C187.731 194.128 187.808 194.243 187.921 194.356C188.034 194.469 188.149 194.546 188.266 194.588C188.379 194.633 188.487 194.642 188.589 194.616C188.694 194.593 188.785 194.544 188.86 194.469C188.936 194.393 188.987 194.301 189.013 194.192C189.039 194.09 189.032 193.98 188.99 193.864C188.949 193.747 188.871 193.632 188.758 193.518C188.645 193.405 188.53 193.328 188.413 193.287C188.3 193.249 188.191 193.241 188.085 193.264C187.983 193.29 187.895 193.341 187.819 193.417Z" fill="#9F9F9F"/>
<path d="M123.048 218L120.96 222.776H123.776V223.6H119.976V222.912L122.048 218H123.048ZM117.378 217.904C117.778 217.904 118.125 217.973 118.418 218.112C118.706 218.256 118.933 218.451 119.098 218.696C119.263 218.947 119.362 219.229 119.394 219.544H118.458C118.41 219.309 118.29 219.112 118.098 218.952C117.906 218.797 117.666 218.72 117.378 218.72C117.159 218.72 116.973 218.771 116.818 218.872C116.663 218.979 116.543 219.12 116.458 219.296C116.367 219.477 116.322 219.68 116.322 219.904C116.322 220.133 116.367 220.333 116.458 220.504C116.543 220.675 116.663 220.805 116.818 220.896C116.973 220.992 117.151 221.04 117.354 221.04C117.605 221.04 117.821 220.981 118.002 220.864C118.178 220.752 118.306 220.611 118.386 220.44H119.314L118.85 223.6H115.762V222.76H118.13L118.386 221.376C118.263 221.509 118.101 221.616 117.898 221.696C117.695 221.781 117.463 221.824 117.202 221.824C116.909 221.824 116.65 221.773 116.426 221.672C116.202 221.571 116.013 221.432 115.858 221.256C115.703 221.08 115.589 220.875 115.514 220.64C115.434 220.411 115.394 220.168 115.394 219.912C115.394 219.624 115.442 219.357 115.538 219.112C115.634 218.872 115.77 218.661 115.946 218.48C116.117 218.299 116.325 218.157 116.57 218.056C116.81 217.955 117.079 217.904 117.378 217.904ZM113.577 218L110.401 223.6H109.457L112.633 218H113.577ZM109.713 217.904C109.963 217.904 110.193 217.96 110.401 218.072C110.603 218.189 110.766 218.352 110.889 218.56C111.011 218.773 111.073 219.024 111.073 219.312C111.073 219.605 111.011 219.856 110.889 220.064C110.766 220.272 110.603 220.432 110.401 220.544C110.193 220.661 109.963 220.72 109.713 220.72C109.451 220.72 109.222 220.661 109.025 220.544C108.822 220.432 108.662 220.272 108.545 220.064C108.422 219.856 108.361 219.605 108.361 219.312C108.361 219.024 108.422 218.773 108.545 218.56C108.662 218.352 108.822 218.189 109.025 218.072C109.227 217.96 109.457 217.904 109.713 217.904ZM109.721 218.576C109.609 218.576 109.507 218.603 109.417 218.656C109.326 218.715 109.254 218.797 109.201 218.904C109.147 219.016 109.121 219.152 109.121 219.312C109.121 219.477 109.147 219.613 109.201 219.72C109.254 219.827 109.326 219.907 109.417 219.96C109.502 220.019 109.601 220.048 109.713 220.048C109.819 220.048 109.918 220.019 110.009 219.96C110.099 219.907 110.171 219.827 110.225 219.72C110.278 219.613 110.305 219.477 110.305 219.312C110.305 219.152 110.278 219.016 110.225 218.904C110.171 218.797 110.102 218.715 110.017 218.656C109.926 218.603 109.827 218.576 109.721 218.576ZM113.273 220.88C113.529 220.88 113.761 220.936 113.969 221.048C114.171 221.16 114.334 221.323 114.457 221.536C114.574 221.749 114.633 222 114.633 222.288C114.633 222.576 114.574 222.824 114.457 223.032C114.334 223.245 114.169 223.408 113.961 223.52C113.753 223.632 113.523 223.688 113.273 223.688C113.017 223.688 112.787 223.632 112.585 223.52C112.382 223.408 112.222 223.245 112.105 223.032C111.982 222.824 111.921 222.576 111.921 222.288C111.921 222 111.982 221.749 112.105 221.536C112.222 221.323 112.382 221.16 112.585 221.048C112.787 220.936 113.017 220.88 113.273 220.88ZM113.281 221.552C113.169 221.552 113.067 221.579 112.977 221.632C112.886 221.691 112.817 221.773 112.769 221.88C112.715 221.992 112.689 222.128 112.689 222.288C112.689 222.448 112.715 222.584 112.769 222.696C112.817 222.808 112.886 222.891 112.977 222.944C113.067 223.003 113.166 223.032 113.273 223.032C113.379 223.032 113.481 223.003 113.577 222.944C113.667 222.891 113.739 222.808 113.793 222.696C113.846 222.584 113.873 222.448 113.873 222.288C113.873 222.128 113.846 221.992 113.793 221.88C113.739 221.773 113.667 221.691 113.577 221.632C113.486 221.579 113.387 221.552 113.281 221.552Z" fill="#9F9F9F"/>
<path d="M44.2178 191.546C44.4856 191.814 44.6798 192.102 44.8005 192.412C44.9174 192.725 44.9532 193.032 44.9079 193.334C44.8552 193.635 44.71 193.905 44.4724 194.143C44.314 194.301 44.1386 194.42 43.9463 194.499C43.754 194.578 43.556 194.614 43.3523 194.607C43.1449 194.603 42.9469 194.556 42.7583 194.465C42.8602 194.733 42.8922 194.995 42.8545 195.251C42.8093 195.508 42.6942 195.728 42.5094 195.913C42.3171 196.106 42.0908 196.23 41.8306 196.287C41.5704 196.343 41.2932 196.322 40.9991 196.224C40.7011 196.123 40.4089 195.928 40.1223 195.642C39.8356 195.355 39.6433 195.065 39.5453 194.771C39.4472 194.476 39.4265 194.199 39.483 193.939C39.5396 193.679 39.664 193.453 39.8564 193.26C40.0374 193.079 40.2599 192.966 40.5239 192.921C40.7803 192.876 41.0405 192.906 41.3045 193.011C41.2103 192.819 41.1631 192.621 41.1631 192.417C41.1593 192.21 41.1971 192.01 41.2762 191.818C41.3479 191.625 41.4629 191.45 41.6213 191.292C41.8589 191.054 42.1304 190.911 42.4359 190.862C42.7376 190.816 43.045 190.852 43.358 190.969C43.6634 191.086 43.9501 191.278 44.2178 191.546ZM43.6465 192.118C43.3976 191.869 43.1506 191.742 42.9054 191.739C42.6527 191.735 42.4321 191.827 42.2436 192.016C42.0324 192.227 41.9381 192.457 41.9607 192.706C41.9758 192.955 42.1003 193.196 42.3341 193.43C42.5679 193.664 42.813 193.792 43.0695 193.815C43.3184 193.837 43.5484 193.743 43.7596 193.532C43.9482 193.343 44.0406 193.123 44.0368 192.87C44.0255 192.617 43.8954 192.366 43.6465 192.118ZM41.8193 193.945C41.6157 193.741 41.4045 193.635 41.1857 193.628C40.9595 193.62 40.7652 193.698 40.6031 193.86C40.4183 194.045 40.3353 194.244 40.3542 194.459C40.3655 194.674 40.473 194.884 40.6766 195.087C40.8803 195.291 41.0915 195.4 41.3102 195.415C41.5214 195.431 41.7194 195.346 41.9042 195.161C42.0701 194.995 42.1493 194.803 42.1417 194.584C42.1304 194.361 42.023 194.148 41.8193 193.945ZM41.8002 189.264L36.9466 191.165L38.9378 193.156L38.3552 193.739L35.6682 191.052L36.1547 190.565L41.0931 188.557L41.8002 189.264ZM39.1327 186.54C39.2609 186.668 39.325 186.812 39.325 186.97C39.325 187.129 39.2703 187.262 39.1609 187.372C39.044 187.489 38.9064 187.547 38.748 187.547C38.5896 187.547 38.4463 187.483 38.3181 187.355C38.1936 187.23 38.1314 187.089 38.1314 186.931C38.1314 186.772 38.1898 186.634 38.3068 186.518C38.4161 186.408 38.55 186.354 38.7084 186.354C38.8668 186.354 39.0082 186.416 39.1327 186.54ZM36.7153 184.044C36.9982 184.327 37.1943 184.621 37.3036 184.926C37.4055 185.232 37.4281 185.53 37.3715 185.82C37.3112 186.114 37.1811 186.384 36.9812 186.629L36.3193 185.967C36.4513 185.767 36.506 185.543 36.4834 185.294C36.457 185.049 36.342 184.824 36.1383 184.621C35.9837 184.466 35.8159 184.37 35.6349 184.332C35.4501 184.298 35.2653 184.313 35.0805 184.377C34.8882 184.442 34.7128 184.553 34.5544 184.711C34.3922 184.873 34.2829 185.047 34.2263 185.232C34.166 185.413 34.1584 185.59 34.2037 185.763C34.2452 185.941 34.3376 186.101 34.4809 186.244C34.6581 186.421 34.8523 186.533 35.0635 186.578C35.2672 186.623 35.4576 186.614 35.6349 186.55L36.2911 187.206L33.7285 189.112L31.545 186.929L32.1389 186.335L33.8134 188.009L34.973 187.212C34.792 187.219 34.6015 187.179 34.4017 187.093C34.198 187.01 34.0038 186.876 33.819 186.691C33.6116 186.484 33.4645 186.265 33.3778 186.035C33.291 185.805 33.2552 185.573 33.2703 185.339C33.2854 185.105 33.3495 184.879 33.4626 184.66C33.5682 184.442 33.7115 184.242 33.8926 184.061C34.0962 183.857 34.3187 183.702 34.5601 183.597C34.7976 183.495 35.0428 183.442 35.2955 183.438C35.5444 183.431 35.7914 183.478 36.0365 183.58C36.2779 183.678 36.5041 183.832 36.7153 184.044ZM33.9595 181.424L27.7539 183.138L27.0864 182.47L33.292 180.756L33.9595 181.424ZM31.2951 178.623C31.4724 178.801 31.5949 179.002 31.6628 179.229C31.7232 179.455 31.7232 179.685 31.6628 179.919C31.5987 180.156 31.4648 180.377 31.2612 180.581C31.0538 180.788 30.8331 180.922 30.5993 180.982C30.3655 181.043 30.1374 181.041 29.9149 180.977C29.6848 180.913 29.4812 180.792 29.3039 180.615C29.1191 180.43 28.9984 180.226 28.9419 180.004C28.8778 179.781 28.8778 179.555 28.9419 179.325C29.0022 179.091 29.1361 178.871 29.3435 178.663C29.5472 178.459 29.7678 178.326 30.0054 178.261C30.2354 178.197 30.4636 178.195 30.6898 178.256C30.9123 178.32 31.1141 178.442 31.2951 178.623ZM30.8256 179.104C30.7464 179.025 30.6559 178.972 30.5541 178.946C30.4485 178.923 30.3391 178.931 30.226 178.969C30.1091 179.01 29.994 179.087 29.8809 179.2C29.764 179.317 29.6867 179.432 29.649 179.546C29.6113 179.659 29.6056 179.766 29.632 179.868C29.6509 179.97 29.6999 180.06 29.7791 180.14C29.8545 180.215 29.945 180.264 30.0506 180.287C30.1524 180.313 30.2599 180.307 30.3731 180.27C30.4862 180.232 30.6012 180.155 30.7181 180.038C30.8313 179.925 30.9086 179.81 30.9501 179.693C30.9878 179.579 30.9972 179.472 30.9783 179.37C30.9519 179.268 30.901 179.18 30.8256 179.104ZM31.7081 183.245C31.8891 183.426 32.0135 183.63 32.0814 183.856C32.1455 184.079 32.1455 184.309 32.0814 184.546C32.0135 184.78 31.8778 184.999 31.6741 185.202C31.4705 185.406 31.2536 185.54 31.0236 185.604C30.786 185.668 30.5541 185.666 30.3278 185.598C30.1015 185.531 29.8998 185.408 29.7225 185.231C29.5415 185.05 29.4189 184.848 29.3548 184.625C29.2907 184.403 29.2926 184.175 29.3605 183.941C29.4208 183.707 29.5528 183.488 29.7565 183.285C29.9601 183.081 30.1807 182.947 30.4183 182.883C30.6521 182.815 30.8803 182.813 31.1028 182.877C31.3253 182.942 31.5271 183.064 31.7081 183.245ZM31.2386 183.726C31.1594 183.647 31.0689 183.594 30.967 183.568C30.8614 183.545 30.754 183.554 30.6446 183.596C30.5277 183.637 30.4127 183.715 30.2995 183.828C30.1864 183.941 30.1091 184.056 30.0676 184.173C30.0223 184.286 30.0129 184.393 30.0393 184.495C30.0619 184.601 30.111 184.691 30.1864 184.767C30.2618 184.842 30.3542 184.893 30.4636 184.92C30.5654 184.946 30.6748 184.938 30.7917 184.897C30.9086 184.855 31.0236 184.778 31.1367 184.665C31.2499 184.552 31.3272 184.437 31.3687 184.32C31.4064 184.207 31.4139 184.097 31.3913 183.992C31.3649 183.89 31.314 183.801 31.2386 183.726Z" fill="#9F9F9F"/>
<path d="M67.7343 110.072C67.4503 110.072 67.2083 110.018 67.0083 109.91C66.8123 109.798 66.6583 109.652 66.5463 109.472C66.4343 109.288 66.3683 109.092 66.3483 108.884H67.0143C67.0503 109.072 67.1303 109.218 67.2543 109.322C67.3823 109.422 67.5463 109.472 67.7463 109.472C67.9303 109.472 68.0903 109.418 68.2263 109.31C68.3623 109.198 68.4703 109.032 68.5503 108.812C68.6343 108.588 68.6803 108.308 68.6883 107.972C68.6883 107.964 68.6883 107.954 68.6883 107.942C68.6883 107.93 68.6883 107.918 68.6883 107.906C68.6283 108.018 68.5443 108.12 68.4363 108.212C68.3283 108.304 68.2023 108.376 68.0583 108.428C67.9183 108.48 67.7663 108.506 67.6023 108.506C67.3703 108.506 67.1503 108.452 66.9423 108.344C66.7383 108.232 66.5743 108.074 66.4503 107.87C66.3263 107.666 66.2643 107.426 66.2643 107.15C66.2643 106.898 66.3243 106.664 66.4443 106.448C66.5643 106.232 66.7343 106.058 66.9543 105.926C67.1743 105.794 67.4283 105.728 67.7163 105.728C68.0323 105.728 68.2963 105.786 68.5083 105.902C68.7243 106.018 68.8963 106.174 69.0243 106.37C69.1523 106.562 69.2443 106.778 69.3003 107.018C69.3603 107.258 69.3903 107.504 69.3903 107.756C69.3903 108.22 69.3243 108.626 69.1923 108.974C69.0643 109.322 68.8763 109.592 68.6283 109.784C68.3843 109.976 68.0863 110.072 67.7343 110.072ZM67.7703 107.894C67.9223 107.894 68.0583 107.862 68.1783 107.798C68.3023 107.73 68.4003 107.638 68.4723 107.522C68.5443 107.402 68.5803 107.27 68.5803 107.126C68.5803 106.974 68.5443 106.84 68.4723 106.724C68.4003 106.604 68.3023 106.512 68.1783 106.448C68.0583 106.38 67.9203 106.346 67.7643 106.346C67.6083 106.346 67.4703 106.38 67.3503 106.448C67.2303 106.516 67.1343 106.608 67.0623 106.724C66.9943 106.836 66.9603 106.968 66.9603 107.12C66.9603 107.276 66.9943 107.412 67.0623 107.528C67.1343 107.644 67.2303 107.734 67.3503 107.798C67.4743 107.862 67.6143 107.894 67.7703 107.894ZM71.6032 110.072C71.3032 110.072 71.0432 110.02 70.8232 109.916C70.6072 109.808 70.4372 109.662 70.3132 109.478C70.1892 109.29 70.1152 109.078 70.0912 108.842H70.7932C70.8292 109.018 70.9192 109.166 71.0632 109.286C71.2072 109.402 71.3872 109.46 71.6032 109.46C71.7672 109.46 71.9072 109.422 72.0232 109.346C72.1392 109.266 72.2292 109.16 72.2932 109.028C72.3612 108.892 72.3952 108.74 72.3952 108.572C72.3952 108.4 72.3612 108.25 72.2932 108.122C72.2292 107.994 72.1392 107.896 72.0232 107.828C71.9072 107.756 71.7732 107.72 71.6212 107.72C71.4332 107.72 71.2712 107.764 71.1352 107.852C71.0032 107.936 70.9072 108.042 70.8472 108.17H70.1512L70.4992 105.8H72.8152V106.43H71.0392L70.8472 107.468C70.9392 107.368 71.0612 107.288 71.2132 107.228C71.3652 107.164 71.5392 107.132 71.7352 107.132C71.9552 107.132 72.1492 107.17 72.3172 107.246C72.4852 107.322 72.6272 107.426 72.7432 107.558C72.8592 107.69 72.9452 107.844 73.0012 108.02C73.0612 108.192 73.0912 108.374 73.0912 108.566C73.0912 108.782 73.0552 108.982 72.9832 109.166C72.9112 109.346 72.8092 109.504 72.6772 109.64C72.5492 109.776 72.3932 109.882 72.2092 109.958C72.0292 110.034 71.8272 110.072 71.6032 110.072ZM74.4542 110L76.8362 105.8H77.5442L75.1622 110H74.4542ZM77.3522 110.072C77.1642 110.072 76.9922 110.03 76.8362 109.946C76.6842 109.858 76.5622 109.736 76.4702 109.58C76.3782 109.42 76.3322 109.232 76.3322 109.016C76.3322 108.796 76.3782 108.608 76.4702 108.452C76.5622 108.296 76.6842 108.176 76.8362 108.092C76.9922 108.004 77.1642 107.96 77.3522 107.96C77.5482 107.96 77.7202 108.004 77.8682 108.092C78.0202 108.176 78.1402 108.296 78.2282 108.452C78.3202 108.608 78.3662 108.796 78.3662 109.016C78.3662 109.232 78.3202 109.42 78.2282 109.58C78.1402 109.736 78.0202 109.858 77.8682 109.946C77.7162 110.03 77.5442 110.072 77.3522 110.072ZM77.3462 109.568C77.4302 109.568 77.5062 109.548 77.5742 109.508C77.6422 109.464 77.6962 109.402 77.7362 109.322C77.7762 109.238 77.7962 109.136 77.7962 109.016C77.7962 108.892 77.7762 108.79 77.7362 108.71C77.6962 108.63 77.6422 108.57 77.5742 108.53C77.5102 108.486 77.4362 108.464 77.3522 108.464C77.2722 108.464 77.1982 108.486 77.1302 108.53C77.0622 108.57 77.0082 108.63 76.9682 108.71C76.9282 108.79 76.9082 108.892 76.9082 109.016C76.9082 109.136 76.9282 109.238 76.9682 109.322C77.0082 109.402 77.0602 109.464 77.1242 109.508C77.1922 109.548 77.2662 109.568 77.3462 109.568ZM74.6822 107.84C74.4902 107.84 74.3162 107.798 74.1602 107.714C74.0082 107.63 73.8862 107.508 73.7942 107.348C73.7062 107.188 73.6622 107 73.6622 106.784C73.6622 106.568 73.7062 106.382 73.7942 106.226C73.8862 106.066 74.0102 105.944 74.1662 105.86C74.3222 105.776 74.4942 105.734 74.6822 105.734C74.8742 105.734 75.0462 105.776 75.1982 105.86C75.3502 105.944 75.4702 106.066 75.5582 106.226C75.6502 106.382 75.6962 106.568 75.6962 106.784C75.6962 107 75.6502 107.188 75.5582 107.348C75.4702 107.508 75.3502 107.63 75.1982 107.714C75.0462 107.798 74.8742 107.84 74.6822 107.84ZM74.6762 107.336C74.7602 107.336 74.8362 107.316 74.9042 107.276C74.9722 107.232 75.0242 107.17 75.0602 107.09C75.1002 107.006 75.1202 106.904 75.1202 106.784C75.1202 106.664 75.1002 106.562 75.0602 106.478C75.0242 106.394 74.9722 106.332 74.9042 106.292C74.8362 106.248 74.7622 106.226 74.6822 106.226C74.6022 106.226 74.5262 106.248 74.4542 106.292C74.3862 106.332 74.3322 106.394 74.2922 106.478C74.2522 106.562 74.2322 106.664 74.2322 106.784C74.2322 106.904 74.2522 107.006 74.2922 107.09C74.3322 107.17 74.3862 107.232 74.4542 107.276C74.5222 107.316 74.5962 107.336 74.6762 107.336Z" fill="white"/>
<path d="M47.7823 110.072C47.4983 110.072 47.2423 110.022 47.0143 109.922C46.7863 109.818 46.6043 109.674 46.4683 109.49C46.3363 109.302 46.2703 109.082 46.2703 108.83C46.2703 108.662 46.3003 108.506 46.3603 108.362C46.4203 108.218 46.5063 108.094 46.6183 107.99C46.7303 107.882 46.8603 107.802 47.0083 107.75C46.8123 107.662 46.6563 107.54 46.5403 107.384C46.4283 107.224 46.3723 107.046 46.3723 106.85C46.3723 106.646 46.4263 106.46 46.5343 106.292C46.6423 106.124 46.8003 105.988 47.0083 105.884C47.2203 105.78 47.4783 105.728 47.7823 105.728C48.0863 105.728 48.3423 105.78 48.5503 105.884C48.7583 105.988 48.9163 106.124 49.0243 106.292C49.1323 106.46 49.1863 106.646 49.1863 106.85C49.1863 107.042 49.1283 107.22 49.0123 107.384C48.9003 107.544 48.7463 107.666 48.5503 107.75C48.7023 107.802 48.8323 107.882 48.9403 107.99C49.0523 108.098 49.1383 108.224 49.1983 108.368C49.2623 108.508 49.2943 108.662 49.2943 108.83C49.2943 109.082 49.2263 109.302 49.0903 109.49C48.9543 109.674 48.7723 109.818 48.5443 109.922C48.3203 110.022 48.0663 110.072 47.7823 110.072ZM47.7823 109.466C48.0463 109.466 48.2443 109.402 48.3763 109.274C48.5123 109.142 48.5803 108.976 48.5803 108.776C48.5803 108.552 48.5083 108.38 48.3643 108.26C48.2243 108.136 48.0303 108.074 47.7823 108.074C47.5343 108.074 47.3363 108.136 47.1883 108.26C47.0443 108.38 46.9723 108.552 46.9723 108.776C46.9723 108.976 47.0403 109.142 47.1763 109.274C47.3163 109.402 47.5183 109.466 47.7823 109.466ZM47.7823 107.528C47.9983 107.528 48.1663 107.472 48.2863 107.36C48.4103 107.244 48.4723 107.1 48.4723 106.928C48.4723 106.732 48.4103 106.582 48.2863 106.478C48.1663 106.37 47.9983 106.316 47.7823 106.316C47.5663 106.316 47.3963 106.37 47.2723 106.478C47.1523 106.582 47.0923 106.732 47.0923 106.928C47.0923 107.104 47.1523 107.248 47.2723 107.36C47.3963 107.472 47.5663 107.528 47.7823 107.528ZM51.5563 110.072C51.2563 110.072 50.9963 110.02 50.7763 109.916C50.5603 109.808 50.3903 109.662 50.2663 109.478C50.1423 109.29 50.0683 109.078 50.0443 108.842H50.7463C50.7823 109.018 50.8723 109.166 51.0163 109.286C51.1603 109.402 51.3403 109.46 51.5563 109.46C51.7203 109.46 51.8603 109.422 51.9763 109.346C52.0923 109.266 52.1823 109.16 52.2463 109.028C52.3143 108.892 52.3483 108.74 52.3483 108.572C52.3483 108.4 52.3143 108.25 52.2463 108.122C52.1823 107.994 52.0923 107.896 51.9763 107.828C51.8603 107.756 51.7263 107.72 51.5743 107.72C51.3863 107.72 51.2243 107.764 51.0883 107.852C50.9563 107.936 50.8603 108.042 50.8003 108.17H50.1043L50.4523 105.8H52.7683V106.43H50.9923L50.8003 107.468C50.8923 107.368 51.0143 107.288 51.1663 107.228C51.3183 107.164 51.4923 107.132 51.6883 107.132C51.9083 107.132 52.1023 107.17 52.2703 107.246C52.4383 107.322 52.5803 107.426 52.6963 107.558C52.8123 107.69 52.8983 107.844 52.9543 108.02C53.0143 108.192 53.0443 108.374 53.0443 108.566C53.0443 108.782 53.0083 108.982 52.9363 109.166C52.8643 109.346 52.7623 109.504 52.6303 109.64C52.5023 109.776 52.3463 109.882 52.1623 109.958C51.9823 110.034 51.7803 110.072 51.5563 110.072ZM54.4073 110L56.7893 105.8H57.4973L55.1153 110H54.4073ZM57.3053 110.072C57.1173 110.072 56.9453 110.03 56.7893 109.946C56.6373 109.858 56.5153 109.736 56.4233 109.58C56.3313 109.42 56.2853 109.232 56.2853 109.016C56.2853 108.796 56.3313 108.608 56.4233 108.452C56.5153 108.296 56.6373 108.176 56.7893 108.092C56.9453 108.004 57.1173 107.96 57.3053 107.96C57.5013 107.96 57.6733 108.004 57.8213 108.092C57.9733 108.176 58.0933 108.296 58.1813 108.452C58.2733 108.608 58.3193 108.796 58.3193 109.016C58.3193 109.232 58.2733 109.42 58.1813 109.58C58.0933 109.736 57.9733 109.858 57.8213 109.946C57.6693 110.03 57.4973 110.072 57.3053 110.072ZM57.2993 109.568C57.3833 109.568 57.4593 109.548 57.5273 109.508C57.5953 109.464 57.6493 109.402 57.6893 109.322C57.7293 109.238 57.7493 109.136 57.7493 109.016C57.7493 108.892 57.7293 108.79 57.6893 108.71C57.6493 108.63 57.5953 108.57 57.5273 108.53C57.4633 108.486 57.3893 108.464 57.3053 108.464C57.2253 108.464 57.1513 108.486 57.0833 108.53C57.0153 108.57 56.9613 108.63 56.9213 108.71C56.8813 108.79 56.8613 108.892 56.8613 109.016C56.8613 109.136 56.8813 109.238 56.9213 109.322C56.9613 109.402 57.0133 109.464 57.0773 109.508C57.1453 109.548 57.2193 109.568 57.2993 109.568ZM54.6353 107.84C54.4433 107.84 54.2693 107.798 54.1133 107.714C53.9613 107.63 53.8393 107.508 53.7473 107.348C53.6593 107.188 53.6153 107 53.6153 106.784C53.6153 106.568 53.6593 106.382 53.7473 106.226C53.8393 106.066 53.9633 105.944 54.1193 105.86C54.2753 105.776 54.4473 105.734 54.6353 105.734C54.8273 105.734 54.9993 105.776 55.1513 105.86C55.3033 105.944 55.4233 106.066 55.5113 106.226C55.6033 106.382 55.6493 106.568 55.6493 106.784C55.6493 107 55.6033 107.188 55.5113 107.348C55.4233 107.508 55.3033 107.63 55.1513 107.714C54.9993 107.798 54.8273 107.84 54.6353 107.84ZM54.6293 107.336C54.7133 107.336 54.7893 107.316 54.8573 107.276C54.9253 107.232 54.9773 107.17 55.0133 107.09C55.0533 107.006 55.0733 106.904 55.0733 106.784C55.0733 106.664 55.0533 106.562 55.0133 106.478C54.9773 106.394 54.9253 106.332 54.8573 106.292C54.7893 106.248 54.7153 106.226 54.6353 106.226C54.5553 106.226 54.4793 106.248 54.4073 106.292C54.3393 106.332 54.2853 106.394 54.2453 106.478C54.2053 106.562 54.1853 106.664 54.1853 106.784C54.1853 106.904 54.2053 107.006 54.2453 107.09C54.2853 107.17 54.3393 107.232 54.4073 107.276C54.4753 107.316 54.5493 107.336 54.6293 107.336Z" fill="white"/>
<path d="M28.8843 110.072C28.5723 110.072 28.3083 110.014 28.0923 109.898C27.8803 109.782 27.7103 109.628 27.5823 109.436C27.4543 109.24 27.3603 109.022 27.3003 108.782C27.2403 108.542 27.2103 108.296 27.2103 108.044C27.2103 107.576 27.2763 107.17 27.4083 106.826C27.5403 106.478 27.7283 106.208 27.9723 106.016C28.2203 105.824 28.5183 105.728 28.8663 105.728C29.1543 105.728 29.3963 105.784 29.5923 105.896C29.7923 106.004 29.9483 106.148 30.0603 106.328C30.1723 106.508 30.2403 106.704 30.2643 106.916H29.5923C29.5563 106.728 29.4743 106.584 29.3463 106.484C29.2223 106.38 29.0603 106.328 28.8603 106.328C28.6803 106.328 28.5203 106.384 28.3803 106.496C28.2403 106.608 28.1303 106.776 28.0503 107C27.9703 107.224 27.9243 107.508 27.9123 107.852C27.9123 107.86 27.9123 107.868 27.9123 107.876C27.9123 107.88 27.9123 107.886 27.9123 107.894C27.9763 107.778 28.0623 107.676 28.1703 107.588C28.2783 107.496 28.4023 107.424 28.5423 107.372C28.6863 107.32 28.8403 107.294 29.0043 107.294C29.2403 107.294 29.4583 107.35 29.6583 107.462C29.8623 107.57 30.0263 107.726 30.1503 107.93C30.2783 108.134 30.3423 108.374 30.3423 108.65C30.3423 108.902 30.2823 109.136 30.1623 109.352C30.0423 109.568 29.8723 109.742 29.6523 109.874C29.4323 110.006 29.1763 110.072 28.8843 110.072ZM28.8423 109.454C28.9983 109.454 29.1363 109.42 29.2563 109.352C29.3763 109.284 29.4703 109.192 29.5383 109.076C29.6103 108.96 29.6463 108.828 29.6463 108.68C29.6463 108.524 29.6103 108.388 29.5383 108.272C29.4703 108.156 29.3743 108.066 29.2503 108.002C29.1303 107.938 28.9923 107.906 28.8363 107.906C28.6843 107.906 28.5463 107.94 28.4223 108.008C28.3023 108.072 28.2063 108.162 28.1343 108.278C28.0623 108.394 28.0263 108.526 28.0263 108.674C28.0263 108.826 28.0623 108.96 28.1343 109.076C28.2063 109.192 28.3023 109.284 28.4223 109.352C28.5463 109.42 28.6863 109.454 28.8423 109.454ZM32.8012 110.072C32.4212 110.072 32.0952 109.982 31.8232 109.802C31.5512 109.618 31.3412 109.364 31.1932 109.04C31.0492 108.712 30.9772 108.332 30.9772 107.9C30.9772 107.468 31.0492 107.09 31.1932 106.766C31.3412 106.438 31.5512 106.184 31.8232 106.004C32.0952 105.82 32.4212 105.728 32.8012 105.728C33.1772 105.728 33.4992 105.82 33.7672 106.004C34.0392 106.184 34.2472 106.438 34.3912 106.766C34.5392 107.09 34.6132 107.468 34.6132 107.9C34.6132 108.332 34.5392 108.712 34.3912 109.04C34.2472 109.364 34.0392 109.618 33.7672 109.802C33.4992 109.982 33.1772 110.072 32.8012 110.072ZM32.7952 109.424C33.0072 109.424 33.1952 109.364 33.3592 109.244C33.5232 109.12 33.6492 108.944 33.7372 108.716C33.8292 108.488 33.8752 108.216 33.8752 107.9C33.8752 107.584 33.8292 107.312 33.7372 107.084C33.6492 106.856 33.5232 106.682 33.3592 106.562C33.1952 106.438 33.0072 106.376 32.7952 106.376C32.5832 106.376 32.3952 106.438 32.2312 106.562C32.0672 106.682 31.9392 106.856 31.8472 107.084C31.7592 107.312 31.7152 107.584 31.7152 107.9C31.7152 108.216 31.7592 108.488 31.8472 108.716C31.9392 108.944 32.0672 109.12 32.2312 109.244C32.3952 109.364 32.5832 109.424 32.7952 109.424ZM35.9346 110L38.3166 105.8H39.0246L36.6426 110H35.9346ZM38.8326 110.072C38.6446 110.072 38.4726 110.03 38.3166 109.946C38.1646 109.858 38.0426 109.736 37.9506 109.58C37.8586 109.42 37.8126 109.232 37.8126 109.016C37.8126 108.796 37.8586 108.608 37.9506 108.452C38.0426 108.296 38.1646 108.176 38.3166 108.092C38.4726 108.004 38.6446 107.96 38.8326 107.96C39.0286 107.96 39.2006 108.004 39.3486 108.092C39.5006 108.176 39.6206 108.296 39.7086 108.452C39.8006 108.608 39.8466 108.796 39.8466 109.016C39.8466 109.232 39.8006 109.42 39.7086 109.58C39.6206 109.736 39.5006 109.858 39.3486 109.946C39.1966 110.03 39.0246 110.072 38.8326 110.072ZM38.8266 109.568C38.9106 109.568 38.9866 109.548 39.0546 109.508C39.1226 109.464 39.1766 109.402 39.2166 109.322C39.2566 109.238 39.2766 109.136 39.2766 109.016C39.2766 108.892 39.2566 108.79 39.2166 108.71C39.1766 108.63 39.1226 108.57 39.0546 108.53C38.9906 108.486 38.9166 108.464 38.8326 108.464C38.7526 108.464 38.6786 108.486 38.6106 108.53C38.5426 108.57 38.4886 108.63 38.4486 108.71C38.4086 108.79 38.3886 108.892 38.3886 109.016C38.3886 109.136 38.4086 109.238 38.4486 109.322C38.4886 109.402 38.5406 109.464 38.6046 109.508C38.6726 109.548 38.7466 109.568 38.8266 109.568ZM36.1626 107.84C35.9706 107.84 35.7966 107.798 35.6406 107.714C35.4886 107.63 35.3666 107.508 35.2746 107.348C35.1866 107.188 35.1426 107 35.1426 106.784C35.1426 106.568 35.1866 106.382 35.2746 106.226C35.3666 106.066 35.4906 105.944 35.6466 105.86C35.8026 105.776 35.9746 105.734 36.1626 105.734C36.3546 105.734 36.5266 105.776 36.6786 105.86C36.8306 105.944 36.9506 106.066 37.0386 106.226C37.1306 106.382 37.1766 106.568 37.1766 106.784C37.1766 107 37.1306 107.188 37.0386 107.348C36.9506 107.508 36.8306 107.63 36.6786 107.714C36.5266 107.798 36.3546 107.84 36.1626 107.84ZM36.1566 107.336C36.2406 107.336 36.3166 107.316 36.3846 107.276C36.4526 107.232 36.5046 107.17 36.5406 107.09C36.5806 107.006 36.6006 106.904 36.6006 106.784C36.6006 106.664 36.5806 106.562 36.5406 106.478C36.5046 106.394 36.4526 106.332 36.3846 106.292C36.3166 106.248 36.2426 106.226 36.1626 106.226C36.0826 106.226 36.0066 106.248 35.9346 106.292C35.8666 106.332 35.8126 106.394 35.7726 106.478C35.7326 106.562 35.7126 106.664 35.7126 106.784C35.7126 106.904 35.7326 107.006 35.7726 107.09C35.8126 107.17 35.8666 107.232 35.9346 107.276C36.0026 107.316 36.0766 107.336 36.1566 107.336Z" fill="black"/>
</svg>
