<svg width="226" height="227" viewBox="0 0 226 227" fill="none" xmlns="http://www.w3.org/2000/svg">
<circle cx="113" cy="113.875" r="100.5" stroke="#2A2A2A"/>
<line x1="114.5" y1="213.375" x2="114.5" y2="13.375" stroke="#2A2A2A" stroke-linecap="round"/>
<line x1="13.5" y1="113.375" x2="212.5" y2="113.375" stroke="#2A2A2A" stroke-linecap="round"/>
<line x1="43" y1="184.589" x2="183.714" y2="43.875" stroke="#2A2A2A" stroke-linecap="round"/>
<line x1="43.7071" y1="42.875" x2="184.421" y2="183.589" stroke="#2A2A2A" stroke-linecap="round"/>
<circle cx="114" cy="113.875" r="24.5" fill="#111111" stroke="#2A2A2A"/>
<path d="M162.596 113.562C162.596 141.006 140.348 163.254 112.904 163.254C85.4605 163.254 63.2129 141.006 63.2129 113.562C63.2129 86.1187 85.4605 63.8711 112.904 63.8711C140.348 63.8711 162.596 86.1187 162.596 113.562ZM80.6049 113.562C80.6049 131.401 95.0658 145.862 112.904 145.862C130.743 145.862 145.204 131.401 145.204 113.562C145.204 95.724 130.743 81.2631 112.904 81.2631C95.0658 81.2631 80.6049 95.724 80.6049 113.562Z" fill="#241C28"/>
<path d="M182.04 113.563C182.04 151.745 151.087 182.698 112.904 182.698C74.7217 182.698 43.7686 151.745 43.7686 113.563C43.7686 75.3799 74.7217 44.4268 112.904 44.4268C151.087 44.4268 182.04 75.3799 182.04 113.563ZM60.7568 113.563C60.7568 142.363 84.1041 165.71 112.904 165.71C141.705 165.71 165.052 142.363 165.052 113.563C165.052 84.7623 141.705 61.415 112.904 61.415C84.1041 61.415 60.7568 84.7623 60.7568 113.563Z" fill="#281C13"/>
<path d="M200.404 113.562C200.404 161.887 161.229 201.062 112.904 201.062C64.5794 201.062 25.4043 161.887 25.4043 113.562C25.4043 65.2376 64.5794 26.0625 112.904 26.0625C161.229 26.0625 200.404 65.2376 200.404 113.562ZM41.3991 113.562C41.3991 153.054 73.4131 185.068 112.904 185.068C152.396 185.068 184.409 153.054 184.409 113.562C184.409 74.0713 152.396 42.0573 112.904 42.0573C73.4131 42.0573 41.3991 74.0713 41.3991 113.562Z" fill="#282828"/>
<path d="M67.2128 113.562C65.0037 113.562 63.1961 111.769 63.3737 109.567C64.1058 100.491 67.321 91.7623 72.703 84.3546C78.0851 76.9469 85.3928 71.1918 93.7982 67.6909C95.8375 66.8416 98.1021 68.0064 98.7848 70.1074L101.687 79.0397C102.37 81.1407 101.206 83.3751 99.2049 84.3121C94.2796 86.6188 89.9956 90.1425 86.7734 94.5774C83.5513 99.0123 81.524 104.175 80.8522 109.573C80.5793 111.765 78.8139 113.562 76.6048 113.562L67.2128 113.562Z" fill="#D387FF"/>
<path d="M47.7685 113.563C45.5594 113.563 43.7565 111.77 43.8842 109.564C44.7543 94.5377 50.5104 80.1633 60.3331 68.6624C71.0239 56.1451 85.8303 47.8531 102.089 45.2779C118.348 42.7028 134.992 46.0135 149.028 54.6146C163.063 63.2157 173.57 76.5426 178.656 92.1984C183.743 107.854 183.077 124.811 176.777 140.02C170.478 155.228 158.959 167.69 144.291 175.163C129.624 182.636 112.772 184.631 96.7649 180.788C82.0581 177.257 68.9523 169.012 59.4159 157.366C58.0163 155.657 58.4211 153.147 60.2084 151.848L67.48 146.565C69.2673 145.267 71.7575 145.675 73.1891 147.357C80.3243 155.743 89.9581 161.683 100.731 164.269C112.804 167.168 125.516 165.663 136.579 160.026C147.642 154.389 156.331 144.99 161.082 133.519C165.834 122.047 166.336 109.257 162.5 97.4481C158.663 85.6393 150.738 75.5871 140.151 69.0995C129.565 62.6119 117.01 60.1147 104.747 62.057C92.483 63.9994 81.3149 70.2539 73.251 79.6954C66.056 88.1198 61.7536 98.5881 60.9101 109.566C60.7408 111.769 58.9659 113.563 56.7568 113.563L47.7685 113.563Z" fill="#FF812A"/>
<path d="M29.4043 113.562C27.1952 113.562 25.3948 111.77 25.4957 109.564C26.2762 92.4973 32.0393 75.9998 42.1153 62.1313C52.9765 47.1821 68.2915 36.0551 85.8653 30.345C103.439 24.635 122.37 24.635 139.943 30.3451C157.517 36.0551 172.832 47.1821 183.693 62.1313C194.554 77.0805 200.404 95.0843 200.404 113.563C200.404 132.041 194.554 150.045 183.693 164.994C172.832 179.943 157.517 191.07 139.943 196.78C123.64 202.077 106.169 202.46 89.6967 197.929C87.5667 197.343 86.4187 195.077 87.1013 192.976L89.5719 185.372C90.2545 183.271 92.509 182.133 94.6449 182.697C107.898 186.198 121.91 185.821 135.001 181.568C149.362 176.902 161.877 167.809 170.753 155.592C179.629 143.376 184.409 128.663 184.409 113.563C184.409 98.4621 179.629 83.7493 170.753 71.5328C161.877 59.3163 149.362 50.2233 135.001 45.557C120.639 40.8908 105.169 40.8907 90.808 45.557C76.4466 50.2233 63.9312 59.3163 55.0554 71.5328C46.965 82.6683 42.2772 95.8778 41.5109 109.564C41.3874 111.77 39.6083 113.562 37.3991 113.562L29.4043 113.562Z" fill="white"/>
<path d="M8.5 124.822H3.996L4.252 125.814H3.508L2.9 124.438V123.838H8.5V124.822ZM8.596 120.481C8.596 120.988 8.476 121.423 8.236 121.785C7.99067 122.148 7.652 122.428 7.22 122.625C6.78267 122.817 6.276 122.913 5.7 122.913C5.124 122.913 4.62 122.817 4.188 122.625C3.75067 122.428 3.412 122.148 3.172 121.785C2.92667 121.423 2.804 120.988 2.804 120.481C2.804 119.98 2.92667 119.551 3.172 119.193C3.412 118.831 3.75067 118.553 4.188 118.361C4.62 118.164 5.124 118.065 5.7 118.065C6.276 118.065 6.78267 118.164 7.22 118.361C7.652 118.553 7.99067 118.831 8.236 119.193C8.476 119.551 8.596 119.98 8.596 120.481ZM7.732 120.489C7.732 120.207 7.652 119.956 7.492 119.737C7.32667 119.519 7.092 119.351 6.788 119.233C6.484 119.111 6.12133 119.049 5.7 119.049C5.27867 119.049 4.916 119.111 4.612 119.233C4.308 119.351 4.076 119.519 3.916 119.737C3.75067 119.956 3.668 120.207 3.668 120.489C3.668 120.772 3.75067 121.023 3.916 121.241C4.076 121.46 4.308 121.631 4.612 121.753C4.916 121.871 5.27867 121.929 5.7 121.929C6.12133 121.929 6.484 121.871 6.788 121.753C7.092 121.631 7.32667 121.46 7.492 121.241C7.652 121.023 7.732 120.772 7.732 120.489ZM8.596 114.895C8.596 115.402 8.476 115.837 8.236 116.199C7.99067 116.562 7.652 116.842 7.22 117.039C6.78267 117.231 6.276 117.327 5.7 117.327C5.124 117.327 4.62 117.231 4.188 117.039C3.75067 116.842 3.412 116.562 3.172 116.199C2.92667 115.837 2.804 115.402 2.804 114.895C2.804 114.394 2.92667 113.965 3.172 113.607C3.412 113.245 3.75067 112.967 4.188 112.775C4.62 112.578 5.124 112.479 5.7 112.479C6.276 112.479 6.78267 112.578 7.22 112.775C7.652 112.967 7.99067 113.245 8.236 113.607C8.476 113.965 8.596 114.394 8.596 114.895ZM7.732 114.903C7.732 114.621 7.652 114.37 7.492 114.151C7.32667 113.933 7.092 113.765 6.788 113.647C6.484 113.525 6.12133 113.463 5.7 113.463C5.27867 113.463 4.916 113.525 4.612 113.647C4.308 113.765 4.076 113.933 3.916 114.151C3.75067 114.37 3.668 114.621 3.668 114.903C3.668 115.186 3.75067 115.437 3.916 115.655C4.076 115.874 4.308 116.045 4.612 116.167C4.916 116.285 5.27867 116.343 5.7 116.343C6.12133 116.343 6.484 116.285 6.788 116.167C7.092 116.045 7.32667 115.874 7.492 115.655C7.652 115.437 7.732 115.186 7.732 114.903ZM9.364 112.238L2.3 110.23V109.294L9.364 111.302V112.238ZM8.596 106.45C8.596 106.957 8.476 107.391 8.236 107.754C7.99067 108.117 7.652 108.397 7.22 108.594C6.78267 108.786 6.276 108.882 5.7 108.882C5.124 108.882 4.62 108.786 4.188 108.594C3.75067 108.397 3.412 108.117 3.172 107.754C2.92667 107.391 2.804 106.957 2.804 106.45C2.804 105.949 2.92667 105.519 3.172 105.162C3.412 104.799 3.75067 104.522 4.188 104.33C4.62 104.133 5.124 104.034 5.7 104.034C6.276 104.034 6.78267 104.133 7.22 104.33C7.652 104.522 7.99067 104.799 8.236 105.162C8.476 105.519 8.596 105.949 8.596 106.45ZM7.732 106.458C7.732 106.175 7.652 105.925 7.492 105.706C7.32667 105.487 7.092 105.319 6.788 105.202C6.484 105.079 6.12133 105.018 5.7 105.018C5.27867 105.018 4.916 105.079 4.612 105.202C4.308 105.319 4.076 105.487 3.916 105.706C3.75067 105.925 3.668 106.175 3.668 106.458C3.668 106.741 3.75067 106.991 3.916 107.21C4.076 107.429 4.308 107.599 4.612 107.722C4.916 107.839 5.27867 107.898 5.7 107.898C6.12133 107.898 6.484 107.839 6.788 107.722C7.092 107.599 7.32667 107.429 7.492 107.21C7.652 106.991 7.732 106.741 7.732 106.458ZM8.5 102.272L2.9 99.0961V98.1521L8.5 101.328V102.272ZM8.596 98.4081C8.596 98.6587 8.54 98.8881 8.428 99.0961C8.31067 99.2987 8.148 99.4614 7.94 99.5841C7.72667 99.7067 7.476 99.7681 7.188 99.7681C6.89467 99.7681 6.644 99.7067 6.436 99.5841C6.228 99.4614 6.068 99.2987 5.956 99.0961C5.83867 98.8881 5.78 98.6587 5.78 98.4081C5.78 98.1467 5.83867 97.9174 5.956 97.7201C6.068 97.5174 6.228 97.3574 6.436 97.2401C6.644 97.1174 6.89467 97.0561 7.188 97.0561C7.476 97.0561 7.72667 97.1174 7.94 97.2401C8.148 97.3574 8.31067 97.5174 8.428 97.7201C8.54 97.9227 8.596 98.1521 8.596 98.4081ZM7.924 98.4161C7.924 98.3041 7.89733 98.2027 7.844 98.1121C7.78533 98.0214 7.70267 97.9494 7.596 97.8961C7.484 97.8427 7.348 97.8161 7.188 97.8161C7.02267 97.8161 6.88667 97.8427 6.78 97.8961C6.67333 97.9494 6.59333 98.0214 6.54 98.1121C6.48133 98.1974 6.452 98.2961 6.452 98.4081C6.452 98.5147 6.48133 98.6134 6.54 98.7041C6.59333 98.7947 6.67333 98.8667 6.78 98.9201C6.88667 98.9734 7.02267 99.0001 7.188 99.0001C7.348 99.0001 7.484 98.9734 7.596 98.9201C7.70267 98.8667 7.78533 98.7974 7.844 98.7121C7.89733 98.6214 7.924 98.5227 7.924 98.4161ZM5.62 101.968C5.62 102.224 5.564 102.456 5.452 102.664C5.34 102.867 5.17733 103.029 4.964 103.152C4.75067 103.269 4.5 103.328 4.212 103.328C3.924 103.328 3.676 103.269 3.468 103.152C3.25467 103.029 3.092 102.864 2.98 102.656C2.868 102.448 2.812 102.219 2.812 101.968C2.812 101.712 2.868 101.483 2.98 101.28C3.092 101.077 3.25467 100.917 3.468 100.8C3.676 100.677 3.924 100.616 4.212 100.616C4.5 100.616 4.75067 100.677 4.964 100.8C5.17733 100.917 5.34 101.077 5.452 101.28C5.564 101.483 5.62 101.712 5.62 101.968ZM4.948 101.976C4.948 101.864 4.92133 101.763 4.868 101.672C4.80933 101.581 4.72667 101.512 4.62 101.464C4.508 101.411 4.372 101.384 4.212 101.384C4.052 101.384 3.916 101.411 3.804 101.464C3.692 101.512 3.60933 101.581 3.556 101.672C3.49733 101.763 3.468 101.861 3.468 101.968C3.468 102.075 3.49733 102.176 3.556 102.272C3.60933 102.363 3.692 102.435 3.804 102.488C3.916 102.541 4.052 102.568 4.212 102.568C4.372 102.568 4.508 102.541 4.62 102.488C4.72667 102.435 4.80933 102.363 4.868 102.272C4.92133 102.181 4.948 102.083 4.948 101.976Z" fill="#9F9F9F"/>
<path d="M33.0337 43.3992L29.8489 40.2144L29.3284 41.0968L28.8023 40.5708L29.3454 39.1679L29.7697 38.7436L33.7295 42.7034L33.0337 43.3992ZM34.429 42.0039L33.9368 41.5117C33.9896 41.0592 34.0311 40.618 34.0613 40.188C34.0914 39.7581 34.1009 39.3527 34.0896 38.9718C34.0782 38.5909 34.0311 38.2534 33.9481 37.9592C33.8652 37.6651 33.7369 37.4313 33.5635 37.2578C33.4503 37.1446 33.324 37.0598 33.1845 37.0032C33.0449 36.9467 32.8997 36.9335 32.7489 36.9636C32.6018 36.99 32.4547 37.0768 32.3076 37.2238C32.1643 37.3671 32.0738 37.5218 32.0361 37.6877C32.0022 37.8499 32.0154 38.0101 32.0757 38.1685C32.1323 38.3232 32.2284 38.4683 32.3642 38.6041L31.708 39.2603C31.4289 38.9662 31.2517 38.6645 31.1763 38.3552C31.1008 38.046 31.1159 37.7443 31.2215 37.4501C31.3234 37.1522 31.4987 36.8788 31.7476 36.6299C32.0154 36.3621 32.2926 36.183 32.5792 36.0925C32.8658 36.002 33.1486 35.9944 33.4277 36.0698C33.7068 36.1453 33.967 36.3037 34.2083 36.545C34.3856 36.7223 34.527 36.9316 34.6326 37.1729C34.7382 37.4067 34.8136 37.6632 34.8589 37.9423C34.9004 38.2176 34.923 38.5042 34.9268 38.8021C34.9305 39.0925 34.923 39.3829 34.9041 39.6733C34.8815 39.9599 34.8551 40.2314 34.8249 40.4878L36.5955 38.7173L37.1556 39.2773L34.429 42.0039ZM38.0898 38.3996C37.9616 38.5279 37.8183 38.592 37.6599 38.592C37.5015 38.592 37.3676 38.5373 37.2582 38.4279C37.1413 38.311 37.0829 38.1734 37.0829 38.015C37.0829 37.8566 37.147 37.7133 37.2752 37.585C37.3997 37.4606 37.5411 37.3984 37.6995 37.3984C37.8579 37.3984 37.9955 37.4568 38.1124 37.5737C38.2218 37.6831 38.2765 37.817 38.2765 37.9754C38.2765 38.1338 38.2142 38.2752 38.0898 38.3996ZM40.5863 35.9823C40.3035 36.2651 40.0093 36.4612 39.7039 36.5706C39.3984 36.6724 39.1005 36.6951 38.8101 36.6385C38.5159 36.5782 38.2463 36.448 38.0011 36.2482L38.663 35.5863C38.8629 35.7183 39.0873 35.773 39.3362 35.7504C39.5813 35.724 39.8057 35.6089 40.0093 35.4053C40.1639 35.2507 40.2601 35.0829 40.2978 34.9018C40.3318 34.717 40.3167 34.5323 40.2526 34.3475C40.1885 34.1551 40.0772 33.9798 39.9188 33.8214C39.7566 33.6592 39.5832 33.5498 39.3984 33.4933C39.2174 33.4329 39.0401 33.4254 38.8666 33.4707C38.6894 33.5121 38.5291 33.6045 38.3858 33.7478C38.2086 33.9251 38.0973 34.1193 38.052 34.3305C38.0068 34.5341 38.0162 34.7246 38.0803 34.9018L37.4241 35.558L35.5178 32.9955L37.7013 30.8119L38.2953 31.4059L36.6209 33.0803L37.4185 34.24C37.4109 34.059 37.4505 33.8685 37.5373 33.6686C37.6202 33.465 37.7541 33.2708 37.9389 33.086C38.1463 32.8786 38.3651 32.7315 38.5951 32.6448C38.8252 32.558 39.0571 32.5222 39.2909 32.5373C39.5247 32.5524 39.751 32.6165 39.9697 32.7296C40.1885 32.8352 40.3883 32.9785 40.5693 33.1595C40.773 33.3632 40.9276 33.5857 41.0332 33.827C41.135 34.0646 41.1878 34.3098 41.1916 34.5624C41.1991 34.8113 41.152 35.0583 41.0502 35.3035C40.9521 35.5448 40.7975 35.7711 40.5863 35.9823ZM43.2064 33.2265L41.4923 27.0209L42.1599 26.3534L43.8739 32.559L43.2064 33.2265ZM46.0065 30.5621C45.8293 30.7393 45.6275 30.8619 45.4012 30.9298C45.175 30.9901 44.9449 30.9901 44.7111 30.9298C44.4735 30.8657 44.2529 30.7318 44.0492 30.5282C43.8418 30.3207 43.7079 30.1001 43.6476 29.8663C43.5873 29.6325 43.5892 29.4043 43.6533 29.1818C43.7174 28.9518 43.8381 28.7481 44.0153 28.5709C44.2001 28.3861 44.4037 28.2654 44.6262 28.2088C44.8487 28.1447 45.075 28.1447 45.3051 28.2088C45.5389 28.2692 45.7595 28.4031 45.9669 28.6105C46.1706 28.8141 46.3044 29.0347 46.3686 29.2723C46.4327 29.5024 46.4345 29.7305 46.3742 29.9568C46.3101 30.1793 46.1875 30.3811 46.0065 30.5621ZM45.5257 30.0926C45.6049 30.0134 45.6577 29.9229 45.6841 29.8211C45.7067 29.7155 45.6992 29.6061 45.6614 29.493C45.62 29.376 45.5427 29.261 45.4295 29.1479C45.3126 29.031 45.1976 28.9537 45.0844 28.916C44.9713 28.8782 44.8638 28.8726 44.762 28.899C44.6602 28.9178 44.5697 28.9669 44.4905 29.0461C44.4151 29.1215 44.366 29.212 44.3434 29.3176C44.317 29.4194 44.3227 29.5269 44.3604 29.64C44.3981 29.7532 44.4754 29.8682 44.5923 29.9851C44.7054 30.0982 44.8205 30.1755 44.9374 30.217C45.0505 30.2547 45.158 30.2642 45.2598 30.2453C45.3616 30.2189 45.4503 30.168 45.5257 30.0926ZM41.3849 30.9751C41.2038 31.1561 41.0002 31.2805 40.7739 31.3484C40.5514 31.4125 40.3214 31.4125 40.0838 31.3484C39.85 31.2805 39.6312 31.1448 39.4276 30.9411C39.2239 30.7375 39.0901 30.5206 39.026 30.2906C38.9618 30.053 38.9637 29.8211 39.0316 29.5948C39.0995 29.3685 39.2221 29.1667 39.3993 28.9895C39.5803 28.8085 39.7821 28.6859 40.0046 28.6218C40.2271 28.5577 40.4553 28.5596 40.6891 28.6275C40.9229 28.6878 41.1416 28.8198 41.3453 29.0234C41.5489 29.2271 41.6828 29.4477 41.7469 29.6853C41.8148 29.9191 41.8167 30.1473 41.7526 30.3698C41.6884 30.5923 41.5659 30.794 41.3849 30.9751ZM40.904 30.5055C40.9832 30.4263 41.036 30.3358 41.0624 30.234C41.0851 30.1284 41.0756 30.0209 41.0341 29.9116C40.9927 29.7947 40.9153 29.6796 40.8022 29.5665C40.6891 29.4534 40.574 29.376 40.4571 29.3346C40.344 29.2893 40.2365 29.2799 40.1347 29.3063C40.0291 29.3289 39.9386 29.3779 39.8632 29.4534C39.7877 29.5288 39.7368 29.6212 39.7104 29.7305C39.684 29.8324 39.6916 29.9417 39.7331 30.0586C39.7745 30.1755 39.8519 30.2906 39.965 30.4037C40.0781 30.5168 40.1932 30.5942 40.3101 30.6356C40.4232 30.6734 40.5326 30.6809 40.6382 30.6583C40.74 30.6319 40.8286 30.581 40.904 30.5055Z" fill="#9F9F9F"/>
<path d="M107.932 8.0625V7.3665C108.289 7.08383 108.631 6.80117 108.956 6.5185C109.281 6.23583 109.575 5.95583 109.836 5.6785C110.097 5.40117 110.303 5.12917 110.452 4.8625C110.601 4.59583 110.676 4.33983 110.676 4.0945C110.676 3.9345 110.647 3.78517 110.588 3.6465C110.529 3.50783 110.436 3.39583 110.308 3.3105C110.185 3.22517 110.02 3.1825 109.812 3.1825C109.609 3.1825 109.436 3.22783 109.292 3.3185C109.153 3.40917 109.049 3.53183 108.98 3.6865C108.911 3.83583 108.876 4.0065 108.876 4.1985H107.948C107.959 3.79317 108.047 3.4545 108.212 3.1825C108.377 2.9105 108.601 2.70783 108.884 2.5745C109.167 2.43583 109.484 2.3665 109.836 2.3665C110.215 2.3665 110.537 2.43583 110.804 2.5745C111.071 2.71317 111.276 2.90783 111.42 3.1585C111.564 3.40917 111.636 3.70517 111.636 4.0465C111.636 4.29717 111.588 4.54517 111.492 4.7905C111.401 5.0305 111.273 5.26517 111.108 5.4945C110.943 5.7185 110.756 5.93717 110.548 6.1505C110.345 6.3585 110.135 6.5585 109.916 6.7505C109.697 6.93717 109.487 7.1105 109.284 7.2705L111.788 7.2705V8.0625H107.932ZM114.653 8.1585C114.253 8.1585 113.907 8.08917 113.613 7.9505C113.325 7.8065 113.099 7.61183 112.933 7.3665C112.768 7.11583 112.669 6.83317 112.637 6.5185H113.573C113.621 6.75317 113.741 6.9505 113.933 7.1105C114.125 7.26517 114.365 7.3425 114.653 7.3425C114.872 7.3425 115.059 7.29183 115.213 7.1905C115.368 7.08383 115.488 6.9425 115.573 6.7665C115.664 6.58517 115.709 6.3825 115.709 6.1585C115.709 5.92917 115.664 5.72917 115.573 5.5585C115.488 5.38783 115.368 5.25717 115.213 5.1665C115.059 5.0705 114.88 5.0225 114.677 5.0225C114.427 5.0225 114.211 5.08117 114.029 5.1985C113.853 5.3105 113.725 5.45183 113.645 5.6225H112.717L113.181 2.4625L116.269 2.4625V3.3025H113.901L113.645 4.6865C113.768 4.55317 113.931 4.4465 114.133 4.3665C114.336 4.28117 114.568 4.2385 114.829 4.2385C115.123 4.2385 115.381 4.28917 115.605 4.3905C115.829 4.49183 116.019 4.6305 116.173 4.8065C116.328 4.9825 116.443 5.18783 116.517 5.4225C116.597 5.65183 116.637 5.8945 116.637 6.1505C116.637 6.4385 116.589 6.70517 116.493 6.9505C116.397 7.1905 116.261 7.40117 116.085 7.5825C115.915 7.76383 115.707 7.90517 115.461 8.0065C115.221 8.10783 114.952 8.1585 114.653 8.1585ZM118.455 8.0625L121.631 2.4625H122.575L119.399 8.0625H118.455ZM122.319 8.1585C122.068 8.1585 121.839 8.1025 121.631 7.9905C121.428 7.87317 121.265 7.7105 121.143 7.5025C121.02 7.28917 120.959 7.0385 120.959 6.7505C120.959 6.45717 121.02 6.2065 121.143 5.9985C121.265 5.7905 121.428 5.6305 121.631 5.5185C121.839 5.40117 122.068 5.3425 122.319 5.3425C122.58 5.3425 122.809 5.40117 123.007 5.5185C123.209 5.6305 123.369 5.7905 123.487 5.9985C123.609 6.2065 123.671 6.45717 123.671 6.7505C123.671 7.0385 123.609 7.28917 123.487 7.5025C123.369 7.7105 123.209 7.87317 123.007 7.9905C122.804 8.1025 122.575 8.1585 122.319 8.1585ZM122.311 7.4865C122.423 7.4865 122.524 7.45983 122.615 7.4065C122.705 7.34783 122.777 7.26517 122.831 7.1585C122.884 7.0465 122.911 6.9105 122.911 6.7505C122.911 6.58517 122.884 6.44917 122.831 6.3425C122.777 6.23583 122.705 6.15583 122.615 6.1025C122.529 6.04383 122.431 6.0145 122.319 6.0145C122.212 6.0145 122.113 6.04383 122.023 6.1025C121.932 6.15583 121.86 6.23583 121.807 6.3425C121.753 6.44917 121.727 6.58517 121.727 6.7505C121.727 6.9105 121.753 7.0465 121.807 7.1585C121.86 7.26517 121.929 7.34783 122.015 7.4065C122.105 7.45983 122.204 7.4865 122.311 7.4865ZM118.759 5.1825C118.503 5.1825 118.271 5.1265 118.063 5.0145C117.86 4.9025 117.697 4.73983 117.575 4.5265C117.457 4.31317 117.399 4.0625 117.399 3.7745C117.399 3.4865 117.457 3.2385 117.575 3.0305C117.697 2.81717 117.863 2.6545 118.071 2.5425C118.279 2.4305 118.508 2.3745 118.759 2.3745C119.015 2.3745 119.244 2.4305 119.447 2.5425C119.649 2.6545 119.809 2.81717 119.927 3.0305C120.049 3.2385 120.111 3.4865 120.111 3.7745C120.111 4.0625 120.049 4.31317 119.927 4.5265C119.809 4.73983 119.649 4.9025 119.447 5.0145C119.244 5.1265 119.015 5.1825 118.759 5.1825ZM118.751 4.5105C118.863 4.5105 118.964 4.48383 119.055 4.4305C119.145 4.37183 119.215 4.28917 119.263 4.1825C119.316 4.0705 119.343 3.9345 119.343 3.7745C119.343 3.6145 119.316 3.4785 119.263 3.3665C119.215 3.2545 119.145 3.17183 119.055 3.1185C118.964 3.05983 118.865 3.0305 118.759 3.0305C118.652 3.0305 118.551 3.05983 118.455 3.1185C118.364 3.17183 118.292 3.2545 118.239 3.3665C118.185 3.4785 118.159 3.6145 118.159 3.7745C118.159 3.9345 118.185 4.0705 118.239 4.1825C118.292 4.28917 118.364 4.37183 118.455 4.4305C118.545 4.48383 118.644 4.5105 118.751 4.5105Z" fill="#9F9F9F"/>
<path d="M184.239 32.473C183.983 32.2165 183.794 31.9375 183.674 31.6358C183.557 31.3303 183.528 31.0192 183.589 30.7024C183.657 30.3856 183.832 30.0782 184.115 29.7803L184.782 30.4478C184.654 30.5836 184.564 30.7344 184.511 30.9004C184.466 31.0663 184.466 31.236 184.511 31.4095C184.56 31.5792 184.662 31.7414 184.816 31.896C184.963 32.0431 185.116 32.1392 185.275 32.1845C185.437 32.2335 185.593 32.2354 185.744 32.1901C185.895 32.1449 186.031 32.0619 186.151 31.9412C186.298 31.7942 186.383 31.6377 186.406 31.4717C186.432 31.302 186.408 31.1304 186.332 30.9569C186.257 30.7835 186.14 30.6175 185.982 30.4591L185.687 30.165L186.248 29.605L186.542 29.8991C186.749 30.1065 186.966 30.2291 187.192 30.2668C187.422 30.3007 187.63 30.2253 187.814 30.0405C187.969 29.8859 188.043 29.7105 188.035 29.5144C188.031 29.3221 187.937 29.1336 187.752 28.9488C187.56 28.7564 187.351 28.6603 187.124 28.6603C186.902 28.664 186.702 28.7432 186.525 28.8978L185.857 28.2303C186.106 28.0041 186.372 27.8589 186.655 27.7948C186.945 27.7306 187.234 27.7476 187.52 27.8457C187.807 27.9437 188.078 28.121 188.335 28.3774C188.603 28.6452 188.782 28.9186 188.872 29.1977C188.963 29.4767 188.976 29.7426 188.912 29.9953C188.852 30.2517 188.727 30.4742 188.539 30.6628C188.391 30.8099 188.229 30.9155 188.052 30.9796C187.875 31.0437 187.696 31.0682 187.515 31.0531C187.341 31.038 187.171 30.9852 187.006 30.8947C187.122 31.072 187.194 31.2605 187.22 31.4604C187.251 31.664 187.23 31.8658 187.158 32.0657C187.094 32.2656 186.973 32.4541 186.796 32.6314C186.581 32.8463 186.329 32.9934 186.038 33.0726C185.755 33.1518 185.457 33.1443 185.144 33.05C184.835 32.9595 184.533 32.7671 184.239 32.473ZM186.626 34.7237L191.479 32.823L189.488 30.8317L190.071 30.2491L192.758 32.9361L192.271 33.4226L187.333 35.4308L186.626 34.7237ZM189.293 37.4478C189.165 37.3196 189.101 37.1763 189.101 37.0179C189.101 36.8595 189.156 36.7256 189.265 36.6162C189.382 36.4993 189.52 36.4409 189.678 36.4409C189.836 36.4409 189.98 36.505 190.108 36.6332C190.232 36.7577 190.295 36.8991 190.295 37.0575C190.295 37.2159 190.236 37.3535 190.119 37.4704C190.01 37.5798 189.876 37.6345 189.718 37.6345C189.559 37.6345 189.418 37.5722 189.293 37.4478ZM191.711 39.9443C191.428 39.6615 191.232 39.3673 191.122 39.0618C191.021 38.7564 190.998 38.4584 191.054 38.1681C191.115 37.8739 191.245 37.6043 191.445 37.3591L192.107 38.021C191.975 38.2209 191.92 38.4452 191.943 38.6942C191.969 38.9393 192.084 39.1637 192.288 39.3673C192.442 39.5219 192.61 39.6181 192.791 39.6558C192.976 39.6898 193.161 39.6747 193.345 39.6106C193.538 39.5465 193.713 39.4352 193.872 39.2768C194.034 39.1146 194.143 38.9412 194.2 38.7564C194.26 38.5754 194.268 38.3981 194.222 38.2246C194.181 38.0474 194.088 37.8871 193.945 37.7438C193.768 37.5666 193.574 37.4553 193.362 37.41C193.159 37.3648 192.968 37.3742 192.791 37.4383L192.135 36.7821L194.697 34.8758L196.881 37.0593L196.287 37.6533L194.613 35.9789L193.453 36.7765C193.634 36.7689 193.824 36.8085 194.024 36.8953C194.228 36.9782 194.422 37.1121 194.607 37.2969C194.814 37.5043 194.961 37.7231 195.048 37.9531C195.135 38.1831 195.171 38.4151 195.156 38.6489C195.141 38.8827 195.076 39.109 194.963 39.3277C194.858 39.5465 194.714 39.7463 194.533 39.9273C194.33 40.131 194.107 40.2856 193.866 40.3912C193.628 40.493 193.383 40.5458 193.131 40.5496C192.882 40.5571 192.635 40.51 192.389 40.4082C192.148 40.3101 191.922 40.1555 191.711 39.9443ZM194.466 42.5644L200.672 40.8503L201.34 41.5178L195.134 43.2319L194.466 42.5644ZM197.131 45.3645C196.954 45.1873 196.831 44.9855 196.763 44.7592C196.703 44.533 196.703 44.3029 196.763 44.0691C196.827 43.8315 196.961 43.6109 197.165 43.4072C197.372 43.1998 197.593 43.0659 197.827 43.0056C198.06 42.9453 198.289 42.9471 198.511 43.0113C198.741 43.0754 198.945 43.196 199.122 43.3733C199.307 43.5581 199.428 43.7617 199.484 43.9842C199.548 44.2067 199.548 44.433 199.484 44.6631C199.424 44.8969 199.29 45.1175 199.082 45.3249C198.879 45.5286 198.658 45.6624 198.421 45.7265C198.191 45.7907 197.962 45.7925 197.736 45.7322C197.514 45.6681 197.312 45.5455 197.131 45.3645ZM197.6 44.8837C197.68 44.9629 197.77 45.0157 197.872 45.0421C197.977 45.0647 198.087 45.0572 198.2 45.0194C198.317 44.978 198.432 44.9006 198.545 44.7875C198.662 44.6706 198.739 44.5556 198.777 44.4424C198.815 44.3293 198.82 44.2218 198.794 44.12C198.775 44.0182 198.726 43.9277 198.647 43.8485C198.571 43.773 198.481 43.724 198.375 43.7014C198.274 43.675 198.166 43.6807 198.053 43.7184C197.94 43.7561 197.825 43.8334 197.708 43.9503C197.595 44.0634 197.517 44.1785 197.476 44.2954C197.438 44.4085 197.429 44.516 197.448 44.6178C197.474 44.7196 197.525 44.8083 197.6 44.8837ZM196.718 40.7429C196.537 40.5618 196.412 40.3582 196.345 40.1319C196.28 39.9094 196.28 39.6794 196.345 39.4418C196.412 39.208 196.548 38.9892 196.752 38.7856C196.955 38.5819 197.172 38.4481 197.402 38.384C197.64 38.3198 197.872 38.3217 198.098 38.3896C198.324 38.4575 198.526 38.5801 198.703 38.7573C198.884 38.9383 199.007 39.1401 199.071 39.3626C199.135 39.5851 199.133 39.8133 199.066 40.0471C199.005 40.2809 198.873 40.4996 198.67 40.7033C198.466 40.9069 198.245 41.0408 198.008 41.1049C197.774 41.1728 197.546 41.1747 197.323 41.1106C197.101 41.0464 196.899 40.9239 196.718 40.7429ZM197.187 40.262C197.267 40.3412 197.357 40.394 197.459 40.4204C197.565 40.443 197.672 40.4336 197.781 40.3921C197.898 40.3507 198.013 40.2733 198.126 40.1602C198.24 40.0471 198.317 39.932 198.358 39.8151C198.404 39.702 198.413 39.5945 198.387 39.4927C198.364 39.3871 198.315 39.2966 198.24 39.2212C198.164 39.1457 198.072 39.0948 197.962 39.0684C197.861 39.042 197.751 39.0496 197.634 39.0911C197.517 39.1325 197.402 39.2099 197.289 39.323C197.176 39.4361 197.099 39.5511 197.057 39.6681C197.02 39.7812 197.012 39.8906 197.035 39.9962C197.061 40.098 197.112 40.1866 197.187 40.262Z" fill="#9F9F9F"/>
<path d="M217.404 105.599C217.404 105.199 217.473 104.852 217.612 104.559C217.756 104.271 217.951 104.044 218.196 103.879C218.447 103.713 218.729 103.615 219.044 103.583V104.519C218.809 104.567 218.612 104.687 218.452 104.879C218.297 105.071 218.22 105.311 218.22 105.599C218.22 105.817 218.271 106.004 218.372 106.159C218.479 106.313 218.62 106.433 218.796 106.519C218.977 106.609 219.18 106.655 219.404 106.655C219.633 106.655 219.833 106.609 220.004 106.519C220.175 106.433 220.305 106.313 220.396 106.159C220.492 106.004 220.54 105.825 220.54 105.623C220.54 105.372 220.481 105.156 220.364 104.975C220.252 104.799 220.111 104.671 219.94 104.591V103.663L223.1 104.127V107.215H222.26V104.847L220.876 104.591C221.009 104.713 221.116 104.876 221.196 105.079C221.281 105.281 221.324 105.513 221.324 105.775C221.324 106.068 221.273 106.327 221.172 106.551C221.071 106.775 220.932 106.964 220.756 107.119C220.58 107.273 220.375 107.388 220.14 107.463C219.911 107.543 219.668 107.583 219.412 107.583C219.124 107.583 218.857 107.535 218.612 107.439C218.372 107.343 218.161 107.207 217.98 107.031C217.799 106.86 217.657 106.652 217.556 106.407C217.455 106.167 217.404 105.897 217.404 105.599ZM217.404 110.808C217.404 110.301 217.524 109.866 217.764 109.504C218.009 109.141 218.348 108.861 218.78 108.664C219.217 108.472 219.724 108.376 220.3 108.376C220.876 108.376 221.38 108.472 221.812 108.664C222.249 108.861 222.588 109.141 222.828 109.504C223.073 109.866 223.196 110.301 223.196 110.808C223.196 111.309 223.073 111.738 222.828 112.096C222.588 112.458 222.249 112.736 221.812 112.928C221.38 113.125 220.876 113.224 220.3 113.224C219.724 113.224 219.217 113.125 218.78 112.928C218.348 112.736 218.009 112.458 217.764 112.096C217.524 111.738 217.404 111.309 217.404 110.808ZM218.268 110.8C218.268 111.082 218.348 111.333 218.508 111.552C218.673 111.77 218.908 111.938 219.212 112.056C219.516 112.178 219.879 112.24 220.3 112.24C220.721 112.24 221.084 112.178 221.388 112.056C221.692 111.938 221.924 111.77 222.084 111.552C222.249 111.333 222.332 111.082 222.332 110.8C222.332 110.517 222.249 110.266 222.084 110.048C221.924 109.829 221.692 109.658 221.388 109.536C221.084 109.418 220.721 109.36 220.3 109.36C219.879 109.36 219.516 109.418 219.212 109.536C218.908 109.658 218.673 109.829 218.508 110.048C218.348 110.266 218.268 110.517 218.268 110.8ZM217.5 114.986L223.1 118.162V119.106L217.5 115.93V114.986ZM217.404 118.85C217.404 118.599 217.46 118.37 217.572 118.162C217.689 117.959 217.852 117.796 218.06 117.674C218.273 117.551 218.524 117.49 218.812 117.49C219.105 117.49 219.356 117.551 219.564 117.674C219.772 117.796 219.932 117.959 220.044 118.162C220.161 118.37 220.22 118.599 220.22 118.85C220.22 119.111 220.161 119.34 220.044 119.538C219.932 119.74 219.772 119.9 219.564 120.018C219.356 120.14 219.105 120.202 218.812 120.202C218.524 120.202 218.273 120.14 218.06 120.018C217.852 119.9 217.689 119.74 217.572 119.538C217.46 119.335 217.404 119.106 217.404 118.85ZM218.076 118.842C218.076 118.954 218.103 119.055 218.156 119.146C218.215 119.236 218.297 119.308 218.404 119.362C218.516 119.415 218.652 119.442 218.812 119.442C218.977 119.442 219.113 119.415 219.22 119.362C219.327 119.308 219.407 119.236 219.46 119.146C219.519 119.06 219.548 118.962 219.548 118.85C219.548 118.743 219.519 118.644 219.46 118.554C219.407 118.463 219.327 118.391 219.22 118.338C219.113 118.284 218.977 118.258 218.812 118.258C218.652 118.258 218.516 118.284 218.404 118.338C218.297 118.391 218.215 118.46 218.156 118.546C218.103 118.636 218.076 118.735 218.076 118.842ZM220.38 115.29C220.38 115.034 220.436 114.802 220.548 114.594C220.66 114.391 220.823 114.228 221.036 114.106C221.249 113.988 221.5 113.93 221.788 113.93C222.076 113.93 222.324 113.988 222.532 114.106C222.745 114.228 222.908 114.394 223.02 114.602C223.132 114.81 223.188 115.039 223.188 115.29C223.188 115.546 223.132 115.775 223.02 115.978C222.908 116.18 222.745 116.34 222.532 116.458C222.324 116.58 222.076 116.642 221.788 116.642C221.5 116.642 221.249 116.58 221.036 116.458C220.823 116.34 220.66 116.18 220.548 115.978C220.436 115.775 220.38 115.546 220.38 115.29ZM221.052 115.282C221.052 115.394 221.079 115.495 221.132 115.586C221.191 115.676 221.273 115.746 221.38 115.794C221.492 115.847 221.628 115.874 221.788 115.874C221.948 115.874 222.084 115.847 222.196 115.794C222.308 115.746 222.391 115.676 222.444 115.586C222.503 115.495 222.532 115.396 222.532 115.29C222.532 115.183 222.503 115.082 222.444 114.986C222.391 114.895 222.308 114.823 222.196 114.77C222.084 114.716 221.948 114.69 221.788 114.69C221.628 114.69 221.492 114.716 221.38 114.77C221.273 114.823 221.191 114.895 221.132 114.986C221.079 115.076 221.052 115.175 221.052 115.282Z" fill="#9F9F9F"/>
<path d="M196.657 179.983C196.951 179.689 197.254 179.494 197.567 179.4C197.877 179.31 198.182 179.295 198.484 179.355C198.789 179.419 199.083 179.536 199.366 179.706C199.649 179.875 199.909 180.079 200.147 180.317C200.588 180.758 200.909 181.203 201.108 181.652C201.312 182.104 201.389 182.536 201.34 182.947C201.288 183.362 201.097 183.733 200.769 184.061C200.498 184.333 200.217 184.508 199.926 184.588C199.636 184.674 199.353 184.686 199.078 184.621C198.802 184.557 198.553 184.437 198.331 184.259L198.965 183.626C199.176 183.769 199.389 183.828 199.604 183.801C199.819 183.782 200.02 183.679 200.209 183.49C200.379 183.32 200.477 183.117 200.503 182.879C200.53 182.642 200.475 182.379 200.339 182.093C200.203 181.806 199.979 181.495 199.666 181.159C199.658 181.152 199.651 181.144 199.643 181.137C199.64 181.133 199.634 181.127 199.626 181.12C199.675 181.29 199.691 181.467 199.672 181.652C199.657 181.84 199.608 182.025 199.525 182.206C199.438 182.391 199.317 182.56 199.163 182.715C198.94 182.938 198.682 183.09 198.388 183.173C198.093 183.264 197.792 183.271 197.482 183.196C197.169 183.124 196.883 182.958 196.623 182.698C196.385 182.461 196.221 182.183 196.13 181.867C196.04 181.55 196.036 181.225 196.119 180.894C196.202 180.562 196.381 180.258 196.657 179.983ZM197.279 180.526C197.132 180.673 197.034 180.835 196.985 181.012C196.936 181.19 196.934 181.365 196.979 181.538C197.02 181.716 197.111 181.874 197.251 182.014C197.398 182.161 197.56 182.255 197.737 182.296C197.91 182.342 198.086 182.336 198.263 182.28C198.437 182.227 198.597 182.127 198.744 181.98C198.887 181.836 198.985 181.674 199.038 181.493C199.091 181.32 199.097 181.144 199.055 180.967C199.014 180.79 198.923 180.631 198.784 180.492C198.64 180.349 198.48 180.256 198.303 180.215C198.125 180.173 197.948 180.177 197.771 180.226C197.59 180.279 197.426 180.379 197.279 180.526ZM194.794 181.981L195.287 182.473C195.234 182.925 195.192 183.367 195.162 183.797C195.132 184.227 195.122 184.632 195.134 185.013C195.145 185.394 195.192 185.731 195.275 186.025C195.358 186.32 195.486 186.553 195.66 186.727C195.773 186.84 195.899 186.925 196.039 186.981C196.178 187.038 196.324 187.051 196.474 187.021C196.622 186.995 196.769 186.908 196.916 186.761C197.059 186.618 197.15 186.463 197.187 186.297C197.221 186.135 197.208 185.975 197.148 185.816C197.091 185.662 196.995 185.516 196.859 185.381L197.515 184.724C197.794 185.019 197.972 185.32 198.047 185.629C198.122 185.939 198.107 186.24 198.002 186.535C197.9 186.832 197.725 187.106 197.476 187.355C197.208 187.623 196.931 187.802 196.644 187.892C196.358 187.983 196.075 187.99 195.796 187.915C195.517 187.839 195.256 187.681 195.015 187.44C194.838 187.262 194.696 187.053 194.591 186.812C194.485 186.578 194.41 186.321 194.364 186.042C194.323 185.767 194.3 185.48 194.297 185.183C194.293 184.892 194.3 184.602 194.319 184.311C194.342 184.025 194.368 183.753 194.398 183.497L192.628 185.267L192.068 184.707L194.794 181.981ZM191.134 185.585C191.262 185.457 191.405 185.393 191.563 185.393C191.722 185.393 191.856 185.447 191.965 185.557C192.082 185.674 192.14 185.811 192.14 185.97C192.14 186.128 192.076 186.271 191.948 186.4C191.824 186.524 191.682 186.586 191.524 186.586C191.365 186.586 191.228 186.528 191.111 186.411C191.002 186.302 190.947 186.168 190.947 186.009C190.947 185.851 191.009 185.709 191.134 185.585ZM188.637 188.002C188.92 187.72 189.214 187.523 189.519 187.414C189.825 187.312 190.123 187.29 190.413 187.346C190.707 187.407 190.977 187.537 191.222 187.736L190.56 188.398C190.36 188.266 190.136 188.212 189.887 188.234C189.642 188.261 189.418 188.376 189.214 188.579C189.059 188.734 188.963 188.902 188.926 189.083C188.892 189.268 188.907 189.452 188.971 189.637C189.035 189.83 189.146 190.005 189.305 190.163C189.467 190.325 189.64 190.435 189.825 190.491C190.006 190.552 190.183 190.559 190.357 190.514C190.534 190.473 190.694 190.38 190.838 190.237C191.015 190.06 191.126 189.865 191.171 189.654C191.217 189.451 191.207 189.26 191.143 189.083L191.799 188.427L193.706 190.989L191.522 193.173L190.928 192.579L192.602 190.904L191.805 189.745C191.812 189.926 191.773 190.116 191.686 190.316C191.603 190.52 191.469 190.714 191.284 190.899C191.077 191.106 190.858 191.253 190.628 191.34C190.398 191.427 190.166 191.462 189.932 191.447C189.699 191.432 189.472 191.368 189.254 191.255C189.035 191.149 188.835 191.006 188.654 190.825C188.45 190.621 188.296 190.399 188.19 190.158C188.088 189.92 188.036 189.675 188.032 189.422C188.024 189.173 188.071 188.926 188.173 188.681C188.271 188.44 188.426 188.214 188.637 188.002ZM186.017 190.758L187.731 196.964L187.063 197.631L185.349 191.426L186.017 190.758ZM183.217 193.423C183.394 193.245 183.596 193.123 183.822 193.055C184.048 192.995 184.278 192.995 184.512 193.055C184.75 193.119 184.97 193.253 185.174 193.457C185.382 193.664 185.515 193.885 185.576 194.118C185.636 194.352 185.634 194.58 185.57 194.803C185.506 195.033 185.385 195.237 185.208 195.414C185.023 195.599 184.82 195.719 184.597 195.776C184.375 195.84 184.148 195.84 183.918 195.776C183.684 195.715 183.464 195.582 183.256 195.374C183.053 195.171 182.919 194.95 182.855 194.712C182.791 194.482 182.789 194.254 182.849 194.028C182.913 193.805 183.036 193.604 183.217 193.423ZM183.698 193.892C183.618 193.971 183.566 194.062 183.539 194.164C183.517 194.269 183.524 194.379 183.562 194.492C183.603 194.609 183.681 194.724 183.794 194.837C183.911 194.954 184.026 195.031 184.139 195.069C184.252 195.106 184.36 195.112 184.461 195.086C184.563 195.067 184.654 195.018 184.733 194.939C184.808 194.863 184.857 194.773 184.88 194.667C184.906 194.565 184.901 194.458 184.863 194.345C184.825 194.231 184.748 194.116 184.631 194C184.518 193.886 184.403 193.809 184.286 193.768C184.173 193.73 184.065 193.72 183.964 193.739C183.862 193.766 183.773 193.817 183.698 193.892ZM187.838 193.01C188.02 192.829 188.223 192.704 188.449 192.636C188.672 192.572 188.902 192.572 189.14 192.636C189.373 192.704 189.592 192.84 189.796 193.044C189.999 193.247 190.133 193.464 190.197 193.694C190.262 193.932 190.26 194.164 190.192 194.39C190.124 194.616 190.001 194.818 189.824 194.995C189.643 195.176 189.441 195.299 189.219 195.363C188.996 195.427 188.768 195.425 188.534 195.357C188.3 195.297 188.082 195.165 187.878 194.961C187.674 194.758 187.541 194.537 187.476 194.299C187.409 194.066 187.407 193.837 187.471 193.615C187.535 193.392 187.657 193.191 187.838 193.01ZM188.319 193.479C188.24 193.558 188.187 193.649 188.161 193.751C188.138 193.856 188.148 193.964 188.189 194.073C188.231 194.19 188.308 194.305 188.421 194.418C188.534 194.531 188.649 194.609 188.766 194.65C188.879 194.695 188.987 194.705 189.089 194.678C189.194 194.656 189.285 194.607 189.36 194.531C189.436 194.456 189.487 194.363 189.513 194.254C189.539 194.152 189.532 194.043 189.49 193.926C189.449 193.809 189.371 193.694 189.258 193.581C189.145 193.468 189.03 193.391 188.913 193.349C188.8 193.311 188.691 193.304 188.585 193.326C188.483 193.353 188.395 193.404 188.319 193.479Z" fill="#9F9F9F"/>
<path d="M123.548 218.062L121.46 222.838H124.276V223.663H120.476V222.974L122.548 218.062H123.548ZM117.878 217.966C118.278 217.966 118.625 218.036 118.918 218.174C119.206 218.318 119.433 218.513 119.598 218.758C119.763 219.009 119.862 219.292 119.894 219.606H118.958C118.91 219.372 118.79 219.174 118.598 219.014C118.406 218.86 118.166 218.782 117.878 218.782C117.659 218.782 117.473 218.833 117.318 218.934C117.163 219.041 117.043 219.182 116.958 219.358C116.867 219.54 116.822 219.742 116.822 219.966C116.822 220.196 116.867 220.396 116.958 220.566C117.043 220.737 117.163 220.868 117.318 220.958C117.473 221.054 117.651 221.102 117.854 221.102C118.105 221.102 118.321 221.044 118.502 220.926C118.678 220.814 118.806 220.673 118.886 220.502H119.814L119.35 223.663H116.262V222.822H118.63L118.886 221.438C118.763 221.572 118.601 221.678 118.398 221.758C118.195 221.844 117.963 221.886 117.702 221.886C117.409 221.886 117.15 221.836 116.926 221.734C116.702 221.633 116.513 221.494 116.358 221.318C116.203 221.142 116.089 220.937 116.014 220.702C115.934 220.473 115.894 220.23 115.894 219.974C115.894 219.686 115.942 219.42 116.038 219.174C116.134 218.934 116.27 218.724 116.446 218.542C116.617 218.361 116.825 218.22 117.07 218.118C117.31 218.017 117.579 217.966 117.878 217.966ZM114.077 218.062L110.901 223.663H109.957L113.133 218.062H114.077ZM110.213 217.966C110.463 217.966 110.693 218.022 110.901 218.134C111.103 218.252 111.266 218.414 111.389 218.622C111.511 218.836 111.573 219.086 111.573 219.374C111.573 219.668 111.511 219.918 111.389 220.126C111.266 220.334 111.103 220.494 110.901 220.606C110.693 220.724 110.463 220.782 110.213 220.782C109.951 220.782 109.722 220.724 109.525 220.606C109.322 220.494 109.162 220.334 109.045 220.126C108.922 219.918 108.861 219.668 108.861 219.374C108.861 219.086 108.922 218.836 109.045 218.622C109.162 218.414 109.322 218.252 109.525 218.134C109.727 218.022 109.957 217.966 110.213 217.966ZM110.221 218.638C110.109 218.638 110.007 218.665 109.917 218.718C109.826 218.777 109.754 218.86 109.701 218.966C109.647 219.078 109.621 219.214 109.621 219.374C109.621 219.54 109.647 219.676 109.701 219.782C109.754 219.889 109.826 219.969 109.917 220.022C110.002 220.081 110.101 220.11 110.213 220.11C110.319 220.11 110.418 220.081 110.509 220.022C110.599 219.969 110.671 219.889 110.725 219.782C110.778 219.676 110.805 219.54 110.805 219.374C110.805 219.214 110.778 219.078 110.725 218.966C110.671 218.86 110.602 218.777 110.517 218.718C110.426 218.665 110.327 218.638 110.221 218.638ZM113.773 220.942C114.029 220.942 114.261 220.998 114.469 221.11C114.671 221.222 114.834 221.385 114.957 221.598C115.074 221.812 115.133 222.062 115.133 222.35C115.133 222.638 115.074 222.886 114.957 223.094C114.834 223.308 114.669 223.471 114.461 223.583C114.253 223.695 114.023 223.75 113.773 223.75C113.517 223.75 113.287 223.695 113.085 223.583C112.882 223.471 112.722 223.308 112.605 223.094C112.482 222.886 112.421 222.638 112.421 222.35C112.421 222.062 112.482 221.812 112.605 221.598C112.722 221.385 112.882 221.222 113.085 221.11C113.287 220.998 113.517 220.942 113.773 220.942ZM113.781 221.614C113.669 221.614 113.567 221.641 113.477 221.694C113.386 221.753 113.317 221.836 113.269 221.942C113.215 222.054 113.189 222.19 113.189 222.35C113.189 222.51 113.215 222.646 113.269 222.758C113.317 222.87 113.386 222.953 113.477 223.006C113.567 223.065 113.666 223.094 113.773 223.094C113.879 223.094 113.981 223.065 114.077 223.006C114.167 222.953 114.239 222.87 114.293 222.758C114.346 222.646 114.373 222.51 114.373 222.35C114.373 222.19 114.346 222.054 114.293 221.942C114.239 221.836 114.167 221.753 114.077 221.694C113.986 221.641 113.887 221.614 113.781 221.614Z" fill="#9F9F9F"/>
<path d="M44.7178 191.609C44.9856 191.876 45.1798 192.165 45.3005 192.474C45.4174 192.787 45.4532 193.095 45.4079 193.396C45.3552 193.698 45.21 193.968 44.9724 194.205C44.814 194.364 44.6386 194.482 44.4463 194.562C44.254 194.641 44.056 194.677 43.8523 194.669C43.6449 194.665 43.4469 194.618 43.2583 194.528C43.3602 194.795 43.3922 195.057 43.3545 195.314C43.3093 195.57 43.1942 195.791 43.0094 195.976C42.8171 196.168 42.5908 196.293 42.3306 196.349C42.0704 196.406 41.7932 196.385 41.4991 196.287C41.2011 196.185 40.9089 195.991 40.6223 195.704C40.3356 195.418 40.1433 195.127 40.0453 194.833C39.9472 194.539 39.9265 194.262 39.983 194.002C40.0396 193.741 40.164 193.515 40.3564 193.323C40.5374 193.142 40.7599 193.029 41.0239 192.983C41.2803 192.938 41.5405 192.968 41.8045 193.074C41.7103 192.881 41.6631 192.683 41.6631 192.48C41.6593 192.272 41.6971 192.073 41.7762 191.88C41.8479 191.688 41.9629 191.513 42.1213 191.354C42.3589 191.117 42.6304 190.973 42.9359 190.924C43.2376 190.879 43.545 190.915 43.858 191.032C44.1634 191.149 44.4501 191.341 44.7178 191.609ZM44.1465 192.18C43.8976 191.931 43.6506 191.805 43.4054 191.801C43.1527 191.797 42.9321 191.89 42.7436 192.078C42.5324 192.289 42.4381 192.519 42.4607 192.768C42.4758 193.017 42.6003 193.259 42.8341 193.492C43.0679 193.726 43.313 193.854 43.5695 193.877C43.8184 193.9 44.0484 193.805 44.2596 193.594C44.4482 193.406 44.5406 193.185 44.5368 192.932C44.5255 192.68 44.3954 192.429 44.1465 192.18ZM42.3193 194.007C42.1157 193.804 41.9045 193.698 41.6857 193.69C41.4595 193.683 41.2652 193.76 41.1031 193.922C40.9183 194.107 40.8353 194.307 40.8542 194.522C40.8655 194.737 40.973 194.946 41.1766 195.15C41.3803 195.354 41.5915 195.463 41.8102 195.478C42.0214 195.493 42.2194 195.408 42.4042 195.223C42.5701 195.057 42.6493 194.865 42.6417 194.646C42.6304 194.424 42.523 194.211 42.3193 194.007ZM42.3002 189.327L37.4466 191.228L39.4378 193.219L38.8552 193.801L36.1682 191.114L36.6547 190.628L41.5931 188.62L42.3002 189.327ZM39.6327 186.603C39.7609 186.731 39.825 186.874 39.825 187.033C39.825 187.191 39.7703 187.325 39.6609 187.434C39.544 187.551 39.4064 187.61 39.248 187.61C39.0896 187.61 38.9463 187.546 38.8181 187.417C38.6936 187.293 38.6314 187.151 38.6314 186.993C38.6314 186.835 38.6898 186.697 38.8068 186.58C38.9161 186.471 39.05 186.416 39.2084 186.416C39.3668 186.416 39.5082 186.478 39.6327 186.603ZM37.2153 184.106C37.4982 184.389 37.6943 184.683 37.8036 184.989C37.9055 185.294 37.9281 185.592 37.8715 185.882C37.8112 186.177 37.6811 186.446 37.4812 186.691L36.8193 186.03C36.9513 185.83 37.006 185.605 36.9834 185.356C36.957 185.111 36.842 184.887 36.6383 184.683C36.4837 184.529 36.3159 184.432 36.1349 184.395C35.9501 184.361 35.7653 184.376 35.5805 184.44C35.3882 184.504 35.2128 184.615 35.0544 184.774C34.8922 184.936 34.7829 185.109 34.7263 185.294C34.666 185.475 34.6584 185.652 34.7037 185.826C34.7452 186.003 34.8376 186.163 34.9809 186.307C35.1581 186.484 35.3523 186.595 35.5635 186.64C35.7672 186.686 35.9576 186.676 36.1349 186.612L36.7911 187.268L34.2285 189.175L32.045 186.991L32.6389 186.397L34.3134 188.072L35.473 187.274C35.292 187.282 35.1015 187.242 34.9017 187.155C34.698 187.072 34.5038 186.938 34.319 186.754C34.1116 186.546 33.9645 186.327 33.8778 186.097C33.791 185.867 33.7552 185.635 33.7703 185.402C33.7854 185.168 33.8495 184.942 33.9626 184.723C34.0682 184.504 34.2115 184.304 34.3926 184.123C34.5962 183.92 34.8187 183.765 35.0601 183.659C35.2976 183.557 35.5428 183.505 35.7955 183.501C36.0444 183.493 36.2914 183.54 36.5365 183.642C36.7779 183.74 37.0041 183.895 37.2153 184.106ZM34.4595 181.486L28.2539 183.2L27.5864 182.533L33.792 180.819L34.4595 181.486ZM31.7951 178.686C31.9724 178.863 32.0949 179.065 32.1628 179.291C32.2232 179.518 32.2232 179.748 32.1628 179.981C32.0987 180.219 31.9648 180.44 31.7612 180.643C31.5538 180.851 31.3331 180.985 31.0993 181.045C30.8655 181.105 30.6374 181.103 30.4149 181.039C30.1848 180.975 29.9812 180.854 29.8039 180.677C29.6191 180.492 29.4984 180.289 29.4419 180.066C29.3778 179.844 29.3778 179.617 29.4419 179.387C29.5022 179.154 29.6361 178.933 29.8435 178.726C30.0472 178.522 30.2678 178.388 30.5054 178.324C30.7354 178.26 30.9636 178.258 31.1898 178.318C31.4123 178.382 31.6141 178.505 31.7951 178.686ZM31.3256 179.167C31.2464 179.088 31.1559 179.035 31.0541 179.008C30.9485 178.986 30.8391 178.993 30.726 179.031C30.6091 179.073 30.494 179.15 30.3809 179.263C30.264 179.38 30.1867 179.495 30.149 179.608C30.1113 179.721 30.1056 179.829 30.132 179.93C30.1509 180.032 30.1999 180.123 30.2791 180.202C30.3545 180.277 30.445 180.326 30.5506 180.349C30.6524 180.375 30.7599 180.37 30.8731 180.332C30.9862 180.294 31.1012 180.217 31.2181 180.1C31.3313 179.987 31.4086 179.872 31.4501 179.755C31.4878 179.642 31.4972 179.535 31.4783 179.433C31.4519 179.331 31.401 179.242 31.3256 179.167ZM32.2081 183.308C32.3891 183.489 32.5135 183.692 32.5814 183.919C32.6455 184.141 32.6455 184.371 32.5814 184.609C32.5135 184.843 32.3778 185.061 32.1741 185.265C31.9705 185.469 31.7536 185.602 31.5236 185.667C31.286 185.731 31.0541 185.729 30.8278 185.661C30.6015 185.593 30.3998 185.47 30.2225 185.293C30.0415 185.112 29.9189 184.91 29.8548 184.688C29.7907 184.465 29.7926 184.237 29.8605 184.003C29.9208 183.77 30.0528 183.551 30.2565 183.347C30.4601 183.144 30.6807 183.01 30.9183 182.946C31.1521 182.878 31.3803 182.876 31.6028 182.94C31.8253 183.004 32.0271 183.127 32.2081 183.308ZM31.7386 183.788C31.6594 183.709 31.5689 183.656 31.467 183.63C31.3614 183.607 31.254 183.617 31.1446 183.658C31.0277 183.7 30.9127 183.777 30.7995 183.89C30.6864 184.003 30.6091 184.118 30.5676 184.235C30.5223 184.348 30.5129 184.456 30.5393 184.558C30.5619 184.663 30.611 184.754 30.6864 184.829C30.7618 184.905 30.8542 184.956 30.9636 184.982C31.0654 185.008 31.1748 185.001 31.2917 184.959C31.4086 184.918 31.5236 184.841 31.6367 184.728C31.7499 184.614 31.8272 184.499 31.8687 184.382C31.9064 184.269 31.9139 184.16 31.8913 184.054C31.8649 183.953 31.814 183.864 31.7386 183.788Z" fill="#9F9F9F"/>
<path d="M66.7283 110.062V109.54C66.9963 109.328 67.2523 109.116 67.4963 108.904C67.7403 108.692 67.9603 108.482 68.1563 108.274C68.3523 108.066 68.5063 107.862 68.6183 107.662C68.7303 107.462 68.7863 107.27 68.7863 107.086C68.7863 106.966 68.7643 106.854 68.7203 106.75C68.6763 106.646 68.6063 106.562 68.5103 106.498C68.4183 106.434 68.2943 106.402 68.1383 106.402C67.9863 106.402 67.8563 106.436 67.7483 106.504C67.6443 106.572 67.5663 106.664 67.5143 106.78C67.4623 106.892 67.4363 107.02 67.4363 107.164H66.7403C66.7483 106.86 66.8143 106.606 66.9383 106.402C67.0623 106.198 67.2303 106.046 67.4423 105.946C67.6543 105.842 67.8923 105.79 68.1563 105.79C68.4403 105.79 68.6823 105.842 68.8823 105.946C69.0823 106.05 69.2363 106.196 69.3443 106.384C69.4523 106.572 69.5063 106.794 69.5063 107.05C69.5063 107.238 69.4703 107.424 69.3983 107.608C69.3303 107.788 69.2343 107.964 69.1103 108.136C68.9863 108.304 68.8463 108.468 68.6903 108.628C68.5383 108.784 68.3803 108.934 68.2163 109.078C68.0523 109.218 67.8943 109.348 67.7423 109.468H69.6203V110.062H66.7283ZM71.932 110.135C71.552 110.135 71.226 110.045 70.954 109.865C70.682 109.68 70.472 109.426 70.324 109.102C70.18 108.774 70.108 108.394 70.108 107.962C70.108 107.53 70.18 107.152 70.324 106.828C70.472 106.5 70.682 106.246 70.954 106.066C71.226 105.882 71.552 105.79 71.932 105.79C72.308 105.79 72.63 105.882 72.898 106.066C73.17 106.246 73.378 106.5 73.522 106.828C73.67 107.152 73.744 107.53 73.744 107.962C73.744 108.394 73.67 108.774 73.522 109.102C73.378 109.426 73.17 109.68 72.898 109.865C72.63 110.045 72.308 110.135 71.932 110.135ZM71.926 109.486C72.138 109.486 72.326 109.426 72.49 109.306C72.654 109.182 72.78 109.006 72.868 108.778C72.96 108.55 73.006 108.278 73.006 107.962C73.006 107.646 72.96 107.374 72.868 107.146C72.78 106.918 72.654 106.744 72.49 106.624C72.326 106.5 72.138 106.438 71.926 106.438C71.714 106.438 71.526 106.5 71.362 106.624C71.198 106.744 71.07 106.918 70.978 107.146C70.89 107.374 70.846 107.646 70.846 107.962C70.846 108.278 70.89 108.55 70.978 108.778C71.07 109.006 71.198 109.182 71.362 109.306C71.526 109.426 71.714 109.486 71.926 109.486ZM75.0655 110.062L77.4475 105.862H78.1555L75.7735 110.062H75.0655ZM77.9635 110.135C77.7755 110.135 77.6035 110.092 77.4475 110.008C77.2955 109.92 77.1735 109.798 77.0815 109.642C76.9895 109.482 76.9435 109.294 76.9435 109.078C76.9435 108.858 76.9895 108.67 77.0815 108.514C77.1735 108.358 77.2955 108.238 77.4475 108.154C77.6035 108.066 77.7755 108.022 77.9635 108.022C78.1595 108.022 78.3315 108.066 78.4795 108.154C78.6315 108.238 78.7515 108.358 78.8395 108.514C78.9315 108.67 78.9775 108.858 78.9775 109.078C78.9775 109.294 78.9315 109.482 78.8395 109.642C78.7515 109.798 78.6315 109.92 78.4795 110.008C78.3275 110.092 78.1555 110.135 77.9635 110.135ZM77.9575 109.63C78.0415 109.63 78.1175 109.61 78.1855 109.57C78.2535 109.526 78.3075 109.464 78.3475 109.384C78.3875 109.3 78.4075 109.198 78.4075 109.078C78.4075 108.954 78.3875 108.852 78.3475 108.772C78.3075 108.692 78.2535 108.632 78.1855 108.592C78.1215 108.548 78.0475 108.526 77.9635 108.526C77.8835 108.526 77.8095 108.548 77.7415 108.592C77.6735 108.632 77.6195 108.692 77.5795 108.772C77.5395 108.852 77.5195 108.954 77.5195 109.078C77.5195 109.198 77.5395 109.3 77.5795 109.384C77.6195 109.464 77.6715 109.526 77.7355 109.57C77.8035 109.61 77.8775 109.63 77.9575 109.63ZM75.2935 107.902C75.1015 107.902 74.9275 107.86 74.7715 107.776C74.6195 107.692 74.4975 107.57 74.4055 107.41C74.3175 107.25 74.2735 107.062 74.2735 106.846C74.2735 106.63 74.3175 106.444 74.4055 106.288C74.4975 106.128 74.6215 106.006 74.7775 105.922C74.9335 105.838 75.1055 105.796 75.2935 105.796C75.4855 105.796 75.6575 105.838 75.8095 105.922C75.9615 106.006 76.0815 106.128 76.1695 106.288C76.2615 106.444 76.3075 106.63 76.3075 106.846C76.3075 107.062 76.2615 107.25 76.1695 107.41C76.0815 107.57 75.9615 107.692 75.8095 107.776C75.6575 107.86 75.4855 107.902 75.2935 107.902ZM75.2875 107.398C75.3715 107.398 75.4475 107.378 75.5155 107.338C75.5835 107.294 75.6355 107.232 75.6715 107.152C75.7115 107.068 75.7315 106.966 75.7315 106.846C75.7315 106.726 75.7115 106.624 75.6715 106.54C75.6355 106.456 75.5835 106.394 75.5155 106.354C75.4475 106.31 75.3735 106.288 75.2935 106.288C75.2135 106.288 75.1375 106.31 75.0655 106.354C74.9975 106.394 74.9435 106.456 74.9035 106.54C74.8635 106.624 74.8435 106.726 74.8435 106.846C74.8435 106.966 74.8635 107.068 74.9035 107.152C74.9435 107.232 74.9975 107.294 75.0655 107.338C75.1335 107.378 75.2075 107.398 75.2875 107.398Z" fill="white"/>
<path d="M48.2343 110.135C47.9503 110.135 47.7083 110.08 47.5083 109.972C47.3123 109.86 47.1583 109.714 47.0463 109.534C46.9343 109.35 46.8683 109.154 46.8483 108.946H47.5143C47.5503 109.134 47.6303 109.28 47.7543 109.384C47.8823 109.484 48.0463 109.534 48.2463 109.534C48.4303 109.534 48.5903 109.48 48.7263 109.372C48.8623 109.26 48.9703 109.094 49.0503 108.874C49.1343 108.65 49.1803 108.37 49.1883 108.034C49.1883 108.026 49.1883 108.016 49.1883 108.004C49.1883 107.992 49.1883 107.98 49.1883 107.968C49.1283 108.08 49.0443 108.182 48.9363 108.274C48.8283 108.366 48.7023 108.438 48.5583 108.49C48.4183 108.542 48.2663 108.568 48.1023 108.568C47.8703 108.568 47.6503 108.514 47.4423 108.406C47.2383 108.294 47.0743 108.136 46.9503 107.932C46.8263 107.728 46.7643 107.488 46.7643 107.212C46.7643 106.96 46.8243 106.726 46.9443 106.51C47.0643 106.294 47.2343 106.12 47.4543 105.988C47.6743 105.856 47.9283 105.79 48.2163 105.79C48.5323 105.79 48.7963 105.848 49.0083 105.964C49.2243 106.08 49.3963 106.236 49.5243 106.432C49.6523 106.624 49.7443 106.84 49.8003 107.08C49.8603 107.32 49.8903 107.566 49.8903 107.818C49.8903 108.282 49.8243 108.688 49.6923 109.036C49.5643 109.384 49.3763 109.654 49.1283 109.846C48.8843 110.038 48.5863 110.135 48.2343 110.135ZM48.2703 107.956C48.4223 107.956 48.5583 107.924 48.6783 107.86C48.8023 107.792 48.9003 107.7 48.9723 107.584C49.0443 107.464 49.0803 107.332 49.0803 107.188C49.0803 107.036 49.0443 106.902 48.9723 106.786C48.9003 106.666 48.8023 106.574 48.6783 106.51C48.5583 106.442 48.4203 106.408 48.2643 106.408C48.1083 106.408 47.9703 106.442 47.8503 106.51C47.7303 106.578 47.6343 106.67 47.5623 106.786C47.4943 106.898 47.4603 107.03 47.4603 107.182C47.4603 107.338 47.4943 107.474 47.5623 107.59C47.6343 107.706 47.7303 107.796 47.8503 107.86C47.9743 107.924 48.1143 107.956 48.2703 107.956ZM52.3012 110.135C51.9212 110.135 51.5952 110.045 51.3232 109.865C51.0512 109.68 50.8412 109.426 50.6932 109.102C50.5492 108.774 50.4772 108.394 50.4772 107.962C50.4772 107.53 50.5492 107.152 50.6932 106.828C50.8412 106.5 51.0512 106.246 51.3232 106.066C51.5952 105.882 51.9212 105.79 52.3012 105.79C52.6772 105.79 52.9992 105.882 53.2672 106.066C53.5392 106.246 53.7472 106.5 53.8912 106.828C54.0392 107.152 54.1132 107.53 54.1132 107.962C54.1132 108.394 54.0392 108.774 53.8912 109.102C53.7472 109.426 53.5392 109.68 53.2672 109.865C52.9992 110.045 52.6772 110.135 52.3012 110.135ZM52.2952 109.486C52.5072 109.486 52.6952 109.426 52.8592 109.306C53.0232 109.182 53.1492 109.006 53.2372 108.778C53.3292 108.55 53.3752 108.278 53.3752 107.962C53.3752 107.646 53.3292 107.374 53.2372 107.146C53.1492 106.918 53.0232 106.744 52.8592 106.624C52.6952 106.5 52.5072 106.438 52.2952 106.438C52.0832 106.438 51.8952 106.5 51.7312 106.624C51.5672 106.744 51.4392 106.918 51.3472 107.146C51.2592 107.374 51.2152 107.646 51.2152 107.962C51.2152 108.278 51.2592 108.55 51.3472 108.778C51.4392 109.006 51.5672 109.182 51.7312 109.306C51.8952 109.426 52.0832 109.486 52.2952 109.486ZM55.4346 110.062L57.8166 105.862H58.5246L56.1426 110.062H55.4346ZM58.3326 110.135C58.1446 110.135 57.9726 110.092 57.8166 110.008C57.6646 109.92 57.5426 109.798 57.4506 109.642C57.3586 109.482 57.3126 109.294 57.3126 109.078C57.3126 108.858 57.3586 108.67 57.4506 108.514C57.5426 108.358 57.6646 108.238 57.8166 108.154C57.9726 108.066 58.1446 108.022 58.3326 108.022C58.5286 108.022 58.7006 108.066 58.8486 108.154C59.0006 108.238 59.1206 108.358 59.2086 108.514C59.3006 108.67 59.3466 108.858 59.3466 109.078C59.3466 109.294 59.3006 109.482 59.2086 109.642C59.1206 109.798 59.0006 109.92 58.8486 110.008C58.6966 110.092 58.5246 110.135 58.3326 110.135ZM58.3266 109.63C58.4106 109.63 58.4866 109.61 58.5546 109.57C58.6226 109.526 58.6766 109.464 58.7166 109.384C58.7566 109.3 58.7766 109.198 58.7766 109.078C58.7766 108.954 58.7566 108.852 58.7166 108.772C58.6766 108.692 58.6226 108.632 58.5546 108.592C58.4906 108.548 58.4166 108.526 58.3326 108.526C58.2526 108.526 58.1786 108.548 58.1106 108.592C58.0426 108.632 57.9886 108.692 57.9486 108.772C57.9086 108.852 57.8886 108.954 57.8886 109.078C57.8886 109.198 57.9086 109.3 57.9486 109.384C57.9886 109.464 58.0406 109.526 58.1046 109.57C58.1726 109.61 58.2466 109.63 58.3266 109.63ZM55.6626 107.902C55.4706 107.902 55.2966 107.86 55.1406 107.776C54.9886 107.692 54.8666 107.57 54.7746 107.41C54.6866 107.25 54.6426 107.062 54.6426 106.846C54.6426 106.63 54.6866 106.444 54.7746 106.288C54.8666 106.128 54.9906 106.006 55.1466 105.922C55.3026 105.838 55.4746 105.796 55.6626 105.796C55.8546 105.796 56.0266 105.838 56.1786 105.922C56.3306 106.006 56.4506 106.128 56.5386 106.288C56.6306 106.444 56.6766 106.63 56.6766 106.846C56.6766 107.062 56.6306 107.25 56.5386 107.41C56.4506 107.57 56.3306 107.692 56.1786 107.776C56.0266 107.86 55.8546 107.902 55.6626 107.902ZM55.6566 107.398C55.7406 107.398 55.8166 107.378 55.8846 107.338C55.9526 107.294 56.0046 107.232 56.0406 107.152C56.0806 107.068 56.1006 106.966 56.1006 106.846C56.1006 106.726 56.0806 106.624 56.0406 106.54C56.0046 106.456 55.9526 106.394 55.8846 106.354C55.8166 106.31 55.7426 106.288 55.6626 106.288C55.5826 106.288 55.5066 106.31 55.4346 106.354C55.3666 106.394 55.3126 106.456 55.2726 106.54C55.2326 106.624 55.2126 106.726 55.2126 106.846C55.2126 106.966 55.2326 107.068 55.2726 107.152C55.3126 107.232 55.3666 107.294 55.4346 107.338C55.5026 107.378 55.5766 107.398 55.6566 107.398Z" fill="white"/>
<path d="M29.2823 110.135C28.9983 110.135 28.7423 110.084 28.5143 109.984C28.2863 109.88 28.1043 109.736 27.9683 109.552C27.8363 109.365 27.7703 109.144 27.7703 108.892C27.7703 108.724 27.8003 108.568 27.8603 108.424C27.9203 108.28 28.0063 108.156 28.1183 108.052C28.2303 107.944 28.3603 107.864 28.5083 107.812C28.3123 107.724 28.1563 107.602 28.0403 107.446C27.9283 107.286 27.8723 107.108 27.8723 106.912C27.8723 106.708 27.9263 106.522 28.0343 106.354C28.1423 106.186 28.3003 106.05 28.5083 105.946C28.7203 105.842 28.9783 105.79 29.2823 105.79C29.5863 105.79 29.8423 105.842 30.0503 105.946C30.2583 106.05 30.4163 106.186 30.5243 106.354C30.6323 106.522 30.6863 106.708 30.6863 106.912C30.6863 107.104 30.6283 107.282 30.5123 107.446C30.4003 107.606 30.2463 107.728 30.0503 107.812C30.2023 107.864 30.3323 107.944 30.4403 108.052C30.5523 108.16 30.6383 108.286 30.6983 108.43C30.7623 108.57 30.7943 108.724 30.7943 108.892C30.7943 109.144 30.7263 109.365 30.5903 109.552C30.4543 109.736 30.2723 109.88 30.0443 109.984C29.8203 110.084 29.5663 110.135 29.2823 110.135ZM29.2823 109.528C29.5463 109.528 29.7443 109.464 29.8763 109.336C30.0123 109.204 30.0803 109.038 30.0803 108.838C30.0803 108.614 30.0083 108.442 29.8643 108.322C29.7243 108.198 29.5303 108.136 29.2823 108.136C29.0343 108.136 28.8363 108.198 28.6883 108.322C28.5443 108.442 28.4723 108.614 28.4723 108.838C28.4723 109.038 28.5403 109.204 28.6763 109.336C28.8163 109.464 29.0183 109.528 29.2823 109.528ZM29.2823 107.59C29.4983 107.59 29.6663 107.534 29.7863 107.422C29.9103 107.306 29.9723 107.162 29.9723 106.99C29.9723 106.794 29.9103 106.644 29.7863 106.54C29.6663 106.432 29.4983 106.378 29.2823 106.378C29.0663 106.378 28.8963 106.432 28.7723 106.54C28.6523 106.644 28.5923 106.794 28.5923 106.99C28.5923 107.166 28.6523 107.31 28.7723 107.422C28.8963 107.534 29.0663 107.59 29.2823 107.59ZM33.2543 110.135C32.8743 110.135 32.5483 110.045 32.2763 109.865C32.0043 109.68 31.7943 109.426 31.6463 109.102C31.5023 108.774 31.4303 108.394 31.4303 107.962C31.4303 107.53 31.5023 107.152 31.6463 106.828C31.7943 106.5 32.0043 106.246 32.2763 106.066C32.5483 105.882 32.8743 105.79 33.2543 105.79C33.6303 105.79 33.9523 105.882 34.2203 106.066C34.4923 106.246 34.7003 106.5 34.8443 106.828C34.9923 107.152 35.0663 107.53 35.0663 107.962C35.0663 108.394 34.9923 108.774 34.8443 109.102C34.7003 109.426 34.4923 109.68 34.2203 109.865C33.9523 110.045 33.6303 110.135 33.2543 110.135ZM33.2483 109.486C33.4603 109.486 33.6483 109.426 33.8123 109.306C33.9763 109.182 34.1023 109.006 34.1903 108.778C34.2823 108.55 34.3283 108.278 34.3283 107.962C34.3283 107.646 34.2823 107.374 34.1903 107.146C34.1023 106.918 33.9763 106.744 33.8123 106.624C33.6483 106.5 33.4603 106.438 33.2483 106.438C33.0363 106.438 32.8483 106.5 32.6843 106.624C32.5203 106.744 32.3923 106.918 32.3003 107.146C32.2123 107.374 32.1683 107.646 32.1683 107.962C32.1683 108.278 32.2123 108.55 32.3003 108.778C32.3923 109.006 32.5203 109.182 32.6843 109.306C32.8483 109.426 33.0363 109.486 33.2483 109.486ZM36.3878 110.062L38.7698 105.862H39.4778L37.0958 110.062H36.3878ZM39.2858 110.135C39.0978 110.135 38.9258 110.092 38.7698 110.008C38.6178 109.92 38.4958 109.798 38.4038 109.642C38.3118 109.482 38.2658 109.294 38.2658 109.078C38.2658 108.858 38.3118 108.67 38.4038 108.514C38.4958 108.358 38.6178 108.238 38.7698 108.154C38.9258 108.066 39.0978 108.022 39.2858 108.022C39.4818 108.022 39.6538 108.066 39.8018 108.154C39.9538 108.238 40.0738 108.358 40.1618 108.514C40.2538 108.67 40.2998 108.858 40.2998 109.078C40.2998 109.294 40.2538 109.482 40.1618 109.642C40.0738 109.798 39.9538 109.92 39.8018 110.008C39.6498 110.092 39.4778 110.135 39.2858 110.135ZM39.2798 109.63C39.3638 109.63 39.4398 109.61 39.5078 109.57C39.5758 109.526 39.6298 109.464 39.6698 109.384C39.7098 109.3 39.7298 109.198 39.7298 109.078C39.7298 108.954 39.7098 108.852 39.6698 108.772C39.6298 108.692 39.5758 108.632 39.5078 108.592C39.4438 108.548 39.3698 108.526 39.2858 108.526C39.2058 108.526 39.1318 108.548 39.0638 108.592C38.9958 108.632 38.9418 108.692 38.9018 108.772C38.8618 108.852 38.8418 108.954 38.8418 109.078C38.8418 109.198 38.8618 109.3 38.9018 109.384C38.9418 109.464 38.9938 109.526 39.0578 109.57C39.1258 109.61 39.1998 109.63 39.2798 109.63ZM36.6158 107.902C36.4238 107.902 36.2498 107.86 36.0938 107.776C35.9418 107.692 35.8198 107.57 35.7278 107.41C35.6398 107.25 35.5958 107.062 35.5958 106.846C35.5958 106.63 35.6398 106.444 35.7278 106.288C35.8198 106.128 35.9438 106.006 36.0998 105.922C36.2558 105.838 36.4278 105.796 36.6158 105.796C36.8078 105.796 36.9798 105.838 37.1318 105.922C37.2838 106.006 37.4038 106.128 37.4918 106.288C37.5838 106.444 37.6298 106.63 37.6298 106.846C37.6298 107.062 37.5838 107.25 37.4918 107.41C37.4038 107.57 37.2838 107.692 37.1318 107.776C36.9798 107.86 36.8078 107.902 36.6158 107.902ZM36.6098 107.398C36.6938 107.398 36.7698 107.378 36.8378 107.338C36.9058 107.294 36.9578 107.232 36.9938 107.152C37.0338 107.068 37.0538 106.966 37.0538 106.846C37.0538 106.726 37.0338 106.624 36.9938 106.54C36.9578 106.456 36.9058 106.394 36.8378 106.354C36.7698 106.31 36.6958 106.288 36.6158 106.288C36.5358 106.288 36.4598 106.31 36.3878 106.354C36.3198 106.394 36.2658 106.456 36.2257 106.54C36.1858 106.624 36.1658 106.726 36.1658 106.846C36.1658 106.966 36.1858 107.068 36.2257 107.152C36.2658 107.232 36.3198 107.294 36.3878 107.338C36.4558 107.378 36.5298 107.398 36.6098 107.398Z" fill="black"/>
</svg>
