<svg width="226" height="227" viewBox="0 0 226 227" fill="none" xmlns="http://www.w3.org/2000/svg">
<circle cx="113.444" cy="113" r="100.722" stroke="#2A2A2A"/>
<line x1="114.953" y1="212.5" x2="114.953" y2="12.5" stroke="#2A2A2A" stroke-linecap="round"/>
<line x1="13.4998" y1="112.5" x2="213.389" y2="112.5" stroke="#2A2A2A" stroke-linecap="round"/>
<line x1="0.5" y1="-0.5" x2="199.945" y2="-0.5" transform="matrix(0.708673 -0.705537 0.708673 0.705537 43.1331 184.421)" stroke="#2A2A2A" stroke-linecap="round"/>
<line x1="0.5" y1="-0.5" x2="199.945" y2="-0.5" transform="matrix(0.708673 0.705537 -0.708673 0.705537 43.1331 42)" stroke="#2A2A2A" stroke-linecap="round"/>
<path d="M114.449 88.5C128.043 88.5001 139.06 99.4712 139.06 113C139.06 126.529 128.043 137.5 114.449 137.5C100.854 137.5 89.8375 126.529 89.8375 113C89.8375 99.4711 100.854 88.5 114.449 88.5Z" fill="#111111" stroke="#2A2A2A"/>
<path d="M163.419 112.562C163.419 140.006 141.072 162.254 113.507 162.254C85.9409 162.254 63.5944 140.006 63.5944 112.562C63.5944 85.1187 85.9409 62.8711 113.507 62.8711C141.072 62.8711 163.419 85.1187 163.419 112.562ZM81.0637 112.562C81.0637 130.401 95.5889 144.862 113.507 144.862C131.424 144.862 145.95 130.401 145.95 112.562C145.95 94.724 131.424 80.2631 113.507 80.2631C95.5889 80.2631 81.0637 94.724 81.0637 112.562Z" fill="#241C28"/>
<path d="M182.796 112.563C182.796 150.83 151.774 181.852 113.507 181.852C75.2393 181.852 44.2175 150.83 44.2175 112.563C44.2175 74.2953 75.2393 43.2734 113.507 43.2734C151.774 43.2734 182.796 74.2953 182.796 112.563ZM61.2434 112.563C61.2434 141.427 84.6425 164.826 113.507 164.826C142.371 164.826 165.77 141.427 165.77 112.563C165.77 83.6985 142.371 60.2994 113.507 60.2994C84.6425 60.2994 61.2434 83.6985 61.2434 112.563Z" fill="#281C13"/>
<path d="M200.618 112.562C200.618 160.887 161.443 200.062 113.118 200.062C64.7929 200.062 25.6178 160.887 25.6178 112.562C25.6178 64.2376 64.7929 25.0625 113.118 25.0625C161.443 25.0625 200.618 64.2376 200.618 112.562ZM41.6126 112.562C41.6126 152.054 73.6266 184.068 113.118 184.068C152.609 184.068 184.623 152.054 184.623 112.562C184.623 73.0713 152.609 41.0573 113.118 41.0573C73.6266 41.0573 41.6126 73.0713 41.6126 112.562Z" fill="#282828"/>
<path d="M67.5944 112.562C65.3853 112.562 63.5776 110.769 63.756 108.567C64.1739 103.41 65.3988 98.3413 67.3938 93.5464C69.9021 87.5176 73.5786 82.0396 78.2134 77.4254C82.8482 72.8111 88.3504 69.1508 94.4061 66.6536C100.462 64.1564 106.952 62.8711 113.507 62.8711C120.061 62.8711 126.552 64.1564 132.607 66.6536C138.663 69.1509 144.165 72.8111 148.8 77.4254C153.435 82.0396 157.111 87.5176 159.619 93.5464C161.614 98.3413 162.839 103.41 163.257 108.567C163.436 110.769 161.628 112.562 159.419 112.562H149.95C147.74 112.562 145.975 110.765 145.701 108.573C145.342 105.702 144.597 102.886 143.48 100.202C141.85 96.2833 139.46 92.7226 136.447 89.7233C133.435 86.7241 129.858 84.3449 125.922 82.7217C121.986 81.0985 117.767 80.2631 113.507 80.2631C109.246 80.2631 105.027 81.0985 101.091 82.7217C97.1551 84.3449 93.5786 86.7241 90.566 89.7233C87.5534 92.7226 85.1637 96.2833 83.5333 100.202C82.4166 102.886 81.6711 105.702 81.3122 108.573C81.0381 110.765 79.2728 112.562 77.0637 112.562H67.5944Z" fill="#D387FF"/>
<path d="M48.2175 112.563C46.0083 112.563 44.2054 110.77 44.3329 108.565C44.9907 97.1823 48.4492 86.1156 54.4279 76.3592C61.1047 65.4637 70.6644 56.6268 82.0501 50.8255C93.4358 45.0242 106.204 42.4844 118.943 43.487C131.682 44.4896 143.896 48.9955 154.234 56.5065C164.572 64.0175 172.632 74.2411 177.522 86.0469C182.412 97.8526 183.942 110.781 181.943 123.402C179.944 136.023 174.494 147.846 166.195 157.562C158.763 166.264 149.307 172.973 138.685 177.116C136.627 177.918 134.365 176.758 133.682 174.656L130.893 166.072C130.21 163.971 131.368 161.729 133.41 160.888C141.052 157.741 147.856 152.818 153.248 146.505C159.508 139.176 163.619 130.258 165.127 120.738C166.634 111.219 165.48 101.467 161.792 92.5624C158.103 83.6576 152.024 75.9462 144.226 70.2808C136.429 64.6154 127.216 61.2168 117.607 60.4605C107.998 59.7043 98.3677 61.62 89.7797 65.9958C81.1917 70.3716 73.9811 77.037 68.945 85.2552C64.6072 92.3337 62.0283 100.327 61.3964 108.566C61.2275 110.769 59.4526 112.563 57.2434 112.563H48.2175Z" fill="#FF812A"/>
<path d="M30.3956 112.562C28.1864 112.562 26.386 110.77 26.487 108.564C27.1613 93.8208 31.5558 79.4642 39.2896 66.8439C47.7211 53.0849 59.7933 41.9254 74.1714 34.5994C88.5495 27.2734 104.674 24.0661 120.761 25.3322C135.517 26.4936 149.714 31.377 162.038 39.497C163.883 40.7125 164.274 43.2224 162.976 45.0096L158.276 51.4775C156.978 53.2648 154.482 53.6506 152.625 52.4541C142.698 46.0574 131.321 42.2076 119.506 41.2777C106.359 40.2431 93.1827 42.8641 81.4329 48.8509C69.6831 54.8378 59.8177 63.9572 52.9274 75.2011C46.7351 85.3061 43.1625 96.773 42.5022 108.564C42.3787 110.77 40.5995 112.562 38.3904 112.562H30.3956Z" fill="white"/>
<path d="M8 124.822H3.496L3.752 125.814H3.008L2.4 124.438V123.838H8V124.822ZM8.096 120.481C8.096 120.988 7.976 121.423 7.736 121.785C7.49067 122.148 7.152 122.428 6.72 122.625C6.28267 122.817 5.776 122.913 5.2 122.913C4.624 122.913 4.12 122.817 3.688 122.625C3.25067 122.428 2.912 122.148 2.672 121.785C2.42667 121.423 2.304 120.988 2.304 120.481C2.304 119.98 2.42667 119.551 2.672 119.193C2.912 118.831 3.25067 118.553 3.688 118.361C4.12 118.164 4.624 118.065 5.2 118.065C5.776 118.065 6.28267 118.164 6.72 118.361C7.152 118.553 7.49067 118.831 7.736 119.193C7.976 119.551 8.096 119.98 8.096 120.481ZM7.232 120.489C7.232 120.207 7.152 119.956 6.992 119.737C6.82667 119.519 6.592 119.351 6.288 119.233C5.984 119.111 5.62133 119.049 5.2 119.049C4.77867 119.049 4.416 119.111 4.112 119.233C3.808 119.351 3.576 119.519 3.416 119.737C3.25067 119.956 3.168 120.207 3.168 120.489C3.168 120.772 3.25067 121.023 3.416 121.241C3.576 121.46 3.808 121.631 4.112 121.753C4.416 121.871 4.77867 121.929 5.2 121.929C5.62133 121.929 5.984 121.871 6.288 121.753C6.592 121.631 6.82667 121.46 6.992 121.241C7.152 121.023 7.232 120.772 7.232 120.489ZM8.096 114.895C8.096 115.402 7.976 115.837 7.736 116.199C7.49067 116.562 7.152 116.842 6.72 117.039C6.28267 117.231 5.776 117.327 5.2 117.327C4.624 117.327 4.12 117.231 3.688 117.039C3.25067 116.842 2.912 116.562 2.672 116.199C2.42667 115.837 2.304 115.402 2.304 114.895C2.304 114.394 2.42667 113.965 2.672 113.607C2.912 113.245 3.25067 112.967 3.688 112.775C4.12 112.578 4.624 112.479 5.2 112.479C5.776 112.479 6.28267 112.578 6.72 112.775C7.152 112.967 7.49067 113.245 7.736 113.607C7.976 113.965 8.096 114.394 8.096 114.895ZM7.232 114.903C7.232 114.621 7.152 114.37 6.992 114.151C6.82667 113.933 6.592 113.765 6.288 113.647C5.984 113.525 5.62133 113.463 5.2 113.463C4.77867 113.463 4.416 113.525 4.112 113.647C3.808 113.765 3.576 113.933 3.416 114.151C3.25067 114.37 3.168 114.621 3.168 114.903C3.168 115.186 3.25067 115.437 3.416 115.655C3.576 115.874 3.808 116.045 4.112 116.167C4.416 116.285 4.77867 116.343 5.2 116.343C5.62133 116.343 5.984 116.285 6.288 116.167C6.592 116.045 6.82667 115.874 6.992 115.655C7.152 115.437 7.232 115.186 7.232 114.903ZM8.864 112.238L1.8 110.23V109.294L8.864 111.302V112.238ZM8.096 106.45C8.096 106.957 7.976 107.391 7.736 107.754C7.49067 108.117 7.152 108.397 6.72 108.594C6.28267 108.786 5.776 108.882 5.2 108.882C4.624 108.882 4.12 108.786 3.688 108.594C3.25067 108.397 2.912 108.117 2.672 107.754C2.42667 107.391 2.304 106.957 2.304 106.45C2.304 105.949 2.42667 105.519 2.672 105.162C2.912 104.799 3.25067 104.522 3.688 104.33C4.12 104.133 4.624 104.034 5.2 104.034C5.776 104.034 6.28267 104.133 6.72 104.33C7.152 104.522 7.49067 104.799 7.736 105.162C7.976 105.519 8.096 105.949 8.096 106.45ZM7.232 106.458C7.232 106.175 7.152 105.925 6.992 105.706C6.82667 105.487 6.592 105.319 6.288 105.202C5.984 105.079 5.62133 105.018 5.2 105.018C4.77867 105.018 4.416 105.079 4.112 105.202C3.808 105.319 3.576 105.487 3.416 105.706C3.25067 105.925 3.168 106.175 3.168 106.458C3.168 106.741 3.25067 106.991 3.416 107.21C3.576 107.429 3.808 107.599 4.112 107.722C4.416 107.839 4.77867 107.898 5.2 107.898C5.62133 107.898 5.984 107.839 6.288 107.722C6.592 107.599 6.82667 107.429 6.992 107.21C7.152 106.991 7.232 106.741 7.232 106.458ZM8 102.272L2.4 99.0961V98.1521L8 101.328V102.272ZM8.096 98.4081C8.096 98.6587 8.04 98.8881 7.928 99.0961C7.81067 99.2987 7.648 99.4614 7.44 99.5841C7.22667 99.7067 6.976 99.7681 6.688 99.7681C6.39467 99.7681 6.144 99.7067 5.936 99.5841C5.728 99.4614 5.568 99.2987 5.456 99.0961C5.33867 98.8881 5.28 98.6587 5.28 98.4081C5.28 98.1467 5.33867 97.9174 5.456 97.7201C5.568 97.5174 5.728 97.3574 5.936 97.2401C6.144 97.1174 6.39467 97.0561 6.688 97.0561C6.976 97.0561 7.22667 97.1174 7.44 97.2401C7.648 97.3574 7.81067 97.5174 7.928 97.7201C8.04 97.9227 8.096 98.1521 8.096 98.4081ZM7.424 98.4161C7.424 98.3041 7.39733 98.2027 7.344 98.1121C7.28533 98.0214 7.20267 97.9494 7.096 97.8961C6.984 97.8427 6.848 97.8161 6.688 97.8161C6.52267 97.8161 6.38667 97.8427 6.28 97.8961C6.17333 97.9494 6.09333 98.0214 6.04 98.1121C5.98133 98.1974 5.952 98.2961 5.952 98.4081C5.952 98.5147 5.98133 98.6134 6.04 98.7041C6.09333 98.7947 6.17333 98.8667 6.28 98.9201C6.38667 98.9734 6.52267 99.0001 6.688 99.0001C6.848 99.0001 6.984 98.9734 7.096 98.9201C7.20267 98.8667 7.28533 98.7974 7.344 98.7121C7.39733 98.6214 7.424 98.5227 7.424 98.4161ZM5.12 101.968C5.12 102.224 5.064 102.456 4.952 102.664C4.84 102.867 4.67733 103.029 4.464 103.152C4.25067 103.269 4 103.328 3.712 103.328C3.424 103.328 3.176 103.269 2.968 103.152C2.75467 103.029 2.592 102.864 2.48 102.656C2.368 102.448 2.312 102.219 2.312 101.968C2.312 101.712 2.368 101.483 2.48 101.28C2.592 101.077 2.75467 100.917 2.968 100.8C3.176 100.677 3.424 100.616 3.712 100.616C4 100.616 4.25067 100.677 4.464 100.8C4.67733 100.917 4.84 101.077 4.952 101.28C5.064 101.483 5.12 101.712 5.12 101.968ZM4.448 101.976C4.448 101.864 4.42133 101.763 4.368 101.672C4.30933 101.581 4.22667 101.512 4.12 101.464C4.008 101.411 3.872 101.384 3.712 101.384C3.552 101.384 3.416 101.411 3.304 101.464C3.192 101.512 3.10933 101.581 3.056 101.672C2.99733 101.763 2.968 101.861 2.968 101.968C2.968 102.075 2.99733 102.176 3.056 102.272C3.10933 102.363 3.192 102.435 3.304 102.488C3.416 102.541 3.552 102.568 3.712 102.568C3.872 102.568 4.008 102.541 4.12 102.488C4.22667 102.435 4.30933 102.363 4.368 102.272C4.42133 102.181 4.448 102.083 4.448 101.976Z" fill="#9F9F9F"/>
<path d="M32.6634 43.3886L29.4715 40.2108L28.9499 41.0913L28.4227 40.5664L28.9669 39.1666L29.3921 38.7433L33.3607 42.6943L32.6634 43.3886ZM34.0618 41.9964L33.5685 41.5053C33.6214 41.0538 33.663 40.6135 33.6933 40.1846C33.7235 39.7556 33.7329 39.3511 33.7216 38.971C33.7103 38.591 33.663 38.2542 33.5799 37.9607C33.4967 37.6672 33.3682 37.4339 33.1943 37.2608C33.081 37.1479 32.9543 37.0633 32.8145 37.0068C32.6747 36.9504 32.5291 36.9372 32.378 36.9673C32.2306 36.9936 32.0831 37.0802 31.9357 37.2269C31.7921 37.3699 31.7014 37.5242 31.6636 37.6898C31.6296 37.8516 31.6428 38.0115 31.7033 38.1695C31.76 38.3238 31.8564 38.4687 31.9924 38.6041L31.3348 39.2589C31.0551 38.9654 30.8775 38.6644 30.8019 38.3558C30.7263 38.0472 30.7414 37.7462 30.8472 37.4527C30.9493 37.1554 31.125 36.8826 31.3745 36.6343C31.6428 36.3671 31.9206 36.1884 32.2079 36.0981C32.4951 36.0078 32.7786 36.0002 33.0583 36.0755C33.338 36.1508 33.5988 36.3088 33.8407 36.5496C34.0183 36.7265 34.16 36.9353 34.2659 37.1761C34.3717 37.4094 34.4473 37.6653 34.4926 37.9438C34.5342 38.2185 34.5569 38.5044 34.5607 38.8017C34.5644 39.0914 34.5569 39.3812 34.538 39.6709C34.5153 39.9569 34.4889 40.2278 34.4586 40.4837L36.2331 38.717L36.7944 39.2758L34.0618 41.9964ZM37.7307 38.4001C37.6022 38.5281 37.4586 38.592 37.2998 38.592C37.1411 38.592 37.0069 38.5375 36.8973 38.4283C36.7801 38.3117 36.7215 38.1743 36.7215 38.0163C36.7215 37.8583 36.7858 37.7153 36.9143 37.5873C37.039 37.4632 37.1808 37.4011 37.3395 37.4011C37.4982 37.4011 37.6362 37.4594 37.7534 37.576C37.863 37.6852 37.9178 37.8188 37.9178 37.9768C37.9178 38.1348 37.8554 38.2759 37.7307 38.4001ZM40.2328 35.9881C39.9493 36.2704 39.6545 36.466 39.3483 36.5752C39.0422 36.6768 38.7436 36.6993 38.4526 36.6429C38.1578 36.5827 37.8875 36.4529 37.6418 36.2534L38.3052 35.593C38.5055 35.7247 38.7304 35.7793 38.9798 35.7567C39.2255 35.7304 39.4504 35.6156 39.6545 35.4124C39.8094 35.2582 39.9058 35.0907 39.9436 34.9101C39.9776 34.7257 39.9625 34.5413 39.8983 34.3569C39.834 34.165 39.7225 33.9901 39.5638 33.832C39.4012 33.6702 39.2274 33.5611 39.0422 33.5047C38.8608 33.4445 38.6831 33.4369 38.5093 33.4821C38.3316 33.5235 38.171 33.6157 38.0274 33.7587C37.8497 33.9355 37.7382 34.1293 37.6929 34.34C37.6475 34.5432 37.657 34.7332 37.7212 34.9101L37.0636 35.5648L35.153 33.008L37.3414 30.8293L37.9367 31.4219L36.2585 33.0926L37.0579 34.2497C37.0503 34.0691 37.09 33.8791 37.177 33.6796C37.2601 33.4764 37.3943 33.2826 37.5795 33.0983C37.7874 32.8913 38.0066 32.7446 38.2371 32.658C38.4677 32.5715 38.7001 32.5357 38.9345 32.5508C39.1688 32.5658 39.3956 32.6298 39.6148 32.7427C39.834 32.848 40.0343 32.991 40.2157 33.1716C40.4198 33.3748 40.5748 33.5968 40.6806 33.8377C40.7827 34.0747 40.8356 34.3193 40.8394 34.5714C40.8469 34.8198 40.7997 35.0662 40.6976 35.3108C40.5994 35.5517 40.4444 35.7774 40.2328 35.9881ZM42.8586 33.2384L41.1408 27.0467L41.8098 26.3806L43.5276 32.5724L42.8586 33.2384ZM45.665 30.58C45.4873 30.7568 45.2851 30.8791 45.0583 30.9469C44.8316 31.0071 44.601 31.0071 44.3667 30.9469C44.1285 30.8829 43.9074 30.7493 43.7033 30.5461C43.4955 30.3392 43.3613 30.119 43.3008 29.8857C43.2403 29.6524 43.2422 29.4248 43.3065 29.2028C43.3707 28.9732 43.4917 28.77 43.6693 28.5932C43.8545 28.4088 44.0586 28.2884 44.2816 28.232C44.5046 28.168 44.7314 28.168 44.9619 28.232C45.1963 28.2922 45.4174 28.4257 45.6253 28.6327C45.8294 28.8359 45.9635 29.056 46.0278 29.2931C46.092 29.5226 46.0939 29.7503 46.0335 29.976C45.9692 30.1981 45.8464 30.3994 45.665 30.58ZM45.1831 30.1115C45.2624 30.0325 45.3153 29.9422 45.3418 29.8406C45.3645 29.7352 45.3569 29.6261 45.3191 29.5132C45.2775 29.3966 45.2001 29.2818 45.0867 29.1689C44.9695 29.0523 44.8542 28.9751 44.7408 28.9375C44.6275 28.8999 44.5197 28.8942 44.4177 28.9206C44.3156 28.9394 44.2249 28.9883 44.1456 29.0673C44.07 29.1426 44.0208 29.2329 43.9982 29.3382C43.9717 29.4398 43.9774 29.5471 44.0152 29.66C44.053 29.7728 44.1304 29.8876 44.2476 30.0043C44.361 30.1172 44.4763 30.1943 44.5934 30.2357C44.7068 30.2733 44.8145 30.2827 44.9166 30.2639C45.0186 30.2376 45.1075 30.1868 45.1831 30.1115ZM41.0331 30.992C40.8516 31.1726 40.6475 31.2968 40.4208 31.3645C40.1978 31.4285 39.9672 31.4285 39.7291 31.3645C39.4948 31.2968 39.2756 31.1613 39.0715 30.9582C38.8674 30.755 38.7332 30.5386 38.6689 30.3091C38.6047 30.072 38.6066 29.8406 38.6746 29.6148C38.7426 29.389 38.8655 29.1877 39.0431 29.0109C39.2245 28.8303 39.4267 28.708 39.6497 28.644C39.8727 28.58 40.1014 28.5819 40.3357 28.6496C40.5701 28.7098 40.7893 28.8415 40.9934 29.0447C41.1975 29.2479 41.3317 29.4681 41.3959 29.7051C41.4639 29.9384 41.4658 30.1661 41.4016 30.3881C41.3373 30.6101 41.2145 30.8114 41.0331 30.992ZM40.5512 30.5235C40.6305 30.4445 40.6835 30.3542 40.7099 30.2526C40.7326 30.1473 40.7231 30.04 40.6816 29.9309C40.64 29.8142 40.5625 29.6995 40.4491 29.5866C40.3357 29.4737 40.2205 29.3966 40.1033 29.3552C39.9899 29.31 39.8822 29.3006 39.7801 29.327C39.6743 29.3495 39.5836 29.3984 39.508 29.4737C39.4324 29.549 39.3814 29.6411 39.3549 29.7503C39.3285 29.8519 39.336 29.961 39.3776 30.0776C39.4192 30.1943 39.4967 30.3091 39.6101 30.4219C39.7234 30.5348 39.8387 30.612 39.9559 30.6534C40.0693 30.691 40.1789 30.6985 40.2847 30.6759C40.3868 30.6496 40.4756 30.5988 40.5512 30.5235Z" fill="#9F9F9F"/>
<path d="M107.908 8.0625V7.3665C108.265 7.08383 108.606 6.80117 108.932 6.5185C109.257 6.23583 109.55 5.95583 109.812 5.6785C110.073 5.40117 110.278 5.12917 110.428 4.8625C110.577 4.59583 110.652 4.33983 110.652 4.0945C110.652 3.9345 110.622 3.78517 110.564 3.6465C110.505 3.50783 110.412 3.39583 110.284 3.3105C110.161 3.22517 109.996 3.1825 109.788 3.1825C109.585 3.1825 109.412 3.22783 109.268 3.3185C109.129 3.40917 109.025 3.53183 108.956 3.6865C108.886 3.83583 108.852 4.0065 108.852 4.1985H107.924C107.934 3.79317 108.022 3.4545 108.188 3.1825C108.353 2.9105 108.577 2.70783 108.86 2.5745C109.142 2.43583 109.46 2.3665 109.812 2.3665C110.19 2.3665 110.513 2.43583 110.78 2.5745C111.046 2.71317 111.252 2.90783 111.396 3.1585C111.54 3.40917 111.612 3.70517 111.612 4.0465C111.612 4.29717 111.564 4.54517 111.468 4.7905C111.377 5.0305 111.249 5.26517 111.084 5.4945C110.918 5.7185 110.732 5.93717 110.524 6.1505C110.321 6.3585 110.11 6.5585 109.892 6.7505C109.673 6.93717 109.462 7.1105 109.26 7.2705L111.764 7.2705V8.0625H107.908ZM114.629 8.1585C114.229 8.1585 113.882 8.08917 113.589 7.9505C113.301 7.8065 113.074 7.61183 112.909 7.3665C112.743 7.11583 112.645 6.83317 112.613 6.5185H113.549C113.597 6.75317 113.717 6.9505 113.909 7.1105C114.101 7.26517 114.341 7.3425 114.629 7.3425C114.847 7.3425 115.034 7.29183 115.189 7.1905C115.343 7.08383 115.463 6.9425 115.549 6.7665C115.639 6.58517 115.685 6.3825 115.685 6.1585C115.685 5.92917 115.639 5.72917 115.549 5.5585C115.463 5.38783 115.343 5.25717 115.189 5.1665C115.034 5.0705 114.855 5.0225 114.653 5.0225C114.402 5.0225 114.186 5.08117 114.005 5.1985C113.829 5.3105 113.701 5.45183 113.621 5.6225H112.693L113.157 2.4625L116.245 2.4625V3.3025H113.877L113.621 4.6865C113.743 4.55317 113.906 4.4465 114.109 4.3665C114.311 4.28117 114.543 4.2385 114.805 4.2385C115.098 4.2385 115.357 4.28917 115.581 4.3905C115.805 4.49183 115.994 4.6305 116.149 4.8065C116.303 4.9825 116.418 5.18783 116.493 5.4225C116.573 5.65183 116.613 5.8945 116.613 6.1505C116.613 6.4385 116.565 6.70517 116.469 6.9505C116.373 7.1905 116.237 7.40117 116.061 7.5825C115.89 7.76383 115.682 7.90517 115.437 8.0065C115.197 8.10783 114.927 8.1585 114.629 8.1585ZM118.43 8.0625L121.606 2.4625H122.55L119.374 8.0625H118.43ZM122.294 8.1585C122.043 8.1585 121.814 8.1025 121.606 7.9905C121.403 7.87317 121.241 7.7105 121.118 7.5025C120.995 7.28917 120.934 7.0385 120.934 6.7505C120.934 6.45717 120.995 6.2065 121.118 5.9985C121.241 5.7905 121.403 5.6305 121.606 5.5185C121.814 5.40117 122.043 5.3425 122.294 5.3425C122.555 5.3425 122.785 5.40117 122.982 5.5185C123.185 5.6305 123.345 5.7905 123.462 5.9985C123.585 6.2065 123.646 6.45717 123.646 6.7505C123.646 7.0385 123.585 7.28917 123.462 7.5025C123.345 7.7105 123.185 7.87317 122.982 7.9905C122.779 8.1025 122.55 8.1585 122.294 8.1585ZM122.286 7.4865C122.398 7.4865 122.499 7.45983 122.59 7.4065C122.681 7.34783 122.753 7.26517 122.806 7.1585C122.859 7.0465 122.886 6.9105 122.886 6.7505C122.886 6.58517 122.859 6.44917 122.806 6.3425C122.753 6.23583 122.681 6.15583 122.59 6.1025C122.505 6.04383 122.406 6.0145 122.294 6.0145C122.187 6.0145 122.089 6.04383 121.998 6.1025C121.907 6.15583 121.835 6.23583 121.782 6.3425C121.729 6.44917 121.702 6.58517 121.702 6.7505C121.702 6.9105 121.729 7.0465 121.782 7.1585C121.835 7.26517 121.905 7.34783 121.99 7.4065C122.081 7.45983 122.179 7.4865 122.286 7.4865ZM118.734 5.1825C118.478 5.1825 118.246 5.1265 118.038 5.0145C117.835 4.9025 117.673 4.73983 117.55 4.5265C117.433 4.31317 117.374 4.0625 117.374 3.7745C117.374 3.4865 117.433 3.2385 117.55 3.0305C117.673 2.81717 117.838 2.6545 118.046 2.5425C118.254 2.4305 118.483 2.3745 118.734 2.3745C118.99 2.3745 119.219 2.4305 119.422 2.5425C119.625 2.6545 119.785 2.81717 119.902 3.0305C120.025 3.2385 120.086 3.4865 120.086 3.7745C120.086 4.0625 120.025 4.31317 119.902 4.5265C119.785 4.73983 119.625 4.9025 119.422 5.0145C119.219 5.1265 118.99 5.1825 118.734 5.1825ZM118.726 4.5105C118.838 4.5105 118.939 4.48383 119.03 4.4305C119.121 4.37183 119.19 4.28917 119.238 4.1825C119.291 4.0705 119.318 3.9345 119.318 3.7745C119.318 3.6145 119.291 3.4785 119.238 3.3665C119.19 3.2545 119.121 3.17183 119.03 3.1185C118.939 3.05983 118.841 3.0305 118.734 3.0305C118.627 3.0305 118.526 3.05983 118.43 3.1185C118.339 3.17183 118.267 3.2545 118.214 3.3665C118.161 3.4785 118.134 3.6145 118.134 3.7745C118.134 3.9345 118.161 4.0705 118.214 4.1825C118.267 4.28917 118.339 4.37183 118.43 4.4305C118.521 4.48383 118.619 4.5105 118.726 4.5105Z" fill="#9F9F9F"/>
<path d="M184.565 32.4565C184.308 32.2007 184.119 31.9222 183.998 31.6212C183.881 31.3164 183.853 31.0059 183.913 30.6899C183.981 30.3738 184.157 30.0671 184.441 29.7698L185.11 30.4359C184.981 30.5713 184.89 30.7219 184.837 30.8874C184.792 31.053 184.792 31.2223 184.837 31.3954C184.887 31.5647 184.989 31.7265 185.144 31.8808C185.291 32.0276 185.444 32.1235 185.603 32.1687C185.765 32.2176 185.922 32.2195 186.073 32.1743C186.225 32.1292 186.361 32.0464 186.482 31.926C186.629 31.7792 186.714 31.6231 186.737 31.4575C186.763 31.2882 186.739 31.117 186.663 30.9439C186.587 30.7708 186.47 30.6052 186.312 30.4472L186.017 30.1537L186.578 29.5949L186.873 29.8884C187.081 30.0953 187.298 30.2176 187.525 30.2553C187.755 30.2891 187.963 30.2139 188.148 30.0295C188.303 29.8752 188.377 29.7002 188.369 29.5046C188.366 29.3127 188.271 29.1245 188.086 28.9401C187.893 28.7482 187.684 28.6523 187.457 28.6523C187.234 28.656 187.033 28.7351 186.856 28.8893L186.187 28.2233C186.436 27.9975 186.703 27.8527 186.986 27.7887C187.277 27.7247 187.566 27.7417 187.854 27.8395C188.141 27.9373 188.413 28.1142 188.67 28.3701C188.938 28.6372 189.118 28.91 189.209 29.1885C189.299 29.4669 189.313 29.7322 189.248 29.9843C189.188 30.2402 189.063 30.4622 188.874 30.6504C188.727 30.7971 188.564 30.9025 188.387 30.9664C188.209 31.0304 188.029 31.0549 187.848 31.0398C187.674 31.0248 187.504 30.9721 187.338 30.8818C187.455 31.0586 187.527 31.2468 187.553 31.4462C187.583 31.6494 187.563 31.8507 187.491 32.0501C187.426 32.2496 187.306 32.4377 187.128 32.6146C186.912 32.8291 186.659 32.9758 186.368 33.0548C186.085 33.1338 185.786 33.1263 185.472 33.0322C185.163 32.9419 184.86 32.75 184.565 32.4565ZM186.957 34.7022L191.821 32.8057L189.826 30.8189L190.41 30.2376L193.103 32.9186L192.615 33.404L187.666 35.4077L186.957 34.7022ZM189.631 37.4203C189.502 37.2924 189.438 37.1494 189.438 36.9913C189.438 36.8333 189.493 36.6997 189.602 36.5906C189.719 36.4739 189.857 36.4156 190.016 36.4156C190.175 36.4156 190.318 36.4796 190.447 36.6075C190.572 36.7317 190.634 36.8728 190.634 37.0308C190.634 37.1889 190.575 37.3262 190.458 37.4429C190.349 37.552 190.214 37.6066 190.056 37.6066C189.897 37.6066 189.755 37.5445 189.631 37.4203ZM192.053 39.9113C191.77 39.6291 191.573 39.3356 191.464 39.0308C191.362 38.726 191.339 38.4287 191.396 38.139C191.456 37.8455 191.586 37.5764 191.787 37.3318L192.45 37.9922C192.318 38.1917 192.263 38.4155 192.286 38.6639C192.312 38.9085 192.427 39.1324 192.632 39.3356C192.786 39.4898 192.955 39.5858 193.136 39.6234C193.321 39.6573 193.506 39.6422 193.692 39.5783C193.884 39.5143 194.06 39.4033 194.219 39.2453C194.381 39.0835 194.491 38.9104 194.548 38.726C194.608 38.5454 194.616 38.3685 194.57 38.1954C194.529 38.0186 194.436 37.8586 194.293 37.7157C194.115 37.5388 193.92 37.4278 193.709 37.3826C193.505 37.3375 193.314 37.3469 193.136 37.4109L192.478 36.7561L195.047 34.854L197.235 37.0327L196.64 37.6253L194.962 35.9546L193.799 36.7505C193.981 36.7429 194.172 36.7825 194.372 36.869C194.576 36.9518 194.771 37.0854 194.956 37.2698C195.164 37.4767 195.311 37.695 195.398 37.9245C195.485 38.154 195.521 38.3854 195.506 38.6187C195.491 38.852 195.427 39.0778 195.313 39.2961C195.207 39.5143 195.064 39.7137 194.882 39.8943C194.678 40.0975 194.455 40.2518 194.213 40.3572C193.975 40.4588 193.729 40.5115 193.476 40.5152C193.227 40.5227 192.979 40.4757 192.734 40.3741C192.492 40.2763 192.265 40.122 192.053 39.9113ZM194.815 42.5255L201.034 40.8153L201.703 41.4813L195.484 43.1915L194.815 42.5255ZM197.485 45.3194C197.308 45.1426 197.185 44.9413 197.117 44.7155C197.056 44.4897 197.056 44.2602 197.117 44.0269C197.181 43.7898 197.315 43.5697 197.519 43.3665C197.727 43.1596 197.948 43.026 198.183 42.9658C198.417 42.9056 198.646 42.9074 198.869 42.9714C199.099 43.0354 199.303 43.1558 199.481 43.3327C199.666 43.517 199.787 43.7202 199.844 43.9422C199.908 44.1642 199.908 44.39 199.844 44.6196C199.783 44.8529 199.649 45.073 199.441 45.2799C199.237 45.4831 199.016 45.6167 198.778 45.6807C198.547 45.7447 198.319 45.7465 198.092 45.6863C197.869 45.6224 197.667 45.5001 197.485 45.3194ZM197.956 44.8397C198.035 44.9187 198.126 44.9714 198.228 44.9977C198.334 45.0203 198.444 45.0128 198.557 44.9751C198.674 44.9338 198.789 44.8566 198.903 44.7437C199.02 44.6271 199.097 44.5123 199.135 44.3994C199.173 44.2865 199.179 44.1793 199.152 44.0777C199.133 43.9761 199.084 43.8858 199.005 43.8068C198.929 43.7315 198.839 43.6826 198.733 43.66C198.631 43.6337 198.523 43.6393 198.41 43.677C198.296 43.7146 198.181 43.7917 198.064 43.9084C197.95 44.0213 197.873 44.136 197.831 44.2527C197.793 44.3656 197.784 44.4728 197.803 44.5744C197.829 44.676 197.88 44.7644 197.956 44.8397ZM197.072 40.7081C196.89 40.5274 196.765 40.3242 196.697 40.0985C196.633 39.8765 196.633 39.6469 196.697 39.4099C196.765 39.1766 196.901 38.9583 197.106 38.7551C197.31 38.5519 197.527 38.4184 197.758 38.3544C197.996 38.2904 198.228 38.2923 198.455 38.36C198.682 38.4278 198.884 38.5501 199.062 38.7269C199.243 38.9075 199.366 39.1088 199.43 39.3308C199.494 39.5529 199.492 39.7805 199.424 40.0138C199.364 40.2471 199.232 40.4653 199.027 40.6685C198.823 40.8717 198.602 41.0053 198.364 41.0693C198.13 41.137 197.901 41.1389 197.678 41.0749C197.455 41.011 197.253 40.8887 197.072 40.7081ZM197.542 40.2283C197.621 40.3073 197.712 40.36 197.814 40.3863C197.92 40.4089 198.028 40.3995 198.137 40.3581C198.255 40.3167 198.37 40.2396 198.483 40.1267C198.597 40.0138 198.674 39.899 198.716 39.7824C198.761 39.6695 198.77 39.5623 198.744 39.4607C198.721 39.3553 198.672 39.265 198.597 39.1897C198.521 39.1145 198.428 39.0637 198.319 39.0373C198.217 39.011 198.107 39.0185 197.99 39.0599C197.873 39.1013 197.758 39.1784 197.644 39.2913C197.531 39.4042 197.453 39.519 197.412 39.6356C197.374 39.7485 197.366 39.8576 197.389 39.963C197.416 40.0646 197.467 40.153 197.542 40.2283Z" fill="#9F9F9F"/>
<path d="M217.904 105.599C217.904 105.199 217.973 104.852 218.112 104.559C218.256 104.271 218.451 104.044 218.696 103.879C218.947 103.713 219.229 103.615 219.544 103.583V104.519C219.309 104.567 219.112 104.687 218.952 104.879C218.797 105.071 218.72 105.311 218.72 105.599C218.72 105.817 218.771 106.004 218.872 106.159C218.979 106.313 219.12 106.433 219.296 106.519C219.477 106.609 219.68 106.655 219.904 106.655C220.133 106.655 220.333 106.609 220.504 106.519C220.675 106.433 220.805 106.313 220.896 106.159C220.992 106.004 221.04 105.825 221.04 105.623C221.04 105.372 220.981 105.156 220.864 104.975C220.752 104.799 220.611 104.671 220.44 104.591V103.663L223.6 104.127V107.215H222.76V104.847L221.376 104.591C221.509 104.713 221.616 104.876 221.696 105.079C221.781 105.281 221.824 105.513 221.824 105.775C221.824 106.068 221.773 106.327 221.672 106.551C221.571 106.775 221.432 106.964 221.256 107.119C221.08 107.273 220.875 107.388 220.64 107.463C220.411 107.543 220.168 107.583 219.912 107.583C219.624 107.583 219.357 107.535 219.112 107.439C218.872 107.343 218.661 107.207 218.48 107.031C218.299 106.86 218.157 106.652 218.056 106.407C217.955 106.167 217.904 105.897 217.904 105.599ZM217.904 110.808C217.904 110.301 218.024 109.866 218.264 109.504C218.509 109.141 218.848 108.861 219.28 108.664C219.717 108.472 220.224 108.376 220.8 108.376C221.376 108.376 221.88 108.472 222.312 108.664C222.749 108.861 223.088 109.141 223.328 109.504C223.573 109.866 223.696 110.301 223.696 110.808C223.696 111.309 223.573 111.738 223.328 112.096C223.088 112.458 222.749 112.736 222.312 112.928C221.88 113.125 221.376 113.224 220.8 113.224C220.224 113.224 219.717 113.125 219.28 112.928C218.848 112.736 218.509 112.458 218.264 112.096C218.024 111.738 217.904 111.309 217.904 110.808ZM218.768 110.8C218.768 111.082 218.848 111.333 219.008 111.552C219.173 111.77 219.408 111.938 219.712 112.056C220.016 112.178 220.379 112.24 220.8 112.24C221.221 112.24 221.584 112.178 221.888 112.056C222.192 111.938 222.424 111.77 222.584 111.552C222.749 111.333 222.832 111.082 222.832 110.8C222.832 110.517 222.749 110.266 222.584 110.048C222.424 109.829 222.192 109.658 221.888 109.536C221.584 109.418 221.221 109.36 220.8 109.36C220.379 109.36 220.016 109.418 219.712 109.536C219.408 109.658 219.173 109.829 219.008 110.048C218.848 110.266 218.768 110.517 218.768 110.8ZM218 114.986L223.6 118.162V119.106L218 115.93V114.986ZM217.904 118.85C217.904 118.599 217.96 118.37 218.072 118.162C218.189 117.959 218.352 117.796 218.56 117.674C218.773 117.551 219.024 117.49 219.312 117.49C219.605 117.49 219.856 117.551 220.064 117.674C220.272 117.796 220.432 117.959 220.544 118.162C220.661 118.37 220.72 118.599 220.72 118.85C220.72 119.111 220.661 119.34 220.544 119.538C220.432 119.74 220.272 119.9 220.064 120.018C219.856 120.14 219.605 120.202 219.312 120.202C219.024 120.202 218.773 120.14 218.56 120.018C218.352 119.9 218.189 119.74 218.072 119.538C217.96 119.335 217.904 119.106 217.904 118.85ZM218.576 118.842C218.576 118.954 218.603 119.055 218.656 119.146C218.715 119.236 218.797 119.308 218.904 119.362C219.016 119.415 219.152 119.442 219.312 119.442C219.477 119.442 219.613 119.415 219.72 119.362C219.827 119.308 219.907 119.236 219.96 119.146C220.019 119.06 220.048 118.962 220.048 118.85C220.048 118.743 220.019 118.644 219.96 118.554C219.907 118.463 219.827 118.391 219.72 118.338C219.613 118.284 219.477 118.258 219.312 118.258C219.152 118.258 219.016 118.284 218.904 118.338C218.797 118.391 218.715 118.46 218.656 118.546C218.603 118.636 218.576 118.735 218.576 118.842ZM220.88 115.29C220.88 115.034 220.936 114.802 221.048 114.594C221.16 114.391 221.323 114.228 221.536 114.106C221.749 113.988 222 113.93 222.288 113.93C222.576 113.93 222.824 113.988 223.032 114.106C223.245 114.228 223.408 114.394 223.52 114.602C223.632 114.81 223.688 115.039 223.688 115.29C223.688 115.546 223.632 115.775 223.52 115.978C223.408 116.18 223.245 116.34 223.032 116.458C222.824 116.58 222.576 116.642 222.288 116.642C222 116.642 221.749 116.58 221.536 116.458C221.323 116.34 221.16 116.18 221.048 115.978C220.936 115.775 220.88 115.546 220.88 115.29ZM221.552 115.282C221.552 115.394 221.579 115.495 221.632 115.586C221.691 115.676 221.773 115.746 221.88 115.794C221.992 115.847 222.128 115.874 222.288 115.874C222.448 115.874 222.584 115.847 222.696 115.794C222.808 115.746 222.891 115.676 222.944 115.586C223.003 115.495 223.032 115.396 223.032 115.29C223.032 115.183 223.003 115.082 222.944 114.986C222.891 114.895 222.808 114.823 222.696 114.77C222.584 114.716 222.448 114.69 222.288 114.69C222.128 114.69 221.992 114.716 221.88 114.77C221.773 114.823 221.691 114.895 221.632 114.986C221.579 115.076 221.552 115.175 221.552 115.282Z" fill="#9F9F9F"/>
<path d="M197.045 179.991C197.34 179.698 197.644 179.504 197.958 179.41C198.268 179.32 198.574 179.305 198.876 179.365C199.182 179.429 199.477 179.546 199.761 179.715C200.044 179.884 200.305 180.087 200.543 180.324C200.985 180.765 201.306 181.209 201.507 181.656C201.711 182.108 201.788 182.539 201.739 182.949C201.686 183.363 201.495 183.734 201.167 184.061C200.895 184.332 200.613 184.507 200.322 184.586C200.031 184.672 199.747 184.684 199.472 184.62C199.196 184.556 198.946 184.435 198.723 184.258L199.358 183.626C199.57 183.769 199.783 183.828 199.999 183.801C200.214 183.782 200.416 183.679 200.605 183.491C200.775 183.322 200.874 183.118 200.9 182.881C200.927 182.644 200.872 182.383 200.736 182.097C200.6 181.811 200.375 181.5 200.061 181.165C200.054 181.158 200.046 181.15 200.038 181.143C200.035 181.139 200.029 181.133 200.021 181.126C200.071 181.295 200.086 181.472 200.067 181.656C200.052 181.845 200.003 182.029 199.919 182.21C199.832 182.394 199.712 182.563 199.557 182.718C199.334 182.94 199.075 183.092 198.78 183.175C198.485 183.265 198.183 183.273 197.873 183.197C197.559 183.126 197.272 182.96 197.011 182.701C196.773 182.464 196.608 182.187 196.518 181.871C196.427 181.555 196.423 181.231 196.506 180.9C196.59 180.569 196.769 180.266 197.045 179.991ZM197.669 180.533C197.521 180.68 197.423 180.842 197.374 181.019C197.325 181.196 197.323 181.37 197.368 181.544C197.41 181.72 197.5 181.878 197.64 182.018C197.788 182.164 197.95 182.259 198.128 182.3C198.302 182.345 198.477 182.339 198.655 182.283C198.829 182.23 198.99 182.131 199.137 181.984C199.281 181.841 199.379 181.679 199.432 181.498C199.485 181.325 199.49 181.15 199.449 180.974C199.407 180.797 199.317 180.639 199.177 180.499C199.033 180.356 198.872 180.264 198.695 180.223C198.517 180.181 198.34 180.185 198.162 180.234C197.98 180.287 197.816 180.387 197.669 180.533ZM195.179 181.985L195.672 182.476C195.619 182.928 195.577 183.368 195.547 183.797C195.517 184.226 195.508 184.63 195.519 185.01C195.53 185.39 195.577 185.727 195.661 186.021C195.744 186.314 195.872 186.547 196.046 186.72C196.16 186.833 196.286 186.918 196.426 186.974C196.566 187.031 196.711 187.044 196.863 187.014C197.01 186.988 197.157 186.901 197.305 186.754C197.448 186.611 197.539 186.457 197.577 186.292C197.611 186.13 197.598 185.97 197.537 185.812C197.48 185.657 197.384 185.513 197.248 185.377L197.906 184.722C198.185 185.016 198.363 185.317 198.439 185.625C198.514 185.934 198.499 186.235 198.393 186.529C198.291 186.826 198.115 187.099 197.866 187.347C197.598 187.614 197.32 187.793 197.033 187.883C196.745 187.974 196.462 187.981 196.182 187.906C195.903 187.831 195.642 187.672 195.4 187.432C195.222 187.255 195.08 187.046 194.975 186.805C194.869 186.572 194.793 186.316 194.748 186.038C194.706 185.763 194.684 185.477 194.68 185.18C194.676 184.89 194.684 184.6 194.702 184.31C194.725 184.024 194.752 183.753 194.782 183.498L193.007 185.264L192.446 184.705L195.179 181.985ZM191.51 185.581C191.638 185.453 191.782 185.389 191.941 185.389C192.099 185.389 192.234 185.444 192.343 185.553C192.46 185.67 192.519 185.807 192.519 185.965C192.519 186.123 192.455 186.266 192.326 186.394C192.201 186.518 192.06 186.58 191.901 186.58C191.742 186.58 191.604 186.522 191.487 186.405C191.377 186.296 191.323 186.163 191.323 186.004C191.323 185.846 191.385 185.705 191.51 185.581ZM189.008 187.993C189.291 187.711 189.586 187.515 189.892 187.406C190.198 187.305 190.497 187.282 190.788 187.338C191.083 187.399 191.353 187.528 191.599 187.728L190.935 188.388C190.735 188.257 190.51 188.202 190.261 188.225C190.015 188.251 189.79 188.366 189.586 188.569C189.431 188.723 189.335 188.891 189.297 189.071C189.263 189.256 189.278 189.44 189.342 189.624C189.406 189.816 189.518 189.991 189.677 190.149C189.839 190.311 190.013 190.42 190.198 190.477C190.38 190.537 190.557 190.544 190.731 190.499C190.909 190.458 191.069 190.366 191.213 190.223C191.391 190.046 191.502 189.852 191.548 189.641C191.593 189.438 191.584 189.248 191.519 189.071L192.177 188.416L194.087 190.973L191.899 193.152L191.304 192.559L192.982 190.889L192.183 189.732C192.19 189.912 192.15 190.102 192.064 190.302C191.98 190.505 191.846 190.699 191.661 190.883C191.453 191.09 191.234 191.237 191.003 191.323C190.773 191.41 190.54 191.446 190.306 191.431C190.072 191.415 189.845 191.351 189.626 191.239C189.406 191.133 189.206 190.99 189.025 190.81C188.821 190.606 188.666 190.384 188.56 190.144C188.458 189.907 188.405 189.662 188.401 189.41C188.394 189.161 188.441 188.915 188.543 188.67C188.641 188.43 188.796 188.204 189.008 187.993ZM186.382 190.743L188.1 196.935L187.431 197.601L185.713 191.409L186.382 190.743ZM183.576 193.401C183.753 193.224 183.955 193.102 184.182 193.034C184.409 192.974 184.639 192.974 184.874 193.034C185.112 193.098 185.333 193.232 185.537 193.435C185.745 193.642 185.879 193.862 185.94 194.096C186 194.329 185.998 194.556 185.934 194.779C185.87 195.008 185.749 195.211 185.571 195.388C185.386 195.572 185.182 195.693 184.959 195.749C184.736 195.813 184.509 195.813 184.279 195.749C184.044 195.689 183.823 195.556 183.615 195.349C183.411 195.145 183.277 194.925 183.213 194.688C183.148 194.459 183.147 194.231 183.207 194.005C183.271 193.783 183.394 193.582 183.576 193.401ZM184.057 193.87C183.978 193.949 183.925 194.039 183.899 194.141C183.876 194.246 183.884 194.355 183.921 194.468C183.963 194.585 184.04 194.699 184.154 194.812C184.271 194.929 184.386 195.006 184.5 195.044C184.613 195.081 184.721 195.087 184.823 195.061C184.925 195.042 185.016 194.993 185.095 194.914C185.171 194.839 185.22 194.748 185.242 194.643C185.269 194.541 185.263 194.434 185.225 194.321C185.188 194.208 185.11 194.094 184.993 193.977C184.879 193.864 184.764 193.787 184.647 193.746C184.534 193.708 184.426 193.699 184.324 193.717C184.222 193.744 184.133 193.795 184.057 193.87ZM188.207 192.989C188.389 192.809 188.593 192.684 188.82 192.617C189.043 192.553 189.273 192.553 189.511 192.617C189.746 192.684 189.965 192.82 190.169 193.023C190.373 193.226 190.507 193.443 190.572 193.672C190.636 193.909 190.634 194.141 190.566 194.366C190.498 194.592 190.375 194.794 190.197 194.97C190.016 195.151 189.814 195.273 189.591 195.337C189.368 195.401 189.139 195.399 188.905 195.332C188.67 195.271 188.451 195.14 188.247 194.937C188.043 194.733 187.909 194.513 187.845 194.276C187.777 194.043 187.775 193.815 187.839 193.593C187.903 193.371 188.026 193.17 188.207 192.989ZM188.689 193.458C188.61 193.537 188.557 193.627 188.531 193.729C188.508 193.834 188.517 193.941 188.559 194.05C188.6 194.167 188.678 194.282 188.791 194.395C188.905 194.508 189.02 194.585 189.137 194.626C189.251 194.671 189.358 194.681 189.46 194.654C189.566 194.632 189.657 194.583 189.732 194.508C189.808 194.432 189.859 194.34 189.886 194.231C189.912 194.129 189.904 194.02 189.863 193.904C189.821 193.787 189.744 193.672 189.63 193.559C189.517 193.446 189.402 193.369 189.285 193.328C189.171 193.29 189.062 193.283 188.956 193.305C188.854 193.332 188.765 193.382 188.689 193.458Z" fill="#9F9F9F"/>
<path d="M123.599 218.062L121.511 222.838H124.327V223.663H120.527V222.974L122.599 218.062H123.599ZM117.929 217.966C118.329 217.966 118.676 218.036 118.969 218.174C119.257 218.318 119.484 218.513 119.649 218.758C119.814 219.009 119.913 219.292 119.945 219.606H119.009C118.961 219.372 118.841 219.174 118.649 219.014C118.457 218.86 118.217 218.782 117.929 218.782C117.71 218.782 117.524 218.833 117.369 218.934C117.214 219.041 117.094 219.182 117.009 219.358C116.918 219.54 116.873 219.742 116.873 219.966C116.873 220.196 116.918 220.396 117.009 220.566C117.094 220.737 117.214 220.868 117.369 220.958C117.524 221.054 117.702 221.102 117.905 221.102C118.156 221.102 118.372 221.044 118.553 220.926C118.729 220.814 118.857 220.673 118.937 220.502H119.865L119.401 223.663H116.313V222.822H118.681L118.937 221.438C118.814 221.572 118.652 221.678 118.449 221.758C118.246 221.844 118.014 221.886 117.753 221.886C117.46 221.886 117.201 221.836 116.977 221.734C116.753 221.633 116.564 221.494 116.409 221.318C116.254 221.142 116.14 220.937 116.065 220.702C115.985 220.473 115.945 220.23 115.945 219.974C115.945 219.686 115.993 219.42 116.089 219.174C116.185 218.934 116.321 218.724 116.497 218.542C116.668 218.361 116.876 218.22 117.121 218.118C117.361 218.017 117.63 217.966 117.929 217.966ZM114.128 218.062L110.952 223.663H110.008L113.184 218.062H114.128ZM110.264 217.966C110.514 217.966 110.744 218.022 110.952 218.134C111.154 218.252 111.317 218.414 111.44 218.622C111.562 218.836 111.624 219.086 111.624 219.374C111.624 219.668 111.562 219.918 111.44 220.126C111.317 220.334 111.154 220.494 110.952 220.606C110.744 220.724 110.514 220.782 110.264 220.782C110.002 220.782 109.773 220.724 109.576 220.606C109.373 220.494 109.213 220.334 109.096 220.126C108.973 219.918 108.912 219.668 108.912 219.374C108.912 219.086 108.973 218.836 109.096 218.622C109.213 218.414 109.373 218.252 109.576 218.134C109.778 218.022 110.008 217.966 110.264 217.966ZM110.272 218.638C110.16 218.638 110.058 218.665 109.968 218.718C109.877 218.777 109.805 218.86 109.752 218.966C109.698 219.078 109.672 219.214 109.672 219.374C109.672 219.54 109.698 219.676 109.752 219.782C109.805 219.889 109.877 219.969 109.968 220.022C110.053 220.081 110.152 220.11 110.264 220.11C110.37 220.11 110.469 220.081 110.56 220.022C110.65 219.969 110.722 219.889 110.776 219.782C110.829 219.676 110.856 219.54 110.856 219.374C110.856 219.214 110.829 219.078 110.776 218.966C110.722 218.86 110.653 218.777 110.568 218.718C110.477 218.665 110.378 218.638 110.272 218.638ZM113.824 220.942C114.08 220.942 114.312 220.998 114.52 221.11C114.722 221.222 114.885 221.385 115.008 221.598C115.125 221.812 115.184 222.062 115.184 222.35C115.184 222.638 115.125 222.886 115.008 223.094C114.885 223.308 114.72 223.471 114.512 223.583C114.304 223.695 114.074 223.75 113.824 223.75C113.568 223.75 113.338 223.695 113.136 223.583C112.933 223.471 112.773 223.308 112.656 223.094C112.533 222.886 112.472 222.638 112.472 222.35C112.472 222.062 112.533 221.812 112.656 221.598C112.773 221.385 112.933 221.222 113.136 221.11C113.338 220.998 113.568 220.942 113.824 220.942ZM113.832 221.614C113.72 221.614 113.618 221.641 113.528 221.694C113.437 221.753 113.368 221.836 113.32 221.942C113.266 222.054 113.24 222.19 113.24 222.35C113.24 222.51 113.266 222.646 113.32 222.758C113.368 222.87 113.437 222.953 113.528 223.006C113.618 223.065 113.717 223.094 113.824 223.094C113.93 223.094 114.032 223.065 114.128 223.006C114.218 222.953 114.29 222.87 114.344 222.758C114.397 222.646 114.424 222.51 114.424 222.35C114.424 222.19 114.397 222.054 114.344 221.942C114.29 221.836 114.218 221.753 114.128 221.694C114.037 221.641 113.938 221.614 113.832 221.614Z" fill="#9F9F9F"/>
<path d="M44.4053 191.625C44.6736 191.892 44.8683 192.18 44.9892 192.489C45.1064 192.801 45.1423 193.108 45.0969 193.409C45.044 193.71 44.8985 193.979 44.6604 194.216C44.5017 194.374 44.3259 194.493 44.1332 194.572C43.9404 194.651 43.742 194.686 43.5379 194.679C43.33 194.675 43.1316 194.628 42.9426 194.538C43.0446 194.805 43.0768 195.066 43.039 195.322C42.9936 195.578 42.8783 195.798 42.6931 195.983C42.5004 196.175 42.2736 196.299 42.0128 196.355C41.752 196.412 41.4742 196.391 41.1794 196.293C40.8808 196.192 40.5879 195.998 40.3006 195.712C40.0134 195.426 39.8206 195.136 39.7224 194.843C39.6241 194.549 39.6033 194.272 39.66 194.013C39.7167 193.753 39.8414 193.527 40.0342 193.336C40.2156 193.155 40.4386 193.042 40.7032 192.997C40.9602 192.952 41.221 192.982 41.4855 193.087C41.3911 192.895 41.3438 192.698 41.3438 192.495C41.34 192.288 41.3778 192.088 41.4572 191.896C41.529 191.704 41.6443 191.529 41.803 191.371C42.0411 191.134 42.3133 190.991 42.6194 190.942C42.9218 190.897 43.2298 190.933 43.5435 191.05C43.8497 191.166 44.1369 191.358 44.4053 191.625ZM43.8327 192.195C43.5832 191.947 43.3357 191.821 43.09 191.817C42.8368 191.813 42.6156 191.906 42.4267 192.094C42.215 192.305 42.1205 192.534 42.1432 192.782C42.1583 193.031 42.283 193.272 42.5174 193.505C42.7517 193.738 42.9974 193.866 43.2544 193.889C43.5038 193.911 43.7344 193.817 43.9461 193.606C44.135 193.418 44.2276 193.198 44.2239 192.946C44.2125 192.694 44.0821 192.444 43.8327 192.195ZM42.0015 194.018C41.7974 193.815 41.5857 193.71 41.3665 193.702C41.1397 193.695 40.9451 193.772 40.7825 193.934C40.5973 194.118 40.5142 194.318 40.5331 194.532C40.5444 194.747 40.6521 194.955 40.8562 195.159C41.0603 195.362 41.272 195.471 41.4912 195.486C41.7029 195.501 41.9013 195.416 42.0865 195.232C42.2528 195.066 42.3322 194.875 42.3246 194.656C42.3133 194.434 42.2056 194.222 42.0015 194.018ZM41.9823 189.349L37.118 191.245L39.1136 193.232L38.5297 193.813L35.8367 191.132L36.3243 190.647L41.2737 188.643L41.9823 189.349ZM39.3089 186.63C39.4374 186.758 39.5016 186.901 39.5016 187.059C39.5016 187.217 39.4468 187.351 39.3372 187.46C39.22 187.577 39.0821 187.635 38.9233 187.635C38.7646 187.635 38.621 187.571 38.4925 187.443C38.3677 187.319 38.3054 187.178 38.3054 187.02C38.3054 186.862 38.364 186.725 38.4811 186.608C38.5907 186.499 38.7249 186.444 38.8837 186.444C39.0424 186.444 39.1841 186.506 39.3089 186.63ZM36.8862 184.139C37.1696 184.422 37.3662 184.715 37.4758 185.02C37.5778 185.325 37.6005 185.622 37.5438 185.912C37.4833 186.205 37.353 186.474 37.1526 186.719L36.4893 186.059C36.6216 185.859 36.6764 185.635 36.6537 185.387C36.6273 185.142 36.512 184.918 36.3079 184.715C36.1529 184.561 35.9847 184.465 35.8033 184.427C35.6181 184.393 35.4329 184.409 35.2477 184.472C35.055 184.536 34.8792 184.647 34.7205 184.805C34.5579 184.967 34.4483 185.14 34.3916 185.325C34.3312 185.505 34.3236 185.682 34.369 185.855C34.4105 186.032 34.5031 186.192 34.6468 186.335C34.8244 186.512 35.0191 186.623 35.2307 186.668C35.4348 186.713 35.6257 186.704 35.8033 186.64L36.461 187.295L33.8927 189.197L31.7044 187.018L32.2996 186.425L33.9778 188.096L35.14 187.3C34.9586 187.308 34.7677 187.268 34.5674 187.182C34.3633 187.099 34.1686 186.965 33.9834 186.781C33.7756 186.574 33.6282 186.356 33.5412 186.126C33.4543 185.897 33.4184 185.665 33.4335 185.432C33.4486 185.199 33.5129 184.973 33.6263 184.755C33.7321 184.536 33.8757 184.337 34.0572 184.156C34.2612 183.953 34.4842 183.799 34.7261 183.694C34.9643 183.592 35.2099 183.539 35.4632 183.536C35.7126 183.528 35.9602 183.575 36.2058 183.677C36.4477 183.774 36.6745 183.929 36.8862 184.139ZM34.1243 181.525L27.9049 183.235L27.236 182.569L33.4553 180.859L34.1243 181.525ZM31.454 178.731C31.6316 178.908 31.7545 179.109 31.8225 179.335C31.883 179.561 31.883 179.791 31.8225 180.024C31.7582 180.261 31.6241 180.481 31.42 180.684C31.2121 180.891 30.991 181.025 30.7566 181.085C30.5223 181.145 30.2936 181.143 30.0706 181.079C29.8401 181.015 29.636 180.895 29.4584 180.718C29.2732 180.534 29.1522 180.331 29.0955 180.109C29.0313 179.887 29.0313 179.661 29.0955 179.431C29.156 179.198 29.2902 178.978 29.498 178.771C29.7021 178.568 29.9232 178.434 30.1614 178.37C30.3919 178.306 30.6206 178.304 30.8473 178.364C31.0703 178.428 31.2726 178.551 31.454 178.731ZM30.9834 179.211C30.904 179.132 30.8133 179.079 30.7113 179.053C30.6055 179.03 30.4958 179.038 30.3825 179.076C30.2653 179.117 30.15 179.194 30.0366 179.307C29.9195 179.424 29.842 179.538 29.8042 179.651C29.7664 179.764 29.7607 179.871 29.7872 179.973C29.8061 180.075 29.8552 180.165 29.9346 180.244C30.0102 180.319 30.1009 180.368 30.2067 180.391C30.3088 180.417 30.4165 180.411 30.5299 180.374C30.6433 180.336 30.7585 180.259 30.8757 180.142C30.9891 180.029 31.0666 179.915 31.1081 179.798C31.1459 179.685 31.1554 179.578 31.1365 179.476C31.11 179.375 31.059 179.286 30.9834 179.211ZM31.8678 183.343C32.0493 183.523 32.174 183.727 32.242 183.952C32.3063 184.174 32.3063 184.404 32.242 184.641C32.174 184.874 32.0379 185.092 31.8338 185.296C31.6297 185.499 31.4124 185.632 31.1818 185.696C30.9437 185.76 30.7113 185.758 30.4845 185.691C30.2577 185.623 30.0555 185.501 29.8779 185.324C29.6965 185.143 29.5736 184.942 29.5094 184.72C29.4451 184.498 29.447 184.27 29.515 184.037C29.5755 183.804 29.7078 183.585 29.9119 183.382C30.116 183.179 30.3371 183.045 30.5752 182.981C30.8096 182.914 31.0382 182.912 31.2612 182.976C31.4842 183.04 31.6864 183.162 31.8678 183.343ZM31.3973 183.822C31.3179 183.743 31.2272 183.691 31.1251 183.664C31.0193 183.642 30.9116 183.651 30.802 183.693C30.6848 183.734 30.5695 183.811 30.4562 183.924C30.3428 184.037 30.2653 184.152 30.2237 184.268C30.1784 184.381 30.1689 184.488 30.1954 184.59C30.218 184.695 30.2672 184.786 30.3428 184.861C30.4184 184.936 30.511 184.987 30.6206 185.013C30.7226 185.04 30.8322 185.032 30.9494 184.991C31.0666 184.949 31.1818 184.872 31.2952 184.759C31.4086 184.647 31.4861 184.532 31.5277 184.415C31.5655 184.302 31.573 184.193 31.5504 184.088C31.5239 183.986 31.4729 183.898 31.3973 183.822Z" fill="#9F9F9F"/>
<path d="M68.0992 110.197C67.7992 110.197 67.5392 110.145 67.3192 110.041C67.1032 109.933 66.9332 109.787 66.8092 109.603C66.6852 109.415 66.6112 109.203 66.5872 108.967H67.2892C67.3252 109.143 67.4152 109.291 67.5592 109.411C67.7032 109.527 67.8832 109.585 68.0992 109.585C68.2632 109.585 68.4032 109.547 68.5192 109.471C68.6352 109.391 68.7252 109.285 68.7892 109.153C68.8572 109.017 68.8912 108.865 68.8912 108.697C68.8912 108.525 68.8572 108.375 68.7892 108.247C68.7252 108.119 68.6352 108.021 68.5192 107.953C68.4032 107.881 68.2692 107.845 68.1172 107.845C67.9292 107.845 67.7672 107.889 67.6312 107.977C67.4992 108.061 67.4032 108.167 67.3432 108.295H66.6472L66.9952 105.925H69.3112V106.555H67.5352L67.3432 107.593C67.4352 107.493 67.5572 107.413 67.7092 107.353C67.8612 107.289 68.0352 107.257 68.2312 107.257C68.4512 107.257 68.6452 107.295 68.8132 107.371C68.9812 107.447 69.1232 107.551 69.2392 107.683C69.3552 107.815 69.4412 107.969 69.4972 108.145C69.5572 108.317 69.5872 108.499 69.5872 108.691C69.5872 108.907 69.5512 109.107 69.4792 109.291C69.4072 109.471 69.3052 109.629 69.1732 109.765C69.0452 109.901 68.8892 110.007 68.7052 110.083C68.5252 110.159 68.3232 110.197 68.0992 110.197ZM72.0062 110.197C71.6262 110.197 71.3002 110.107 71.0282 109.927C70.7562 109.743 70.5462 109.489 70.3982 109.165C70.2542 108.837 70.1822 108.457 70.1822 108.025C70.1822 107.593 70.2542 107.215 70.3982 106.891C70.5462 106.563 70.7562 106.309 71.0282 106.129C71.3002 105.945 71.6262 105.853 72.0062 105.853C72.3822 105.853 72.7042 105.945 72.9722 106.129C73.2442 106.309 73.4522 106.563 73.5962 106.891C73.7442 107.215 73.8182 107.593 73.8182 108.025C73.8182 108.457 73.7442 108.837 73.5962 109.165C73.4522 109.489 73.2442 109.743 72.9722 109.927C72.7042 110.107 72.3822 110.197 72.0062 110.197ZM72.0002 109.549C72.2122 109.549 72.4002 109.489 72.5642 109.369C72.7282 109.245 72.8542 109.069 72.9422 108.841C73.0342 108.613 73.0802 108.341 73.0802 108.025C73.0802 107.709 73.0342 107.437 72.9422 107.209C72.8542 106.981 72.7282 106.807 72.5642 106.687C72.4002 106.563 72.2122 106.501 72.0002 106.501C71.7882 106.501 71.6002 106.563 71.4362 106.687C71.2722 106.807 71.1442 106.981 71.0522 107.209C70.9642 107.437 70.9202 107.709 70.9202 108.025C70.9202 108.341 70.9642 108.613 71.0522 108.841C71.1442 109.069 71.2722 109.245 71.4362 109.369C71.6002 109.489 71.7882 109.549 72.0002 109.549ZM75.1396 110.125L77.5216 105.925H78.2296L75.8476 110.125H75.1396ZM78.0376 110.197C77.8496 110.197 77.6776 110.155 77.5216 110.071C77.3696 109.983 77.2476 109.861 77.1556 109.705C77.0636 109.545 77.0176 109.357 77.0176 109.141C77.0176 108.921 77.0636 108.733 77.1556 108.577C77.2476 108.421 77.3696 108.301 77.5216 108.217C77.6776 108.129 77.8496 108.085 78.0376 108.085C78.2336 108.085 78.4056 108.129 78.5536 108.217C78.7056 108.301 78.8256 108.421 78.9136 108.577C79.0056 108.733 79.0516 108.921 79.0516 109.141C79.0516 109.357 79.0056 109.545 78.9136 109.705C78.8256 109.861 78.7056 109.983 78.5536 110.071C78.4016 110.155 78.2296 110.197 78.0376 110.197ZM78.0316 109.693C78.1156 109.693 78.1916 109.673 78.2596 109.633C78.3276 109.589 78.3816 109.527 78.4216 109.447C78.4616 109.363 78.4816 109.261 78.4816 109.141C78.4816 109.017 78.4616 108.915 78.4216 108.835C78.3816 108.755 78.3276 108.695 78.2596 108.655C78.1956 108.611 78.1216 108.589 78.0376 108.589C77.9576 108.589 77.8836 108.611 77.8156 108.655C77.7476 108.695 77.6936 108.755 77.6536 108.835C77.6136 108.915 77.5936 109.017 77.5936 109.141C77.5936 109.261 77.6136 109.363 77.6536 109.447C77.6936 109.527 77.7456 109.589 77.8096 109.633C77.8776 109.673 77.9516 109.693 78.0316 109.693ZM75.3676 107.965C75.1756 107.965 75.0016 107.923 74.8456 107.839C74.6936 107.755 74.5716 107.633 74.4796 107.473C74.3916 107.313 74.3476 107.125 74.3476 106.909C74.3476 106.693 74.3916 106.507 74.4796 106.351C74.5716 106.191 74.6956 106.069 74.8516 105.985C75.0076 105.901 75.1796 105.859 75.3676 105.859C75.5596 105.859 75.7316 105.901 75.8836 105.985C76.0356 106.069 76.1556 106.191 76.2436 106.351C76.3356 106.507 76.3816 106.693 76.3816 106.909C76.3816 107.125 76.3356 107.313 76.2436 107.473C76.1556 107.633 76.0356 107.755 75.8836 107.839C75.7316 107.923 75.5596 107.965 75.3676 107.965ZM75.3616 107.461C75.4456 107.461 75.5216 107.441 75.5896 107.401C75.6576 107.357 75.7096 107.295 75.7456 107.215C75.7856 107.131 75.8056 107.029 75.8056 106.909C75.8056 106.789 75.7856 106.687 75.7456 106.603C75.7096 106.519 75.6576 106.457 75.5896 106.417C75.5216 106.373 75.4476 106.351 75.3676 106.351C75.2876 106.351 75.2116 106.373 75.1396 106.417C75.0716 106.457 75.0176 106.519 74.9776 106.603C74.9376 106.687 74.9176 106.789 74.9176 106.909C74.9176 107.029 74.9376 107.131 74.9776 107.215C75.0176 107.295 75.0716 107.357 75.1396 107.401C75.2076 107.441 75.2816 107.461 75.3616 107.461Z" fill="white"/>
<path d="M46.8223 110.125L48.3883 106.543H46.2763V105.925H49.1263V106.441L47.5723 110.125H46.8223ZM51.3783 110.197C50.9983 110.197 50.6723 110.107 50.4003 109.927C50.1283 109.743 49.9183 109.489 49.7703 109.165C49.6263 108.837 49.5543 108.457 49.5543 108.025C49.5543 107.593 49.6263 107.215 49.7703 106.891C49.9183 106.563 50.1283 106.309 50.4003 106.129C50.6723 105.945 50.9983 105.853 51.3783 105.853C51.7543 105.853 52.0763 105.945 52.3443 106.129C52.6163 106.309 52.8243 106.563 52.9683 106.891C53.1163 107.215 53.1903 107.593 53.1903 108.025C53.1903 108.457 53.1163 108.837 52.9683 109.165C52.8243 109.489 52.6163 109.743 52.3443 109.927C52.0763 110.107 51.7543 110.197 51.3783 110.197ZM51.3723 109.549C51.5843 109.549 51.7723 109.489 51.9363 109.369C52.1003 109.245 52.2263 109.069 52.3143 108.841C52.4063 108.613 52.4523 108.341 52.4523 108.025C52.4523 107.709 52.4063 107.437 52.3143 107.209C52.2263 106.981 52.1003 106.807 51.9363 106.687C51.7723 106.563 51.5843 106.501 51.3723 106.501C51.1603 106.501 50.9723 106.563 50.8083 106.687C50.6443 106.807 50.5163 106.981 50.4243 107.209C50.3363 107.437 50.2923 107.709 50.2923 108.025C50.2923 108.341 50.3363 108.613 50.4243 108.841C50.5163 109.069 50.6443 109.245 50.8083 109.369C50.9723 109.489 51.1603 109.549 51.3723 109.549ZM54.5117 110.125L56.8937 105.925H57.6017L55.2197 110.125H54.5117ZM57.4097 110.197C57.2217 110.197 57.0497 110.155 56.8937 110.071C56.7417 109.983 56.6197 109.861 56.5277 109.705C56.4357 109.545 56.3897 109.357 56.3897 109.141C56.3897 108.921 56.4357 108.733 56.5277 108.577C56.6197 108.421 56.7417 108.301 56.8937 108.217C57.0497 108.129 57.2217 108.085 57.4097 108.085C57.6057 108.085 57.7777 108.129 57.9257 108.217C58.0777 108.301 58.1977 108.421 58.2857 108.577C58.3777 108.733 58.4237 108.921 58.4237 109.141C58.4237 109.357 58.3777 109.545 58.2857 109.705C58.1977 109.861 58.0777 109.983 57.9257 110.071C57.7737 110.155 57.6017 110.197 57.4097 110.197ZM57.4037 109.693C57.4877 109.693 57.5637 109.673 57.6317 109.633C57.6997 109.589 57.7537 109.527 57.7937 109.447C57.8337 109.363 57.8537 109.261 57.8537 109.141C57.8537 109.017 57.8337 108.915 57.7937 108.835C57.7537 108.755 57.6997 108.695 57.6317 108.655C57.5677 108.611 57.4937 108.589 57.4097 108.589C57.3297 108.589 57.2557 108.611 57.1877 108.655C57.1197 108.695 57.0657 108.755 57.0257 108.835C56.9857 108.915 56.9657 109.017 56.9657 109.141C56.9657 109.261 56.9857 109.363 57.0257 109.447C57.0657 109.527 57.1177 109.589 57.1817 109.633C57.2497 109.673 57.3237 109.693 57.4037 109.693ZM54.7397 107.965C54.5477 107.965 54.3737 107.923 54.2177 107.839C54.0657 107.755 53.9437 107.633 53.8517 107.473C53.7637 107.313 53.7197 107.125 53.7197 106.909C53.7197 106.693 53.7637 106.507 53.8517 106.351C53.9437 106.191 54.0677 106.069 54.2237 105.985C54.3797 105.901 54.5517 105.859 54.7397 105.859C54.9317 105.859 55.1037 105.901 55.2557 105.985C55.4077 106.069 55.5277 106.191 55.6157 106.351C55.7077 106.507 55.7537 106.693 55.7537 106.909C55.7537 107.125 55.7077 107.313 55.6157 107.473C55.5277 107.633 55.4077 107.755 55.2557 107.839C55.1037 107.923 54.9317 107.965 54.7397 107.965ZM54.7337 107.461C54.8177 107.461 54.8937 107.441 54.9617 107.401C55.0297 107.357 55.0817 107.295 55.1177 107.215C55.1577 107.131 55.1777 107.029 55.1777 106.909C55.1777 106.789 55.1577 106.687 55.1177 106.603C55.0817 106.519 55.0297 106.457 54.9617 106.417C54.8937 106.373 54.8197 106.351 54.7397 106.351C54.6597 106.351 54.5837 106.373 54.5117 106.417C54.4437 106.457 54.3897 106.519 54.3497 106.603C54.3097 106.687 54.2897 106.789 54.2897 106.909C54.2897 107.029 54.3097 107.131 54.3497 107.215C54.3897 107.295 54.4437 107.357 54.5117 107.401C54.5797 107.441 54.6537 107.461 54.7337 107.461Z" fill="white"/>
<path d="M30.8114 110.197C30.5394 110.197 30.2914 110.149 30.0674 110.053C29.8434 109.953 29.6634 109.803 29.5274 109.603C29.3954 109.399 29.3254 109.143 29.3174 108.835H30.0254C30.0294 108.975 30.0614 109.103 30.1214 109.219C30.1854 109.331 30.2754 109.421 30.3914 109.489C30.5074 109.553 30.6474 109.585 30.8114 109.585C30.9674 109.585 31.0994 109.555 31.2074 109.495C31.3194 109.435 31.4034 109.353 31.4594 109.249C31.5154 109.145 31.5434 109.029 31.5434 108.901C31.5434 108.745 31.5054 108.617 31.4294 108.517C31.3534 108.413 31.2494 108.335 31.1174 108.283C30.9854 108.231 30.8354 108.205 30.6674 108.205H30.3554V107.611H30.6674C30.8874 107.611 31.0674 107.561 31.2074 107.461C31.3474 107.357 31.4174 107.207 31.4174 107.011C31.4174 106.847 31.3634 106.715 31.2554 106.615C31.1514 106.515 31.0014 106.465 30.8054 106.465C30.6014 106.465 30.4394 106.525 30.3194 106.645C30.2034 106.765 30.1394 106.913 30.1274 107.089H29.4194C29.4314 106.837 29.4954 106.619 29.6114 106.435C29.7314 106.247 29.8934 106.103 30.0974 106.003C30.3014 105.903 30.5394 105.853 30.8114 105.853C31.0954 105.853 31.3354 105.903 31.5314 106.003C31.7274 106.103 31.8754 106.237 31.9754 106.405C32.0794 106.573 32.1314 106.757 32.1314 106.957C32.1314 107.113 32.1014 107.255 32.0414 107.383C31.9814 107.511 31.8994 107.619 31.7954 107.707C31.6954 107.791 31.5774 107.853 31.4414 107.893C31.5974 107.925 31.7354 107.987 31.8554 108.079C31.9794 108.171 32.0754 108.289 32.1434 108.433C32.2154 108.573 32.2514 108.737 32.2514 108.925C32.2514 109.153 32.1954 109.365 32.0834 109.561C31.9754 109.753 31.8134 109.907 31.5974 110.023C31.3854 110.139 31.1234 110.197 30.8114 110.197ZM34.5172 110.197C34.2172 110.197 33.9572 110.145 33.7372 110.041C33.5212 109.933 33.3512 109.787 33.2272 109.603C33.1032 109.415 33.0292 109.203 33.0052 108.967H33.7072C33.7432 109.143 33.8332 109.291 33.9772 109.411C34.1212 109.527 34.3012 109.585 34.5172 109.585C34.6812 109.585 34.8212 109.547 34.9372 109.471C35.0532 109.391 35.1432 109.285 35.2072 109.153C35.2752 109.017 35.3092 108.865 35.3092 108.697C35.3092 108.525 35.2752 108.375 35.2072 108.247C35.1432 108.119 35.0532 108.021 34.9372 107.953C34.8212 107.881 34.6872 107.845 34.5352 107.845C34.3472 107.845 34.1852 107.889 34.0492 107.977C33.9172 108.061 33.8212 108.167 33.7612 108.295H33.0652L33.4132 105.925H35.7292V106.555H33.9532L33.7612 107.593C33.8532 107.493 33.9752 107.413 34.1272 107.353C34.2792 107.289 34.4532 107.257 34.6492 107.257C34.8692 107.257 35.0632 107.295 35.2312 107.371C35.3992 107.447 35.5412 107.551 35.6572 107.683C35.7732 107.815 35.8592 107.969 35.9152 108.145C35.9752 108.317 36.0052 108.499 36.0052 108.691C36.0052 108.907 35.9692 109.107 35.8972 109.291C35.8252 109.471 35.7232 109.629 35.5912 109.765C35.4632 109.901 35.3072 110.007 35.1232 110.083C34.9432 110.159 34.7412 110.197 34.5172 110.197ZM37.3682 110.125L39.7502 105.925H40.4582L38.0762 110.125H37.3682ZM40.2662 110.197C40.0782 110.197 39.9062 110.155 39.7502 110.071C39.5982 109.983 39.4762 109.861 39.3842 109.705C39.2922 109.545 39.2462 109.357 39.2462 109.141C39.2462 108.921 39.2922 108.733 39.3842 108.577C39.4762 108.421 39.5982 108.301 39.7502 108.217C39.9062 108.129 40.0782 108.085 40.2662 108.085C40.4622 108.085 40.6342 108.129 40.7822 108.217C40.9342 108.301 41.0542 108.421 41.1422 108.577C41.2342 108.733 41.2802 108.921 41.2802 109.141C41.2802 109.357 41.2342 109.545 41.1422 109.705C41.0542 109.861 40.9342 109.983 40.7822 110.071C40.6302 110.155 40.4582 110.197 40.2662 110.197ZM40.2602 109.693C40.3442 109.693 40.4202 109.673 40.4882 109.633C40.5562 109.589 40.6102 109.527 40.6502 109.447C40.6902 109.363 40.7102 109.261 40.7102 109.141C40.7102 109.017 40.6902 108.915 40.6502 108.835C40.6102 108.755 40.5562 108.695 40.4882 108.655C40.4242 108.611 40.3502 108.589 40.2662 108.589C40.1862 108.589 40.1122 108.611 40.0442 108.655C39.9762 108.695 39.9222 108.755 39.8822 108.835C39.8422 108.915 39.8222 109.017 39.8222 109.141C39.8222 109.261 39.8422 109.363 39.8822 109.447C39.9222 109.527 39.9742 109.589 40.0382 109.633C40.1062 109.673 40.1802 109.693 40.2602 109.693ZM37.5962 107.965C37.4042 107.965 37.2302 107.923 37.0742 107.839C36.9222 107.755 36.8002 107.633 36.7082 107.473C36.6202 107.313 36.5762 107.125 36.5762 106.909C36.5762 106.693 36.6202 106.507 36.7082 106.351C36.8002 106.191 36.9242 106.069 37.0802 105.985C37.2362 105.901 37.4082 105.859 37.5962 105.859C37.7882 105.859 37.9602 105.901 38.1122 105.985C38.2642 106.069 38.3842 106.191 38.4722 106.351C38.5642 106.507 38.6102 106.693 38.6102 106.909C38.6102 107.125 38.5642 107.313 38.4722 107.473C38.3842 107.633 38.2642 107.755 38.1122 107.839C37.9602 107.923 37.7882 107.965 37.5962 107.965ZM37.5902 107.461C37.6742 107.461 37.7502 107.441 37.8182 107.401C37.8862 107.357 37.9382 107.295 37.9742 107.215C38.0142 107.131 38.0342 107.029 38.0342 106.909C38.0342 106.789 38.0142 106.687 37.9742 106.603C37.9382 106.519 37.8862 106.457 37.8182 106.417C37.7502 106.373 37.6762 106.351 37.5962 106.351C37.5162 106.351 37.4402 106.373 37.3682 106.417C37.3002 106.457 37.2462 106.519 37.2062 106.603C37.1662 106.687 37.1462 106.789 37.1462 106.909C37.1462 107.029 37.1662 107.131 37.2062 107.215C37.2462 107.295 37.3002 107.357 37.3682 107.401C37.4362 107.441 37.5102 107.461 37.5902 107.461Z" fill="black"/>
</svg>
