<svg width="228" height="17" viewBox="0 0 228 17" fill="none" xmlns="http://www.w3.org/2000/svg">
<rect y="1.5" width="14" height="14" rx="4" fill="white"/>
<path d="M18.9 13V4.6H21.372C22.356 4.6 23.164 4.772 23.796 5.116C24.436 5.452 24.908 5.936 25.212 6.568C25.524 7.192 25.68 7.944 25.68 8.824C25.68 9.688 25.524 10.432 25.212 11.056C24.908 11.68 24.436 12.16 23.796 12.496C23.164 12.832 22.356 13 21.372 13H18.9ZM19.908 12.16H21.348C22.164 12.16 22.812 12.028 23.292 11.764C23.772 11.492 24.116 11.108 24.324 10.612C24.532 10.108 24.636 9.512 24.636 8.824C24.636 8.12 24.532 7.516 24.324 7.012C24.116 6.508 23.772 6.12 23.292 5.848C22.812 5.576 22.164 5.44 21.348 5.44H19.908V12.16ZM27.1977 13V6.952H28.2057V13H27.1977ZM27.7017 5.668C27.5017 5.668 27.3337 5.604 27.1977 5.476C27.0697 5.34 27.0057 5.172 27.0057 4.972C27.0057 4.772 27.0697 4.612 27.1977 4.492C27.3337 4.364 27.5017 4.3 27.7017 4.3C27.8937 4.3 28.0577 4.364 28.1937 4.492C28.3297 4.612 28.3977 4.772 28.3977 4.972C28.3977 5.172 28.3297 5.34 28.1937 5.476C28.0577 5.604 27.8937 5.668 27.7017 5.668ZM30.3205 13V6.016C30.3205 5.632 30.3845 5.32 30.5125 5.08C30.6405 4.832 30.8285 4.652 31.0765 4.54C31.3325 4.42 31.6445 4.36 32.0125 4.36H32.6965V5.224H32.1685C31.8725 5.224 31.6565 5.284 31.5205 5.404C31.3925 5.524 31.3285 5.736 31.3285 6.04V13H30.3205ZM29.3965 7.804V6.952H32.8525V7.804H29.3965ZM34.3987 13V7.804H33.4747V6.952H34.3987V6.016C34.3987 5.632 34.4627 5.32 34.5907 5.08C34.7187 4.832 34.9067 4.652 35.1547 4.54C35.4107 4.42 35.7227 4.36 36.0907 4.36H36.6907V5.224H36.2467C35.9507 5.224 35.7347 5.284 35.5987 5.404C35.4707 5.524 35.4067 5.736 35.4067 6.04V6.952H39.0307V13H38.0227V7.804H35.4067V13H34.3987ZM38.5387 5.8C38.3467 5.8 38.1827 5.736 38.0467 5.608C37.9107 5.472 37.8427 5.304 37.8427 5.104C37.8427 4.904 37.9107 4.744 38.0467 4.624C38.1827 4.496 38.3467 4.432 38.5387 4.432C38.7387 4.432 38.9027 4.496 39.0307 4.624C39.1667 4.744 39.2347 4.904 39.2347 5.104C39.2347 5.304 39.1667 5.472 39.0307 5.608C38.9027 5.736 38.7387 5.8 38.5387 5.8ZM43.5484 13.144C42.9804 13.144 42.4684 13.012 42.0124 12.748C41.5644 12.484 41.2124 12.116 40.9564 11.644C40.7004 11.164 40.5724 10.612 40.5724 9.988C40.5724 9.348 40.7004 8.792 40.9564 8.32C41.2124 7.848 41.5644 7.48 42.0124 7.216C42.4684 6.944 42.9804 6.808 43.5484 6.808C44.2684 6.808 44.8684 6.996 45.3484 7.372C45.8284 7.74 46.1324 8.236 46.2604 8.86H45.2284C45.1484 8.484 44.9524 8.192 44.6404 7.984C44.3284 7.776 43.9604 7.672 43.5364 7.672C43.1924 7.672 42.8724 7.76 42.5764 7.936C42.2804 8.104 42.0444 8.36 41.8684 8.704C41.6924 9.048 41.6044 9.472 41.6044 9.976C41.6044 10.352 41.6564 10.688 41.7604 10.984C41.8644 11.272 42.0044 11.512 42.1804 11.704C42.3564 11.896 42.5604 12.044 42.7924 12.148C43.0324 12.244 43.2804 12.292 43.5364 12.292C43.8244 12.292 44.0844 12.248 44.3164 12.16C44.5484 12.064 44.7444 11.924 44.9044 11.74C45.0644 11.556 45.1724 11.34 45.2284 11.092H46.2604C46.1324 11.7 45.8244 12.196 45.3364 12.58C44.8564 12.956 44.2604 13.144 43.5484 13.144ZM49.8876 13.144C49.4236 13.144 49.0156 13.052 48.6636 12.868C48.3196 12.684 48.0516 12.4 47.8596 12.016C47.6756 11.632 47.5836 11.152 47.5836 10.576V6.952H48.5916V10.468C48.5916 11.068 48.7236 11.52 48.9876 11.824C49.2516 12.128 49.6236 12.28 50.1036 12.28C50.4396 12.28 50.7436 12.2 51.0156 12.04C51.2876 11.872 51.4996 11.636 51.6516 11.332C51.8116 11.02 51.8916 10.64 51.8916 10.192V6.952H52.8996V13H51.9876L51.9276 11.944C51.7436 12.32 51.4716 12.616 51.1116 12.832C50.7516 13.04 50.3436 13.144 49.8876 13.144ZM54.5705 13V4.36H55.5785V13H54.5705ZM59.6183 13C59.2583 13 58.9463 12.944 58.6823 12.832C58.4183 12.72 58.2143 12.532 58.0703 12.268C57.9343 11.996 57.8663 11.632 57.8663 11.176V7.804H56.8103V6.952H57.8663L57.9983 5.488H58.8743V6.952H60.6263V7.804H58.8743V11.176C58.8743 11.552 58.9503 11.808 59.1023 11.944C59.2543 12.072 59.5223 12.136 59.9063 12.136H60.5543V13H59.6183ZM62.6016 15.64L64.0776 12.328H63.7296L61.3536 6.952H62.4456L64.4136 11.572L66.4776 6.952H67.5216L63.6576 15.64H62.6016Z" fill="#9F9F9F"/>
<rect x="87" y="1.5" width="14" height="14" rx="4" fill="#FF812A"/>
<path d="M109.548 13.144C108.732 13.144 108.024 12.964 107.424 12.604C106.832 12.236 106.376 11.728 106.056 11.08C105.736 10.424 105.576 9.664 105.576 8.8C105.576 7.936 105.736 7.18 106.056 6.532C106.376 5.876 106.832 5.368 107.424 5.008C108.024 4.64 108.732 4.456 109.548 4.456C110.508 4.456 111.288 4.684 111.888 5.14C112.488 5.596 112.872 6.24 113.04 7.072H111.924C111.796 6.552 111.536 6.136 111.144 5.824C110.752 5.504 110.22 5.344 109.548 5.344C108.948 5.344 108.428 5.484 107.988 5.764C107.548 6.036 107.208 6.432 106.968 6.952C106.728 7.464 106.608 8.08 106.608 8.8C106.608 9.52 106.728 10.14 106.968 10.66C107.208 11.172 107.548 11.568 107.988 11.848C108.428 12.12 108.948 12.256 109.548 12.256C110.22 12.256 110.752 12.104 111.144 11.8C111.536 11.488 111.796 11.076 111.924 10.564H113.04C112.872 11.372 112.488 12.004 111.888 12.46C111.288 12.916 110.508 13.144 109.548 13.144ZM117.142 13.144C116.582 13.144 116.078 13.016 115.63 12.76C115.182 12.496 114.83 12.128 114.574 11.656C114.318 11.176 114.19 10.62 114.19 9.988C114.19 9.34 114.318 8.78 114.574 8.308C114.838 7.828 115.194 7.46 115.642 7.204C116.098 6.94 116.606 6.808 117.166 6.808C117.742 6.808 118.25 6.94 118.69 7.204C119.138 7.46 119.49 7.828 119.746 8.308C120.01 8.78 120.142 9.336 120.142 9.976C120.142 10.616 120.01 11.176 119.746 11.656C119.482 12.128 119.126 12.496 118.678 12.76C118.23 13.016 117.718 13.144 117.142 13.144ZM117.154 12.28C117.498 12.28 117.818 12.196 118.114 12.028C118.41 11.852 118.65 11.592 118.834 11.248C119.018 10.904 119.11 10.48 119.11 9.976C119.11 9.464 119.018 9.04 118.834 8.704C118.658 8.36 118.422 8.104 118.126 7.936C117.838 7.76 117.518 7.672 117.166 7.672C116.83 7.672 116.51 7.76 116.206 7.936C115.91 8.104 115.67 8.36 115.486 8.704C115.31 9.04 115.222 9.464 115.222 9.976C115.222 10.48 115.31 10.904 115.486 11.248C115.67 11.592 115.906 11.852 116.194 12.028C116.49 12.196 116.81 12.28 117.154 12.28ZM124.219 13.144C123.635 13.144 123.123 13.008 122.683 12.736C122.243 12.456 121.903 12.076 121.663 11.596C121.423 11.116 121.303 10.572 121.303 9.964C121.303 9.356 121.423 8.816 121.663 8.344C121.903 7.864 122.243 7.488 122.683 7.216C123.131 6.944 123.647 6.808 124.231 6.808C124.727 6.808 125.159 6.908 125.527 7.108C125.903 7.308 126.191 7.588 126.391 7.948V4.36H127.399V13H126.487L126.403 12.004C126.275 12.204 126.111 12.392 125.911 12.568C125.711 12.736 125.471 12.876 125.191 12.988C124.911 13.092 124.587 13.144 124.219 13.144ZM124.339 12.268C124.739 12.268 125.091 12.172 125.395 11.98C125.699 11.788 125.935 11.524 126.103 11.188C126.271 10.844 126.355 10.44 126.355 9.976C126.355 9.52 126.271 9.12 126.103 8.776C125.935 8.432 125.699 8.164 125.395 7.972C125.091 7.78 124.739 7.684 124.339 7.684C123.947 7.684 123.599 7.78 123.295 7.972C122.991 8.164 122.755 8.432 122.587 8.776C122.419 9.12 122.335 9.52 122.335 9.976C122.335 10.44 122.419 10.844 122.587 11.188C122.755 11.524 122.991 11.788 123.295 11.98C123.599 12.172 123.947 12.268 124.339 12.268ZM131.73 13.144C131.162 13.144 130.658 13.012 130.218 12.748C129.786 12.484 129.446 12.116 129.198 11.644C128.95 11.164 128.826 10.608 128.826 9.976C128.826 9.336 128.946 8.78 129.186 8.308C129.434 7.836 129.778 7.468 130.218 7.204C130.666 6.94 131.178 6.808 131.754 6.808C132.346 6.808 132.846 6.94 133.254 7.204C133.67 7.468 133.986 7.816 134.202 8.248C134.426 8.672 134.538 9.14 134.538 9.652C134.538 9.732 134.538 9.816 134.538 9.904C134.538 9.992 134.534 10.092 134.526 10.204H129.582V9.424H133.554C133.53 8.872 133.346 8.44 133.002 8.128C132.666 7.816 132.242 7.66 131.73 7.66C131.386 7.66 131.066 7.74 130.77 7.9C130.482 8.052 130.25 8.28 130.074 8.584C129.898 8.88 129.81 9.252 129.81 9.7V10.036C129.81 10.532 129.898 10.948 130.074 11.284C130.258 11.62 130.494 11.872 130.782 12.04C131.078 12.208 131.394 12.292 131.73 12.292C132.154 12.292 132.502 12.2 132.774 12.016C133.054 11.824 133.254 11.568 133.374 11.248H134.37C134.274 11.608 134.106 11.932 133.866 12.22C133.626 12.508 133.326 12.736 132.966 12.904C132.614 13.064 132.202 13.144 131.73 13.144Z" fill="#9F9F9F"/>
<rect x="155" y="1.5" width="14" height="14" rx="4" fill="#D387FF"/>
<path d="M177.548 13.144C176.732 13.144 176.024 12.964 175.424 12.604C174.832 12.236 174.376 11.728 174.056 11.08C173.736 10.424 173.576 9.664 173.576 8.8C173.576 7.936 173.736 7.18 174.056 6.532C174.376 5.876 174.832 5.368 175.424 5.008C176.024 4.64 176.732 4.456 177.548 4.456C178.508 4.456 179.288 4.684 179.888 5.14C180.488 5.596 180.872 6.24 181.04 7.072H179.924C179.796 6.552 179.536 6.136 179.144 5.824C178.752 5.504 178.22 5.344 177.548 5.344C176.948 5.344 176.428 5.484 175.988 5.764C175.548 6.036 175.208 6.432 174.968 6.952C174.728 7.464 174.608 8.08 174.608 8.8C174.608 9.52 174.728 10.14 174.968 10.66C175.208 11.172 175.548 11.568 175.988 11.848C176.428 12.12 176.948 12.256 177.548 12.256C178.22 12.256 178.752 12.104 179.144 11.8C179.536 11.488 179.796 11.076 179.924 10.564H181.04C180.872 11.372 180.488 12.004 179.888 12.46C179.288 12.916 178.508 13.144 177.548 13.144ZM182.442 13V6.952H183.354L183.426 8.104C183.562 7.832 183.734 7.6 183.942 7.408C184.158 7.216 184.414 7.068 184.71 6.964C185.014 6.86 185.358 6.808 185.742 6.808V7.864H185.37C185.114 7.864 184.87 7.9 184.638 7.972C184.406 8.036 184.198 8.144 184.014 8.296C183.838 8.448 183.698 8.656 183.594 8.92C183.498 9.176 183.45 9.496 183.45 9.88V13H182.442ZM189.312 13.144C188.744 13.144 188.24 13.012 187.8 12.748C187.368 12.484 187.028 12.116 186.78 11.644C186.532 11.164 186.408 10.608 186.408 9.976C186.408 9.336 186.528 8.78 186.768 8.308C187.016 7.836 187.36 7.468 187.8 7.204C188.248 6.94 188.76 6.808 189.336 6.808C189.928 6.808 190.428 6.94 190.836 7.204C191.252 7.468 191.568 7.816 191.784 8.248C192.008 8.672 192.12 9.14 192.12 9.652C192.12 9.732 192.12 9.816 192.12 9.904C192.12 9.992 192.116 10.092 192.108 10.204H187.164V9.424H191.136C191.112 8.872 190.928 8.44 190.584 8.128C190.248 7.816 189.824 7.66 189.312 7.66C188.968 7.66 188.648 7.74 188.352 7.9C188.064 8.052 187.832 8.28 187.656 8.584C187.48 8.88 187.392 9.252 187.392 9.7V10.036C187.392 10.532 187.48 10.948 187.656 11.284C187.84 11.62 188.076 11.872 188.364 12.04C188.66 12.208 188.976 12.292 189.312 12.292C189.736 12.292 190.084 12.2 190.356 12.016C190.636 11.824 190.836 11.568 190.956 11.248H191.952C191.856 11.608 191.688 11.932 191.448 12.22C191.208 12.508 190.908 12.736 190.548 12.904C190.196 13.064 189.784 13.144 189.312 13.144ZM195.449 13.144C194.961 13.144 194.553 13.06 194.225 12.892C193.897 12.716 193.653 12.488 193.493 12.208C193.333 11.92 193.253 11.608 193.253 11.272C193.253 10.864 193.357 10.52 193.565 10.24C193.781 9.952 194.081 9.736 194.465 9.592C194.857 9.44 195.317 9.364 195.845 9.364H197.441C197.441 8.988 197.381 8.676 197.261 8.428C197.149 8.172 196.981 7.98 196.757 7.852C196.541 7.724 196.269 7.66 195.941 7.66C195.557 7.66 195.225 7.756 194.945 7.948C194.665 8.14 194.493 8.424 194.429 8.8H193.397C193.445 8.368 193.589 8.008 193.829 7.72C194.077 7.424 194.389 7.2 194.765 7.048C195.141 6.888 195.533 6.808 195.941 6.808C196.501 6.808 196.965 6.912 197.333 7.12C197.709 7.32 197.989 7.604 198.173 7.972C198.357 8.332 198.449 8.76 198.449 9.256V13H197.549L197.489 11.932C197.409 12.1 197.305 12.26 197.177 12.412C197.057 12.556 196.913 12.684 196.745 12.796C196.577 12.9 196.385 12.984 196.169 13.048C195.961 13.112 195.721 13.144 195.449 13.144ZM195.605 12.292C195.885 12.292 196.137 12.236 196.361 12.124C196.593 12.004 196.789 11.844 196.949 11.644C197.109 11.436 197.229 11.208 197.309 10.96C197.397 10.712 197.441 10.452 197.441 10.18V10.144H195.929C195.537 10.144 195.221 10.192 194.981 10.288C194.741 10.376 194.569 10.504 194.465 10.672C194.361 10.832 194.309 11.016 194.309 11.224C194.309 11.44 194.357 11.628 194.453 11.788C194.557 11.948 194.705 12.072 194.897 12.16C195.097 12.248 195.333 12.292 195.605 12.292ZM202.22 13C201.86 13 201.548 12.944 201.284 12.832C201.02 12.72 200.816 12.532 200.672 12.268C200.536 11.996 200.468 11.632 200.468 11.176V7.804H199.412V6.952H200.468L200.6 5.488H201.476V6.952H203.228V7.804H201.476V11.176C201.476 11.552 201.552 11.808 201.704 11.944C201.856 12.072 202.124 12.136 202.508 12.136H203.156V13H202.22ZM204.639 13V6.952H205.647V13H204.639ZM205.143 5.668C204.943 5.668 204.775 5.604 204.639 5.476C204.511 5.34 204.447 5.172 204.447 4.972C204.447 4.772 204.511 4.612 204.639 4.492C204.775 4.364 204.943 4.3 205.143 4.3C205.335 4.3 205.499 4.364 205.635 4.492C205.771 4.612 205.839 4.772 205.839 4.972C205.839 5.172 205.771 5.34 205.635 5.476C205.499 5.604 205.335 5.668 205.143 5.668ZM209.166 13L206.874 6.952H207.93L209.754 12.028L211.59 6.952H212.622L210.33 13H209.166ZM213.85 13V6.952H214.858V13H213.85ZM214.354 5.668C214.154 5.668 213.986 5.604 213.85 5.476C213.722 5.34 213.658 5.172 213.658 4.972C213.658 4.772 213.722 4.612 213.85 4.492C213.986 4.364 214.154 4.3 214.354 4.3C214.546 4.3 214.71 4.364 214.846 4.492C214.982 4.612 215.05 4.772 215.05 4.972C215.05 5.172 214.982 5.34 214.846 5.476C214.71 5.604 214.546 5.668 214.354 5.668ZM219.013 13C218.653 13 218.341 12.944 218.077 12.832C217.813 12.72 217.609 12.532 217.465 12.268C217.329 11.996 217.261 11.632 217.261 11.176V7.804H216.205V6.952H217.261L217.393 5.488H218.269V6.952H220.021V7.804H218.269V11.176C218.269 11.552 218.345 11.808 218.497 11.944C218.649 12.072 218.917 12.136 219.301 12.136H219.949V13H219.013ZM221.996 15.64L223.472 12.328H223.124L220.748 6.952H221.84L223.808 11.572L225.872 6.952H226.916L223.052 15.64H221.996Z" fill="#9F9F9F"/>
</svg>
