<svg width="276" height="315" viewBox="0 0 276 315" fill="none" xmlns="http://www.w3.org/2000/svg">
<mask id="path-1-inside-1_93_82" fill="white">
<path d="M0 0H276V315H0V0Z"/>
</mask>
<path d="M276 0H275V315H276H277V0H276Z" fill="#2A2A2A" mask="url(#path-1-inside-1_93_82)"/>
<circle cx="138" cy="137.812" r="100.5" stroke="#2A2A2A"/>
<line x1="139.5" y1="237.312" x2="139.5" y2="37.3125" stroke="#2A2A2A" stroke-linecap="round"/>
<line x1="38.5" y1="137.312" x2="237.5" y2="137.312" stroke="#2A2A2A" stroke-linecap="round"/>
<line x1="68" y1="208.527" x2="208.714" y2="67.8125" stroke="#2A2A2A" stroke-linecap="round"/>
<line x1="68.7071" y1="66.8125" x2="209.421" y2="207.527" stroke="#2A2A2A" stroke-linecap="round"/>
<circle cx="139" cy="137.812" r="24.5" fill="#111111" stroke="#2A2A2A"/>
<path d="M187.596 137.5C187.596 164.944 165.348 187.191 137.904 187.191C110.46 187.191 88.2129 164.944 88.2129 137.5C88.2129 110.056 110.46 87.8086 137.904 87.8086C165.348 87.8086 187.596 110.056 187.596 137.5ZM105.605 137.5C105.605 155.338 120.066 169.799 137.904 169.799C155.743 169.799 170.204 155.338 170.204 137.5C170.204 119.661 155.743 105.201 137.904 105.201C120.066 105.201 105.605 119.661 105.605 137.5Z" fill="#241C28"/>
<path d="M207.04 137.5C207.04 175.683 176.087 206.636 137.904 206.636C99.7217 206.636 68.7686 175.683 68.7686 137.5C68.7686 99.3174 99.7217 68.3643 137.904 68.3643C176.087 68.3643 207.04 99.3174 207.04 137.5ZM85.7568 137.5C85.7568 166.3 109.104 189.648 137.904 189.648C166.705 189.648 190.052 166.3 190.052 137.5C190.052 108.7 166.705 85.3525 137.904 85.3525C109.104 85.3525 85.7568 108.7 85.7568 137.5Z" fill="#281C13"/>
<path d="M225.404 137.5C225.404 185.825 186.229 225 137.904 225C89.5794 225 50.4043 185.825 50.4043 137.5C50.4043 89.1751 89.5794 50 137.904 50C186.229 50 225.404 89.1751 225.404 137.5ZM66.3991 137.5C66.3991 176.991 98.4131 209.005 137.904 209.005C177.396 209.005 209.409 176.991 209.409 137.5C209.409 98.0088 177.396 65.9948 137.904 65.9948C98.4131 65.9948 66.3991 98.0088 66.3991 137.5Z" fill="#282828"/>
<path d="M92.2128 137.5C90.0037 137.5 88.1961 135.706 88.3737 133.504C89.1058 124.428 92.321 115.7 97.703 108.292C103.085 100.884 110.393 95.1293 118.798 91.6284C120.838 90.7791 123.102 91.9439 123.785 94.0449L126.687 102.977C127.37 105.078 126.206 107.313 124.205 108.25C119.28 110.556 114.996 114.08 111.773 118.515C108.551 122.95 106.524 128.113 105.852 133.51C105.579 135.702 103.814 137.5 101.605 137.5L92.2128 137.5Z" fill="#D387FF"/>
<path d="M72.7685 137.5C70.5594 137.5 68.7565 135.707 68.8842 133.502C69.7543 118.475 75.5104 104.101 85.3331 92.5999C96.0239 80.0826 110.83 71.7906 127.089 69.2154C143.348 66.6403 159.992 69.951 174.028 78.5521C188.063 87.1532 198.57 100.48 203.656 116.136C208.743 131.792 208.077 148.749 201.777 163.957C195.478 179.166 183.959 191.627 169.291 199.101C154.624 206.574 137.772 208.568 121.765 204.726C107.058 201.195 93.9523 192.949 84.4159 181.304C83.0163 179.595 83.4211 177.084 85.2084 175.786L92.48 170.503C94.2673 169.204 96.7575 169.612 98.1891 171.295C105.324 179.68 114.958 185.62 125.731 188.207C137.804 191.105 150.516 189.601 161.579 183.964C172.642 178.327 181.331 168.927 186.082 157.456C190.834 145.985 191.336 133.194 187.5 121.386C183.663 109.577 175.738 99.5246 165.151 93.037C154.565 86.5494 142.01 84.0522 129.747 85.9945C117.483 87.9369 106.315 94.1914 98.251 103.633C91.056 112.057 86.7536 122.526 85.9101 133.504C85.7408 135.706 83.9659 137.5 81.7568 137.5L72.7685 137.5Z" fill="#FF812A"/>
<path d="M54.4043 137.5C52.1952 137.5 50.3948 135.708 50.4957 133.501C51.2762 116.435 57.0393 99.9373 67.1153 86.0688C77.9765 71.1196 93.2915 59.9926 110.865 54.2825C128.439 48.5725 147.37 48.5725 164.943 54.2826C182.517 59.9926 197.832 71.1196 208.693 86.0688C219.554 101.018 225.404 119.022 225.404 137.5C225.404 155.978 219.554 173.982 208.693 188.931C197.832 203.88 182.517 215.007 164.943 220.717C148.64 226.015 131.169 226.398 114.697 221.866C112.567 221.28 111.419 219.014 112.101 216.913L114.572 209.31C115.255 207.209 117.509 206.07 119.645 206.635C132.898 210.135 146.91 209.759 160.001 205.505C174.362 200.839 186.877 191.746 195.753 179.53C204.629 167.313 209.409 152.6 209.409 137.5C209.409 122.4 204.629 107.687 195.753 95.4703C186.877 83.2538 174.362 74.1608 160.001 69.4945C145.639 64.8283 130.169 64.8282 115.808 69.4945C101.447 74.1608 88.9312 83.2538 80.0554 95.4703C71.965 106.606 67.2772 119.815 66.5109 133.502C66.3874 135.708 64.6083 137.5 62.3991 137.5L54.4043 137.5Z" fill="white"/>
<path d="M33.5 148.76H28.996L29.252 149.752H28.508L27.9 148.376V147.776H33.5V148.76ZM33.596 144.419C33.596 144.925 33.476 145.36 33.236 145.723C32.9907 146.085 32.652 146.365 32.22 146.563C31.7827 146.755 31.276 146.851 30.7 146.851C30.124 146.851 29.62 146.755 29.188 146.563C28.7507 146.365 28.412 146.085 28.172 145.723C27.9267 145.36 27.804 144.925 27.804 144.419C27.804 143.917 27.9267 143.488 28.172 143.131C28.412 142.768 28.7507 142.491 29.188 142.299C29.62 142.101 30.124 142.003 30.7 142.003C31.276 142.003 31.7827 142.101 32.22 142.299C32.652 142.491 32.9907 142.768 33.236 143.131C33.476 143.488 33.596 143.917 33.596 144.419ZM32.732 144.427C32.732 144.144 32.652 143.893 32.492 143.675C32.3267 143.456 32.092 143.288 31.788 143.171C31.484 143.048 31.1213 142.987 30.7 142.987C30.2787 142.987 29.916 143.048 29.612 143.171C29.308 143.288 29.076 143.456 28.916 143.675C28.7507 143.893 28.668 144.144 28.668 144.427C28.668 144.709 28.7507 144.96 28.916 145.179C29.076 145.397 29.308 145.568 29.612 145.691C29.916 145.808 30.2787 145.867 30.7 145.867C31.1213 145.867 31.484 145.808 31.788 145.691C32.092 145.568 32.3267 145.397 32.492 145.179C32.652 144.96 32.732 144.709 32.732 144.427ZM33.596 138.833C33.596 139.339 33.476 139.774 33.236 140.137C32.9907 140.499 32.652 140.779 32.22 140.977C31.7827 141.169 31.276 141.265 30.7 141.265C30.124 141.265 29.62 141.169 29.188 140.977C28.7507 140.779 28.412 140.499 28.172 140.137C27.9267 139.774 27.804 139.339 27.804 138.833C27.804 138.331 27.9267 137.902 28.172 137.545C28.412 137.182 28.7507 136.905 29.188 136.713C29.62 136.515 30.124 136.417 30.7 136.417C31.276 136.417 31.7827 136.515 32.22 136.713C32.652 136.905 32.9907 137.182 33.236 137.545C33.476 137.902 33.596 138.331 33.596 138.833ZM32.732 138.841C32.732 138.558 32.652 138.307 32.492 138.089C32.3267 137.87 32.092 137.702 31.788 137.585C31.484 137.462 31.1213 137.401 30.7 137.401C30.2787 137.401 29.916 137.462 29.612 137.585C29.308 137.702 29.076 137.87 28.916 138.089C28.7507 138.307 28.668 138.558 28.668 138.841C28.668 139.123 28.7507 139.374 28.916 139.593C29.076 139.811 29.308 139.982 29.612 140.105C29.916 140.222 30.2787 140.281 30.7 140.281C31.1213 140.281 31.484 140.222 31.788 140.105C32.092 139.982 32.3267 139.811 32.492 139.593C32.652 139.374 32.732 139.123 32.732 138.841ZM34.364 136.175L27.3 134.167V133.231L34.364 135.239V136.175ZM33.596 130.387C33.596 130.894 33.476 131.329 33.236 131.691C32.9907 132.054 32.652 132.334 32.22 132.531C31.7827 132.723 31.276 132.819 30.7 132.819C30.124 132.819 29.62 132.723 29.188 132.531C28.7507 132.334 28.412 132.054 28.172 131.691C27.9267 131.329 27.804 130.894 27.804 130.387C27.804 129.886 27.9267 129.457 28.172 129.099C28.412 128.737 28.7507 128.459 29.188 128.267C29.62 128.07 30.124 127.971 30.7 127.971C31.276 127.971 31.7827 128.07 32.22 128.267C32.652 128.459 32.9907 128.737 33.236 129.099C33.476 129.457 33.596 129.886 33.596 130.387ZM32.732 130.395C32.732 130.113 32.652 129.862 32.492 129.643C32.3267 129.425 32.092 129.257 31.788 129.139C31.484 129.017 31.1213 128.955 30.7 128.955C30.2787 128.955 29.916 129.017 29.612 129.139C29.308 129.257 29.076 129.425 28.916 129.643C28.7507 129.862 28.668 130.113 28.668 130.395C28.668 130.678 28.7507 130.929 28.916 131.147C29.076 131.366 29.308 131.537 29.612 131.659C29.916 131.777 30.2787 131.835 30.7 131.835C31.1213 131.835 31.484 131.777 31.788 131.659C32.092 131.537 32.3267 131.366 32.492 131.147C32.652 130.929 32.732 130.678 32.732 130.395ZM33.5 126.21L27.9 123.034V122.09L33.5 125.266V126.21ZM33.596 122.346C33.596 122.596 33.54 122.826 33.428 123.034C33.3107 123.236 33.148 123.399 32.94 123.522C32.7267 123.644 32.476 123.706 32.188 123.706C31.8947 123.706 31.644 123.644 31.436 123.522C31.228 123.399 31.068 123.236 30.956 123.034C30.8387 122.826 30.78 122.596 30.78 122.346C30.78 122.084 30.8387 121.855 30.956 121.658C31.068 121.455 31.228 121.295 31.436 121.178C31.644 121.055 31.8947 120.994 32.188 120.994C32.476 120.994 32.7267 121.055 32.94 121.178C33.148 121.295 33.3107 121.455 33.428 121.658C33.54 121.86 33.596 122.09 33.596 122.346ZM32.924 122.354C32.924 122.242 32.8973 122.14 32.844 122.05C32.7853 121.959 32.7027 121.887 32.596 121.834C32.484 121.78 32.348 121.754 32.188 121.754C32.0227 121.754 31.8867 121.78 31.78 121.834C31.6733 121.887 31.5933 121.959 31.54 122.05C31.4813 122.135 31.452 122.234 31.452 122.346C31.452 122.452 31.4813 122.551 31.54 122.642C31.5933 122.732 31.6733 122.804 31.78 122.858C31.8867 122.911 32.0227 122.938 32.188 122.938C32.348 122.938 32.484 122.911 32.596 122.858C32.7027 122.804 32.7853 122.735 32.844 122.65C32.8973 122.559 32.924 122.46 32.924 122.354ZM30.62 125.906C30.62 126.162 30.564 126.394 30.452 126.602C30.34 126.804 30.1773 126.967 29.964 127.09C29.7507 127.207 29.5 127.266 29.212 127.266C28.924 127.266 28.676 127.207 28.468 127.09C28.2547 126.967 28.092 126.802 27.98 126.594C27.868 126.386 27.812 126.156 27.812 125.906C27.812 125.65 27.868 125.42 27.98 125.218C28.092 125.015 28.2547 124.855 28.468 124.738C28.676 124.615 28.924 124.554 29.212 124.554C29.5 124.554 29.7507 124.615 29.964 124.738C30.1773 124.855 30.34 125.015 30.452 125.218C30.564 125.42 30.62 125.65 30.62 125.906ZM29.948 125.914C29.948 125.802 29.9213 125.7 29.868 125.61C29.8093 125.519 29.7267 125.45 29.62 125.402C29.508 125.348 29.372 125.322 29.212 125.322C29.052 125.322 28.916 125.348 28.804 125.402C28.692 125.45 28.6093 125.519 28.556 125.61C28.4973 125.7 28.468 125.799 28.468 125.906C28.468 126.012 28.4973 126.114 28.556 126.21C28.6093 126.3 28.692 126.372 28.804 126.426C28.916 126.479 29.052 126.506 29.212 126.506C29.372 126.506 29.508 126.479 29.62 126.426C29.7267 126.372 29.8093 126.3 29.868 126.21C29.9213 126.119 29.948 126.02 29.948 125.914Z" fill="#9F9F9F"/>
<path d="M58.0337 67.3367L54.8489 64.1519L54.3284 65.0343L53.8023 64.5083L54.3454 63.1054L54.7697 62.6811L58.7295 66.6409L58.0337 67.3367ZM59.429 65.9414L58.9368 65.4492C58.9896 64.9967 59.0311 64.5555 59.0613 64.1255C59.0914 63.6956 59.1009 63.2902 59.0896 62.9093C59.0782 62.5284 59.0311 62.1909 58.9481 61.8967C58.8652 61.6026 58.7369 61.3688 58.5635 61.1953C58.4503 61.0821 58.324 60.9973 58.1845 60.9407C58.0449 60.8842 57.8997 60.871 57.7489 60.9011C57.6018 60.9275 57.4547 61.0143 57.3076 61.1613C57.1643 61.3046 57.0738 61.4593 57.0361 61.6252C57.0022 61.7874 57.0154 61.9476 57.0757 62.106C57.1323 62.2607 57.2284 62.4058 57.3642 62.5416L56.708 63.1978C56.4289 62.9037 56.2517 62.602 56.1763 62.2927C56.1008 61.9835 56.1159 61.6818 56.2215 61.3876C56.3234 61.0897 56.4987 60.8163 56.7476 60.5674C57.0154 60.2996 57.2926 60.1205 57.5792 60.03C57.8658 59.9395 58.1486 59.9319 58.4277 60.0073C58.7068 60.0828 58.967 60.2412 59.2083 60.4825C59.3856 60.6598 59.527 60.8691 59.6326 61.1104C59.7382 61.3442 59.8136 61.6007 59.8589 61.8798C59.9004 62.1551 59.923 62.4417 59.9268 62.7396C59.9305 63.03 59.923 63.3204 59.9041 63.6108C59.8815 63.8974 59.8551 64.1689 59.8249 64.4253L61.5955 62.6548L62.1556 63.2148L59.429 65.9414ZM63.0898 62.3371C62.9616 62.4654 62.8183 62.5295 62.6599 62.5295C62.5015 62.5295 62.3676 62.4748 62.2582 62.3654C62.1413 62.2485 62.0829 62.1109 62.0829 61.9525C62.0829 61.7941 62.147 61.6508 62.2752 61.5225C62.3997 61.3981 62.5411 61.3359 62.6995 61.3359C62.8579 61.3359 62.9955 61.3943 63.1124 61.5112C63.2218 61.6206 63.2765 61.7545 63.2765 61.9129C63.2765 62.0713 63.2142 62.2127 63.0898 62.3371ZM65.5863 59.9198C65.3035 60.2026 65.0093 60.3987 64.7039 60.5081C64.3984 60.6099 64.1005 60.6326 63.8101 60.576C63.5159 60.5157 63.2463 60.3855 63.0011 60.1857L63.663 59.5238C63.8629 59.6558 64.0873 59.7105 64.3362 59.6879C64.5813 59.6615 64.8057 59.5464 65.0093 59.3428C65.1639 59.1882 65.2601 59.0204 65.2978 58.8393C65.3318 58.6545 65.3167 58.4698 65.2526 58.285C65.1885 58.0926 65.0772 57.9173 64.9188 57.7589C64.7566 57.5967 64.5832 57.4873 64.3984 57.4308C64.2174 57.3704 64.0401 57.3629 63.8666 57.4082C63.6894 57.4496 63.5291 57.542 63.3858 57.6853C63.2086 57.8626 63.0973 58.0568 63.052 58.268C63.0068 58.4716 63.0162 58.6621 63.0803 58.8393L62.4241 59.4955L60.5178 56.933L62.7013 54.7494L63.2953 55.3434L61.6209 57.0178L62.4185 58.1775C62.4109 57.9965 62.4505 57.806 62.5373 57.6061C62.6202 57.4025 62.7541 57.2083 62.9389 57.0235C63.1463 56.8161 63.3651 56.669 63.5951 56.5823C63.8252 56.4955 64.0571 56.4597 64.2909 56.4748C64.5247 56.4899 64.751 56.554 64.9697 56.6671C65.1885 56.7727 65.3883 56.916 65.5693 57.097C65.773 57.3007 65.9276 57.5232 66.0332 57.7645C66.135 58.0021 66.1878 58.2473 66.1916 58.4999C66.1991 58.7488 66.152 58.9958 66.0502 59.241C65.9521 59.4823 65.7975 59.7086 65.5863 59.9198ZM68.2064 57.164L66.4923 50.9584L67.1599 50.2909L68.8739 56.4965L68.2064 57.164ZM71.0065 54.4996C70.8293 54.6768 70.6275 54.7994 70.4012 54.8673C70.175 54.9276 69.9449 54.9276 69.7111 54.8673C69.4735 54.8032 69.2529 54.6693 69.0492 54.4657C68.8418 54.2582 68.7079 54.0376 68.6476 53.8038C68.5873 53.57 68.5892 53.3418 68.6533 53.1193C68.7174 52.8893 68.8381 52.6856 69.0153 52.5084C69.2001 52.3236 69.4037 52.2029 69.6262 52.1463C69.8487 52.0822 70.075 52.0822 70.3051 52.1463C70.5389 52.2067 70.7595 52.3406 70.9669 52.548C71.1706 52.7516 71.3044 52.9722 71.3686 53.2098C71.4327 53.4399 71.4345 53.668 71.3742 53.8943C71.3101 54.1168 71.1875 54.3186 71.0065 54.4996ZM70.5257 54.0301C70.6049 53.9509 70.6577 53.8604 70.6841 53.7586C70.7067 53.653 70.6992 53.5436 70.6614 53.4305C70.62 53.3135 70.5427 53.1985 70.4295 53.0854C70.3126 52.9685 70.1976 52.8912 70.0844 52.8535C69.9713 52.8157 69.8638 52.8101 69.762 52.8365C69.6602 52.8553 69.5697 52.9044 69.4905 52.9836C69.4151 53.059 69.366 53.1495 69.3434 53.2551C69.317 53.3569 69.3227 53.4644 69.3604 53.5775C69.3981 53.6907 69.4754 53.8057 69.5923 53.9226C69.7054 54.0357 69.8205 54.113 69.9374 54.1545C70.0505 54.1922 70.158 54.2017 70.2598 54.1828C70.3616 54.1564 70.4503 54.1055 70.5257 54.0301ZM66.3849 54.9126C66.2038 55.0936 66.0002 55.218 65.7739 55.2859C65.5514 55.35 65.3214 55.35 65.0838 55.2859C64.85 55.218 64.6312 55.0823 64.4276 54.8786C64.2239 54.675 64.0901 54.4581 64.026 54.2281C63.9618 53.9905 63.9637 53.7586 64.0316 53.5323C64.0995 53.306 64.2221 53.1042 64.3993 52.927C64.5803 52.746 64.7821 52.6234 65.0046 52.5593C65.2271 52.4952 65.4553 52.4971 65.6891 52.565C65.9229 52.6253 66.1416 52.7573 66.3453 52.9609C66.5489 53.1646 66.6828 53.3852 66.7469 53.6228C66.8148 53.8566 66.8167 54.0848 66.7526 54.3073C66.6884 54.5298 66.5659 54.7315 66.3849 54.9126ZM65.904 54.443C65.9832 54.3638 66.036 54.2733 66.0624 54.1715C66.0851 54.0659 66.0756 53.9584 66.0341 53.8491C65.9927 53.7322 65.9153 53.6171 65.8022 53.504C65.6891 53.3909 65.574 53.3135 65.4571 53.2721C65.344 53.2268 65.2365 53.2174 65.1347 53.2438C65.0291 53.2664 64.9386 53.3154 64.8632 53.3909C64.7877 53.4663 64.7368 53.5587 64.7104 53.668C64.684 53.7699 64.6916 53.8792 64.7331 53.9961C64.7745 54.113 64.8519 54.2281 64.965 54.3412C65.0781 54.4543 65.1932 54.5317 65.3101 54.5731C65.4232 54.6109 65.5326 54.6184 65.6382 54.5958C65.74 54.5694 65.8286 54.5185 65.904 54.443Z" fill="#9F9F9F"/>
<path d="M132.932 32V31.304C133.289 31.0213 133.631 30.7387 133.956 30.456C134.281 30.1733 134.575 29.8933 134.836 29.616C135.097 29.3387 135.303 29.0667 135.452 28.8C135.601 28.5333 135.676 28.2773 135.676 28.032C135.676 27.872 135.647 27.7227 135.588 27.584C135.529 27.4453 135.436 27.3333 135.308 27.248C135.185 27.1627 135.02 27.12 134.812 27.12C134.609 27.12 134.436 27.1653 134.292 27.256C134.153 27.3467 134.049 27.4693 133.98 27.624C133.911 27.7733 133.876 27.944 133.876 28.136H132.948C132.959 27.7307 133.047 27.392 133.212 27.12C133.377 26.848 133.601 26.6453 133.884 26.512C134.167 26.3733 134.484 26.304 134.836 26.304C135.215 26.304 135.537 26.3733 135.804 26.512C136.071 26.6507 136.276 26.8453 136.42 27.096C136.564 27.3467 136.636 27.6427 136.636 27.984C136.636 28.2347 136.588 28.4827 136.492 28.728C136.401 28.968 136.273 29.2027 136.108 29.432C135.943 29.656 135.756 29.8747 135.548 30.088C135.345 30.296 135.135 30.496 134.916 30.688C134.697 30.8747 134.487 31.048 134.284 31.208H136.788V32H132.932ZM139.653 32.096C139.253 32.096 138.907 32.0267 138.613 31.888C138.325 31.744 138.099 31.5493 137.933 31.304C137.768 31.0533 137.669 30.7707 137.637 30.456H138.573C138.621 30.6907 138.741 30.888 138.933 31.048C139.125 31.2027 139.365 31.28 139.653 31.28C139.872 31.28 140.059 31.2293 140.213 31.128C140.368 31.0213 140.488 30.88 140.573 30.704C140.664 30.5227 140.709 30.32 140.709 30.096C140.709 29.8667 140.664 29.6667 140.573 29.496C140.488 29.3253 140.368 29.1947 140.213 29.104C140.059 29.008 139.88 28.96 139.677 28.96C139.427 28.96 139.211 29.0187 139.029 29.136C138.853 29.248 138.725 29.3893 138.645 29.56H137.717L138.181 26.4H141.269V27.24H138.901L138.645 28.624C138.768 28.4907 138.931 28.384 139.133 28.304C139.336 28.2187 139.568 28.176 139.829 28.176C140.123 28.176 140.381 28.2267 140.605 28.328C140.829 28.4293 141.019 28.568 141.173 28.744C141.328 28.92 141.443 29.1253 141.517 29.36C141.597 29.5893 141.637 29.832 141.637 30.088C141.637 30.376 141.589 30.6427 141.493 30.888C141.397 31.128 141.261 31.3387 141.085 31.52C140.915 31.7013 140.707 31.8427 140.461 31.944C140.221 32.0453 139.952 32.096 139.653 32.096ZM143.455 32L146.631 26.4H147.575L144.399 32H143.455ZM147.319 32.096C147.068 32.096 146.839 32.04 146.631 31.928C146.428 31.8107 146.265 31.648 146.143 31.44C146.02 31.2267 145.959 30.976 145.959 30.688C145.959 30.3947 146.02 30.144 146.143 29.936C146.265 29.728 146.428 29.568 146.631 29.456C146.839 29.3387 147.068 29.28 147.319 29.28C147.58 29.28 147.809 29.3387 148.007 29.456C148.209 29.568 148.369 29.728 148.487 29.936C148.609 30.144 148.671 30.3947 148.671 30.688C148.671 30.976 148.609 31.2267 148.487 31.44C148.369 31.648 148.209 31.8107 148.007 31.928C147.804 32.04 147.575 32.096 147.319 32.096ZM147.311 31.424C147.423 31.424 147.524 31.3973 147.615 31.344C147.705 31.2853 147.777 31.2027 147.831 31.096C147.884 30.984 147.911 30.848 147.911 30.688C147.911 30.5227 147.884 30.3867 147.831 30.28C147.777 30.1733 147.705 30.0933 147.615 30.04C147.529 29.9813 147.431 29.952 147.319 29.952C147.212 29.952 147.113 29.9813 147.023 30.04C146.932 30.0933 146.86 30.1733 146.807 30.28C146.753 30.3867 146.727 30.5227 146.727 30.688C146.727 30.848 146.753 30.984 146.807 31.096C146.86 31.2027 146.929 31.2853 147.015 31.344C147.105 31.3973 147.204 31.424 147.311 31.424ZM143.759 29.12C143.503 29.12 143.271 29.064 143.063 28.952C142.86 28.84 142.697 28.6773 142.575 28.464C142.457 28.2507 142.399 28 142.399 27.712C142.399 27.424 142.457 27.176 142.575 26.968C142.697 26.7547 142.863 26.592 143.071 26.48C143.279 26.368 143.508 26.312 143.759 26.312C144.015 26.312 144.244 26.368 144.447 26.48C144.649 26.592 144.809 26.7547 144.927 26.968C145.049 27.176 145.111 27.424 145.111 27.712C145.111 28 145.049 28.2507 144.927 28.464C144.809 28.6773 144.649 28.84 144.447 28.952C144.244 29.064 144.015 29.12 143.759 29.12ZM143.751 28.448C143.863 28.448 143.964 28.4213 144.055 28.368C144.145 28.3093 144.215 28.2267 144.263 28.12C144.316 28.008 144.343 27.872 144.343 27.712C144.343 27.552 144.316 27.416 144.263 27.304C144.215 27.192 144.145 27.1093 144.055 27.056C143.964 26.9973 143.865 26.968 143.759 26.968C143.652 26.968 143.551 26.9973 143.455 27.056C143.364 27.1093 143.292 27.192 143.239 27.304C143.185 27.416 143.159 27.552 143.159 27.712C143.159 27.872 143.185 28.008 143.239 28.12C143.292 28.2267 143.364 28.3093 143.455 28.368C143.545 28.4213 143.644 28.448 143.751 28.448Z" fill="#9F9F9F"/>
<path d="M209.239 56.4105C208.983 56.154 208.794 55.875 208.674 55.5733C208.557 55.2678 208.528 54.9567 208.589 54.6399C208.657 54.3231 208.832 54.0157 209.115 53.7178L209.782 54.3853C209.654 54.5211 209.564 54.6719 209.511 54.8379C209.466 55.0038 209.466 55.1735 209.511 55.347C209.56 55.5167 209.662 55.6789 209.816 55.8335C209.963 55.9806 210.116 56.0767 210.275 56.122C210.437 56.171 210.593 56.1729 210.744 56.1276C210.895 56.0824 211.031 55.9994 211.151 55.8787C211.298 55.7317 211.383 55.5752 211.406 55.4092C211.432 55.2395 211.408 55.0679 211.332 54.8944C211.257 54.721 211.14 54.555 210.982 54.3966L210.687 54.1025L211.248 53.5425L211.542 53.8366C211.749 54.044 211.966 54.1666 212.192 54.2043C212.422 54.2382 212.63 54.1628 212.814 53.978C212.969 53.8234 213.043 53.648 213.035 53.4519C213.031 53.2596 212.937 53.0711 212.752 52.8863C212.56 52.6939 212.351 52.5978 212.124 52.5978C211.902 52.6015 211.702 52.6807 211.525 52.8353L210.857 52.1678C211.106 51.9416 211.372 51.7964 211.655 51.7323C211.945 51.6681 212.234 51.6851 212.52 51.7832C212.807 51.8812 213.078 52.0585 213.335 52.3149C213.603 52.5827 213.782 52.8561 213.872 53.1352C213.963 53.4142 213.976 53.6801 213.912 53.9328C213.852 54.1892 213.727 54.4117 213.539 54.6003C213.391 54.7474 213.229 54.853 213.052 54.9171C212.875 54.9812 212.696 55.0057 212.515 54.9906C212.341 54.9755 212.171 54.9227 212.006 54.8322C212.122 55.0095 212.194 55.198 212.22 55.3979C212.251 55.6015 212.23 55.8033 212.158 56.0032C212.094 56.2031 211.973 56.3916 211.796 56.5689C211.581 56.7838 211.329 56.9309 211.038 57.0101C210.755 57.0893 210.457 57.0818 210.144 56.9875C209.835 56.897 209.533 56.7046 209.239 56.4105ZM211.626 58.6612L216.479 56.7605L214.488 54.7692L215.071 54.1866L217.758 56.8736L217.271 57.3601L212.333 59.3683L211.626 58.6612ZM214.293 61.3853C214.165 61.2571 214.101 61.1138 214.101 60.9554C214.101 60.797 214.156 60.6631 214.265 60.5537C214.382 60.4368 214.52 60.3784 214.678 60.3784C214.836 60.3784 214.98 60.4425 215.108 60.5707C215.232 60.6952 215.295 60.8366 215.295 60.995C215.295 61.1534 215.236 61.291 215.119 61.4079C215.01 61.5173 214.876 61.572 214.718 61.572C214.559 61.572 214.418 61.5097 214.293 61.3853ZM216.711 63.8818C216.428 63.599 216.232 63.3048 216.122 62.9993C216.021 62.6939 215.998 62.3959 216.054 62.1056C216.115 61.8114 216.245 61.5418 216.445 61.2966L217.107 61.9585C216.975 62.1584 216.92 62.3827 216.943 62.6317C216.969 62.8768 217.084 63.1012 217.288 63.3048C217.442 63.4594 217.61 63.5556 217.791 63.5933C217.976 63.6273 218.161 63.6122 218.345 63.5481C218.538 63.484 218.713 63.3727 218.872 63.2143C219.034 63.0521 219.143 62.8787 219.2 62.6939C219.26 62.5129 219.268 62.3356 219.222 62.1621C219.181 61.9849 219.088 61.8246 218.945 61.6813C218.768 61.5041 218.574 61.3928 218.362 61.3475C218.159 61.3023 217.968 61.3117 217.791 61.3758L217.135 60.7196L219.697 58.8133L221.881 60.9968L221.287 61.5908L219.613 59.9164L218.453 60.714C218.634 60.7064 218.824 60.746 219.024 60.8328C219.228 60.9157 219.422 61.0496 219.607 61.2344C219.814 61.4418 219.961 61.6606 220.048 61.8906C220.135 62.1206 220.171 62.3526 220.156 62.5864C220.141 62.8202 220.076 63.0465 219.963 63.2652C219.858 63.484 219.714 63.6838 219.533 63.8648C219.33 64.0685 219.107 64.2231 218.866 64.3287C218.628 64.4305 218.383 64.4833 218.131 64.4871C217.882 64.4946 217.635 64.4475 217.389 64.3457C217.148 64.2476 216.922 64.093 216.711 63.8818ZM219.466 66.5019L225.672 64.7878L226.34 65.4553L220.134 67.1694L219.466 66.5019ZM222.131 69.302C221.954 69.1248 221.831 68.923 221.763 68.6967C221.703 68.4705 221.703 68.2404 221.763 68.0066C221.827 67.769 221.961 67.5484 222.165 67.3447C222.372 67.1373 222.593 67.0034 222.827 66.9431C223.06 66.8828 223.289 66.8846 223.511 66.9488C223.741 67.0129 223.945 67.1335 224.122 67.3108C224.307 67.4956 224.428 67.6992 224.484 67.9217C224.548 68.1442 224.548 68.3705 224.484 68.6006C224.424 68.8344 224.29 69.055 224.082 69.2624C223.879 69.4661 223.658 69.5999 223.421 69.664C223.191 69.7282 222.962 69.73 222.736 69.6697C222.514 69.6056 222.312 69.483 222.131 69.302ZM222.6 68.8212C222.68 68.9004 222.77 68.9532 222.872 68.9796C222.977 69.0022 223.087 68.9947 223.2 68.9569C223.317 68.9155 223.432 68.8381 223.545 68.725C223.662 68.6081 223.739 68.4931 223.777 68.3799C223.815 68.2668 223.82 68.1593 223.794 68.0575C223.775 67.9557 223.726 67.8652 223.647 67.786C223.571 67.7105 223.481 67.6615 223.375 67.6389C223.274 67.6125 223.166 67.6182 223.053 67.6559C222.94 67.6936 222.825 67.7709 222.708 67.8878C222.595 68.0009 222.517 68.116 222.476 68.2329C222.438 68.346 222.429 68.4535 222.448 68.5553C222.474 68.6571 222.525 68.7458 222.6 68.8212ZM221.718 64.6804C221.537 64.4993 221.412 64.2957 221.345 64.0694C221.28 63.8469 221.28 63.6169 221.345 63.3793C221.412 63.1455 221.548 62.9267 221.752 62.7231C221.955 62.5194 222.172 62.3856 222.402 62.3215C222.64 62.2573 222.872 62.2592 223.098 62.3271C223.324 62.395 223.526 62.5176 223.703 62.6948C223.884 62.8758 224.007 63.0776 224.071 63.3001C224.135 63.5226 224.133 63.7508 224.066 63.9846C224.005 64.2184 223.873 64.4371 223.67 64.6408C223.466 64.8444 223.245 64.9783 223.008 65.0424C222.774 65.1103 222.546 65.1122 222.323 65.0481C222.101 64.9839 221.899 64.8614 221.718 64.6804ZM222.187 64.1995C222.267 64.2787 222.357 64.3315 222.459 64.3579C222.565 64.3805 222.672 64.3711 222.781 64.3296C222.898 64.2882 223.013 64.2108 223.126 64.0977C223.24 63.9846 223.317 63.8695 223.358 63.7526C223.404 63.6395 223.413 63.532 223.387 63.4302C223.364 63.3246 223.315 63.2341 223.24 63.1587C223.164 63.0832 223.072 63.0323 222.962 63.0059C222.861 62.9795 222.751 62.9871 222.634 63.0286C222.517 63.07 222.402 63.1474 222.289 63.2605C222.176 63.3736 222.099 63.4886 222.057 63.6056C222.02 63.7187 222.012 63.8281 222.035 63.9337C222.061 64.0355 222.112 64.1241 222.187 64.1995Z" fill="#9F9F9F"/>
<path d="M242.404 129.536C242.404 129.136 242.473 128.789 242.612 128.496C242.756 128.208 242.951 127.981 243.196 127.816C243.447 127.651 243.729 127.552 244.044 127.52V128.456C243.809 128.504 243.612 128.624 243.452 128.816C243.297 129.008 243.22 129.248 243.22 129.536C243.22 129.755 243.271 129.941 243.372 130.096C243.479 130.251 243.62 130.371 243.796 130.456C243.977 130.547 244.18 130.592 244.404 130.592C244.633 130.592 244.833 130.547 245.004 130.456C245.175 130.371 245.305 130.251 245.396 130.096C245.492 129.941 245.54 129.763 245.54 129.56C245.54 129.309 245.481 129.093 245.364 128.912C245.252 128.736 245.111 128.608 244.94 128.528V127.6L248.1 128.064V131.152H247.26V128.784L245.876 128.528C246.009 128.651 246.116 128.813 246.196 129.016C246.281 129.219 246.324 129.451 246.324 129.712C246.324 130.005 246.273 130.264 246.172 130.488C246.071 130.712 245.932 130.901 245.756 131.056C245.58 131.211 245.375 131.325 245.14 131.4C244.911 131.48 244.668 131.52 244.412 131.52C244.124 131.52 243.857 131.472 243.612 131.376C243.372 131.28 243.161 131.144 242.98 130.968C242.799 130.797 242.657 130.589 242.556 130.344C242.455 130.104 242.404 129.835 242.404 129.536ZM242.404 134.745C242.404 134.239 242.524 133.804 242.764 133.441C243.009 133.079 243.348 132.799 243.78 132.601C244.217 132.409 244.724 132.313 245.3 132.313C245.876 132.313 246.38 132.409 246.812 132.601C247.249 132.799 247.588 133.079 247.828 133.441C248.073 133.804 248.196 134.239 248.196 134.745C248.196 135.247 248.073 135.676 247.828 136.033C247.588 136.396 247.249 136.673 246.812 136.865C246.38 137.063 245.876 137.161 245.3 137.161C244.724 137.161 244.217 137.063 243.78 136.865C243.348 136.673 243.009 136.396 242.764 136.033C242.524 135.676 242.404 135.247 242.404 134.745ZM243.268 134.737C243.268 135.02 243.348 135.271 243.508 135.489C243.673 135.708 243.908 135.876 244.212 135.993C244.516 136.116 244.879 136.177 245.3 136.177C245.721 136.177 246.084 136.116 246.388 135.993C246.692 135.876 246.924 135.708 247.084 135.489C247.249 135.271 247.332 135.02 247.332 134.737C247.332 134.455 247.249 134.204 247.084 133.985C246.924 133.767 246.692 133.596 246.388 133.473C246.084 133.356 245.721 133.297 245.3 133.297C244.879 133.297 244.516 133.356 244.212 133.473C243.908 133.596 243.673 133.767 243.508 133.985C243.348 134.204 243.268 134.455 243.268 134.737ZM242.5 138.923L248.1 142.099V143.043L242.5 139.867V138.923ZM242.404 142.787C242.404 142.537 242.46 142.307 242.572 142.099C242.689 141.897 242.852 141.734 243.06 141.611C243.273 141.489 243.524 141.427 243.812 141.427C244.105 141.427 244.356 141.489 244.564 141.611C244.772 141.734 244.932 141.897 245.044 142.099C245.161 142.307 245.22 142.537 245.22 142.787C245.22 143.049 245.161 143.278 245.044 143.475C244.932 143.678 244.772 143.838 244.564 143.955C244.356 144.078 244.105 144.139 243.812 144.139C243.524 144.139 243.273 144.078 243.06 143.955C242.852 143.838 242.689 143.678 242.572 143.475C242.46 143.273 242.404 143.043 242.404 142.787ZM243.076 142.779C243.076 142.891 243.103 142.993 243.156 143.083C243.215 143.174 243.297 143.246 243.404 143.299C243.516 143.353 243.652 143.379 243.812 143.379C243.977 143.379 244.113 143.353 244.22 143.299C244.327 143.246 244.407 143.174 244.46 143.083C244.519 142.998 244.548 142.899 244.548 142.787C244.548 142.681 244.519 142.582 244.46 142.491C244.407 142.401 244.327 142.329 244.22 142.275C244.113 142.222 243.977 142.195 243.812 142.195C243.652 142.195 243.516 142.222 243.404 142.275C243.297 142.329 243.215 142.398 243.156 142.483C243.103 142.574 243.076 142.673 243.076 142.779ZM245.38 139.227C245.38 138.971 245.436 138.739 245.548 138.531C245.66 138.329 245.823 138.166 246.036 138.043C246.249 137.926 246.5 137.867 246.788 137.867C247.076 137.867 247.324 137.926 247.532 138.043C247.745 138.166 247.908 138.331 248.02 138.539C248.132 138.747 248.188 138.977 248.188 139.227C248.188 139.483 248.132 139.713 248.02 139.915C247.908 140.118 247.745 140.278 247.532 140.395C247.324 140.518 247.076 140.579 246.788 140.579C246.5 140.579 246.249 140.518 246.036 140.395C245.823 140.278 245.66 140.118 245.548 139.915C245.436 139.713 245.38 139.483 245.38 139.227ZM246.052 139.219C246.052 139.331 246.079 139.433 246.132 139.523C246.191 139.614 246.273 139.683 246.38 139.731C246.492 139.785 246.628 139.811 246.788 139.811C246.948 139.811 247.084 139.785 247.196 139.731C247.308 139.683 247.391 139.614 247.444 139.523C247.503 139.433 247.532 139.334 247.532 139.227C247.532 139.121 247.503 139.019 247.444 138.923C247.391 138.833 247.308 138.761 247.196 138.707C247.084 138.654 246.948 138.627 246.788 138.627C246.628 138.627 246.492 138.654 246.38 138.707C246.273 138.761 246.191 138.833 246.132 138.923C246.079 139.014 246.052 139.113 246.052 139.219Z" fill="#9F9F9F"/>
<path d="M221.657 203.92C221.951 203.626 222.254 203.432 222.567 203.338C222.877 203.247 223.182 203.232 223.484 203.292C223.789 203.357 224.083 203.473 224.366 203.643C224.649 203.813 224.909 204.017 225.147 204.254C225.588 204.695 225.909 205.14 226.108 205.589C226.312 206.042 226.389 206.473 226.34 206.885C226.288 207.299 226.097 207.671 225.769 207.999C225.498 208.27 225.217 208.446 224.926 208.525C224.636 208.612 224.353 208.623 224.078 208.559C223.802 208.495 223.553 208.374 223.331 208.197L223.965 207.563C224.176 207.707 224.389 207.765 224.604 207.739C224.819 207.72 225.02 207.616 225.209 207.428C225.379 207.258 225.477 207.054 225.503 206.817C225.53 206.579 225.475 206.317 225.339 206.03C225.203 205.744 224.979 205.433 224.666 205.097C224.658 205.089 224.651 205.082 224.643 205.074C224.64 205.071 224.634 205.065 224.626 205.057C224.675 205.227 224.691 205.404 224.672 205.589C224.657 205.778 224.608 205.962 224.525 206.143C224.438 206.328 224.317 206.498 224.163 206.653C223.94 206.875 223.682 207.028 223.388 207.111C223.093 207.201 222.792 207.209 222.482 207.133C222.169 207.062 221.883 206.896 221.623 206.636C221.385 206.398 221.221 206.121 221.13 205.804C221.04 205.487 221.036 205.163 221.119 204.831C221.202 204.499 221.381 204.196 221.657 203.92ZM222.279 204.463C222.132 204.61 222.034 204.773 221.985 204.95C221.936 205.127 221.934 205.303 221.979 205.476C222.02 205.653 222.111 205.812 222.251 205.951C222.398 206.098 222.56 206.193 222.737 206.234C222.91 206.279 223.086 206.274 223.263 206.217C223.437 206.164 223.597 206.064 223.744 205.917C223.887 205.774 223.985 205.612 224.038 205.431C224.091 205.257 224.097 205.082 224.055 204.905C224.014 204.727 223.923 204.569 223.784 204.429C223.64 204.286 223.48 204.194 223.303 204.152C223.125 204.111 222.948 204.115 222.771 204.164C222.59 204.216 222.426 204.316 222.279 204.463ZM219.794 205.918L220.287 206.41C220.234 206.863 220.192 207.304 220.162 207.734C220.132 208.164 220.122 208.569 220.134 208.95C220.145 209.331 220.192 209.669 220.275 209.963C220.358 210.257 220.486 210.491 220.66 210.664C220.773 210.778 220.899 210.862 221.039 210.919C221.178 210.976 221.324 210.989 221.474 210.959C221.622 210.932 221.769 210.845 221.916 210.698C222.059 210.555 222.15 210.4 222.187 210.234C222.221 210.072 222.208 209.912 222.148 209.754C222.091 209.599 221.995 209.454 221.859 209.318L222.515 208.662C222.794 208.956 222.972 209.258 223.047 209.567C223.122 209.876 223.107 210.178 223.002 210.472C222.9 210.77 222.725 211.043 222.476 211.292C222.208 211.56 221.931 211.739 221.644 211.83C221.358 211.92 221.075 211.928 220.796 211.852C220.517 211.777 220.256 211.619 220.015 211.377C219.838 211.2 219.696 210.991 219.591 210.749C219.485 210.515 219.41 210.259 219.364 209.98C219.323 209.705 219.3 209.418 219.297 209.12C219.293 208.83 219.3 208.539 219.319 208.249C219.342 207.962 219.368 207.691 219.398 207.434L217.628 209.205L217.068 208.645L219.794 205.918ZM216.134 209.523C216.262 209.394 216.405 209.33 216.563 209.33C216.722 209.33 216.856 209.385 216.965 209.494C217.082 209.611 217.14 209.749 217.14 209.907C217.14 210.066 217.076 210.209 216.948 210.337C216.824 210.462 216.682 210.524 216.524 210.524C216.365 210.524 216.228 210.465 216.111 210.348C216.002 210.239 215.947 210.105 215.947 209.947C215.947 209.788 216.009 209.647 216.134 209.523ZM213.637 211.94C213.92 211.657 214.214 211.461 214.519 211.352C214.825 211.25 215.123 211.227 215.413 211.284C215.707 211.344 215.977 211.474 216.222 211.674L215.56 212.336C215.36 212.204 215.136 212.149 214.887 212.172C214.642 212.198 214.418 212.313 214.214 212.517C214.059 212.671 213.963 212.839 213.926 213.02C213.892 213.205 213.907 213.39 213.971 213.575C214.035 213.767 214.146 213.942 214.305 214.101C214.467 214.263 214.64 214.372 214.825 214.429C215.006 214.489 215.183 214.497 215.357 214.452C215.534 214.41 215.694 214.318 215.838 214.174C216.015 213.997 216.126 213.803 216.171 213.592C216.217 213.388 216.207 213.198 216.143 213.02L216.799 212.364L218.706 214.927L216.522 217.11L215.928 216.516L217.602 214.842L216.805 213.682C216.812 213.863 216.773 214.054 216.686 214.254C216.603 214.457 216.469 214.651 216.284 214.836C216.077 215.044 215.858 215.191 215.628 215.277C215.398 215.364 215.166 215.4 214.932 215.385C214.699 215.37 214.472 215.306 214.254 215.193C214.035 215.087 213.835 214.944 213.654 214.763C213.45 214.559 213.296 214.336 213.19 214.095C213.088 213.858 213.036 213.612 213.032 213.36C213.024 213.111 213.071 212.864 213.173 212.619C213.271 212.377 213.426 212.151 213.637 211.94ZM211.017 214.696L212.731 220.901L212.063 221.569L210.349 215.363L211.017 214.696ZM208.217 217.36C208.394 217.183 208.596 217.06 208.822 216.992C209.048 216.932 209.278 216.932 209.512 216.992C209.75 217.056 209.97 217.19 210.174 217.394C210.382 217.601 210.515 217.822 210.576 218.056C210.636 218.29 210.634 218.518 210.57 218.74C210.506 218.97 210.385 219.174 210.208 219.351C210.023 219.536 209.82 219.657 209.597 219.713C209.375 219.777 209.148 219.777 208.918 219.713C208.684 219.653 208.464 219.519 208.256 219.312C208.053 219.108 207.919 218.887 207.855 218.65C207.791 218.42 207.789 218.192 207.849 217.965C207.913 217.743 208.036 217.541 208.217 217.36ZM208.698 217.83C208.618 217.909 208.566 217.999 208.539 218.101C208.517 218.207 208.524 218.316 208.562 218.429C208.603 218.546 208.681 218.661 208.794 218.774C208.911 218.891 209.026 218.968 209.139 219.006C209.252 219.044 209.36 219.05 209.461 219.023C209.563 219.004 209.654 218.955 209.733 218.876C209.808 218.801 209.857 218.71 209.88 218.605C209.906 218.503 209.901 218.395 209.863 218.282C209.825 218.169 209.748 218.054 209.631 217.937C209.518 217.824 209.403 217.747 209.286 217.705C209.173 217.667 209.065 217.658 208.964 217.677C208.862 217.703 208.773 217.754 208.698 217.83ZM212.838 216.947C213.02 216.766 213.223 216.642 213.449 216.574C213.672 216.51 213.902 216.51 214.14 216.574C214.373 216.642 214.592 216.777 214.796 216.981C214.999 217.185 215.133 217.402 215.197 217.632C215.262 217.869 215.26 218.101 215.192 218.327C215.124 218.554 215.001 218.755 214.824 218.933C214.643 219.114 214.441 219.236 214.219 219.3C213.996 219.364 213.768 219.363 213.534 219.295C213.3 219.234 213.082 219.102 212.878 218.899C212.674 218.695 212.541 218.474 212.476 218.237C212.409 218.003 212.407 217.775 212.471 217.552C212.535 217.33 212.657 217.128 212.838 216.947ZM213.319 217.417C213.24 217.496 213.187 217.586 213.161 217.688C213.138 217.794 213.148 217.901 213.189 218.011C213.231 218.128 213.308 218.243 213.421 218.356C213.534 218.469 213.649 218.546 213.766 218.588C213.879 218.633 213.987 218.642 214.089 218.616C214.194 218.593 214.285 218.544 214.36 218.469C214.436 218.393 214.487 218.301 214.513 218.192C214.539 218.09 214.532 217.98 214.49 217.864C214.449 217.747 214.371 217.632 214.258 217.518C214.145 217.405 214.03 217.328 213.913 217.287C213.8 217.249 213.691 217.241 213.585 217.264C213.483 217.29 213.395 217.341 213.319 217.417Z" fill="#9F9F9F"/>
<path d="M148.548 242L146.46 246.776H149.276V247.6H145.476V246.912L147.548 242H148.548ZM142.878 241.904C143.278 241.904 143.625 241.973 143.918 242.112C144.206 242.256 144.433 242.451 144.598 242.696C144.763 242.947 144.862 243.229 144.894 243.544H143.958C143.91 243.309 143.79 243.112 143.598 242.952C143.406 242.797 143.166 242.72 142.878 242.72C142.659 242.72 142.473 242.771 142.318 242.872C142.163 242.979 142.043 243.12 141.958 243.296C141.867 243.477 141.822 243.68 141.822 243.904C141.822 244.133 141.867 244.333 141.958 244.504C142.043 244.675 142.163 244.805 142.318 244.896C142.473 244.992 142.651 245.04 142.854 245.04C143.105 245.04 143.321 244.981 143.502 244.864C143.678 244.752 143.806 244.611 143.886 244.44H144.814L144.35 247.6H141.262V246.76H143.63L143.886 245.376C143.763 245.509 143.601 245.616 143.398 245.696C143.195 245.781 142.963 245.824 142.702 245.824C142.409 245.824 142.15 245.773 141.926 245.672C141.702 245.571 141.513 245.432 141.358 245.256C141.203 245.08 141.089 244.875 141.014 244.64C140.934 244.411 140.894 244.168 140.894 243.912C140.894 243.624 140.942 243.357 141.038 243.112C141.134 242.872 141.27 242.661 141.446 242.48C141.617 242.299 141.825 242.157 142.07 242.056C142.31 241.955 142.579 241.904 142.878 241.904ZM139.077 242L135.901 247.6H134.957L138.133 242H139.077ZM135.213 241.904C135.463 241.904 135.693 241.96 135.901 242.072C136.103 242.189 136.266 242.352 136.389 242.56C136.511 242.773 136.573 243.024 136.573 243.312C136.573 243.605 136.511 243.856 136.389 244.064C136.266 244.272 136.103 244.432 135.901 244.544C135.693 244.661 135.463 244.72 135.213 244.72C134.951 244.72 134.722 244.661 134.525 244.544C134.322 244.432 134.162 244.272 134.045 244.064C133.922 243.856 133.861 243.605 133.861 243.312C133.861 243.024 133.922 242.773 134.045 242.56C134.162 242.352 134.322 242.189 134.525 242.072C134.727 241.96 134.957 241.904 135.213 241.904ZM135.221 242.576C135.109 242.576 135.007 242.603 134.917 242.656C134.826 242.715 134.754 242.797 134.701 242.904C134.647 243.016 134.621 243.152 134.621 243.312C134.621 243.477 134.647 243.613 134.701 243.72C134.754 243.827 134.826 243.907 134.917 243.96C135.002 244.019 135.101 244.048 135.213 244.048C135.319 244.048 135.418 244.019 135.509 243.96C135.599 243.907 135.671 243.827 135.725 243.72C135.778 243.613 135.805 243.477 135.805 243.312C135.805 243.152 135.778 243.016 135.725 242.904C135.671 242.797 135.602 242.715 135.517 242.656C135.426 242.603 135.327 242.576 135.221 242.576ZM138.773 244.88C139.029 244.88 139.261 244.936 139.469 245.048C139.671 245.16 139.834 245.323 139.957 245.536C140.074 245.749 140.133 246 140.133 246.288C140.133 246.576 140.074 246.824 139.957 247.032C139.834 247.245 139.669 247.408 139.461 247.52C139.253 247.632 139.023 247.688 138.773 247.688C138.517 247.688 138.287 247.632 138.085 247.52C137.882 247.408 137.722 247.245 137.605 247.032C137.482 246.824 137.421 246.576 137.421 246.288C137.421 246 137.482 245.749 137.605 245.536C137.722 245.323 137.882 245.16 138.085 245.048C138.287 244.936 138.517 244.88 138.773 244.88ZM138.781 245.552C138.669 245.552 138.567 245.579 138.477 245.632C138.386 245.691 138.317 245.773 138.269 245.88C138.215 245.992 138.189 246.128 138.189 246.288C138.189 246.448 138.215 246.584 138.269 246.696C138.317 246.808 138.386 246.891 138.477 246.944C138.567 247.003 138.666 247.032 138.773 247.032C138.879 247.032 138.981 247.003 139.077 246.944C139.167 246.891 139.239 246.808 139.293 246.696C139.346 246.584 139.373 246.448 139.373 246.288C139.373 246.128 139.346 245.992 139.293 245.88C139.239 245.773 139.167 245.691 139.077 245.632C138.986 245.579 138.887 245.552 138.781 245.552Z" fill="#9F9F9F"/>
<path d="M69.7178 215.546C69.9856 215.814 70.1798 216.102 70.3005 216.412C70.4174 216.725 70.4532 217.032 70.4079 217.334C70.3552 217.635 70.21 217.905 69.9724 218.143C69.814 218.301 69.6386 218.42 69.4463 218.499C69.254 218.578 69.056 218.614 68.8523 218.607C68.6449 218.603 68.4469 218.556 68.2583 218.465C68.3602 218.733 68.3922 218.995 68.3545 219.251C68.3093 219.508 68.1942 219.728 68.0094 219.913C67.8171 220.106 67.5908 220.23 67.3306 220.287C67.0704 220.343 66.7932 220.322 66.4991 220.224C66.2011 220.123 65.9089 219.928 65.6223 219.642C65.3356 219.355 65.1433 219.065 65.0453 218.771C64.9472 218.476 64.9265 218.199 64.983 217.939C65.0396 217.679 65.164 217.453 65.3564 217.26C65.5374 217.079 65.7599 216.966 66.0239 216.921C66.2803 216.876 66.5405 216.906 66.8045 217.011C66.7103 216.819 66.6631 216.621 66.6631 216.417C66.6593 216.21 66.6971 216.01 66.7762 215.818C66.8479 215.625 66.9629 215.45 67.1213 215.292C67.3589 215.054 67.6304 214.911 67.9359 214.862C68.2376 214.816 68.545 214.852 68.858 214.969C69.1634 215.086 69.4501 215.278 69.7178 215.546ZM69.1465 216.118C68.8976 215.869 68.6506 215.742 68.4054 215.739C68.1527 215.735 67.9321 215.827 67.7436 216.016C67.5324 216.227 67.4381 216.457 67.4607 216.706C67.4758 216.955 67.6003 217.196 67.8341 217.43C68.0679 217.664 68.313 217.792 68.5695 217.815C68.8184 217.837 69.0484 217.743 69.2596 217.532C69.4482 217.343 69.5406 217.123 69.5368 216.87C69.5255 216.617 69.3954 216.366 69.1465 216.118ZM67.3193 217.945C67.1157 217.741 66.9045 217.635 66.6857 217.628C66.4595 217.62 66.2652 217.698 66.1031 217.86C65.9183 218.045 65.8353 218.244 65.8542 218.459C65.8655 218.674 65.973 218.884 66.1766 219.087C66.3803 219.291 66.5915 219.4 66.8102 219.415C67.0214 219.431 67.2194 219.346 67.4042 219.161C67.5701 218.995 67.6493 218.803 67.6417 218.584C67.6304 218.361 67.523 218.148 67.3193 217.945ZM67.3002 213.264L62.4466 215.165L64.4378 217.156L63.8552 217.739L61.1682 215.052L61.6547 214.565L66.5931 212.557L67.3002 213.264ZM64.6327 210.54C64.7609 210.668 64.825 210.812 64.825 210.97C64.825 211.129 64.7703 211.262 64.6609 211.372C64.544 211.489 64.4064 211.547 64.248 211.547C64.0896 211.547 63.9463 211.483 63.8181 211.355C63.6936 211.23 63.6314 211.089 63.6314 210.931C63.6314 210.772 63.6898 210.634 63.8068 210.518C63.9161 210.408 64.05 210.354 64.2084 210.354C64.3668 210.354 64.5082 210.416 64.6327 210.54ZM62.2153 208.044C62.4982 208.327 62.6943 208.621 62.8036 208.926C62.9055 209.232 62.9281 209.53 62.8715 209.82C62.8112 210.114 62.6811 210.384 62.4812 210.629L61.8193 209.967C61.9513 209.767 62.006 209.543 61.9834 209.294C61.957 209.049 61.842 208.824 61.6383 208.621C61.4837 208.466 61.3159 208.37 61.1349 208.332C60.9501 208.298 60.7653 208.313 60.5805 208.377C60.3882 208.442 60.2128 208.553 60.0544 208.711C59.8922 208.873 59.7829 209.047 59.7263 209.232C59.666 209.413 59.6584 209.59 59.7037 209.763C59.7452 209.941 59.8376 210.101 59.9809 210.244C60.1581 210.421 60.3523 210.533 60.5635 210.578C60.7672 210.623 60.9576 210.614 61.1349 210.55L61.7911 211.206L59.2285 213.112L57.045 210.929L57.6389 210.335L59.3134 212.009L60.473 211.212C60.292 211.219 60.1015 211.179 59.9017 211.093C59.698 211.01 59.5038 210.876 59.319 210.691C59.1116 210.484 58.9645 210.265 58.8778 210.035C58.791 209.805 58.7552 209.573 58.7703 209.339C58.7854 209.105 58.8495 208.879 58.9626 208.66C59.0682 208.442 59.2115 208.242 59.3926 208.061C59.5962 207.857 59.8187 207.702 60.0601 207.597C60.2976 207.495 60.5428 207.442 60.7955 207.438C61.0444 207.431 61.2914 207.478 61.5365 207.58C61.7779 207.678 62.0041 207.832 62.2153 208.044ZM59.4595 205.424L53.2539 207.138L52.5864 206.47L58.792 204.756L59.4595 205.424ZM56.7951 202.623C56.9724 202.801 57.0949 203.002 57.1628 203.229C57.2232 203.455 57.2232 203.685 57.1628 203.919C57.0987 204.156 56.9648 204.377 56.7612 204.581C56.5538 204.788 56.3331 204.922 56.0993 204.982C55.8655 205.043 55.6374 205.041 55.4149 204.977C55.1848 204.913 54.9812 204.792 54.8039 204.615C54.6191 204.43 54.4984 204.226 54.4419 204.004C54.3778 203.781 54.3778 203.555 54.4419 203.325C54.5022 203.091 54.6361 202.871 54.8435 202.663C55.0472 202.459 55.2678 202.326 55.5054 202.261C55.7354 202.197 55.9636 202.195 56.1898 202.256C56.4123 202.32 56.6141 202.442 56.7951 202.623ZM56.3256 203.104C56.2464 203.025 56.1559 202.972 56.0541 202.946C55.9485 202.923 55.8391 202.931 55.726 202.969C55.6091 203.01 55.494 203.087 55.3809 203.2C55.264 203.317 55.1867 203.432 55.149 203.546C55.1113 203.659 55.1056 203.766 55.132 203.868C55.1509 203.97 55.1999 204.06 55.2791 204.14C55.3545 204.215 55.445 204.264 55.5506 204.287C55.6524 204.313 55.7599 204.307 55.8731 204.27C55.9862 204.232 56.1012 204.155 56.2181 204.038C56.3313 203.925 56.4086 203.81 56.4501 203.693C56.4878 203.579 56.4972 203.472 56.4783 203.37C56.4519 203.268 56.401 203.18 56.3256 203.104ZM57.2081 207.245C57.3891 207.426 57.5135 207.63 57.5814 207.856C57.6455 208.079 57.6455 208.309 57.5814 208.546C57.5135 208.78 57.3778 208.999 57.1741 209.202C56.9705 209.406 56.7536 209.54 56.5236 209.604C56.286 209.668 56.0541 209.666 55.8278 209.598C55.6015 209.531 55.3998 209.408 55.2225 209.231C55.0415 209.05 54.9189 208.848 54.8548 208.625C54.7907 208.403 54.7926 208.175 54.8605 207.941C54.9208 207.707 55.0528 207.488 55.2565 207.285C55.4601 207.081 55.6807 206.947 55.9183 206.883C56.1521 206.815 56.3803 206.813 56.6028 206.877C56.8253 206.942 57.0271 207.064 57.2081 207.245ZM56.7386 207.726C56.6594 207.647 56.5689 207.594 56.467 207.568C56.3614 207.545 56.254 207.554 56.1446 207.596C56.0277 207.637 55.9127 207.715 55.7995 207.828C55.6864 207.941 55.6091 208.056 55.5676 208.173C55.5223 208.286 55.5129 208.393 55.5393 208.495C55.5619 208.601 55.611 208.691 55.6864 208.767C55.7618 208.842 55.8542 208.893 55.9636 208.92C56.0654 208.946 56.1748 208.938 56.2917 208.897C56.4086 208.855 56.5236 208.778 56.6367 208.665C56.7499 208.552 56.8272 208.437 56.8687 208.32C56.9064 208.207 56.9139 208.097 56.8913 207.992C56.8649 207.89 56.814 207.801 56.7386 207.726Z" fill="#9F9F9F"/>
<path d="M91.7283 134V133.478C91.9963 133.266 92.2523 133.054 92.4963 132.842C92.7403 132.63 92.9603 132.42 93.1563 132.212C93.3523 132.004 93.5063 131.8 93.6183 131.6C93.7303 131.4 93.7863 131.208 93.7863 131.024C93.7863 130.904 93.7643 130.792 93.7203 130.688C93.6763 130.584 93.6063 130.5 93.5103 130.436C93.4183 130.372 93.2943 130.34 93.1383 130.34C92.9863 130.34 92.8563 130.374 92.7483 130.442C92.6443 130.51 92.5663 130.602 92.5143 130.718C92.4623 130.83 92.4363 130.958 92.4363 131.102H91.7403C91.7483 130.798 91.8143 130.544 91.9383 130.34C92.0623 130.136 92.2303 129.984 92.4423 129.884C92.6543 129.78 92.8923 129.728 93.1563 129.728C93.4403 129.728 93.6823 129.78 93.8823 129.884C94.0823 129.988 94.2363 130.134 94.3443 130.322C94.4523 130.51 94.5063 130.732 94.5063 130.988C94.5063 131.176 94.4703 131.362 94.3983 131.546C94.3303 131.726 94.2343 131.902 94.1103 132.074C93.9863 132.242 93.8463 132.406 93.6903 132.566C93.5383 132.722 93.3803 132.872 93.2163 133.016C93.0523 133.156 92.8943 133.286 92.7423 133.406H94.6203V134H91.7283ZM96.932 134.072C96.552 134.072 96.226 133.982 95.954 133.802C95.682 133.618 95.472 133.364 95.324 133.04C95.18 132.712 95.108 132.332 95.108 131.9C95.108 131.468 95.18 131.09 95.324 130.766C95.472 130.438 95.682 130.184 95.954 130.004C96.226 129.82 96.552 129.728 96.932 129.728C97.308 129.728 97.63 129.82 97.898 130.004C98.17 130.184 98.378 130.438 98.522 130.766C98.67 131.09 98.744 131.468 98.744 131.9C98.744 132.332 98.67 132.712 98.522 133.04C98.378 133.364 98.17 133.618 97.898 133.802C97.63 133.982 97.308 134.072 96.932 134.072ZM96.926 133.424C97.138 133.424 97.326 133.364 97.49 133.244C97.654 133.12 97.78 132.944 97.868 132.716C97.96 132.488 98.006 132.216 98.006 131.9C98.006 131.584 97.96 131.312 97.868 131.084C97.78 130.856 97.654 130.682 97.49 130.562C97.326 130.438 97.138 130.376 96.926 130.376C96.714 130.376 96.526 130.438 96.362 130.562C96.198 130.682 96.07 130.856 95.978 131.084C95.89 131.312 95.846 131.584 95.846 131.9C95.846 132.216 95.89 132.488 95.978 132.716C96.07 132.944 96.198 133.12 96.362 133.244C96.526 133.364 96.714 133.424 96.926 133.424ZM100.065 134L102.447 129.8H103.155L100.773 134H100.065ZM102.963 134.072C102.775 134.072 102.603 134.03 102.447 133.946C102.295 133.858 102.173 133.736 102.081 133.58C101.989 133.42 101.943 133.232 101.943 133.016C101.943 132.796 101.989 132.608 102.081 132.452C102.173 132.296 102.295 132.176 102.447 132.092C102.603 132.004 102.775 131.96 102.963 131.96C103.159 131.96 103.331 132.004 103.479 132.092C103.631 132.176 103.751 132.296 103.839 132.452C103.931 132.608 103.977 132.796 103.977 133.016C103.977 133.232 103.931 133.42 103.839 133.58C103.751 133.736 103.631 133.858 103.479 133.946C103.327 134.03 103.155 134.072 102.963 134.072ZM102.957 133.568C103.041 133.568 103.117 133.548 103.185 133.508C103.253 133.464 103.307 133.402 103.347 133.322C103.387 133.238 103.407 133.136 103.407 133.016C103.407 132.892 103.387 132.79 103.347 132.71C103.307 132.63 103.253 132.57 103.185 132.53C103.121 132.486 103.047 132.464 102.963 132.464C102.883 132.464 102.809 132.486 102.741 132.53C102.673 132.57 102.619 132.63 102.579 132.71C102.539 132.79 102.519 132.892 102.519 133.016C102.519 133.136 102.539 133.238 102.579 133.322C102.619 133.402 102.671 133.464 102.735 133.508C102.803 133.548 102.877 133.568 102.957 133.568ZM100.293 131.84C100.101 131.84 99.9275 131.798 99.7715 131.714C99.6195 131.63 99.4975 131.508 99.4055 131.348C99.3175 131.188 99.2735 131 99.2735 130.784C99.2735 130.568 99.3175 130.382 99.4055 130.226C99.4975 130.066 99.6215 129.944 99.7775 129.86C99.9335 129.776 100.105 129.734 100.293 129.734C100.485 129.734 100.657 129.776 100.809 129.86C100.961 129.944 101.081 130.066 101.169 130.226C101.261 130.382 101.307 130.568 101.307 130.784C101.307 131 101.261 131.188 101.169 131.348C101.081 131.508 100.961 131.63 100.809 131.714C100.657 131.798 100.485 131.84 100.293 131.84ZM100.287 131.336C100.371 131.336 100.447 131.316 100.515 131.276C100.583 131.232 100.635 131.17 100.671 131.09C100.711 131.006 100.731 130.904 100.731 130.784C100.731 130.664 100.711 130.562 100.671 130.478C100.635 130.394 100.583 130.332 100.515 130.292C100.447 130.248 100.373 130.226 100.293 130.226C100.213 130.226 100.137 130.248 100.065 130.292C99.9975 130.332 99.9435 130.394 99.9035 130.478C99.8635 130.562 99.8435 130.664 99.8435 130.784C99.8435 130.904 99.8635 131.006 99.9035 131.09C99.9435 131.17 99.9975 131.232 100.065 131.276C100.133 131.316 100.207 131.336 100.287 131.336Z" fill="white"/>
<path d="M73.2343 134.072C72.9503 134.072 72.7083 134.018 72.5083 133.91C72.3123 133.798 72.1583 133.652 72.0463 133.472C71.9343 133.288 71.8683 133.092 71.8483 132.884H72.5143C72.5503 133.072 72.6303 133.218 72.7543 133.322C72.8823 133.422 73.0463 133.472 73.2463 133.472C73.4303 133.472 73.5903 133.418 73.7263 133.31C73.8623 133.198 73.9703 133.032 74.0503 132.812C74.1343 132.588 74.1803 132.308 74.1883 131.972C74.1883 131.964 74.1883 131.954 74.1883 131.942C74.1883 131.93 74.1883 131.918 74.1883 131.906C74.1283 132.018 74.0443 132.12 73.9363 132.212C73.8283 132.304 73.7023 132.376 73.5583 132.428C73.4183 132.48 73.2663 132.506 73.1023 132.506C72.8703 132.506 72.6503 132.452 72.4423 132.344C72.2383 132.232 72.0743 132.074 71.9503 131.87C71.8263 131.666 71.7643 131.426 71.7643 131.15C71.7643 130.898 71.8243 130.664 71.9443 130.448C72.0643 130.232 72.2343 130.058 72.4543 129.926C72.6743 129.794 72.9283 129.728 73.2163 129.728C73.5323 129.728 73.7963 129.786 74.0083 129.902C74.2243 130.018 74.3963 130.174 74.5243 130.37C74.6523 130.562 74.7443 130.778 74.8003 131.018C74.8603 131.258 74.8903 131.504 74.8903 131.756C74.8903 132.22 74.8243 132.626 74.6923 132.974C74.5643 133.322 74.3763 133.592 74.1283 133.784C73.8843 133.976 73.5863 134.072 73.2343 134.072ZM73.2703 131.894C73.4223 131.894 73.5583 131.862 73.6783 131.798C73.8023 131.73 73.9003 131.638 73.9723 131.522C74.0443 131.402 74.0803 131.27 74.0803 131.126C74.0803 130.974 74.0443 130.84 73.9723 130.724C73.9003 130.604 73.8023 130.512 73.6783 130.448C73.5583 130.38 73.4203 130.346 73.2643 130.346C73.1083 130.346 72.9703 130.38 72.8503 130.448C72.7303 130.516 72.6343 130.608 72.5623 130.724C72.4943 130.836 72.4603 130.968 72.4603 131.12C72.4603 131.276 72.4943 131.412 72.5623 131.528C72.6343 131.644 72.7303 131.734 72.8503 131.798C72.9743 131.862 73.1143 131.894 73.2703 131.894ZM77.3012 134.072C76.9212 134.072 76.5952 133.982 76.3232 133.802C76.0512 133.618 75.8412 133.364 75.6932 133.04C75.5492 132.712 75.4772 132.332 75.4772 131.9C75.4772 131.468 75.5492 131.09 75.6932 130.766C75.8412 130.438 76.0512 130.184 76.3232 130.004C76.5952 129.82 76.9212 129.728 77.3012 129.728C77.6772 129.728 77.9992 129.82 78.2672 130.004C78.5392 130.184 78.7472 130.438 78.8912 130.766C79.0392 131.09 79.1132 131.468 79.1132 131.9C79.1132 132.332 79.0392 132.712 78.8912 133.04C78.7472 133.364 78.5392 133.618 78.2672 133.802C77.9992 133.982 77.6772 134.072 77.3012 134.072ZM77.2952 133.424C77.5072 133.424 77.6952 133.364 77.8592 133.244C78.0232 133.12 78.1492 132.944 78.2372 132.716C78.3292 132.488 78.3752 132.216 78.3752 131.9C78.3752 131.584 78.3292 131.312 78.2372 131.084C78.1492 130.856 78.0232 130.682 77.8592 130.562C77.6952 130.438 77.5072 130.376 77.2952 130.376C77.0832 130.376 76.8952 130.438 76.7312 130.562C76.5672 130.682 76.4392 130.856 76.3472 131.084C76.2592 131.312 76.2152 131.584 76.2152 131.9C76.2152 132.216 76.2592 132.488 76.3472 132.716C76.4392 132.944 76.5672 133.12 76.7312 133.244C76.8952 133.364 77.0832 133.424 77.2952 133.424ZM80.4346 134L82.8166 129.8H83.5246L81.1426 134H80.4346ZM83.3326 134.072C83.1446 134.072 82.9726 134.03 82.8166 133.946C82.6646 133.858 82.5426 133.736 82.4506 133.58C82.3586 133.42 82.3126 133.232 82.3126 133.016C82.3126 132.796 82.3586 132.608 82.4506 132.452C82.5426 132.296 82.6646 132.176 82.8166 132.092C82.9726 132.004 83.1446 131.96 83.3326 131.96C83.5286 131.96 83.7006 132.004 83.8486 132.092C84.0006 132.176 84.1206 132.296 84.2086 132.452C84.3006 132.608 84.3466 132.796 84.3466 133.016C84.3466 133.232 84.3006 133.42 84.2086 133.58C84.1206 133.736 84.0006 133.858 83.8486 133.946C83.6966 134.03 83.5246 134.072 83.3326 134.072ZM83.3266 133.568C83.4106 133.568 83.4866 133.548 83.5546 133.508C83.6226 133.464 83.6766 133.402 83.7166 133.322C83.7566 133.238 83.7766 133.136 83.7766 133.016C83.7766 132.892 83.7566 132.79 83.7166 132.71C83.6766 132.63 83.6226 132.57 83.5546 132.53C83.4906 132.486 83.4166 132.464 83.3326 132.464C83.2526 132.464 83.1786 132.486 83.1106 132.53C83.0426 132.57 82.9886 132.63 82.9486 132.71C82.9086 132.79 82.8886 132.892 82.8886 133.016C82.8886 133.136 82.9086 133.238 82.9486 133.322C82.9886 133.402 83.0406 133.464 83.1046 133.508C83.1726 133.548 83.2466 133.568 83.3266 133.568ZM80.6626 131.84C80.4706 131.84 80.2966 131.798 80.1406 131.714C79.9886 131.63 79.8666 131.508 79.7746 131.348C79.6866 131.188 79.6426 131 79.6426 130.784C79.6426 130.568 79.6866 130.382 79.7746 130.226C79.8666 130.066 79.9906 129.944 80.1466 129.86C80.3026 129.776 80.4746 129.734 80.6626 129.734C80.8546 129.734 81.0266 129.776 81.1786 129.86C81.3306 129.944 81.4506 130.066 81.5386 130.226C81.6306 130.382 81.6766 130.568 81.6766 130.784C81.6766 131 81.6306 131.188 81.5386 131.348C81.4506 131.508 81.3306 131.63 81.1786 131.714C81.0266 131.798 80.8546 131.84 80.6626 131.84ZM80.6566 131.336C80.7406 131.336 80.8166 131.316 80.8846 131.276C80.9526 131.232 81.0046 131.17 81.0406 131.09C81.0806 131.006 81.1006 130.904 81.1006 130.784C81.1006 130.664 81.0806 130.562 81.0406 130.478C81.0046 130.394 80.9526 130.332 80.8846 130.292C80.8166 130.248 80.7426 130.226 80.6626 130.226C80.5826 130.226 80.5066 130.248 80.4346 130.292C80.3666 130.332 80.3126 130.394 80.2726 130.478C80.2326 130.562 80.2126 130.664 80.2126 130.784C80.2126 130.904 80.2326 131.006 80.2726 131.09C80.3126 131.17 80.3666 131.232 80.4346 131.276C80.5026 131.316 80.5766 131.336 80.6566 131.336Z" fill="white"/>
<path d="M54.2823 134.072C53.9983 134.072 53.7423 134.022 53.5143 133.922C53.2863 133.818 53.1043 133.674 52.9683 133.49C52.8363 133.302 52.7703 133.082 52.7703 132.83C52.7703 132.662 52.8003 132.506 52.8603 132.362C52.9203 132.218 53.0063 132.094 53.1183 131.99C53.2303 131.882 53.3603 131.802 53.5083 131.75C53.3123 131.662 53.1563 131.54 53.0403 131.384C52.9283 131.224 52.8723 131.046 52.8723 130.85C52.8723 130.646 52.9263 130.46 53.0343 130.292C53.1423 130.124 53.3003 129.988 53.5083 129.884C53.7203 129.78 53.9783 129.728 54.2823 129.728C54.5863 129.728 54.8423 129.78 55.0503 129.884C55.2583 129.988 55.4163 130.124 55.5243 130.292C55.6323 130.46 55.6863 130.646 55.6863 130.85C55.6863 131.042 55.6283 131.22 55.5123 131.384C55.4003 131.544 55.2463 131.666 55.0503 131.75C55.2023 131.802 55.3323 131.882 55.4403 131.99C55.5523 132.098 55.6383 132.224 55.6983 132.368C55.7623 132.508 55.7943 132.662 55.7943 132.83C55.7943 133.082 55.7263 133.302 55.5903 133.49C55.4543 133.674 55.2723 133.818 55.0443 133.922C54.8203 134.022 54.5663 134.072 54.2823 134.072ZM54.2823 133.466C54.5463 133.466 54.7443 133.402 54.8763 133.274C55.0123 133.142 55.0803 132.976 55.0803 132.776C55.0803 132.552 55.0083 132.38 54.8643 132.26C54.7243 132.136 54.5303 132.074 54.2823 132.074C54.0343 132.074 53.8363 132.136 53.6883 132.26C53.5443 132.38 53.4723 132.552 53.4723 132.776C53.4723 132.976 53.5403 133.142 53.6763 133.274C53.8163 133.402 54.0183 133.466 54.2823 133.466ZM54.2823 131.528C54.4983 131.528 54.6663 131.472 54.7863 131.36C54.9103 131.244 54.9723 131.1 54.9723 130.928C54.9723 130.732 54.9103 130.582 54.7863 130.478C54.6663 130.37 54.4983 130.316 54.2823 130.316C54.0663 130.316 53.8963 130.37 53.7723 130.478C53.6523 130.582 53.5923 130.732 53.5923 130.928C53.5923 131.104 53.6523 131.248 53.7723 131.36C53.8963 131.472 54.0663 131.528 54.2823 131.528ZM58.2543 134.072C57.8743 134.072 57.5483 133.982 57.2763 133.802C57.0043 133.618 56.7943 133.364 56.6463 133.04C56.5023 132.712 56.4303 132.332 56.4303 131.9C56.4303 131.468 56.5023 131.09 56.6463 130.766C56.7943 130.438 57.0043 130.184 57.2763 130.004C57.5483 129.82 57.8743 129.728 58.2543 129.728C58.6303 129.728 58.9523 129.82 59.2203 130.004C59.4923 130.184 59.7003 130.438 59.8443 130.766C59.9923 131.09 60.0663 131.468 60.0663 131.9C60.0663 132.332 59.9923 132.712 59.8443 133.04C59.7003 133.364 59.4923 133.618 59.2203 133.802C58.9523 133.982 58.6303 134.072 58.2543 134.072ZM58.2483 133.424C58.4603 133.424 58.6483 133.364 58.8123 133.244C58.9763 133.12 59.1023 132.944 59.1903 132.716C59.2823 132.488 59.3283 132.216 59.3283 131.9C59.3283 131.584 59.2823 131.312 59.1903 131.084C59.1023 130.856 58.9763 130.682 58.8123 130.562C58.6483 130.438 58.4603 130.376 58.2483 130.376C58.0363 130.376 57.8483 130.438 57.6843 130.562C57.5203 130.682 57.3923 130.856 57.3003 131.084C57.2123 131.312 57.1683 131.584 57.1683 131.9C57.1683 132.216 57.2123 132.488 57.3003 132.716C57.3923 132.944 57.5203 133.12 57.6843 133.244C57.8483 133.364 58.0363 133.424 58.2483 133.424ZM61.3878 134L63.7698 129.8H64.4778L62.0958 134H61.3878ZM64.2858 134.072C64.0978 134.072 63.9258 134.03 63.7698 133.946C63.6178 133.858 63.4958 133.736 63.4038 133.58C63.3118 133.42 63.2658 133.232 63.2658 133.016C63.2658 132.796 63.3118 132.608 63.4038 132.452C63.4958 132.296 63.6178 132.176 63.7698 132.092C63.9258 132.004 64.0978 131.96 64.2858 131.96C64.4818 131.96 64.6538 132.004 64.8018 132.092C64.9538 132.176 65.0738 132.296 65.1618 132.452C65.2538 132.608 65.2998 132.796 65.2998 133.016C65.2998 133.232 65.2538 133.42 65.1618 133.58C65.0738 133.736 64.9538 133.858 64.8018 133.946C64.6498 134.03 64.4778 134.072 64.2858 134.072ZM64.2798 133.568C64.3638 133.568 64.4398 133.548 64.5078 133.508C64.5758 133.464 64.6298 133.402 64.6698 133.322C64.7098 133.238 64.7298 133.136 64.7298 133.016C64.7298 132.892 64.7098 132.79 64.6698 132.71C64.6298 132.63 64.5758 132.57 64.5078 132.53C64.4438 132.486 64.3698 132.464 64.2858 132.464C64.2058 132.464 64.1318 132.486 64.0638 132.53C63.9958 132.57 63.9418 132.63 63.9018 132.71C63.8618 132.79 63.8418 132.892 63.8418 133.016C63.8418 133.136 63.8618 133.238 63.9018 133.322C63.9418 133.402 63.9938 133.464 64.0578 133.508C64.1258 133.548 64.1998 133.568 64.2798 133.568ZM61.6158 131.84C61.4238 131.84 61.2498 131.798 61.0938 131.714C60.9418 131.63 60.8198 131.508 60.7278 131.348C60.6398 131.188 60.5958 131 60.5958 130.784C60.5958 130.568 60.6398 130.382 60.7278 130.226C60.8198 130.066 60.9438 129.944 61.0998 129.86C61.2558 129.776 61.4278 129.734 61.6158 129.734C61.8078 129.734 61.9798 129.776 62.1318 129.86C62.2838 129.944 62.4038 130.066 62.4918 130.226C62.5838 130.382 62.6298 130.568 62.6298 130.784C62.6298 131 62.5838 131.188 62.4918 131.348C62.4038 131.508 62.2838 131.63 62.1318 131.714C61.9798 131.798 61.8078 131.84 61.6158 131.84ZM61.6098 131.336C61.6938 131.336 61.7698 131.316 61.8378 131.276C61.9058 131.232 61.9578 131.17 61.9938 131.09C62.0338 131.006 62.0538 130.904 62.0538 130.784C62.0538 130.664 62.0338 130.562 61.9938 130.478C61.9578 130.394 61.9058 130.332 61.8378 130.292C61.7698 130.248 61.6958 130.226 61.6158 130.226C61.5358 130.226 61.4598 130.248 61.3878 130.292C61.3198 130.332 61.2658 130.394 61.2257 130.478C61.1858 130.562 61.1658 130.664 61.1658 130.784C61.1658 130.904 61.1858 131.006 61.2257 131.09C61.2658 131.17 61.3198 131.232 61.3878 131.276C61.4558 131.316 61.5298 131.336 61.6098 131.336Z" fill="black"/>
<rect x="24" y="275.5" width="14" height="14" rx="4" fill="white"/>
<path d="M42.9 287V278.6H45.372C46.356 278.6 47.164 278.772 47.796 279.116C48.436 279.452 48.908 279.936 49.212 280.568C49.524 281.192 49.68 281.944 49.68 282.824C49.68 283.688 49.524 284.432 49.212 285.056C48.908 285.68 48.436 286.16 47.796 286.496C47.164 286.832 46.356 287 45.372 287H42.9ZM43.908 286.16H45.348C46.164 286.16 46.812 286.028 47.292 285.764C47.772 285.492 48.116 285.108 48.324 284.612C48.532 284.108 48.636 283.512 48.636 282.824C48.636 282.12 48.532 281.516 48.324 281.012C48.116 280.508 47.772 280.12 47.292 279.848C46.812 279.576 46.164 279.44 45.348 279.44H43.908V286.16ZM51.1977 287V280.952H52.2057V287H51.1977ZM51.7017 279.668C51.5017 279.668 51.3337 279.604 51.1977 279.476C51.0697 279.34 51.0057 279.172 51.0057 278.972C51.0057 278.772 51.0697 278.612 51.1977 278.492C51.3337 278.364 51.5017 278.3 51.7017 278.3C51.8937 278.3 52.0577 278.364 52.1937 278.492C52.3297 278.612 52.3977 278.772 52.3977 278.972C52.3977 279.172 52.3297 279.34 52.1937 279.476C52.0577 279.604 51.8937 279.668 51.7017 279.668ZM54.3205 287V280.016C54.3205 279.632 54.3845 279.32 54.5125 279.08C54.6405 278.832 54.8285 278.652 55.0765 278.54C55.3325 278.42 55.6445 278.36 56.0125 278.36H56.6965V279.224H56.1685C55.8725 279.224 55.6565 279.284 55.5205 279.404C55.3925 279.524 55.3285 279.736 55.3285 280.04V287H54.3205ZM53.3965 281.804V280.952H56.8525V281.804H53.3965ZM58.3987 287V281.804H57.4747V280.952H58.3987V280.016C58.3987 279.632 58.4627 279.32 58.5907 279.08C58.7187 278.832 58.9067 278.652 59.1547 278.54C59.4107 278.42 59.7227 278.36 60.0907 278.36H60.6907V279.224H60.2467C59.9507 279.224 59.7347 279.284 59.5987 279.404C59.4707 279.524 59.4067 279.736 59.4067 280.04V280.952H63.0307V287H62.0227V281.804H59.4067V287H58.3987ZM62.5387 279.8C62.3467 279.8 62.1827 279.736 62.0467 279.608C61.9107 279.472 61.8427 279.304 61.8427 279.104C61.8427 278.904 61.9107 278.744 62.0467 278.624C62.1827 278.496 62.3467 278.432 62.5387 278.432C62.7387 278.432 62.9027 278.496 63.0307 278.624C63.1667 278.744 63.2347 278.904 63.2347 279.104C63.2347 279.304 63.1667 279.472 63.0307 279.608C62.9027 279.736 62.7387 279.8 62.5387 279.8ZM67.5484 287.144C66.9804 287.144 66.4684 287.012 66.0124 286.748C65.5644 286.484 65.2124 286.116 64.9564 285.644C64.7004 285.164 64.5724 284.612 64.5724 283.988C64.5724 283.348 64.7004 282.792 64.9564 282.32C65.2124 281.848 65.5644 281.48 66.0124 281.216C66.4684 280.944 66.9804 280.808 67.5484 280.808C68.2684 280.808 68.8684 280.996 69.3484 281.372C69.8284 281.74 70.1324 282.236 70.2604 282.86H69.2284C69.1484 282.484 68.9524 282.192 68.6404 281.984C68.3284 281.776 67.9604 281.672 67.5364 281.672C67.1924 281.672 66.8724 281.76 66.5764 281.936C66.2804 282.104 66.0444 282.36 65.8684 282.704C65.6924 283.048 65.6044 283.472 65.6044 283.976C65.6044 284.352 65.6564 284.688 65.7604 284.984C65.8644 285.272 66.0044 285.512 66.1804 285.704C66.3564 285.896 66.5604 286.044 66.7924 286.148C67.0324 286.244 67.2804 286.292 67.5364 286.292C67.8244 286.292 68.0844 286.248 68.3164 286.16C68.5484 286.064 68.7444 285.924 68.9044 285.74C69.0644 285.556 69.1724 285.34 69.2284 285.092H70.2604C70.1324 285.7 69.8244 286.196 69.3364 286.58C68.8564 286.956 68.2604 287.144 67.5484 287.144ZM73.8876 287.144C73.4236 287.144 73.0156 287.052 72.6636 286.868C72.3196 286.684 72.0516 286.4 71.8596 286.016C71.6756 285.632 71.5836 285.152 71.5836 284.576V280.952H72.5916V284.468C72.5916 285.068 72.7236 285.52 72.9876 285.824C73.2516 286.128 73.6236 286.28 74.1036 286.28C74.4396 286.28 74.7436 286.2 75.0156 286.04C75.2876 285.872 75.4996 285.636 75.6516 285.332C75.8116 285.02 75.8916 284.64 75.8916 284.192V280.952H76.8996V287H75.9876L75.9276 285.944C75.7436 286.32 75.4716 286.616 75.1116 286.832C74.7516 287.04 74.3436 287.144 73.8876 287.144ZM78.5705 287V278.36H79.5785V287H78.5705ZM83.6183 287C83.2583 287 82.9463 286.944 82.6823 286.832C82.4183 286.72 82.2143 286.532 82.0703 286.268C81.9343 285.996 81.8663 285.632 81.8663 285.176V281.804H80.8103V280.952H81.8663L81.9983 279.488H82.8743V280.952H84.6263V281.804H82.8743V285.176C82.8743 285.552 82.9503 285.808 83.1023 285.944C83.2543 286.072 83.5223 286.136 83.9063 286.136H84.5543V287H83.6183ZM86.6016 289.64L88.0776 286.328H87.7296L85.3536 280.952H86.4456L88.4136 285.572L90.4776 280.952H91.5216L87.6576 289.64H86.6016Z" fill="#9F9F9F"/>
<rect x="111" y="275.5" width="14" height="14" rx="4" fill="#FF812A"/>
<path d="M133.548 287.144C132.732 287.144 132.024 286.964 131.424 286.604C130.832 286.236 130.376 285.728 130.056 285.08C129.736 284.424 129.576 283.664 129.576 282.8C129.576 281.936 129.736 281.18 130.056 280.532C130.376 279.876 130.832 279.368 131.424 279.008C132.024 278.64 132.732 278.456 133.548 278.456C134.508 278.456 135.288 278.684 135.888 279.14C136.488 279.596 136.872 280.24 137.04 281.072H135.924C135.796 280.552 135.536 280.136 135.144 279.824C134.752 279.504 134.22 279.344 133.548 279.344C132.948 279.344 132.428 279.484 131.988 279.764C131.548 280.036 131.208 280.432 130.968 280.952C130.728 281.464 130.608 282.08 130.608 282.8C130.608 283.52 130.728 284.14 130.968 284.66C131.208 285.172 131.548 285.568 131.988 285.848C132.428 286.12 132.948 286.256 133.548 286.256C134.22 286.256 134.752 286.104 135.144 285.8C135.536 285.488 135.796 285.076 135.924 284.564H137.04C136.872 285.372 136.488 286.004 135.888 286.46C135.288 286.916 134.508 287.144 133.548 287.144ZM141.142 287.144C140.582 287.144 140.078 287.016 139.63 286.76C139.182 286.496 138.83 286.128 138.574 285.656C138.318 285.176 138.19 284.62 138.19 283.988C138.19 283.34 138.318 282.78 138.574 282.308C138.838 281.828 139.194 281.46 139.642 281.204C140.098 280.94 140.606 280.808 141.166 280.808C141.742 280.808 142.25 280.94 142.69 281.204C143.138 281.46 143.49 281.828 143.746 282.308C144.01 282.78 144.142 283.336 144.142 283.976C144.142 284.616 144.01 285.176 143.746 285.656C143.482 286.128 143.126 286.496 142.678 286.76C142.23 287.016 141.718 287.144 141.142 287.144ZM141.154 286.28C141.498 286.28 141.818 286.196 142.114 286.028C142.41 285.852 142.65 285.592 142.834 285.248C143.018 284.904 143.11 284.48 143.11 283.976C143.11 283.464 143.018 283.04 142.834 282.704C142.658 282.36 142.422 282.104 142.126 281.936C141.838 281.76 141.518 281.672 141.166 281.672C140.83 281.672 140.51 281.76 140.206 281.936C139.91 282.104 139.67 282.36 139.486 282.704C139.31 283.04 139.222 283.464 139.222 283.976C139.222 284.48 139.31 284.904 139.486 285.248C139.67 285.592 139.906 285.852 140.194 286.028C140.49 286.196 140.81 286.28 141.154 286.28ZM148.219 287.144C147.635 287.144 147.123 287.008 146.683 286.736C146.243 286.456 145.903 286.076 145.663 285.596C145.423 285.116 145.303 284.572 145.303 283.964C145.303 283.356 145.423 282.816 145.663 282.344C145.903 281.864 146.243 281.488 146.683 281.216C147.131 280.944 147.647 280.808 148.231 280.808C148.727 280.808 149.159 280.908 149.527 281.108C149.903 281.308 150.191 281.588 150.391 281.948V278.36H151.399V287H150.487L150.403 286.004C150.275 286.204 150.111 286.392 149.911 286.568C149.711 286.736 149.471 286.876 149.191 286.988C148.911 287.092 148.587 287.144 148.219 287.144ZM148.339 286.268C148.739 286.268 149.091 286.172 149.395 285.98C149.699 285.788 149.935 285.524 150.103 285.188C150.271 284.844 150.355 284.44 150.355 283.976C150.355 283.52 150.271 283.12 150.103 282.776C149.935 282.432 149.699 282.164 149.395 281.972C149.091 281.78 148.739 281.684 148.339 281.684C147.947 281.684 147.599 281.78 147.295 281.972C146.991 282.164 146.755 282.432 146.587 282.776C146.419 283.12 146.335 283.52 146.335 283.976C146.335 284.44 146.419 284.844 146.587 285.188C146.755 285.524 146.991 285.788 147.295 285.98C147.599 286.172 147.947 286.268 148.339 286.268ZM155.73 287.144C155.162 287.144 154.658 287.012 154.218 286.748C153.786 286.484 153.446 286.116 153.198 285.644C152.95 285.164 152.826 284.608 152.826 283.976C152.826 283.336 152.946 282.78 153.186 282.308C153.434 281.836 153.778 281.468 154.218 281.204C154.666 280.94 155.178 280.808 155.754 280.808C156.346 280.808 156.846 280.94 157.254 281.204C157.67 281.468 157.986 281.816 158.202 282.248C158.426 282.672 158.538 283.14 158.538 283.652C158.538 283.732 158.538 283.816 158.538 283.904C158.538 283.992 158.534 284.092 158.526 284.204H153.582V283.424H157.554C157.53 282.872 157.346 282.44 157.002 282.128C156.666 281.816 156.242 281.66 155.73 281.66C155.386 281.66 155.066 281.74 154.77 281.9C154.482 282.052 154.25 282.28 154.074 282.584C153.898 282.88 153.81 283.252 153.81 283.7V284.036C153.81 284.532 153.898 284.948 154.074 285.284C154.258 285.62 154.494 285.872 154.782 286.04C155.078 286.208 155.394 286.292 155.73 286.292C156.154 286.292 156.502 286.2 156.774 286.016C157.054 285.824 157.254 285.568 157.374 285.248H158.37C158.274 285.608 158.106 285.932 157.866 286.22C157.626 286.508 157.326 286.736 156.966 286.904C156.614 287.064 156.202 287.144 155.73 287.144Z" fill="#9F9F9F"/>
<rect x="179" y="275.5" width="14" height="14" rx="4" fill="#D387FF"/>
<path d="M201.548 287.144C200.732 287.144 200.024 286.964 199.424 286.604C198.832 286.236 198.376 285.728 198.056 285.08C197.736 284.424 197.576 283.664 197.576 282.8C197.576 281.936 197.736 281.18 198.056 280.532C198.376 279.876 198.832 279.368 199.424 279.008C200.024 278.64 200.732 278.456 201.548 278.456C202.508 278.456 203.288 278.684 203.888 279.14C204.488 279.596 204.872 280.24 205.04 281.072H203.924C203.796 280.552 203.536 280.136 203.144 279.824C202.752 279.504 202.22 279.344 201.548 279.344C200.948 279.344 200.428 279.484 199.988 279.764C199.548 280.036 199.208 280.432 198.968 280.952C198.728 281.464 198.608 282.08 198.608 282.8C198.608 283.52 198.728 284.14 198.968 284.66C199.208 285.172 199.548 285.568 199.988 285.848C200.428 286.12 200.948 286.256 201.548 286.256C202.22 286.256 202.752 286.104 203.144 285.8C203.536 285.488 203.796 285.076 203.924 284.564H205.04C204.872 285.372 204.488 286.004 203.888 286.46C203.288 286.916 202.508 287.144 201.548 287.144ZM206.442 287V280.952H207.354L207.426 282.104C207.562 281.832 207.734 281.6 207.942 281.408C208.158 281.216 208.414 281.068 208.71 280.964C209.014 280.86 209.358 280.808 209.742 280.808V281.864H209.37C209.114 281.864 208.87 281.9 208.638 281.972C208.406 282.036 208.198 282.144 208.014 282.296C207.838 282.448 207.698 282.656 207.594 282.92C207.498 283.176 207.45 283.496 207.45 283.88V287H206.442ZM213.312 287.144C212.744 287.144 212.24 287.012 211.8 286.748C211.368 286.484 211.028 286.116 210.78 285.644C210.532 285.164 210.408 284.608 210.408 283.976C210.408 283.336 210.528 282.78 210.768 282.308C211.016 281.836 211.36 281.468 211.8 281.204C212.248 280.94 212.76 280.808 213.336 280.808C213.928 280.808 214.428 280.94 214.836 281.204C215.252 281.468 215.568 281.816 215.784 282.248C216.008 282.672 216.12 283.14 216.12 283.652C216.12 283.732 216.12 283.816 216.12 283.904C216.12 283.992 216.116 284.092 216.108 284.204H211.164V283.424H215.136C215.112 282.872 214.928 282.44 214.584 282.128C214.248 281.816 213.824 281.66 213.312 281.66C212.968 281.66 212.648 281.74 212.352 281.9C212.064 282.052 211.832 282.28 211.656 282.584C211.48 282.88 211.392 283.252 211.392 283.7V284.036C211.392 284.532 211.48 284.948 211.656 285.284C211.84 285.62 212.076 285.872 212.364 286.04C212.66 286.208 212.976 286.292 213.312 286.292C213.736 286.292 214.084 286.2 214.356 286.016C214.636 285.824 214.836 285.568 214.956 285.248H215.952C215.856 285.608 215.688 285.932 215.448 286.22C215.208 286.508 214.908 286.736 214.548 286.904C214.196 287.064 213.784 287.144 213.312 287.144ZM219.449 287.144C218.961 287.144 218.553 287.06 218.225 286.892C217.897 286.716 217.653 286.488 217.493 286.208C217.333 285.92 217.253 285.608 217.253 285.272C217.253 284.864 217.357 284.52 217.565 284.24C217.781 283.952 218.081 283.736 218.465 283.592C218.857 283.44 219.317 283.364 219.845 283.364H221.441C221.441 282.988 221.381 282.676 221.261 282.428C221.149 282.172 220.981 281.98 220.757 281.852C220.541 281.724 220.269 281.66 219.941 281.66C219.557 281.66 219.225 281.756 218.945 281.948C218.665 282.14 218.493 282.424 218.429 282.8H217.397C217.445 282.368 217.589 282.008 217.829 281.72C218.077 281.424 218.389 281.2 218.765 281.048C219.141 280.888 219.533 280.808 219.941 280.808C220.501 280.808 220.965 280.912 221.333 281.12C221.709 281.32 221.989 281.604 222.173 281.972C222.357 282.332 222.449 282.76 222.449 283.256V287H221.549L221.489 285.932C221.409 286.1 221.305 286.26 221.177 286.412C221.057 286.556 220.913 286.684 220.745 286.796C220.577 286.9 220.385 286.984 220.169 287.048C219.961 287.112 219.721 287.144 219.449 287.144ZM219.605 286.292C219.885 286.292 220.137 286.236 220.361 286.124C220.593 286.004 220.789 285.844 220.949 285.644C221.109 285.436 221.229 285.208 221.309 284.96C221.397 284.712 221.441 284.452 221.441 284.18V284.144H219.929C219.537 284.144 219.221 284.192 218.981 284.288C218.741 284.376 218.569 284.504 218.465 284.672C218.361 284.832 218.309 285.016 218.309 285.224C218.309 285.44 218.357 285.628 218.453 285.788C218.557 285.948 218.705 286.072 218.897 286.16C219.097 286.248 219.333 286.292 219.605 286.292ZM226.22 287C225.86 287 225.548 286.944 225.284 286.832C225.02 286.72 224.816 286.532 224.672 286.268C224.536 285.996 224.468 285.632 224.468 285.176V281.804H223.412V280.952H224.468L224.6 279.488H225.476V280.952H227.228V281.804H225.476V285.176C225.476 285.552 225.552 285.808 225.704 285.944C225.856 286.072 226.124 286.136 226.508 286.136H227.156V287H226.22ZM228.639 287V280.952H229.647V287H228.639ZM229.143 279.668C228.943 279.668 228.775 279.604 228.639 279.476C228.511 279.34 228.447 279.172 228.447 278.972C228.447 278.772 228.511 278.612 228.639 278.492C228.775 278.364 228.943 278.3 229.143 278.3C229.335 278.3 229.499 278.364 229.635 278.492C229.771 278.612 229.839 278.772 229.839 278.972C229.839 279.172 229.771 279.34 229.635 279.476C229.499 279.604 229.335 279.668 229.143 279.668ZM233.166 287L230.874 280.952H231.93L233.754 286.028L235.59 280.952H236.622L234.33 287H233.166ZM237.85 287V280.952H238.858V287H237.85ZM238.354 279.668C238.154 279.668 237.986 279.604 237.85 279.476C237.722 279.34 237.658 279.172 237.658 278.972C237.658 278.772 237.722 278.612 237.85 278.492C237.986 278.364 238.154 278.3 238.354 278.3C238.546 278.3 238.71 278.364 238.846 278.492C238.982 278.612 239.05 278.772 239.05 278.972C239.05 279.172 238.982 279.34 238.846 279.476C238.71 279.604 238.546 279.668 238.354 279.668ZM243.013 287C242.653 287 242.341 286.944 242.077 286.832C241.813 286.72 241.609 286.532 241.465 286.268C241.329 285.996 241.261 285.632 241.261 285.176V281.804H240.205V280.952H241.261L241.393 279.488H242.269V280.952H244.021V281.804H242.269V285.176C242.269 285.552 242.345 285.808 242.497 285.944C242.649 286.072 242.917 286.136 243.301 286.136H243.949V287H243.013ZM245.996 289.64L247.472 286.328H247.124L244.748 280.952H245.84L247.808 285.572L249.872 280.952H250.916L247.052 289.64H245.996Z" fill="#9F9F9F"/>
</svg>
