<svg width="16" height="16" viewBox="0 0 16 16" fill="none" xmlns="http://www.w3.org/2000/svg">
<g clip-path="url(#clip0_479_1103)">
<path d="M15.7077 7.28802C15.707 7.28802 15.707 7.2877 15.707 7.2877L8.70768 0.283793C8.33008 -0.0947062 7.66927 -0.0943807 7.29297 0.283468L0.292318 7.28802C0.104167 7.47727 0 7.72841 0 7.99518C0 8.26227 0.104167 8.51369 0.292969 8.70262L7.29232 15.7065C7.48112 15.8958 7.73242 16 8 16C8.26758 16 8.51888 15.8958 8.70703 15.7068L15.707 8.70262C15.8958 8.51369 16 8.26227 16 7.99518C16 7.72841 15.8958 7.47727 15.7077 7.28802Z" fill="#EF473B"/>
<path opacity="0.1" d="M15.7879 8.45972L8.71501 15.5369C8.5249 15.7278 8.27096 15.8331 8.00061 15.8331C7.73027 15.8331 7.47632 15.7278 7.28556 15.5366L0.213298 8.45972C0.130656 8.37699 0.0675049 8.2808 0.0185547 8.17822C0.0549316 8.37553 0.148763 8.5575 0.293579 8.70239L7.29293 15.7063C7.48173 15.8955 7.73303 15.9998 8.00061 15.9998C8.26819 15.9998 8.51949 15.8955 8.70764 15.7066L15.7076 8.70239C15.8525 8.5575 15.9463 8.37553 15.9827 8.17822C15.9338 8.2808 15.8706 8.37699 15.7879 8.45972Z" fill="#010101"/>
<path d="M11.3333 6.66654C11.0834 6.66654 10.852 6.73991 10.6519 6.86007L9.13981 5.34802C9.25993 5.14791 9.33333 4.9165 9.33333 4.66654C9.33333 3.93119 8.73503 3.33321 8 3.33321C7.75342 3.33321 7.52515 3.40507 7.32678 3.52226L5.69096 1.88623L5.21973 2.35771L6.85551 3.99369C6.73848 4.19194 6.66667 4.42008 6.66667 4.66654C6.66667 5.28609 7.09334 5.80347 7.66667 5.95251V10.0472C7.09334 10.1963 6.66667 10.7137 6.66667 11.3332C6.66667 12.0686 7.26497 12.6665 8 12.6665C8.73503 12.6665 9.33333 12.0686 9.33333 11.3332C9.33333 10.7137 8.90666 10.1963 8.33333 10.0472V5.95251C8.45117 5.92188 8.56169 5.87528 8.66459 5.81551L10.1844 7.33529C10.0702 7.53174 10 7.75675 10 7.99988C10 8.73523 10.5983 9.33321 11.3333 9.33321C12.0684 9.33321 12.6667 8.73523 12.6667 7.99988C12.6667 7.26453 12.0684 6.66654 11.3333 6.66654Z" fill="white"/>
<path opacity="0.2" d="M0.292318 7.45469L7.29297 0.450134C7.66927 0.072286 8.33008 0.0719605 8.70768 0.45046L15.707 7.45437C15.707 7.45437 15.707 7.45469 15.7077 7.45469C15.8759 7.62388 15.9723 7.84353 15.9919 8.07855C15.9942 8.05064 16 8.0235 16 7.99518C16 7.72841 15.8958 7.47727 15.7077 7.28802C15.707 7.28802 15.707 7.2877 15.707 7.2877L8.70768 0.283793C8.33008 -0.0947062 7.66927 -0.0943807 7.29297 0.283468L0.292318 7.28802C0.104167 7.47727 0 7.72841 0 7.99518C0 8.02346 0.00581867 8.0506 0.008138 8.07847C0.0277099 7.84344 0.124146 7.62384 0.292318 7.45469Z" fill="white"/>
<path d="M12.3654 7.16695C12.5505 7.39591 12.6662 7.68327 12.6662 8.00004C12.6662 8.73539 12.0679 9.33337 11.3328 9.33337C10.5978 9.33337 9.99951 8.73539 9.99951 8.00004C9.99951 7.75692 10.0697 7.5319 10.1839 7.33545L8.6641 5.81567C8.5612 5.87545 8.45068 5.92204 8.33285 5.95268V10.0474C8.90617 10.1965 9.33285 10.7138 9.33285 11.3334C9.33285 12.0687 8.73454 12.6667 7.99951 12.6667C7.65853 12.6667 7.3503 12.5343 7.11426 12.3229L9.60213 14.8108L14.8041 9.60563L12.3654 7.16695ZM9.13932 5.34819L10.6514 6.86023C10.8515 6.74007 11.0829 6.66671 11.3328 6.66671C11.6496 6.66671 11.937 6.78239 12.1661 6.96761L9.04761 3.84912L9.04598 3.85046C9.22294 4.07674 9.33285 4.35779 9.33285 4.66671C9.33285 4.91667 9.25944 5.14807 9.13932 5.34819Z" fill="url(#paint0_linear_479_1103)"/>
<path d="M15.7077 7.28802C15.707 7.28802 15.707 7.2877 15.707 7.2877L8.70768 0.283793C8.33008 -0.0947062 7.66927 -0.0943807 7.29297 0.283468L0.292318 7.28802C0.104167 7.47727 0 7.72841 0 7.99518C0 8.26227 0.104167 8.51369 0.292969 8.70262L7.29232 15.7065C7.48112 15.8958 7.73242 16 8 16C8.26758 16 8.51888 15.8958 8.70703 15.7068L15.707 8.70262C15.8958 8.51369 16 8.26227 16 7.99518C16 7.72841 15.8958 7.47727 15.7077 7.28802Z" fill="url(#paint1_linear_479_1103)"/>
</g>
<defs>
<linearGradient id="paint0_linear_479_1103" x1="6.44551" y1="6.4507" x2="12.2042" y2="12.2087" gradientUnits="userSpaceOnUse">
<stop stop-color="#010101" stop-opacity="0.1"/>
<stop offset="1" stop-color="#010101" stop-opacity="0"/>
</linearGradient>
<linearGradient id="paint1_linear_479_1103" x1="1.34267" y1="4.89334" x2="14.6553" y2="11.1013" gradientUnits="userSpaceOnUse">
<stop stop-color="white" stop-opacity="0.2"/>
<stop offset="1" stop-color="white" stop-opacity="0"/>
</linearGradient>
<clipPath id="clip0_479_1103">
<rect width="16" height="16" fill="white"/>
</clipPath>
</defs>
</svg>
