<svg width="276" height="330" viewBox="0 0 276 330" fill="none" xmlns="http://www.w3.org/2000/svg">
<mask id="path-1-inside-1_93_118" fill="white">
<path d="M0 0H276V329.125H0V0Z"/>
</mask>
<path d="M276 0H275V329.125H276H277V0H276Z" fill="#2A2A2A" mask="url(#path-1-inside-1_93_118)"/>
<circle cx="138" cy="144.75" r="100.5" stroke="#2A2A2A"/>
<line x1="139.5" y1="244.25" x2="139.5" y2="44.25" stroke="#2A2A2A" stroke-linecap="round"/>
<line x1="38.5" y1="144.25" x2="237.5" y2="144.25" stroke="#2A2A2A" stroke-linecap="round"/>
<line x1="68" y1="215.464" x2="208.714" y2="74.75" stroke="#2A2A2A" stroke-linecap="round"/>
<line x1="68.7071" y1="73.75" x2="209.421" y2="214.464" stroke="#2A2A2A" stroke-linecap="round"/>
<circle cx="139" cy="144.75" r="24.5" fill="#111111" stroke="#2A2A2A"/>
<path d="M187.596 144.562C187.596 172.006 165.348 194.254 137.904 194.254C110.46 194.254 88.2129 172.006 88.2129 144.562C88.2129 117.119 110.46 94.8711 137.904 94.8711C165.348 94.8711 187.596 117.119 187.596 144.562ZM105.605 144.562C105.605 162.401 120.066 176.862 137.904 176.862C155.743 176.862 170.204 162.401 170.204 144.562C170.204 126.724 155.743 112.263 137.904 112.263C120.066 112.263 105.605 126.724 105.605 144.562Z" fill="#241C28"/>
<path d="M207.04 144.563C207.04 182.745 176.087 213.698 137.904 213.698C99.7217 213.698 68.7686 182.745 68.7686 144.563C68.7686 106.38 99.7217 75.4268 137.904 75.4268C176.087 75.4268 207.04 106.38 207.04 144.563ZM85.7568 144.563C85.7568 173.363 109.104 196.71 137.904 196.71C166.705 196.71 190.052 173.363 190.052 144.563C190.052 115.762 166.705 92.415 137.904 92.415C109.104 92.415 85.7568 115.762 85.7568 144.563Z" fill="#281C13"/>
<path d="M225.404 144.562C225.404 192.887 186.229 232.062 137.904 232.062C89.5794 232.062 50.4043 192.887 50.4043 144.562C50.4043 96.2376 89.5794 57.0625 137.904 57.0625C186.229 57.0625 225.404 96.2376 225.404 144.562ZM66.3991 144.562C66.3991 184.054 98.4131 216.068 137.904 216.068C177.396 216.068 209.409 184.054 209.409 144.562C209.409 105.071 177.396 73.0573 137.904 73.0573C98.4131 73.0573 66.3991 105.071 66.3991 144.562Z" fill="#282828"/>
<path d="M92.2128 144.562C90.0037 144.562 88.1961 142.768 88.3737 140.566C89.2651 129.513 93.8353 119.031 101.415 110.832C109.902 101.65 121.54 96.0053 134.005 95.0243C146.471 94.0432 158.848 97.7978 168.668 105.539C178.487 113.28 185.028 124.439 186.984 136.789C188.94 149.139 186.168 161.773 179.221 172.169C172.274 182.566 161.663 189.962 149.504 192.881C137.346 195.8 124.534 194.028 113.624 187.918C103.882 182.462 96.2962 173.906 92.0327 163.669C91.1834 161.629 92.3481 159.365 94.4491 158.682L103.381 155.78C105.482 155.097 107.717 156.261 108.654 158.262C111.504 164.348 116.2 169.427 122.122 172.744C129.213 176.715 137.541 177.867 145.444 175.969C153.347 174.072 160.245 169.265 164.76 162.507C169.276 155.749 171.077 147.537 169.806 139.51C168.534 131.482 164.283 124.229 157.901 119.197C151.518 114.165 143.473 111.725 135.37 112.363C127.267 113 119.703 116.669 114.186 122.638C109.579 127.622 106.682 133.903 105.852 140.572C105.579 142.765 103.814 144.562 101.605 144.562L92.2128 144.562Z" fill="#D387FF"/>
<path d="M72.7685 144.563C70.5594 144.563 68.7565 142.77 68.8842 140.565C69.701 126.459 74.8242 112.907 83.6108 101.761C93.2249 89.5657 106.665 80.9622 121.765 77.337C136.865 73.7118 152.746 75.2759 166.849 81.7774C180.951 88.2788 192.455 99.3389 199.505 113.176C206.555 127.012 208.741 142.819 205.712 158.05C202.682 173.281 194.613 187.048 182.804 197.134C170.996 207.219 156.136 213.035 140.619 213.645C126.437 214.202 112.461 210.381 100.57 202.751C98.7105 201.558 98.32 199.046 99.6185 197.259L104.902 189.987C106.2 188.2 108.695 187.818 110.576 188.976C119.362 194.382 129.584 197.077 139.952 196.67C151.656 196.21 162.865 191.823 171.771 184.216C180.678 176.609 186.765 166.224 189.05 154.736C191.335 143.248 189.686 131.325 184.368 120.888C179.05 110.451 170.374 102.109 159.736 97.2051C149.099 92.3012 137.12 91.1214 125.731 93.8559C114.341 96.5903 104.204 103.08 96.952 112.278C90.5284 120.427 86.7005 130.281 85.9101 140.566C85.7408 142.769 83.9659 144.563 81.7568 144.563L72.7685 144.563Z" fill="#FF812A"/>
<path d="M54.4043 144.562C52.1952 144.562 50.3948 142.771 50.4957 140.564C51.0643 128.134 54.2784 115.952 59.9412 104.838C66.2101 92.5349 75.3019 81.8899 86.4731 73.7735C97.6443 65.6571 110.578 60.2999 124.216 58.1398C137.855 55.9797 151.811 57.078 164.943 61.3451C178.076 65.6121 190.012 72.9266 199.776 82.6907C209.54 92.4547 216.855 104.391 221.122 117.524C225.389 130.656 226.487 144.612 224.327 158.251C222.376 170.57 217.816 182.315 210.97 192.705C209.754 194.55 207.244 194.941 205.457 193.643L198.989 188.943C197.202 187.645 196.816 185.149 198.013 183.292C203.386 174.953 206.973 165.575 208.529 155.748C210.294 144.603 209.397 133.198 205.91 122.466C202.423 111.734 196.445 101.98 188.466 94.0007C180.487 86.0215 170.733 80.0441 160.001 76.557C149.269 73.07 137.864 72.1724 126.718 73.9377C115.573 75.7029 105.004 80.0809 95.8746 86.7136C86.7455 93.3463 79.3157 102.045 74.1927 112.1C69.676 120.964 67.0656 130.66 66.511 140.564C66.3875 142.77 64.6083 144.562 62.3991 144.562L54.4043 144.562Z" fill="white"/>
<path d="M33.5 155.822H28.996L29.252 156.814H28.508L27.9 155.438V154.838H33.5V155.822ZM33.596 151.481C33.596 151.988 33.476 152.423 33.236 152.785C32.9907 153.148 32.652 153.428 32.22 153.625C31.7827 153.817 31.276 153.913 30.7 153.913C30.124 153.913 29.62 153.817 29.188 153.625C28.7507 153.428 28.412 153.148 28.172 152.785C27.9267 152.423 27.804 151.988 27.804 151.481C27.804 150.98 27.9267 150.551 28.172 150.193C28.412 149.831 28.7507 149.553 29.188 149.361C29.62 149.164 30.124 149.065 30.7 149.065C31.276 149.065 31.7827 149.164 32.22 149.361C32.652 149.553 32.9907 149.831 33.236 150.193C33.476 150.551 33.596 150.98 33.596 151.481ZM32.732 151.489C32.732 151.207 32.652 150.956 32.492 150.737C32.3267 150.519 32.092 150.351 31.788 150.233C31.484 150.111 31.1213 150.049 30.7 150.049C30.2787 150.049 29.916 150.111 29.612 150.233C29.308 150.351 29.076 150.519 28.916 150.737C28.7507 150.956 28.668 151.207 28.668 151.489C28.668 151.772 28.7507 152.023 28.916 152.241C29.076 152.46 29.308 152.631 29.612 152.753C29.916 152.871 30.2787 152.929 30.7 152.929C31.1213 152.929 31.484 152.871 31.788 152.753C32.092 152.631 32.3267 152.46 32.492 152.241C32.652 152.023 32.732 151.772 32.732 151.489ZM33.596 145.895C33.596 146.402 33.476 146.837 33.236 147.199C32.9907 147.562 32.652 147.842 32.22 148.039C31.7827 148.231 31.276 148.327 30.7 148.327C30.124 148.327 29.62 148.231 29.188 148.039C28.7507 147.842 28.412 147.562 28.172 147.199C27.9267 146.837 27.804 146.402 27.804 145.895C27.804 145.394 27.9267 144.965 28.172 144.607C28.412 144.245 28.7507 143.967 29.188 143.775C29.62 143.578 30.124 143.479 30.7 143.479C31.276 143.479 31.7827 143.578 32.22 143.775C32.652 143.967 32.9907 144.245 33.236 144.607C33.476 144.965 33.596 145.394 33.596 145.895ZM32.732 145.903C32.732 145.621 32.652 145.37 32.492 145.151C32.3267 144.933 32.092 144.765 31.788 144.647C31.484 144.525 31.1213 144.463 30.7 144.463C30.2787 144.463 29.916 144.525 29.612 144.647C29.308 144.765 29.076 144.933 28.916 145.151C28.7507 145.37 28.668 145.621 28.668 145.903C28.668 146.186 28.7507 146.437 28.916 146.655C29.076 146.874 29.308 147.045 29.612 147.167C29.916 147.285 30.2787 147.343 30.7 147.343C31.1213 147.343 31.484 147.285 31.788 147.167C32.092 147.045 32.3267 146.874 32.492 146.655C32.652 146.437 32.732 146.186 32.732 145.903ZM34.364 143.238L27.3 141.23V140.294L34.364 142.302V143.238ZM33.596 137.45C33.596 137.957 33.476 138.391 33.236 138.754C32.9907 139.117 32.652 139.397 32.22 139.594C31.7827 139.786 31.276 139.882 30.7 139.882C30.124 139.882 29.62 139.786 29.188 139.594C28.7507 139.397 28.412 139.117 28.172 138.754C27.9267 138.391 27.804 137.957 27.804 137.45C27.804 136.949 27.9267 136.519 28.172 136.162C28.412 135.799 28.7507 135.522 29.188 135.33C29.62 135.133 30.124 135.034 30.7 135.034C31.276 135.034 31.7827 135.133 32.22 135.33C32.652 135.522 32.9907 135.799 33.236 136.162C33.476 136.519 33.596 136.949 33.596 137.45ZM32.732 137.458C32.732 137.175 32.652 136.925 32.492 136.706C32.3267 136.487 32.092 136.319 31.788 136.202C31.484 136.079 31.1213 136.018 30.7 136.018C30.2787 136.018 29.916 136.079 29.612 136.202C29.308 136.319 29.076 136.487 28.916 136.706C28.7507 136.925 28.668 137.175 28.668 137.458C28.668 137.741 28.7507 137.991 28.916 138.21C29.076 138.429 29.308 138.599 29.612 138.722C29.916 138.839 30.2787 138.898 30.7 138.898C31.1213 138.898 31.484 138.839 31.788 138.722C32.092 138.599 32.3267 138.429 32.492 138.21C32.652 137.991 32.732 137.741 32.732 137.458ZM33.5 133.272L27.9 130.096V129.152L33.5 132.328V133.272ZM33.596 129.408C33.596 129.659 33.54 129.888 33.428 130.096C33.3107 130.299 33.148 130.461 32.94 130.584C32.7267 130.707 32.476 130.768 32.188 130.768C31.8947 130.768 31.644 130.707 31.436 130.584C31.228 130.461 31.068 130.299 30.956 130.096C30.8387 129.888 30.78 129.659 30.78 129.408C30.78 129.147 30.8387 128.917 30.956 128.72C31.068 128.517 31.228 128.357 31.436 128.24C31.644 128.117 31.8947 128.056 32.188 128.056C32.476 128.056 32.7267 128.117 32.94 128.24C33.148 128.357 33.3107 128.517 33.428 128.72C33.54 128.923 33.596 129.152 33.596 129.408ZM32.924 129.416C32.924 129.304 32.8973 129.203 32.844 129.112C32.7853 129.021 32.7027 128.949 32.596 128.896C32.484 128.843 32.348 128.816 32.188 128.816C32.0227 128.816 31.8867 128.843 31.78 128.896C31.6733 128.949 31.5933 129.021 31.54 129.112C31.4813 129.197 31.452 129.296 31.452 129.408C31.452 129.515 31.4813 129.613 31.54 129.704C31.5933 129.795 31.6733 129.867 31.78 129.92C31.8867 129.973 32.0227 130 32.188 130C32.348 130 32.484 129.973 32.596 129.92C32.7027 129.867 32.7853 129.797 32.844 129.712C32.8973 129.621 32.924 129.523 32.924 129.416ZM30.62 132.968C30.62 133.224 30.564 133.456 30.452 133.664C30.34 133.867 30.1773 134.029 29.964 134.152C29.7507 134.269 29.5 134.328 29.212 134.328C28.924 134.328 28.676 134.269 28.468 134.152C28.2547 134.029 28.092 133.864 27.98 133.656C27.868 133.448 27.812 133.219 27.812 132.968C27.812 132.712 27.868 132.483 27.98 132.28C28.092 132.077 28.2547 131.917 28.468 131.8C28.676 131.677 28.924 131.616 29.212 131.616C29.5 131.616 29.7507 131.677 29.964 131.8C30.1773 131.917 30.34 132.077 30.452 132.28C30.564 132.483 30.62 132.712 30.62 132.968ZM29.948 132.976C29.948 132.864 29.9213 132.763 29.868 132.672C29.8093 132.581 29.7267 132.512 29.62 132.464C29.508 132.411 29.372 132.384 29.212 132.384C29.052 132.384 28.916 132.411 28.804 132.464C28.692 132.512 28.6093 132.581 28.556 132.672C28.4973 132.763 28.468 132.861 28.468 132.968C28.468 133.075 28.4973 133.176 28.556 133.272C28.6093 133.363 28.692 133.435 28.804 133.488C28.916 133.541 29.052 133.568 29.212 133.568C29.372 133.568 29.508 133.541 29.62 133.488C29.7267 133.435 29.8093 133.363 29.868 133.272C29.9213 133.181 29.948 133.083 29.948 132.976Z" fill="#9F9F9F"/>
<path d="M58.0337 74.3992L54.8489 71.2144L54.3284 72.0968L53.8023 71.5708L54.3454 70.1679L54.7697 69.7436L58.7295 73.7034L58.0337 74.3992ZM59.429 73.0039L58.9368 72.5117C58.9896 72.0592 59.0311 71.618 59.0613 71.188C59.0914 70.7581 59.1009 70.3527 59.0896 69.9718C59.0782 69.5909 59.0311 69.2534 58.9481 68.9592C58.8652 68.6651 58.7369 68.4313 58.5635 68.2578C58.4503 68.1446 58.324 68.0598 58.1845 68.0032C58.0449 67.9467 57.8997 67.9335 57.7489 67.9636C57.6018 67.99 57.4547 68.0768 57.3076 68.2238C57.1643 68.3671 57.0738 68.5218 57.0361 68.6877C57.0022 68.8499 57.0154 69.0101 57.0757 69.1685C57.1323 69.3232 57.2284 69.4683 57.3642 69.6041L56.708 70.2603C56.4289 69.9662 56.2517 69.6645 56.1763 69.3552C56.1008 69.046 56.1159 68.7443 56.2215 68.4501C56.3234 68.1522 56.4987 67.8788 56.7476 67.6299C57.0154 67.3621 57.2926 67.183 57.5792 67.0925C57.8658 67.002 58.1486 66.9944 58.4277 67.0698C58.7068 67.1453 58.967 67.3037 59.2083 67.545C59.3856 67.7223 59.527 67.9316 59.6326 68.1729C59.7382 68.4067 59.8136 68.6632 59.8589 68.9423C59.9004 69.2176 59.923 69.5042 59.9268 69.8021C59.9305 70.0925 59.923 70.3829 59.9041 70.6733C59.8815 70.9599 59.8551 71.2314 59.8249 71.4878L61.5955 69.7173L62.1556 70.2773L59.429 73.0039ZM63.0898 69.3996C62.9616 69.5279 62.8183 69.592 62.6599 69.592C62.5015 69.592 62.3676 69.5373 62.2582 69.4279C62.1413 69.311 62.0829 69.1734 62.0829 69.015C62.0829 68.8566 62.147 68.7133 62.2752 68.585C62.3997 68.4606 62.5411 68.3984 62.6995 68.3984C62.8579 68.3984 62.9955 68.4568 63.1124 68.5737C63.2218 68.6831 63.2765 68.817 63.2765 68.9754C63.2765 69.1338 63.2142 69.2752 63.0898 69.3996ZM65.5863 66.9823C65.3035 67.2651 65.0093 67.4612 64.7039 67.5706C64.3984 67.6724 64.1005 67.6951 63.8101 67.6385C63.5159 67.5782 63.2463 67.448 63.0011 67.2482L63.663 66.5863C63.8629 66.7183 64.0873 66.773 64.3362 66.7504C64.5813 66.724 64.8057 66.6089 65.0093 66.4053C65.1639 66.2507 65.2601 66.0829 65.2978 65.9018C65.3318 65.717 65.3167 65.5323 65.2526 65.3475C65.1885 65.1551 65.0772 64.9798 64.9188 64.8214C64.7566 64.6592 64.5832 64.5498 64.3984 64.4933C64.2174 64.4329 64.0401 64.4254 63.8666 64.4707C63.6894 64.5121 63.5291 64.6045 63.3858 64.7478C63.2086 64.9251 63.0973 65.1193 63.052 65.3305C63.0068 65.5341 63.0162 65.7246 63.0803 65.9018L62.4241 66.558L60.5178 63.9955L62.7013 61.8119L63.2953 62.4059L61.6209 64.0803L62.4185 65.24C62.4109 65.059 62.4505 64.8685 62.5373 64.6686C62.6202 64.465 62.7541 64.2708 62.9389 64.086C63.1463 63.8786 63.3651 63.7315 63.5951 63.6448C63.8252 63.558 64.0571 63.5222 64.2909 63.5373C64.5247 63.5524 64.751 63.6165 64.9697 63.7296C65.1885 63.8352 65.3883 63.9785 65.5693 64.1595C65.773 64.3632 65.9276 64.5857 66.0332 64.827C66.135 65.0646 66.1878 65.3098 66.1916 65.5624C66.1991 65.8113 66.152 66.0583 66.0502 66.3035C65.9521 66.5448 65.7975 66.7711 65.5863 66.9823ZM68.2064 64.2265L66.4923 58.0209L67.1599 57.3534L68.8739 63.559L68.2064 64.2265ZM71.0065 61.5621C70.8293 61.7393 70.6275 61.8619 70.4012 61.9298C70.175 61.9901 69.9449 61.9901 69.7111 61.9298C69.4735 61.8657 69.2529 61.7318 69.0492 61.5282C68.8418 61.3207 68.7079 61.1001 68.6476 60.8663C68.5873 60.6325 68.5892 60.4043 68.6533 60.1818C68.7174 59.9518 68.8381 59.7481 69.0153 59.5709C69.2001 59.3861 69.4037 59.2654 69.6262 59.2088C69.8487 59.1447 70.075 59.1447 70.3051 59.2088C70.5389 59.2692 70.7595 59.4031 70.9669 59.6105C71.1706 59.8141 71.3044 60.0347 71.3686 60.2723C71.4327 60.5024 71.4345 60.7305 71.3742 60.9568C71.3101 61.1793 71.1875 61.3811 71.0065 61.5621ZM70.5257 61.0926C70.6049 61.0134 70.6577 60.9229 70.6841 60.8211C70.7067 60.7155 70.6992 60.6061 70.6614 60.493C70.62 60.376 70.5427 60.261 70.4295 60.1479C70.3126 60.031 70.1976 59.9537 70.0844 59.916C69.9713 59.8782 69.8638 59.8726 69.762 59.899C69.6602 59.9178 69.5697 59.9669 69.4905 60.0461C69.4151 60.1215 69.366 60.212 69.3434 60.3176C69.317 60.4194 69.3227 60.5269 69.3604 60.64C69.3981 60.7532 69.4754 60.8682 69.5923 60.9851C69.7054 61.0982 69.8205 61.1755 69.9374 61.217C70.0505 61.2547 70.158 61.2642 70.2598 61.2453C70.3616 61.2189 70.4503 61.168 70.5257 61.0926ZM66.3849 61.9751C66.2038 62.1561 66.0002 62.2805 65.7739 62.3484C65.5514 62.4125 65.3214 62.4125 65.0838 62.3484C64.85 62.2805 64.6312 62.1448 64.4276 61.9411C64.2239 61.7375 64.0901 61.5206 64.026 61.2906C63.9618 61.053 63.9637 60.8211 64.0316 60.5948C64.0995 60.3685 64.2221 60.1667 64.3993 59.9895C64.5803 59.8085 64.7821 59.6859 65.0046 59.6218C65.2271 59.5577 65.4553 59.5596 65.6891 59.6275C65.9229 59.6878 66.1416 59.8198 66.3453 60.0234C66.5489 60.2271 66.6828 60.4477 66.7469 60.6853C66.8148 60.9191 66.8167 61.1473 66.7526 61.3698C66.6884 61.5923 66.5659 61.794 66.3849 61.9751ZM65.904 61.5055C65.9832 61.4263 66.036 61.3358 66.0624 61.234C66.0851 61.1284 66.0756 61.0209 66.0341 60.9116C65.9927 60.7947 65.9153 60.6796 65.8022 60.5665C65.6891 60.4534 65.574 60.376 65.4571 60.3346C65.344 60.2893 65.2365 60.2799 65.1347 60.3063C65.0291 60.3289 64.9386 60.3779 64.8632 60.4534C64.7877 60.5288 64.7368 60.6212 64.7104 60.7305C64.684 60.8324 64.6916 60.9417 64.7331 61.0586C64.7745 61.1755 64.8519 61.2906 64.965 61.4037C65.0781 61.5168 65.1932 61.5942 65.3101 61.6356C65.4232 61.6734 65.5326 61.6809 65.6382 61.6583C65.74 61.6319 65.8286 61.581 65.904 61.5055Z" fill="#9F9F9F"/>
<path d="M132.932 39.0625V38.3665C133.289 38.0838 133.631 37.8012 133.956 37.5185C134.281 37.2358 134.575 36.9558 134.836 36.6785C135.097 36.4012 135.303 36.1292 135.452 35.8625C135.601 35.5958 135.676 35.3398 135.676 35.0945C135.676 34.9345 135.647 34.7852 135.588 34.6465C135.529 34.5078 135.436 34.3958 135.308 34.3105C135.185 34.2252 135.02 34.1825 134.812 34.1825C134.609 34.1825 134.436 34.2278 134.292 34.3185C134.153 34.4092 134.049 34.5318 133.98 34.6865C133.911 34.8358 133.876 35.0065 133.876 35.1985H132.948C132.959 34.7932 133.047 34.4545 133.212 34.1825C133.377 33.9105 133.601 33.7078 133.884 33.5745C134.167 33.4358 134.484 33.3665 134.836 33.3665C135.215 33.3665 135.537 33.4358 135.804 33.5745C136.071 33.7132 136.276 33.9078 136.42 34.1585C136.564 34.4092 136.636 34.7052 136.636 35.0465C136.636 35.2972 136.588 35.5452 136.492 35.7905C136.401 36.0305 136.273 36.2652 136.108 36.4945C135.943 36.7185 135.756 36.9372 135.548 37.1505C135.345 37.3585 135.135 37.5585 134.916 37.7505C134.697 37.9372 134.487 38.1105 134.284 38.2705H136.788V39.0625H132.932ZM139.653 39.1585C139.253 39.1585 138.907 39.0892 138.613 38.9505C138.325 38.8065 138.099 38.6118 137.933 38.3665C137.768 38.1158 137.669 37.8332 137.637 37.5185H138.573C138.621 37.7532 138.741 37.9505 138.933 38.1105C139.125 38.2652 139.365 38.3425 139.653 38.3425C139.872 38.3425 140.059 38.2918 140.213 38.1905C140.368 38.0838 140.488 37.9425 140.573 37.7665C140.664 37.5852 140.709 37.3825 140.709 37.1585C140.709 36.9292 140.664 36.7292 140.573 36.5585C140.488 36.3878 140.368 36.2572 140.213 36.1665C140.059 36.0705 139.88 36.0225 139.677 36.0225C139.427 36.0225 139.211 36.0812 139.029 36.1985C138.853 36.3105 138.725 36.4518 138.645 36.6225H137.717L138.181 33.4625H141.269V34.3025H138.901L138.645 35.6865C138.768 35.5532 138.931 35.4465 139.133 35.3665C139.336 35.2812 139.568 35.2385 139.829 35.2385C140.123 35.2385 140.381 35.2892 140.605 35.3905C140.829 35.4918 141.019 35.6305 141.173 35.8065C141.328 35.9825 141.443 36.1878 141.517 36.4225C141.597 36.6518 141.637 36.8945 141.637 37.1505C141.637 37.4385 141.589 37.7052 141.493 37.9505C141.397 38.1905 141.261 38.4012 141.085 38.5825C140.915 38.7638 140.707 38.9052 140.461 39.0065C140.221 39.1078 139.952 39.1585 139.653 39.1585ZM143.455 39.0625L146.631 33.4625H147.575L144.399 39.0625H143.455ZM147.319 39.1585C147.068 39.1585 146.839 39.1025 146.631 38.9905C146.428 38.8732 146.265 38.7105 146.143 38.5025C146.02 38.2892 145.959 38.0385 145.959 37.7505C145.959 37.4572 146.02 37.2065 146.143 36.9985C146.265 36.7905 146.428 36.6305 146.631 36.5185C146.839 36.4012 147.068 36.3425 147.319 36.3425C147.58 36.3425 147.809 36.4012 148.007 36.5185C148.209 36.6305 148.369 36.7905 148.487 36.9985C148.609 37.2065 148.671 37.4572 148.671 37.7505C148.671 38.0385 148.609 38.2892 148.487 38.5025C148.369 38.7105 148.209 38.8732 148.007 38.9905C147.804 39.1025 147.575 39.1585 147.319 39.1585ZM147.311 38.4865C147.423 38.4865 147.524 38.4598 147.615 38.4065C147.705 38.3478 147.777 38.2652 147.831 38.1585C147.884 38.0465 147.911 37.9105 147.911 37.7505C147.911 37.5852 147.884 37.4492 147.831 37.3425C147.777 37.2358 147.705 37.1558 147.615 37.1025C147.529 37.0438 147.431 37.0145 147.319 37.0145C147.212 37.0145 147.113 37.0438 147.023 37.1025C146.932 37.1558 146.86 37.2358 146.807 37.3425C146.753 37.4492 146.727 37.5852 146.727 37.7505C146.727 37.9105 146.753 38.0465 146.807 38.1585C146.86 38.2652 146.929 38.3478 147.015 38.4065C147.105 38.4598 147.204 38.4865 147.311 38.4865ZM143.759 36.1825C143.503 36.1825 143.271 36.1265 143.063 36.0145C142.86 35.9025 142.697 35.7398 142.575 35.5265C142.457 35.3132 142.399 35.0625 142.399 34.7745C142.399 34.4865 142.457 34.2385 142.575 34.0305C142.697 33.8172 142.863 33.6545 143.071 33.5425C143.279 33.4305 143.508 33.3745 143.759 33.3745C144.015 33.3745 144.244 33.4305 144.447 33.5425C144.649 33.6545 144.809 33.8172 144.927 34.0305C145.049 34.2385 145.111 34.4865 145.111 34.7745C145.111 35.0625 145.049 35.3132 144.927 35.5265C144.809 35.7398 144.649 35.9025 144.447 36.0145C144.244 36.1265 144.015 36.1825 143.759 36.1825ZM143.751 35.5105C143.863 35.5105 143.964 35.4838 144.055 35.4305C144.145 35.3718 144.215 35.2892 144.263 35.1825C144.316 35.0705 144.343 34.9345 144.343 34.7745C144.343 34.6145 144.316 34.4785 144.263 34.3665C144.215 34.2545 144.145 34.1718 144.055 34.1185C143.964 34.0598 143.865 34.0305 143.759 34.0305C143.652 34.0305 143.551 34.0598 143.455 34.1185C143.364 34.1718 143.292 34.2545 143.239 34.3665C143.185 34.4785 143.159 34.6145 143.159 34.7745C143.159 34.9345 143.185 35.0705 143.239 35.1825C143.292 35.2892 143.364 35.3718 143.455 35.4305C143.545 35.4838 143.644 35.5105 143.751 35.5105Z" fill="#9F9F9F"/>
<path d="M209.239 63.473C208.983 63.2165 208.794 62.9375 208.674 62.6358C208.557 62.3303 208.528 62.0192 208.589 61.7024C208.657 61.3856 208.832 61.0782 209.115 60.7803L209.782 61.4478C209.654 61.5836 209.564 61.7344 209.511 61.9004C209.466 62.0663 209.466 62.236 209.511 62.4095C209.56 62.5792 209.662 62.7414 209.816 62.896C209.963 63.0431 210.116 63.1392 210.275 63.1845C210.437 63.2335 210.593 63.2354 210.744 63.1901C210.895 63.1449 211.031 63.0619 211.151 62.9412C211.298 62.7942 211.383 62.6377 211.406 62.4717C211.432 62.302 211.408 62.1304 211.332 61.9569C211.257 61.7835 211.14 61.6175 210.982 61.4591L210.687 61.165L211.248 60.605L211.542 60.8991C211.749 61.1065 211.966 61.2291 212.192 61.2668C212.422 61.3007 212.63 61.2253 212.814 61.0405C212.969 60.8859 213.043 60.7105 213.035 60.5144C213.031 60.3221 212.937 60.1336 212.752 59.9488C212.56 59.7564 212.351 59.6603 212.124 59.6603C211.902 59.664 211.702 59.7432 211.525 59.8978L210.857 59.2303C211.106 59.0041 211.372 58.8589 211.655 58.7948C211.945 58.7306 212.234 58.7476 212.52 58.8457C212.807 58.9437 213.078 59.121 213.335 59.3774C213.603 59.6452 213.782 59.9186 213.872 60.1977C213.963 60.4767 213.976 60.7426 213.912 60.9953C213.852 61.2517 213.727 61.4742 213.539 61.6628C213.391 61.8099 213.229 61.9155 213.052 61.9796C212.875 62.0437 212.696 62.0682 212.515 62.0531C212.341 62.038 212.171 61.9852 212.006 61.8947C212.122 62.072 212.194 62.2605 212.22 62.4604C212.251 62.664 212.23 62.8658 212.158 63.0657C212.094 63.2656 211.973 63.4541 211.796 63.6314C211.581 63.8463 211.329 63.9934 211.038 64.0726C210.755 64.1518 210.457 64.1443 210.144 64.05C209.835 63.9595 209.533 63.7671 209.239 63.473ZM211.626 65.7237L216.479 63.823L214.488 61.8317L215.071 61.2491L217.758 63.9361L217.271 64.4226L212.333 66.4308L211.626 65.7237ZM214.293 68.4478C214.165 68.3196 214.101 68.1763 214.101 68.0179C214.101 67.8595 214.156 67.7256 214.265 67.6162C214.382 67.4993 214.52 67.4409 214.678 67.4409C214.836 67.4409 214.98 67.505 215.108 67.6332C215.232 67.7577 215.295 67.8991 215.295 68.0575C215.295 68.2159 215.236 68.3535 215.119 68.4704C215.01 68.5798 214.876 68.6345 214.718 68.6345C214.559 68.6345 214.418 68.5722 214.293 68.4478ZM216.711 70.9443C216.428 70.6615 216.232 70.3673 216.122 70.0618C216.021 69.7564 215.998 69.4584 216.054 69.1681C216.115 68.8739 216.245 68.6043 216.445 68.3591L217.107 69.021C216.975 69.2209 216.92 69.4452 216.943 69.6942C216.969 69.9393 217.084 70.1637 217.288 70.3673C217.442 70.5219 217.61 70.6181 217.791 70.6558C217.976 70.6898 218.161 70.6747 218.345 70.6106C218.538 70.5465 218.713 70.4352 218.872 70.2768C219.034 70.1146 219.143 69.9412 219.2 69.7564C219.26 69.5754 219.268 69.3981 219.222 69.2246C219.181 69.0474 219.088 68.8871 218.945 68.7438C218.768 68.5666 218.574 68.4553 218.362 68.41C218.159 68.3648 217.968 68.3742 217.791 68.4383L217.135 67.7821L219.697 65.8758L221.881 68.0593L221.287 68.6533L219.613 66.9789L218.453 67.7765C218.634 67.7689 218.824 67.8085 219.024 67.8953C219.228 67.9782 219.422 68.1121 219.607 68.2969C219.814 68.5043 219.961 68.7231 220.048 68.9531C220.135 69.1831 220.171 69.4151 220.156 69.6489C220.141 69.8827 220.076 70.109 219.963 70.3277C219.858 70.5465 219.714 70.7463 219.533 70.9273C219.33 71.131 219.107 71.2856 218.866 71.3912C218.628 71.493 218.383 71.5458 218.131 71.5496C217.882 71.5571 217.635 71.51 217.389 71.4082C217.148 71.3101 216.922 71.1555 216.711 70.9443ZM219.466 73.5644L225.672 71.8503L226.34 72.5178L220.134 74.2319L219.466 73.5644ZM222.131 76.3645C221.954 76.1873 221.831 75.9855 221.763 75.7592C221.703 75.533 221.703 75.3029 221.763 75.0691C221.827 74.8315 221.961 74.6109 222.165 74.4072C222.372 74.1998 222.593 74.0659 222.827 74.0056C223.06 73.9453 223.289 73.9471 223.511 74.0113C223.741 74.0754 223.945 74.196 224.122 74.3733C224.307 74.5581 224.428 74.7617 224.484 74.9842C224.548 75.2067 224.548 75.433 224.484 75.6631C224.424 75.8969 224.29 76.1175 224.082 76.3249C223.879 76.5286 223.658 76.6624 223.421 76.7265C223.191 76.7907 222.962 76.7925 222.736 76.7322C222.514 76.6681 222.312 76.5455 222.131 76.3645ZM222.6 75.8837C222.68 75.9629 222.77 76.0157 222.872 76.0421C222.977 76.0647 223.087 76.0572 223.2 76.0194C223.317 75.978 223.432 75.9006 223.545 75.7875C223.662 75.6706 223.739 75.5556 223.777 75.4424C223.815 75.3293 223.82 75.2218 223.794 75.12C223.775 75.0182 223.726 74.9277 223.647 74.8485C223.571 74.773 223.481 74.724 223.375 74.7014C223.274 74.675 223.166 74.6807 223.053 74.7184C222.94 74.7561 222.825 74.8334 222.708 74.9503C222.595 75.0634 222.517 75.1785 222.476 75.2954C222.438 75.4085 222.429 75.516 222.448 75.6178C222.474 75.7196 222.525 75.8083 222.6 75.8837ZM221.718 71.7429C221.537 71.5618 221.412 71.3582 221.345 71.1319C221.28 70.9094 221.28 70.6794 221.345 70.4418C221.412 70.208 221.548 69.9892 221.752 69.7856C221.955 69.5819 222.172 69.4481 222.402 69.384C222.64 69.3198 222.872 69.3217 223.098 69.3896C223.324 69.4575 223.526 69.5801 223.703 69.7573C223.884 69.9383 224.007 70.1401 224.071 70.3626C224.135 70.5851 224.133 70.8133 224.066 71.0471C224.005 71.2809 223.873 71.4996 223.67 71.7033C223.466 71.9069 223.245 72.0408 223.008 72.1049C222.774 72.1728 222.546 72.1747 222.323 72.1106C222.101 72.0464 221.899 71.9239 221.718 71.7429ZM222.187 71.262C222.267 71.3412 222.357 71.394 222.459 71.4204C222.565 71.443 222.672 71.4336 222.781 71.3921C222.898 71.3507 223.013 71.2733 223.126 71.1602C223.24 71.0471 223.317 70.932 223.358 70.8151C223.404 70.702 223.413 70.5945 223.387 70.4927C223.364 70.3871 223.315 70.2966 223.24 70.2212C223.164 70.1457 223.072 70.0948 222.962 70.0684C222.861 70.042 222.751 70.0496 222.634 70.0911C222.517 70.1325 222.402 70.2099 222.289 70.323C222.176 70.4361 222.099 70.5511 222.057 70.6681C222.02 70.7812 222.012 70.8906 222.035 70.9962C222.061 71.098 222.112 71.1866 222.187 71.262Z" fill="#9F9F9F"/>
<path d="M242.404 136.599C242.404 136.199 242.473 135.852 242.612 135.559C242.756 135.271 242.951 135.044 243.196 134.879C243.447 134.713 243.729 134.615 244.044 134.583V135.519C243.809 135.567 243.612 135.687 243.452 135.879C243.297 136.071 243.22 136.311 243.22 136.599C243.22 136.817 243.271 137.004 243.372 137.159C243.479 137.313 243.62 137.433 243.796 137.519C243.977 137.609 244.18 137.655 244.404 137.655C244.633 137.655 244.833 137.609 245.004 137.519C245.175 137.433 245.305 137.313 245.396 137.159C245.492 137.004 245.54 136.825 245.54 136.623C245.54 136.372 245.481 136.156 245.364 135.975C245.252 135.799 245.111 135.671 244.94 135.591V134.663L248.1 135.127V138.215H247.26V135.847L245.876 135.591C246.009 135.713 246.116 135.876 246.196 136.079C246.281 136.281 246.324 136.513 246.324 136.775C246.324 137.068 246.273 137.327 246.172 137.551C246.071 137.775 245.932 137.964 245.756 138.119C245.58 138.273 245.375 138.388 245.14 138.463C244.911 138.543 244.668 138.583 244.412 138.583C244.124 138.583 243.857 138.535 243.612 138.439C243.372 138.343 243.161 138.207 242.98 138.031C242.799 137.86 242.657 137.652 242.556 137.407C242.455 137.167 242.404 136.897 242.404 136.599ZM242.404 141.808C242.404 141.301 242.524 140.866 242.764 140.504C243.009 140.141 243.348 139.861 243.78 139.664C244.217 139.472 244.724 139.376 245.3 139.376C245.876 139.376 246.38 139.472 246.812 139.664C247.249 139.861 247.588 140.141 247.828 140.504C248.073 140.866 248.196 141.301 248.196 141.808C248.196 142.309 248.073 142.738 247.828 143.096C247.588 143.458 247.249 143.736 246.812 143.928C246.38 144.125 245.876 144.224 245.3 144.224C244.724 144.224 244.217 144.125 243.78 143.928C243.348 143.736 243.009 143.458 242.764 143.096C242.524 142.738 242.404 142.309 242.404 141.808ZM243.268 141.8C243.268 142.082 243.348 142.333 243.508 142.552C243.673 142.77 243.908 142.938 244.212 143.056C244.516 143.178 244.879 143.24 245.3 143.24C245.721 143.24 246.084 143.178 246.388 143.056C246.692 142.938 246.924 142.77 247.084 142.552C247.249 142.333 247.332 142.082 247.332 141.8C247.332 141.517 247.249 141.266 247.084 141.048C246.924 140.829 246.692 140.658 246.388 140.536C246.084 140.418 245.721 140.36 245.3 140.36C244.879 140.36 244.516 140.418 244.212 140.536C243.908 140.658 243.673 140.829 243.508 141.048C243.348 141.266 243.268 141.517 243.268 141.8ZM242.5 145.986L248.1 149.162V150.106L242.5 146.93V145.986ZM242.404 149.85C242.404 149.599 242.46 149.37 242.572 149.162C242.689 148.959 242.852 148.796 243.06 148.674C243.273 148.551 243.524 148.49 243.812 148.49C244.105 148.49 244.356 148.551 244.564 148.674C244.772 148.796 244.932 148.959 245.044 149.162C245.161 149.37 245.22 149.599 245.22 149.85C245.22 150.111 245.161 150.34 245.044 150.538C244.932 150.74 244.772 150.9 244.564 151.018C244.356 151.14 244.105 151.202 243.812 151.202C243.524 151.202 243.273 151.14 243.06 151.018C242.852 150.9 242.689 150.74 242.572 150.538C242.46 150.335 242.404 150.106 242.404 149.85ZM243.076 149.842C243.076 149.954 243.103 150.055 243.156 150.146C243.215 150.236 243.297 150.308 243.404 150.362C243.516 150.415 243.652 150.442 243.812 150.442C243.977 150.442 244.113 150.415 244.22 150.362C244.327 150.308 244.407 150.236 244.46 150.146C244.519 150.06 244.548 149.962 244.548 149.85C244.548 149.743 244.519 149.644 244.46 149.554C244.407 149.463 244.327 149.391 244.22 149.338C244.113 149.284 243.977 149.258 243.812 149.258C243.652 149.258 243.516 149.284 243.404 149.338C243.297 149.391 243.215 149.46 243.156 149.546C243.103 149.636 243.076 149.735 243.076 149.842ZM245.38 146.29C245.38 146.034 245.436 145.802 245.548 145.594C245.66 145.391 245.823 145.228 246.036 145.106C246.249 144.988 246.5 144.93 246.788 144.93C247.076 144.93 247.324 144.988 247.532 145.106C247.745 145.228 247.908 145.394 248.02 145.602C248.132 145.81 248.188 146.039 248.188 146.29C248.188 146.546 248.132 146.775 248.02 146.978C247.908 147.18 247.745 147.34 247.532 147.458C247.324 147.58 247.076 147.642 246.788 147.642C246.5 147.642 246.249 147.58 246.036 147.458C245.823 147.34 245.66 147.18 245.548 146.978C245.436 146.775 245.38 146.546 245.38 146.29ZM246.052 146.282C246.052 146.394 246.079 146.495 246.132 146.586C246.191 146.676 246.273 146.746 246.38 146.794C246.492 146.847 246.628 146.874 246.788 146.874C246.948 146.874 247.084 146.847 247.196 146.794C247.308 146.746 247.391 146.676 247.444 146.586C247.503 146.495 247.532 146.396 247.532 146.29C247.532 146.183 247.503 146.082 247.444 145.986C247.391 145.895 247.308 145.823 247.196 145.77C247.084 145.716 246.948 145.69 246.788 145.69C246.628 145.69 246.492 145.716 246.38 145.77C246.273 145.823 246.191 145.895 246.132 145.986C246.079 146.076 246.052 146.175 246.052 146.282Z" fill="#9F9F9F"/>
<path d="M221.657 210.983C221.951 210.689 222.254 210.494 222.567 210.4C222.877 210.31 223.182 210.295 223.484 210.355C223.789 210.419 224.083 210.536 224.366 210.706C224.649 210.875 224.909 211.079 225.147 211.317C225.588 211.758 225.909 212.203 226.108 212.652C226.312 213.104 226.389 213.536 226.34 213.947C226.288 214.362 226.097 214.733 225.769 215.061C225.498 215.333 225.217 215.508 224.926 215.588C224.636 215.674 224.353 215.686 224.078 215.621C223.802 215.557 223.553 215.437 223.331 215.259L223.965 214.626C224.176 214.769 224.389 214.828 224.604 214.801C224.819 214.782 225.02 214.679 225.209 214.49C225.379 214.32 225.477 214.117 225.503 213.879C225.53 213.642 225.475 213.379 225.339 213.093C225.203 212.806 224.979 212.495 224.666 212.159C224.658 212.152 224.651 212.144 224.643 212.137C224.64 212.133 224.634 212.127 224.626 212.12C224.675 212.29 224.691 212.467 224.672 212.652C224.657 212.84 224.608 213.025 224.525 213.206C224.438 213.391 224.317 213.56 224.163 213.715C223.94 213.938 223.682 214.09 223.388 214.173C223.093 214.264 222.792 214.271 222.482 214.196C222.169 214.124 221.883 213.958 221.623 213.698C221.385 213.461 221.221 213.183 221.13 212.867C221.04 212.55 221.036 212.225 221.119 211.894C221.202 211.562 221.381 211.258 221.657 210.983ZM222.279 211.526C222.132 211.673 222.034 211.835 221.985 212.012C221.936 212.19 221.934 212.365 221.979 212.538C222.02 212.716 222.111 212.874 222.251 213.014C222.398 213.161 222.56 213.255 222.737 213.296C222.91 213.342 223.086 213.336 223.263 213.28C223.437 213.227 223.597 213.127 223.744 212.98C223.887 212.836 223.985 212.674 224.038 212.493C224.091 212.32 224.097 212.144 224.055 211.967C224.014 211.79 223.923 211.631 223.784 211.492C223.64 211.349 223.48 211.256 223.303 211.215C223.125 211.173 222.948 211.177 222.771 211.226C222.59 211.279 222.426 211.379 222.279 211.526ZM219.794 212.981L220.287 213.473C220.234 213.925 220.192 214.367 220.162 214.797C220.132 215.227 220.122 215.632 220.134 216.013C220.145 216.394 220.192 216.731 220.275 217.025C220.358 217.32 220.486 217.553 220.66 217.727C220.773 217.84 220.899 217.925 221.039 217.981C221.178 218.038 221.324 218.051 221.474 218.021C221.622 217.995 221.769 217.908 221.916 217.761C222.059 217.618 222.15 217.463 222.187 217.297C222.221 217.135 222.208 216.975 222.148 216.816C222.091 216.662 221.995 216.516 221.859 216.381L222.515 215.724C222.794 216.019 222.972 216.32 223.047 216.629C223.122 216.939 223.107 217.24 223.002 217.535C222.9 217.832 222.725 218.106 222.476 218.355C222.208 218.623 221.931 218.802 221.644 218.892C221.358 218.983 221.075 218.99 220.796 218.915C220.517 218.839 220.256 218.681 220.015 218.44C219.838 218.262 219.696 218.053 219.591 217.812C219.485 217.578 219.41 217.321 219.364 217.042C219.323 216.767 219.3 216.48 219.297 216.183C219.293 215.892 219.3 215.602 219.319 215.311C219.342 215.025 219.368 214.753 219.398 214.497L217.628 216.267L217.068 215.707L219.794 212.981ZM216.134 216.585C216.262 216.457 216.405 216.393 216.563 216.393C216.722 216.393 216.856 216.447 216.965 216.557C217.082 216.674 217.14 216.811 217.14 216.97C217.14 217.128 217.076 217.271 216.948 217.4C216.824 217.524 216.682 217.586 216.524 217.586C216.365 217.586 216.228 217.528 216.111 217.411C216.002 217.302 215.947 217.168 215.947 217.009C215.947 216.851 216.009 216.709 216.134 216.585ZM213.637 219.002C213.92 218.72 214.214 218.523 214.519 218.414C214.825 218.312 215.123 218.29 215.413 218.346C215.707 218.407 215.977 218.537 216.222 218.736L215.56 219.398C215.36 219.266 215.136 219.212 214.887 219.234C214.642 219.261 214.418 219.376 214.214 219.579C214.059 219.734 213.963 219.902 213.926 220.083C213.892 220.268 213.907 220.452 213.971 220.637C214.035 220.83 214.146 221.005 214.305 221.163C214.467 221.325 214.64 221.435 214.825 221.491C215.006 221.552 215.183 221.559 215.357 221.514C215.534 221.473 215.694 221.38 215.838 221.237C216.015 221.06 216.126 220.865 216.171 220.654C216.217 220.451 216.207 220.26 216.143 220.083L216.799 219.427L218.706 221.989L216.522 224.173L215.928 223.579L217.602 221.904L216.805 220.745C216.812 220.926 216.773 221.116 216.686 221.316C216.603 221.52 216.469 221.714 216.284 221.899C216.077 222.106 215.858 222.253 215.628 222.34C215.398 222.427 215.166 222.462 214.932 222.447C214.699 222.432 214.472 222.368 214.254 222.255C214.035 222.149 213.835 222.006 213.654 221.825C213.45 221.621 213.296 221.399 213.19 221.158C213.088 220.92 213.036 220.675 213.032 220.422C213.024 220.173 213.071 219.926 213.173 219.681C213.271 219.44 213.426 219.214 213.637 219.002ZM211.017 221.758L212.731 227.964L212.063 228.631L210.349 222.426L211.017 221.758ZM208.217 224.423C208.394 224.245 208.596 224.123 208.822 224.055C209.048 223.995 209.278 223.995 209.512 224.055C209.75 224.119 209.97 224.253 210.174 224.457C210.382 224.664 210.515 224.885 210.576 225.118C210.636 225.352 210.634 225.58 210.57 225.803C210.506 226.033 210.385 226.237 210.208 226.414C210.023 226.599 209.82 226.719 209.597 226.776C209.375 226.84 209.148 226.84 208.918 226.776C208.684 226.715 208.464 226.582 208.256 226.374C208.053 226.171 207.919 225.95 207.855 225.712C207.791 225.482 207.789 225.254 207.849 225.028C207.913 224.805 208.036 224.604 208.217 224.423ZM208.698 224.892C208.618 224.971 208.566 225.062 208.539 225.164C208.517 225.269 208.524 225.379 208.562 225.492C208.603 225.609 208.681 225.724 208.794 225.837C208.911 225.954 209.026 226.031 209.139 226.069C209.252 226.106 209.36 226.112 209.461 226.086C209.563 226.067 209.654 226.018 209.733 225.939C209.808 225.863 209.857 225.773 209.88 225.667C209.906 225.565 209.901 225.458 209.863 225.345C209.825 225.231 209.748 225.116 209.631 225C209.518 224.886 209.403 224.809 209.286 224.768C209.173 224.73 209.065 224.72 208.964 224.739C208.862 224.766 208.773 224.817 208.698 224.892ZM212.838 224.01C213.02 223.829 213.223 223.704 213.449 223.636C213.672 223.572 213.902 223.572 214.14 223.636C214.373 223.704 214.592 223.84 214.796 224.044C214.999 224.247 215.133 224.464 215.197 224.694C215.262 224.932 215.26 225.164 215.192 225.39C215.124 225.616 215.001 225.818 214.824 225.995C214.643 226.176 214.441 226.299 214.219 226.363C213.996 226.427 213.768 226.425 213.534 226.357C213.3 226.297 213.082 226.165 212.878 225.961C212.674 225.758 212.541 225.537 212.476 225.299C212.409 225.066 212.407 224.837 212.471 224.615C212.535 224.392 212.657 224.191 212.838 224.01ZM213.319 224.479C213.24 224.558 213.187 224.649 213.161 224.751C213.138 224.856 213.148 224.964 213.189 225.073C213.231 225.19 213.308 225.305 213.421 225.418C213.534 225.531 213.649 225.609 213.766 225.65C213.879 225.695 213.987 225.705 214.089 225.678C214.194 225.656 214.285 225.607 214.36 225.531C214.436 225.456 214.487 225.363 214.513 225.254C214.539 225.152 214.532 225.043 214.49 224.926C214.449 224.809 214.371 224.694 214.258 224.581C214.145 224.468 214.03 224.391 213.913 224.349C213.8 224.311 213.691 224.304 213.585 224.326C213.483 224.353 213.395 224.404 213.319 224.479Z" fill="#9F9F9F"/>
<path d="M148.548 249.062L146.46 253.838H149.276V254.663H145.476V253.974L147.548 249.062H148.548ZM142.878 248.966C143.278 248.966 143.625 249.036 143.918 249.174C144.206 249.318 144.433 249.513 144.598 249.758C144.763 250.009 144.862 250.292 144.894 250.606H143.958C143.91 250.372 143.79 250.174 143.598 250.014C143.406 249.86 143.166 249.782 142.878 249.782C142.659 249.782 142.473 249.833 142.318 249.934C142.163 250.041 142.043 250.182 141.958 250.358C141.867 250.54 141.822 250.742 141.822 250.966C141.822 251.196 141.867 251.396 141.958 251.566C142.043 251.737 142.163 251.868 142.318 251.958C142.473 252.054 142.651 252.102 142.854 252.102C143.105 252.102 143.321 252.044 143.502 251.926C143.678 251.814 143.806 251.673 143.886 251.502H144.814L144.35 254.663H141.262V253.822H143.63L143.886 252.438C143.763 252.572 143.601 252.678 143.398 252.758C143.195 252.844 142.963 252.886 142.702 252.886C142.409 252.886 142.15 252.836 141.926 252.734C141.702 252.633 141.513 252.494 141.358 252.318C141.203 252.142 141.089 251.937 141.014 251.702C140.934 251.473 140.894 251.23 140.894 250.974C140.894 250.686 140.942 250.42 141.038 250.174C141.134 249.934 141.27 249.724 141.446 249.542C141.617 249.361 141.825 249.22 142.07 249.118C142.31 249.017 142.579 248.966 142.878 248.966ZM139.077 249.062L135.901 254.663H134.957L138.133 249.062H139.077ZM135.213 248.966C135.463 248.966 135.693 249.022 135.901 249.134C136.103 249.252 136.266 249.414 136.389 249.622C136.511 249.836 136.573 250.086 136.573 250.374C136.573 250.668 136.511 250.918 136.389 251.126C136.266 251.334 136.103 251.494 135.901 251.606C135.693 251.724 135.463 251.782 135.213 251.782C134.951 251.782 134.722 251.724 134.525 251.606C134.322 251.494 134.162 251.334 134.045 251.126C133.922 250.918 133.861 250.668 133.861 250.374C133.861 250.086 133.922 249.836 134.045 249.622C134.162 249.414 134.322 249.252 134.525 249.134C134.727 249.022 134.957 248.966 135.213 248.966ZM135.221 249.638C135.109 249.638 135.007 249.665 134.917 249.718C134.826 249.777 134.754 249.86 134.701 249.966C134.647 250.078 134.621 250.214 134.621 250.374C134.621 250.54 134.647 250.676 134.701 250.782C134.754 250.889 134.826 250.969 134.917 251.022C135.002 251.081 135.101 251.11 135.213 251.11C135.319 251.11 135.418 251.081 135.509 251.022C135.599 250.969 135.671 250.889 135.725 250.782C135.778 250.676 135.805 250.54 135.805 250.374C135.805 250.214 135.778 250.078 135.725 249.966C135.671 249.86 135.602 249.777 135.517 249.718C135.426 249.665 135.327 249.638 135.221 249.638ZM138.773 251.942C139.029 251.942 139.261 251.998 139.469 252.11C139.671 252.222 139.834 252.385 139.957 252.598C140.074 252.812 140.133 253.062 140.133 253.35C140.133 253.638 140.074 253.886 139.957 254.094C139.834 254.308 139.669 254.471 139.461 254.583C139.253 254.695 139.023 254.75 138.773 254.75C138.517 254.75 138.287 254.695 138.085 254.583C137.882 254.471 137.722 254.308 137.605 254.094C137.482 253.886 137.421 253.638 137.421 253.35C137.421 253.062 137.482 252.812 137.605 252.598C137.722 252.385 137.882 252.222 138.085 252.11C138.287 251.998 138.517 251.942 138.773 251.942ZM138.781 252.614C138.669 252.614 138.567 252.641 138.477 252.694C138.386 252.753 138.317 252.836 138.269 252.942C138.215 253.054 138.189 253.19 138.189 253.35C138.189 253.51 138.215 253.646 138.269 253.758C138.317 253.87 138.386 253.953 138.477 254.006C138.567 254.065 138.666 254.094 138.773 254.094C138.879 254.094 138.981 254.065 139.077 254.006C139.167 253.953 139.239 253.87 139.293 253.758C139.346 253.646 139.373 253.51 139.373 253.35C139.373 253.19 139.346 253.054 139.293 252.942C139.239 252.836 139.167 252.753 139.077 252.694C138.986 252.641 138.887 252.614 138.781 252.614Z" fill="#9F9F9F"/>
<path d="M69.7178 222.609C69.9856 222.876 70.1798 223.165 70.3005 223.474C70.4174 223.787 70.4532 224.095 70.4079 224.396C70.3552 224.698 70.21 224.968 69.9724 225.205C69.814 225.364 69.6386 225.482 69.4463 225.562C69.254 225.641 69.056 225.677 68.8523 225.669C68.6449 225.665 68.4469 225.618 68.2583 225.528C68.3602 225.795 68.3922 226.057 68.3545 226.314C68.3093 226.57 68.1942 226.791 68.0094 226.976C67.8171 227.168 67.5908 227.293 67.3306 227.349C67.0704 227.406 66.7932 227.385 66.4991 227.287C66.2011 227.185 65.9089 226.991 65.6223 226.704C65.3356 226.418 65.1433 226.127 65.0453 225.833C64.9472 225.539 64.9265 225.262 64.983 225.002C65.0396 224.741 65.164 224.515 65.3564 224.323C65.5374 224.142 65.7599 224.029 66.0239 223.983C66.2803 223.938 66.5405 223.968 66.8045 224.074C66.7103 223.881 66.6631 223.683 66.6631 223.48C66.6593 223.272 66.6971 223.073 66.7762 222.88C66.8479 222.688 66.9629 222.513 67.1213 222.354C67.3589 222.117 67.6304 221.973 67.9359 221.924C68.2376 221.879 68.545 221.915 68.858 222.032C69.1634 222.149 69.4501 222.341 69.7178 222.609ZM69.1465 223.18C68.8976 222.931 68.6506 222.805 68.4054 222.801C68.1527 222.797 67.9321 222.89 67.7436 223.078C67.5324 223.289 67.4381 223.519 67.4607 223.768C67.4758 224.017 67.6003 224.259 67.8341 224.492C68.0679 224.726 68.313 224.854 68.5695 224.877C68.8184 224.9 69.0484 224.805 69.2596 224.594C69.4482 224.406 69.5406 224.185 69.5368 223.932C69.5255 223.68 69.3954 223.429 69.1465 223.18ZM67.3193 225.007C67.1157 224.804 66.9045 224.698 66.6857 224.69C66.4595 224.683 66.2652 224.76 66.1031 224.922C65.9183 225.107 65.8353 225.307 65.8542 225.522C65.8655 225.737 65.973 225.946 66.1766 226.15C66.3803 226.354 66.5915 226.463 66.8102 226.478C67.0214 226.493 67.2194 226.408 67.4042 226.223C67.5701 226.057 67.6493 225.865 67.6417 225.646C67.6304 225.424 67.523 225.211 67.3193 225.007ZM67.3002 220.327L62.4466 222.228L64.4378 224.219L63.8552 224.801L61.1682 222.114L61.6547 221.628L66.5931 219.62L67.3002 220.327ZM64.6327 217.603C64.7609 217.731 64.825 217.874 64.825 218.033C64.825 218.191 64.7703 218.325 64.6609 218.434C64.544 218.551 64.4064 218.61 64.248 218.61C64.0896 218.61 63.9463 218.546 63.8181 218.417C63.6936 218.293 63.6314 218.151 63.6314 217.993C63.6314 217.835 63.6898 217.697 63.8068 217.58C63.9161 217.471 64.05 217.416 64.2084 217.416C64.3668 217.416 64.5082 217.478 64.6327 217.603ZM62.2153 215.106C62.4982 215.389 62.6943 215.683 62.8036 215.989C62.9055 216.294 62.9281 216.592 62.8715 216.882C62.8112 217.177 62.6811 217.446 62.4812 217.691L61.8193 217.03C61.9513 216.83 62.006 216.605 61.9834 216.356C61.957 216.111 61.842 215.887 61.6383 215.683C61.4837 215.529 61.3159 215.432 61.1349 215.395C60.9501 215.361 60.7653 215.376 60.5805 215.44C60.3882 215.504 60.2128 215.615 60.0544 215.774C59.8922 215.936 59.7829 216.109 59.7263 216.294C59.666 216.475 59.6584 216.652 59.7037 216.826C59.7452 217.003 59.8376 217.163 59.9809 217.307C60.1581 217.484 60.3523 217.595 60.5635 217.64C60.7672 217.686 60.9576 217.676 61.1349 217.612L61.7911 218.268L59.2285 220.175L57.045 217.991L57.6389 217.397L59.3134 219.072L60.473 218.274C60.292 218.282 60.1015 218.242 59.9017 218.155C59.698 218.072 59.5038 217.938 59.319 217.754C59.1116 217.546 58.9645 217.327 58.8778 217.097C58.791 216.867 58.7552 216.635 58.7703 216.402C58.7854 216.168 58.8495 215.942 58.9626 215.723C59.0682 215.504 59.2115 215.304 59.3926 215.123C59.5962 214.92 59.8187 214.765 60.0601 214.659C60.2976 214.557 60.5428 214.505 60.7955 214.501C61.0444 214.493 61.2914 214.54 61.5365 214.642C61.7779 214.74 62.0041 214.895 62.2153 215.106ZM59.4595 212.486L53.2539 214.2L52.5864 213.533L58.792 211.819L59.4595 212.486ZM56.7951 209.686C56.9724 209.863 57.0949 210.065 57.1628 210.291C57.2232 210.518 57.2232 210.748 57.1628 210.981C57.0987 211.219 56.9648 211.44 56.7612 211.643C56.5538 211.851 56.3331 211.985 56.0993 212.045C55.8655 212.105 55.6374 212.103 55.4149 212.039C55.1848 211.975 54.9812 211.854 54.8039 211.677C54.6191 211.492 54.4984 211.289 54.4419 211.066C54.3778 210.844 54.3778 210.617 54.4419 210.387C54.5022 210.154 54.6361 209.933 54.8435 209.726C55.0472 209.522 55.2678 209.388 55.5054 209.324C55.7354 209.26 55.9636 209.258 56.1898 209.318C56.4123 209.382 56.6141 209.505 56.7951 209.686ZM56.3256 210.167C56.2464 210.088 56.1559 210.035 56.0541 210.008C55.9485 209.986 55.8391 209.993 55.726 210.031C55.6091 210.073 55.494 210.15 55.3809 210.263C55.264 210.38 55.1867 210.495 55.149 210.608C55.1113 210.721 55.1056 210.829 55.132 210.93C55.1509 211.032 55.1999 211.123 55.2791 211.202C55.3545 211.277 55.445 211.326 55.5506 211.349C55.6524 211.375 55.7599 211.37 55.8731 211.332C55.9862 211.294 56.1012 211.217 56.2181 211.1C56.3313 210.987 56.4086 210.872 56.4501 210.755C56.4878 210.642 56.4972 210.535 56.4783 210.433C56.4519 210.331 56.401 210.242 56.3256 210.167ZM57.2081 214.308C57.3891 214.489 57.5135 214.692 57.5814 214.919C57.6455 215.141 57.6455 215.371 57.5814 215.609C57.5135 215.843 57.3778 216.061 57.1741 216.265C56.9705 216.469 56.7536 216.602 56.5236 216.667C56.286 216.731 56.0541 216.729 55.8278 216.661C55.6015 216.593 55.3998 216.47 55.2225 216.293C55.0415 216.112 54.9189 215.91 54.8548 215.688C54.7907 215.465 54.7926 215.237 54.8605 215.003C54.9208 214.77 55.0528 214.551 55.2565 214.347C55.4601 214.144 55.6807 214.01 55.9183 213.946C56.1521 213.878 56.3803 213.876 56.6028 213.94C56.8253 214.004 57.0271 214.127 57.2081 214.308ZM56.7386 214.788C56.6594 214.709 56.5689 214.656 56.467 214.63C56.3614 214.607 56.254 214.617 56.1446 214.658C56.0277 214.7 55.9127 214.777 55.7995 214.89C55.6864 215.003 55.6091 215.118 55.5676 215.235C55.5223 215.348 55.5129 215.456 55.5393 215.558C55.5619 215.663 55.611 215.754 55.6864 215.829C55.7618 215.905 55.8542 215.956 55.9636 215.982C56.0654 216.008 56.1748 216.001 56.2917 215.959C56.4086 215.918 56.5236 215.841 56.6367 215.728C56.7499 215.614 56.8272 215.499 56.8687 215.382C56.9064 215.269 56.9139 215.16 56.8913 215.054C56.8649 214.953 56.814 214.864 56.7386 214.788Z" fill="#9F9F9F"/>
<path d="M93.2343 141.135C92.9503 141.135 92.7083 141.08 92.5083 140.972C92.3123 140.86 92.1583 140.714 92.0463 140.534C91.9343 140.35 91.8683 140.154 91.8483 139.946H92.5143C92.5503 140.134 92.6303 140.28 92.7543 140.384C92.8823 140.484 93.0463 140.534 93.2463 140.534C93.4303 140.534 93.5903 140.48 93.7263 140.372C93.8623 140.26 93.9703 140.094 94.0503 139.874C94.1343 139.65 94.1803 139.37 94.1883 139.034C94.1883 139.026 94.1883 139.016 94.1883 139.004C94.1883 138.992 94.1883 138.98 94.1883 138.968C94.1283 139.08 94.0443 139.182 93.9363 139.274C93.8283 139.366 93.7023 139.438 93.5583 139.49C93.4183 139.542 93.2663 139.568 93.1023 139.568C92.8703 139.568 92.6503 139.514 92.4423 139.406C92.2383 139.294 92.0743 139.136 91.9503 138.932C91.8263 138.728 91.7643 138.488 91.7643 138.212C91.7643 137.96 91.8243 137.726 91.9443 137.51C92.0643 137.294 92.2343 137.12 92.4543 136.988C92.6743 136.856 92.9283 136.79 93.2163 136.79C93.5323 136.79 93.7963 136.848 94.0083 136.964C94.2243 137.08 94.3963 137.236 94.5243 137.432C94.6523 137.624 94.7443 137.84 94.8003 138.08C94.8603 138.32 94.8903 138.566 94.8903 138.818C94.8903 139.282 94.8243 139.688 94.6923 140.036C94.5643 140.384 94.3763 140.654 94.1283 140.846C93.8843 141.038 93.5863 141.135 93.2343 141.135ZM93.2703 138.956C93.4223 138.956 93.5583 138.924 93.6783 138.86C93.8023 138.792 93.9003 138.7 93.9723 138.584C94.0443 138.464 94.0803 138.332 94.0803 138.188C94.0803 138.036 94.0443 137.902 93.9723 137.786C93.9003 137.666 93.8023 137.574 93.6783 137.51C93.5583 137.442 93.4203 137.408 93.2643 137.408C93.1083 137.408 92.9703 137.442 92.8503 137.51C92.7303 137.578 92.6343 137.67 92.5623 137.786C92.4943 137.898 92.4603 138.03 92.4603 138.182C92.4603 138.338 92.4943 138.474 92.5623 138.59C92.6343 138.706 92.7303 138.796 92.8503 138.86C92.9743 138.924 93.1143 138.956 93.2703 138.956ZM97.1032 141.135C96.8032 141.135 96.5432 141.082 96.3232 140.978C96.1072 140.87 95.9372 140.724 95.8132 140.54C95.6892 140.352 95.6152 140.14 95.5912 139.904H96.2932C96.3292 140.08 96.4192 140.228 96.5632 140.348C96.7072 140.464 96.8872 140.522 97.1032 140.522C97.2672 140.522 97.4072 140.484 97.5232 140.408C97.6392 140.328 97.7292 140.222 97.7932 140.09C97.8612 139.954 97.8952 139.802 97.8952 139.634C97.8952 139.462 97.8612 139.312 97.7932 139.184C97.7292 139.056 97.6392 138.958 97.5232 138.89C97.4072 138.818 97.2732 138.782 97.1212 138.782C96.9332 138.782 96.7712 138.826 96.6352 138.914C96.5032 138.998 96.4072 139.104 96.3472 139.232H95.6512L95.9992 136.862H98.3152V137.492H96.5392L96.3472 138.53C96.4392 138.43 96.5612 138.35 96.7132 138.29C96.8652 138.226 97.0392 138.194 97.2352 138.194C97.4552 138.194 97.6492 138.232 97.8172 138.308C97.9852 138.384 98.1272 138.488 98.2432 138.62C98.3592 138.752 98.4452 138.906 98.5012 139.082C98.5612 139.254 98.5912 139.436 98.5912 139.628C98.5912 139.844 98.5552 140.044 98.4832 140.228C98.4112 140.408 98.3092 140.566 98.1772 140.702C98.0492 140.838 97.8932 140.944 97.7092 141.02C97.5292 141.096 97.3272 141.135 97.1032 141.135ZM99.9542 141.062L102.336 136.862H103.044L100.662 141.062H99.9542ZM102.852 141.135C102.664 141.135 102.492 141.092 102.336 141.008C102.184 140.92 102.062 140.798 101.97 140.642C101.878 140.482 101.832 140.294 101.832 140.078C101.832 139.858 101.878 139.67 101.97 139.514C102.062 139.358 102.184 139.238 102.336 139.154C102.492 139.066 102.664 139.022 102.852 139.022C103.048 139.022 103.22 139.066 103.368 139.154C103.52 139.238 103.64 139.358 103.728 139.514C103.82 139.67 103.866 139.858 103.866 140.078C103.866 140.294 103.82 140.482 103.728 140.642C103.64 140.798 103.52 140.92 103.368 141.008C103.216 141.092 103.044 141.135 102.852 141.135ZM102.846 140.63C102.93 140.63 103.006 140.61 103.074 140.57C103.142 140.526 103.196 140.464 103.236 140.384C103.276 140.3 103.296 140.198 103.296 140.078C103.296 139.954 103.276 139.852 103.236 139.772C103.196 139.692 103.142 139.632 103.074 139.592C103.01 139.548 102.936 139.526 102.852 139.526C102.772 139.526 102.698 139.548 102.63 139.592C102.562 139.632 102.508 139.692 102.468 139.772C102.428 139.852 102.408 139.954 102.408 140.078C102.408 140.198 102.428 140.3 102.468 140.384C102.508 140.464 102.56 140.526 102.624 140.57C102.692 140.61 102.766 140.63 102.846 140.63ZM100.182 138.902C99.9902 138.902 99.8162 138.86 99.6602 138.776C99.5082 138.692 99.3862 138.57 99.2942 138.41C99.2062 138.25 99.1622 138.062 99.1622 137.846C99.1622 137.63 99.2062 137.444 99.2942 137.288C99.3862 137.128 99.5102 137.006 99.6662 136.922C99.8222 136.838 99.9942 136.796 100.182 136.796C100.374 136.796 100.546 136.838 100.698 136.922C100.85 137.006 100.97 137.128 101.058 137.288C101.15 137.444 101.196 137.63 101.196 137.846C101.196 138.062 101.15 138.25 101.058 138.41C100.97 138.57 100.85 138.692 100.698 138.776C100.546 138.86 100.374 138.902 100.182 138.902ZM100.176 138.398C100.26 138.398 100.336 138.378 100.404 138.338C100.472 138.294 100.524 138.232 100.56 138.152C100.6 138.068 100.62 137.966 100.62 137.846C100.62 137.726 100.6 137.624 100.56 137.54C100.524 137.456 100.472 137.394 100.404 137.354C100.336 137.31 100.262 137.288 100.182 137.288C100.102 137.288 100.026 137.31 99.9542 137.354C99.8862 137.394 99.8322 137.456 99.7922 137.54C99.7522 137.624 99.7322 137.726 99.7322 137.846C99.7322 137.966 99.7522 138.068 99.7922 138.152C99.8322 138.232 99.8862 138.294 99.9542 138.338C100.022 138.378 100.096 138.398 100.176 138.398Z" fill="white"/>
<path d="M73.2823 141.135C72.9983 141.135 72.7423 141.084 72.5143 140.984C72.2863 140.88 72.1043 140.736 71.9683 140.552C71.8363 140.365 71.7703 140.144 71.7703 139.892C71.7703 139.724 71.8003 139.568 71.8603 139.424C71.9203 139.28 72.0063 139.156 72.1183 139.052C72.2303 138.944 72.3603 138.864 72.5083 138.812C72.3123 138.724 72.1563 138.602 72.0403 138.446C71.9283 138.286 71.8723 138.108 71.8723 137.912C71.8723 137.708 71.9263 137.522 72.0343 137.354C72.1423 137.186 72.3003 137.05 72.5083 136.946C72.7203 136.842 72.9783 136.79 73.2823 136.79C73.5863 136.79 73.8423 136.842 74.0503 136.946C74.2583 137.05 74.4163 137.186 74.5243 137.354C74.6323 137.522 74.6863 137.708 74.6863 137.912C74.6863 138.104 74.6283 138.282 74.5123 138.446C74.4003 138.606 74.2463 138.728 74.0503 138.812C74.2023 138.864 74.3323 138.944 74.4403 139.052C74.5523 139.16 74.6383 139.286 74.6983 139.43C74.7623 139.57 74.7943 139.724 74.7943 139.892C74.7943 140.144 74.7263 140.365 74.5903 140.552C74.4543 140.736 74.2723 140.88 74.0443 140.984C73.8203 141.084 73.5663 141.135 73.2823 141.135ZM73.2823 140.528C73.5463 140.528 73.7443 140.464 73.8763 140.336C74.0123 140.204 74.0803 140.038 74.0803 139.838C74.0803 139.614 74.0083 139.442 73.8643 139.322C73.7243 139.198 73.5303 139.136 73.2823 139.136C73.0343 139.136 72.8363 139.198 72.6883 139.322C72.5443 139.442 72.4723 139.614 72.4723 139.838C72.4723 140.038 72.5403 140.204 72.6763 140.336C72.8163 140.464 73.0183 140.528 73.2823 140.528ZM73.2823 138.59C73.4983 138.59 73.6663 138.534 73.7863 138.422C73.9103 138.306 73.9723 138.162 73.9723 137.99C73.9723 137.794 73.9103 137.644 73.7863 137.54C73.6663 137.432 73.4983 137.378 73.2823 137.378C73.0663 137.378 72.8963 137.432 72.7723 137.54C72.6523 137.644 72.5923 137.794 72.5923 137.99C72.5923 138.166 72.6523 138.31 72.7723 138.422C72.8963 138.534 73.0663 138.59 73.2823 138.59ZM77.0563 141.135C76.7563 141.135 76.4963 141.082 76.2763 140.978C76.0603 140.87 75.8903 140.724 75.7663 140.54C75.6423 140.352 75.5683 140.14 75.5443 139.904H76.2463C76.2823 140.08 76.3723 140.228 76.5163 140.348C76.6603 140.464 76.8403 140.522 77.0563 140.522C77.2203 140.522 77.3603 140.484 77.4763 140.408C77.5923 140.328 77.6823 140.222 77.7463 140.09C77.8143 139.954 77.8483 139.802 77.8483 139.634C77.8483 139.462 77.8143 139.312 77.7463 139.184C77.6823 139.056 77.5923 138.958 77.4763 138.89C77.3603 138.818 77.2263 138.782 77.0743 138.782C76.8863 138.782 76.7243 138.826 76.5883 138.914C76.4563 138.998 76.3603 139.104 76.3003 139.232H75.6043L75.9523 136.862H78.2683V137.492H76.4923L76.3003 138.53C76.3923 138.43 76.5143 138.35 76.6663 138.29C76.8183 138.226 76.9923 138.194 77.1883 138.194C77.4083 138.194 77.6023 138.232 77.7703 138.308C77.9383 138.384 78.0803 138.488 78.1963 138.62C78.3123 138.752 78.3983 138.906 78.4543 139.082C78.5143 139.254 78.5443 139.436 78.5443 139.628C78.5443 139.844 78.5083 140.044 78.4363 140.228C78.3643 140.408 78.2623 140.566 78.1303 140.702C78.0023 140.838 77.8463 140.944 77.6623 141.02C77.4823 141.096 77.2803 141.135 77.0563 141.135ZM79.9073 141.062L82.2893 136.862H82.9973L80.6153 141.062H79.9073ZM82.8053 141.135C82.6173 141.135 82.4453 141.092 82.2893 141.008C82.1373 140.92 82.0153 140.798 81.9233 140.642C81.8313 140.482 81.7853 140.294 81.7853 140.078C81.7853 139.858 81.8313 139.67 81.9233 139.514C82.0153 139.358 82.1373 139.238 82.2893 139.154C82.4453 139.066 82.6173 139.022 82.8053 139.022C83.0013 139.022 83.1733 139.066 83.3213 139.154C83.4733 139.238 83.5933 139.358 83.6813 139.514C83.7733 139.67 83.8193 139.858 83.8193 140.078C83.8193 140.294 83.7733 140.482 83.6813 140.642C83.5933 140.798 83.4733 140.92 83.3213 141.008C83.1693 141.092 82.9973 141.135 82.8053 141.135ZM82.7993 140.63C82.8833 140.63 82.9593 140.61 83.0273 140.57C83.0953 140.526 83.1493 140.464 83.1893 140.384C83.2293 140.3 83.2493 140.198 83.2493 140.078C83.2493 139.954 83.2293 139.852 83.1893 139.772C83.1493 139.692 83.0953 139.632 83.0273 139.592C82.9633 139.548 82.8893 139.526 82.8053 139.526C82.7253 139.526 82.6513 139.548 82.5833 139.592C82.5153 139.632 82.4613 139.692 82.4213 139.772C82.3813 139.852 82.3613 139.954 82.3613 140.078C82.3613 140.198 82.3813 140.3 82.4213 140.384C82.4613 140.464 82.5133 140.526 82.5773 140.57C82.6453 140.61 82.7193 140.63 82.7993 140.63ZM80.1353 138.902C79.9433 138.902 79.7693 138.86 79.6133 138.776C79.4613 138.692 79.3393 138.57 79.2473 138.41C79.1593 138.25 79.1153 138.062 79.1153 137.846C79.1153 137.63 79.1593 137.444 79.2473 137.288C79.3393 137.128 79.4633 137.006 79.6193 136.922C79.7753 136.838 79.9473 136.796 80.1353 136.796C80.3273 136.796 80.4993 136.838 80.6513 136.922C80.8033 137.006 80.9233 137.128 81.0113 137.288C81.1033 137.444 81.1493 137.63 81.1493 137.846C81.1493 138.062 81.1033 138.25 81.0113 138.41C80.9233 138.57 80.8033 138.692 80.6513 138.776C80.4993 138.86 80.3273 138.902 80.1353 138.902ZM80.1293 138.398C80.2133 138.398 80.2893 138.378 80.3573 138.338C80.4253 138.294 80.4773 138.232 80.5133 138.152C80.5533 138.068 80.5733 137.966 80.5733 137.846C80.5733 137.726 80.5533 137.624 80.5133 137.54C80.4773 137.456 80.4253 137.394 80.3573 137.354C80.2893 137.31 80.2153 137.288 80.1353 137.288C80.0553 137.288 79.9793 137.31 79.9073 137.354C79.8393 137.394 79.7853 137.456 79.7453 137.54C79.7053 137.624 79.6853 137.726 79.6853 137.846C79.6853 137.966 79.7053 138.068 79.7453 138.152C79.7853 138.232 79.8393 138.294 79.9073 138.338C79.9753 138.378 80.0493 138.398 80.1293 138.398Z" fill="white"/>
<path d="M54.3843 141.135C54.0723 141.135 53.8083 141.076 53.5923 140.96C53.3803 140.844 53.2103 140.69 53.0823 140.498C52.9543 140.302 52.8603 140.084 52.8003 139.844C52.7403 139.604 52.7103 139.358 52.7103 139.106C52.7103 138.638 52.7763 138.232 52.9083 137.888C53.0403 137.54 53.2283 137.27 53.4723 137.078C53.7203 136.886 54.0183 136.79 54.3663 136.79C54.6543 136.79 54.8963 136.846 55.0923 136.958C55.2923 137.066 55.4483 137.21 55.5603 137.39C55.6723 137.57 55.7403 137.766 55.7643 137.979H55.0923C55.0563 137.79 54.9743 137.646 54.8463 137.546C54.7223 137.442 54.5603 137.39 54.3603 137.39C54.1803 137.39 54.0203 137.446 53.8803 137.558C53.7403 137.67 53.6303 137.838 53.5503 138.062C53.4703 138.286 53.4243 138.57 53.4123 138.914C53.4123 138.922 53.4123 138.93 53.4123 138.938C53.4123 138.942 53.4123 138.948 53.4123 138.956C53.4763 138.84 53.5623 138.738 53.6703 138.65C53.7783 138.558 53.9023 138.486 54.0423 138.434C54.1863 138.382 54.3403 138.356 54.5043 138.356C54.7403 138.356 54.9583 138.412 55.1583 138.524C55.3623 138.632 55.5263 138.788 55.6503 138.992C55.7783 139.196 55.8423 139.436 55.8423 139.712C55.8423 139.964 55.7823 140.198 55.6623 140.414C55.5423 140.63 55.3723 140.804 55.1523 140.936C54.9323 141.068 54.6763 141.135 54.3843 141.135ZM54.3423 140.516C54.4983 140.516 54.6363 140.482 54.7563 140.414C54.8763 140.346 54.9703 140.254 55.0383 140.138C55.1103 140.022 55.1463 139.89 55.1463 139.742C55.1463 139.586 55.1103 139.45 55.0383 139.334C54.9703 139.218 54.8743 139.128 54.7503 139.064C54.6303 139 54.4923 138.968 54.3363 138.968C54.1843 138.968 54.0463 139.002 53.9223 139.07C53.8023 139.134 53.7063 139.224 53.6343 139.34C53.5623 139.456 53.5263 139.588 53.5263 139.736C53.5263 139.888 53.5623 140.022 53.6343 140.138C53.7063 140.254 53.8023 140.346 53.9223 140.414C54.0463 140.482 54.1863 140.516 54.3423 140.516ZM58.3012 141.135C57.9212 141.135 57.5952 141.045 57.3232 140.865C57.0512 140.68 56.8412 140.426 56.6932 140.102C56.5492 139.774 56.4772 139.394 56.4772 138.962C56.4772 138.53 56.5492 138.152 56.6932 137.828C56.8412 137.5 57.0512 137.246 57.3232 137.066C57.5952 136.882 57.9212 136.79 58.3012 136.79C58.6772 136.79 58.9992 136.882 59.2672 137.066C59.5392 137.246 59.7472 137.5 59.8912 137.828C60.0392 138.152 60.1132 138.53 60.1132 138.962C60.1132 139.394 60.0392 139.774 59.8912 140.102C59.7472 140.426 59.5392 140.68 59.2672 140.865C58.9992 141.045 58.6772 141.135 58.3012 141.135ZM58.2952 140.486C58.5072 140.486 58.6952 140.426 58.8592 140.306C59.0232 140.182 59.1492 140.006 59.2372 139.778C59.3292 139.55 59.3752 139.278 59.3752 138.962C59.3752 138.646 59.3292 138.374 59.2372 138.146C59.1492 137.918 59.0232 137.744 58.8592 137.624C58.6952 137.5 58.5072 137.438 58.2952 137.438C58.0832 137.438 57.8952 137.5 57.7312 137.624C57.5672 137.744 57.4392 137.918 57.3472 138.146C57.2592 138.374 57.2152 138.646 57.2152 138.962C57.2152 139.278 57.2592 139.55 57.3472 139.778C57.4392 140.006 57.5672 140.182 57.7312 140.306C57.8952 140.426 58.0832 140.486 58.2952 140.486ZM61.4346 141.062L63.8166 136.862H64.5246L62.1426 141.062H61.4346ZM64.3326 141.135C64.1446 141.135 63.9726 141.092 63.8166 141.008C63.6646 140.92 63.5426 140.798 63.4506 140.642C63.3586 140.482 63.3126 140.294 63.3126 140.078C63.3126 139.858 63.3586 139.67 63.4506 139.514C63.5426 139.358 63.6646 139.238 63.8166 139.154C63.9726 139.066 64.1446 139.022 64.3326 139.022C64.5286 139.022 64.7006 139.066 64.8486 139.154C65.0006 139.238 65.1206 139.358 65.2086 139.514C65.3006 139.67 65.3466 139.858 65.3466 140.078C65.3466 140.294 65.3006 140.482 65.2086 140.642C65.1206 140.798 65.0006 140.92 64.8486 141.008C64.6966 141.092 64.5246 141.135 64.3326 141.135ZM64.3266 140.63C64.4106 140.63 64.4866 140.61 64.5546 140.57C64.6226 140.526 64.6766 140.464 64.7166 140.384C64.7566 140.3 64.7766 140.198 64.7766 140.078C64.7766 139.954 64.7566 139.852 64.7166 139.772C64.6766 139.692 64.6226 139.632 64.5546 139.592C64.4906 139.548 64.4166 139.526 64.3326 139.526C64.2526 139.526 64.1786 139.548 64.1106 139.592C64.0426 139.632 63.9886 139.692 63.9486 139.772C63.9086 139.852 63.8886 139.954 63.8886 140.078C63.8886 140.198 63.9086 140.3 63.9486 140.384C63.9886 140.464 64.0406 140.526 64.1046 140.57C64.1726 140.61 64.2466 140.63 64.3266 140.63ZM61.6626 138.902C61.4706 138.902 61.2966 138.86 61.1406 138.776C60.9886 138.692 60.8666 138.57 60.7746 138.41C60.6866 138.25 60.6426 138.062 60.6426 137.846C60.6426 137.63 60.6866 137.444 60.7746 137.288C60.8666 137.128 60.9906 137.006 61.1466 136.922C61.3026 136.838 61.4746 136.796 61.6626 136.796C61.8546 136.796 62.0266 136.838 62.1786 136.922C62.3306 137.006 62.4506 137.128 62.5386 137.288C62.6306 137.444 62.6766 137.63 62.6766 137.846C62.6766 138.062 62.6306 138.25 62.5386 138.41C62.4506 138.57 62.3306 138.692 62.1786 138.776C62.0266 138.86 61.8546 138.902 61.6626 138.902ZM61.6566 138.398C61.7406 138.398 61.8166 138.378 61.8846 138.338C61.9526 138.294 62.0046 138.232 62.0406 138.152C62.0806 138.068 62.1006 137.966 62.1006 137.846C62.1006 137.726 62.0806 137.624 62.0406 137.54C62.0046 137.456 61.9526 137.394 61.8846 137.354C61.8166 137.31 61.7426 137.288 61.6626 137.288C61.5826 137.288 61.5066 137.31 61.4346 137.354C61.3666 137.394 61.3126 137.456 61.2726 137.54C61.2326 137.624 61.2126 137.726 61.2126 137.846C61.2126 137.966 61.2326 138.068 61.2726 138.152C61.3126 138.232 61.3666 138.294 61.4346 138.338C61.5026 138.378 61.5766 138.398 61.6566 138.398Z" fill="black"/>
<rect x="24" y="282.562" width="14" height="14" rx="4" fill="white"/>
<path d="M42.9 294.062V285.662H45.372C46.356 285.662 47.164 285.834 47.796 286.178C48.436 286.514 48.908 286.998 49.212 287.63C49.524 288.254 49.68 289.006 49.68 289.886C49.68 290.75 49.524 291.494 49.212 292.118C48.908 292.742 48.436 293.222 47.796 293.558C47.164 293.894 46.356 294.062 45.372 294.062H42.9ZM43.908 293.222H45.348C46.164 293.222 46.812 293.09 47.292 292.826C47.772 292.554 48.116 292.17 48.324 291.674C48.532 291.17 48.636 290.574 48.636 289.886C48.636 289.182 48.532 288.578 48.324 288.074C48.116 287.57 47.772 287.182 47.292 286.91C46.812 286.638 46.164 286.502 45.348 286.502H43.908V293.222ZM51.1977 294.062V288.014H52.2057V294.062H51.1977ZM51.7017 286.73C51.5017 286.73 51.3337 286.666 51.1977 286.538C51.0697 286.402 51.0057 286.234 51.0057 286.034C51.0057 285.834 51.0697 285.674 51.1977 285.554C51.3337 285.426 51.5017 285.362 51.7017 285.362C51.8937 285.362 52.0577 285.426 52.1937 285.554C52.3297 285.674 52.3977 285.834 52.3977 286.034C52.3977 286.234 52.3297 286.402 52.1937 286.538C52.0577 286.666 51.8937 286.73 51.7017 286.73ZM54.3205 294.062V287.078C54.3205 286.694 54.3845 286.382 54.5125 286.142C54.6405 285.894 54.8285 285.714 55.0765 285.602C55.3325 285.482 55.6445 285.422 56.0125 285.422H56.6965V286.286H56.1685C55.8725 286.286 55.6565 286.346 55.5205 286.466C55.3925 286.586 55.3285 286.798 55.3285 287.102V294.062H54.3205ZM53.3965 288.866V288.014H56.8525V288.866H53.3965ZM58.3987 294.062V288.866H57.4747V288.014H58.3987V287.078C58.3987 286.694 58.4627 286.382 58.5907 286.142C58.7187 285.894 58.9067 285.714 59.1547 285.602C59.4107 285.482 59.7227 285.422 60.0907 285.422H60.6907V286.286H60.2467C59.9507 286.286 59.7347 286.346 59.5987 286.466C59.4707 286.586 59.4067 286.798 59.4067 287.102V288.014H63.0307V294.062H62.0227V288.866H59.4067V294.062H58.3987ZM62.5387 286.862C62.3467 286.862 62.1827 286.798 62.0467 286.67C61.9107 286.534 61.8427 286.366 61.8427 286.166C61.8427 285.966 61.9107 285.806 62.0467 285.686C62.1827 285.558 62.3467 285.494 62.5387 285.494C62.7387 285.494 62.9027 285.558 63.0307 285.686C63.1667 285.806 63.2347 285.966 63.2347 286.166C63.2347 286.366 63.1667 286.534 63.0307 286.67C62.9027 286.798 62.7387 286.862 62.5387 286.862ZM67.5484 294.207C66.9804 294.207 66.4684 294.074 66.0124 293.81C65.5644 293.546 65.2124 293.178 64.9564 292.706C64.7004 292.226 64.5724 291.674 64.5724 291.05C64.5724 290.41 64.7004 289.854 64.9564 289.382C65.2124 288.91 65.5644 288.542 66.0124 288.278C66.4684 288.006 66.9804 287.87 67.5484 287.87C68.2684 287.87 68.8684 288.058 69.3484 288.434C69.8284 288.802 70.1324 289.298 70.2604 289.922H69.2284C69.1484 289.546 68.9524 289.254 68.6404 289.046C68.3284 288.838 67.9604 288.734 67.5364 288.734C67.1924 288.734 66.8724 288.822 66.5764 288.998C66.2804 289.166 66.0444 289.422 65.8684 289.766C65.6924 290.11 65.6044 290.534 65.6044 291.038C65.6044 291.414 65.6564 291.75 65.7604 292.046C65.8644 292.334 66.0044 292.574 66.1804 292.766C66.3564 292.958 66.5604 293.106 66.7924 293.21C67.0324 293.306 67.2804 293.354 67.5364 293.354C67.8244 293.354 68.0844 293.31 68.3164 293.222C68.5484 293.126 68.7444 292.986 68.9044 292.802C69.0644 292.618 69.1724 292.402 69.2284 292.154H70.2604C70.1324 292.762 69.8244 293.258 69.3364 293.642C68.8564 294.019 68.2604 294.207 67.5484 294.207ZM73.8876 294.207C73.4236 294.207 73.0156 294.114 72.6636 293.93C72.3196 293.746 72.0516 293.462 71.8596 293.078C71.6756 292.694 71.5836 292.214 71.5836 291.638V288.014H72.5916V291.53C72.5916 292.13 72.7236 292.582 72.9876 292.886C73.2516 293.19 73.6236 293.342 74.1036 293.342C74.4396 293.342 74.7436 293.262 75.0156 293.102C75.2876 292.934 75.4996 292.698 75.6516 292.394C75.8116 292.082 75.8916 291.702 75.8916 291.254V288.014H76.8996V294.062H75.9876L75.9276 293.006C75.7436 293.382 75.4716 293.678 75.1116 293.894C74.7516 294.102 74.3436 294.207 73.8876 294.207ZM78.5705 294.062V285.422H79.5785V294.062H78.5705ZM83.6183 294.062C83.2583 294.062 82.9463 294.006 82.6823 293.894C82.4183 293.782 82.2143 293.594 82.0703 293.33C81.9343 293.058 81.8663 292.694 81.8663 292.238V288.866H80.8103V288.014H81.8663L81.9983 286.55H82.8743V288.014H84.6263V288.866H82.8743V292.238C82.8743 292.614 82.9503 292.87 83.1023 293.006C83.2543 293.134 83.5223 293.198 83.9063 293.198H84.5543V294.062H83.6183ZM86.6016 296.703L88.0776 293.39H87.7296L85.3536 288.014H86.4456L88.4136 292.634L90.4776 288.014H91.5216L87.6576 296.703H86.6016Z" fill="#9F9F9F"/>
<rect x="111" y="282.562" width="14" height="14" rx="4" fill="#FF812A"/>
<path d="M133.548 294.207C132.732 294.207 132.024 294.027 131.424 293.667C130.832 293.298 130.376 292.79 130.056 292.142C129.736 291.486 129.576 290.726 129.576 289.862C129.576 288.998 129.736 288.242 130.056 287.594C130.376 286.938 130.832 286.43 131.424 286.07C132.024 285.702 132.732 285.518 133.548 285.518C134.508 285.518 135.288 285.746 135.888 286.202C136.488 286.658 136.872 287.302 137.04 288.134H135.924C135.796 287.614 135.536 287.198 135.144 286.886C134.752 286.566 134.22 286.406 133.548 286.406C132.948 286.406 132.428 286.546 131.988 286.826C131.548 287.098 131.208 287.494 130.968 288.014C130.728 288.526 130.608 289.142 130.608 289.862C130.608 290.582 130.728 291.202 130.968 291.722C131.208 292.234 131.548 292.63 131.988 292.91C132.428 293.182 132.948 293.318 133.548 293.318C134.22 293.318 134.752 293.166 135.144 292.862C135.536 292.55 135.796 292.138 135.924 291.626H137.04C136.872 292.434 136.488 293.066 135.888 293.522C135.288 293.978 134.508 294.207 133.548 294.207ZM141.142 294.207C140.582 294.207 140.078 294.078 139.63 293.822C139.182 293.558 138.83 293.19 138.574 292.718C138.318 292.238 138.19 291.682 138.19 291.05C138.19 290.402 138.318 289.842 138.574 289.37C138.838 288.89 139.194 288.522 139.642 288.266C140.098 288.002 140.606 287.87 141.166 287.87C141.742 287.87 142.25 288.002 142.69 288.266C143.138 288.522 143.49 288.89 143.746 289.37C144.01 289.842 144.142 290.398 144.142 291.038C144.142 291.678 144.01 292.238 143.746 292.718C143.482 293.19 143.126 293.558 142.678 293.822C142.23 294.078 141.718 294.207 141.142 294.207ZM141.154 293.342C141.498 293.342 141.818 293.258 142.114 293.09C142.41 292.914 142.65 292.654 142.834 292.31C143.018 291.966 143.11 291.542 143.11 291.038C143.11 290.526 143.018 290.102 142.834 289.766C142.658 289.422 142.422 289.166 142.126 288.998C141.838 288.822 141.518 288.734 141.166 288.734C140.83 288.734 140.51 288.822 140.206 288.998C139.91 289.166 139.67 289.422 139.486 289.766C139.31 290.102 139.222 290.526 139.222 291.038C139.222 291.542 139.31 291.966 139.486 292.31C139.67 292.654 139.906 292.914 140.194 293.09C140.49 293.258 140.81 293.342 141.154 293.342ZM148.219 294.207C147.635 294.207 147.123 294.07 146.683 293.798C146.243 293.518 145.903 293.138 145.663 292.658C145.423 292.178 145.303 291.634 145.303 291.026C145.303 290.418 145.423 289.878 145.663 289.406C145.903 288.926 146.243 288.55 146.683 288.278C147.131 288.006 147.647 287.87 148.231 287.87C148.727 287.87 149.159 287.97 149.527 288.17C149.903 288.37 150.191 288.65 150.391 289.01V285.422H151.399V294.062H150.487L150.403 293.066C150.275 293.266 150.111 293.454 149.911 293.63C149.711 293.798 149.471 293.938 149.191 294.05C148.911 294.155 148.587 294.207 148.219 294.207ZM148.339 293.33C148.739 293.33 149.091 293.234 149.395 293.042C149.699 292.85 149.935 292.586 150.103 292.25C150.271 291.906 150.355 291.502 150.355 291.038C150.355 290.582 150.271 290.182 150.103 289.838C149.935 289.494 149.699 289.226 149.395 289.034C149.091 288.842 148.739 288.746 148.339 288.746C147.947 288.746 147.599 288.842 147.295 289.034C146.991 289.226 146.755 289.494 146.587 289.838C146.419 290.182 146.335 290.582 146.335 291.038C146.335 291.502 146.419 291.906 146.587 292.25C146.755 292.586 146.991 292.85 147.295 293.042C147.599 293.234 147.947 293.33 148.339 293.33ZM155.73 294.207C155.162 294.207 154.658 294.074 154.218 293.81C153.786 293.546 153.446 293.178 153.198 292.706C152.95 292.226 152.826 291.67 152.826 291.038C152.826 290.398 152.946 289.842 153.186 289.37C153.434 288.898 153.778 288.53 154.218 288.266C154.666 288.002 155.178 287.87 155.754 287.87C156.346 287.87 156.846 288.002 157.254 288.266C157.67 288.53 157.986 288.878 158.202 289.31C158.426 289.734 158.538 290.202 158.538 290.714C158.538 290.794 158.538 290.878 158.538 290.966C158.538 291.054 158.534 291.154 158.526 291.266H153.582V290.486H157.554C157.53 289.934 157.346 289.502 157.002 289.19C156.666 288.878 156.242 288.722 155.73 288.722C155.386 288.722 155.066 288.802 154.77 288.962C154.482 289.114 154.25 289.342 154.074 289.646C153.898 289.942 153.81 290.314 153.81 290.762V291.098C153.81 291.594 153.898 292.01 154.074 292.346C154.258 292.682 154.494 292.934 154.782 293.102C155.078 293.27 155.394 293.354 155.73 293.354C156.154 293.354 156.502 293.262 156.774 293.078C157.054 292.886 157.254 292.63 157.374 292.31H158.37C158.274 292.67 158.106 292.994 157.866 293.282C157.626 293.57 157.326 293.798 156.966 293.966C156.614 294.126 156.202 294.207 155.73 294.207Z" fill="#9F9F9F"/>
<rect x="179" y="282.562" width="14" height="14" rx="4" fill="#D387FF"/>
<path d="M201.548 294.207C200.732 294.207 200.024 294.027 199.424 293.667C198.832 293.298 198.376 292.79 198.056 292.142C197.736 291.486 197.576 290.726 197.576 289.862C197.576 288.998 197.736 288.242 198.056 287.594C198.376 286.938 198.832 286.43 199.424 286.07C200.024 285.702 200.732 285.518 201.548 285.518C202.508 285.518 203.288 285.746 203.888 286.202C204.488 286.658 204.872 287.302 205.04 288.134H203.924C203.796 287.614 203.536 287.198 203.144 286.886C202.752 286.566 202.22 286.406 201.548 286.406C200.948 286.406 200.428 286.546 199.988 286.826C199.548 287.098 199.208 287.494 198.968 288.014C198.728 288.526 198.608 289.142 198.608 289.862C198.608 290.582 198.728 291.202 198.968 291.722C199.208 292.234 199.548 292.63 199.988 292.91C200.428 293.182 200.948 293.318 201.548 293.318C202.22 293.318 202.752 293.166 203.144 292.862C203.536 292.55 203.796 292.138 203.924 291.626H205.04C204.872 292.434 204.488 293.066 203.888 293.522C203.288 293.978 202.508 294.207 201.548 294.207ZM206.442 294.062V288.014H207.354L207.426 289.166C207.562 288.894 207.734 288.662 207.942 288.47C208.158 288.278 208.414 288.13 208.71 288.026C209.014 287.922 209.358 287.87 209.742 287.87V288.926H209.37C209.114 288.926 208.87 288.962 208.638 289.034C208.406 289.098 208.198 289.206 208.014 289.358C207.838 289.51 207.698 289.718 207.594 289.982C207.498 290.238 207.45 290.558 207.45 290.942V294.062H206.442ZM213.312 294.207C212.744 294.207 212.24 294.074 211.8 293.81C211.368 293.546 211.028 293.178 210.78 292.706C210.532 292.226 210.408 291.67 210.408 291.038C210.408 290.398 210.528 289.842 210.768 289.37C211.016 288.898 211.36 288.53 211.8 288.266C212.248 288.002 212.76 287.87 213.336 287.87C213.928 287.87 214.428 288.002 214.836 288.266C215.252 288.53 215.568 288.878 215.784 289.31C216.008 289.734 216.12 290.202 216.12 290.714C216.12 290.794 216.12 290.878 216.12 290.966C216.12 291.054 216.116 291.154 216.108 291.266H211.164V290.486H215.136C215.112 289.934 214.928 289.502 214.584 289.19C214.248 288.878 213.824 288.722 213.312 288.722C212.968 288.722 212.648 288.802 212.352 288.962C212.064 289.114 211.832 289.342 211.656 289.646C211.48 289.942 211.392 290.314 211.392 290.762V291.098C211.392 291.594 211.48 292.01 211.656 292.346C211.84 292.682 212.076 292.934 212.364 293.102C212.66 293.27 212.976 293.354 213.312 293.354C213.736 293.354 214.084 293.262 214.356 293.078C214.636 292.886 214.836 292.63 214.956 292.31H215.952C215.856 292.67 215.688 292.994 215.448 293.282C215.208 293.57 214.908 293.798 214.548 293.966C214.196 294.126 213.784 294.207 213.312 294.207ZM219.449 294.207C218.961 294.207 218.553 294.122 218.225 293.954C217.897 293.778 217.653 293.55 217.493 293.271C217.333 292.982 217.253 292.67 217.253 292.334C217.253 291.926 217.357 291.582 217.565 291.302C217.781 291.014 218.081 290.798 218.465 290.654C218.857 290.502 219.317 290.426 219.845 290.426H221.441C221.441 290.05 221.381 289.738 221.261 289.49C221.149 289.234 220.981 289.042 220.757 288.914C220.541 288.786 220.269 288.722 219.941 288.722C219.557 288.722 219.225 288.818 218.945 289.01C218.665 289.202 218.493 289.486 218.429 289.862H217.397C217.445 289.43 217.589 289.07 217.829 288.782C218.077 288.486 218.389 288.262 218.765 288.11C219.141 287.95 219.533 287.87 219.941 287.87C220.501 287.87 220.965 287.974 221.333 288.182C221.709 288.382 221.989 288.666 222.173 289.034C222.357 289.394 222.449 289.822 222.449 290.318V294.062H221.549L221.489 292.994C221.409 293.162 221.305 293.322 221.177 293.474C221.057 293.618 220.913 293.746 220.745 293.858C220.577 293.962 220.385 294.046 220.169 294.111C219.961 294.175 219.721 294.207 219.449 294.207ZM219.605 293.354C219.885 293.354 220.137 293.298 220.361 293.186C220.593 293.066 220.789 292.906 220.949 292.706C221.109 292.498 221.229 292.27 221.309 292.022C221.397 291.774 221.441 291.514 221.441 291.242V291.206H219.929C219.537 291.206 219.221 291.254 218.981 291.35C218.741 291.438 218.569 291.566 218.465 291.734C218.361 291.894 218.309 292.078 218.309 292.286C218.309 292.502 218.357 292.69 218.453 292.85C218.557 293.01 218.705 293.134 218.897 293.222C219.097 293.31 219.333 293.354 219.605 293.354ZM226.22 294.062C225.86 294.062 225.548 294.006 225.284 293.894C225.02 293.782 224.816 293.594 224.672 293.33C224.536 293.058 224.468 292.694 224.468 292.238V288.866H223.412V288.014H224.468L224.6 286.55H225.476V288.014H227.228V288.866H225.476V292.238C225.476 292.614 225.552 292.87 225.704 293.006C225.856 293.134 226.124 293.198 226.508 293.198H227.156V294.062H226.22ZM228.639 294.062V288.014H229.647V294.062H228.639ZM229.143 286.73C228.943 286.73 228.775 286.666 228.639 286.538C228.511 286.402 228.447 286.234 228.447 286.034C228.447 285.834 228.511 285.674 228.639 285.554C228.775 285.426 228.943 285.362 229.143 285.362C229.335 285.362 229.499 285.426 229.635 285.554C229.771 285.674 229.839 285.834 229.839 286.034C229.839 286.234 229.771 286.402 229.635 286.538C229.499 286.666 229.335 286.73 229.143 286.73ZM233.166 294.062L230.874 288.014H231.93L233.754 293.09L235.59 288.014H236.622L234.33 294.062H233.166ZM237.85 294.062V288.014H238.858V294.062H237.85ZM238.354 286.73C238.154 286.73 237.986 286.666 237.85 286.538C237.722 286.402 237.658 286.234 237.658 286.034C237.658 285.834 237.722 285.674 237.85 285.554C237.986 285.426 238.154 285.362 238.354 285.362C238.546 285.362 238.71 285.426 238.846 285.554C238.982 285.674 239.05 285.834 239.05 286.034C239.05 286.234 238.982 286.402 238.846 286.538C238.71 286.666 238.546 286.73 238.354 286.73ZM243.013 294.062C242.653 294.062 242.341 294.006 242.077 293.894C241.813 293.782 241.609 293.594 241.465 293.33C241.329 293.058 241.261 292.694 241.261 292.238V288.866H240.205V288.014H241.261L241.393 286.55H242.269V288.014H244.021V288.866H242.269V292.238C242.269 292.614 242.345 292.87 242.497 293.006C242.649 293.134 242.917 293.198 243.301 293.198H243.949V294.062H243.013ZM245.996 296.703L247.472 293.39H247.124L244.748 288.014H245.84L247.808 292.634L249.872 288.014H250.916L247.052 296.703H245.996Z" fill="#9F9F9F"/>
</svg>
