<svg width="16" height="16" viewBox="0 0 16 16" fill="none" xmlns="http://www.w3.org/2000/svg">
<g clip-path="url(#clip0_1_185)">
<path d="M1.00775 0.529664L2.04618 13.8145C2.06177 14.014 2.1968 14.1841 2.38756 14.2446L7.85181 15.977C7.94844 16.0077 8.05218 16.0077 8.14881 15.977L13.6131 14.2446C13.8038 14.1841 13.9389 14.014 13.9544 13.8145L14.9929 0.529664C15.0152 0.244046 14.7895 0 14.503 0H1.49764C1.21118 0 0.98545 0.244046 1.00775 0.529664ZM12.3299 4.65151H5.56222L5.76647 6.53493H12.1827L11.763 11.9043L8.00033 13.0972L4.23769 11.9043L4.01841 9.09911H5.99334V10.4751L8.0531 11.0279L10.1006 10.4751L10.2594 8.28217H3.95455L3.53596 2.9269H12.4647L12.3299 4.65151Z" fill="#FC490B"/>
</g>
<defs>
<clipPath id="clip0_1_185">
<rect width="16" height="16" fill="white"/>
</clipPath>
</defs>
</svg>
