<svg width="280" height="41" viewBox="0 0 280 41" fill="none" xmlns="http://www.w3.org/2000/svg">
<g style="mix-blend-mode:plus-lighter" opacity="0.4">
<rect x="0.875" y="0.480042" width="278.25" height="39.25" rx="7.625" fill="url(#paint0_linear_1_90)"/>
<rect x="0.875" y="0.480042" width="278.25" height="39.25" rx="7.625" stroke="url(#paint1_linear_1_90)" stroke-width="0.75"/>
<path d="M28.7496 25.297C28.035 25.297 27.411 25.1637 26.8776 24.897C26.355 24.6197 25.9496 24.225 25.6616 23.713C25.3736 23.1904 25.2296 22.561 25.2296 21.825H27.1496C27.1496 22.177 27.203 22.4864 27.3096 22.753C27.4163 23.0197 27.5816 23.2277 27.8056 23.377C28.0403 23.5157 28.339 23.585 28.7016 23.585C29.0643 23.585 29.3523 23.5157 29.5656 23.377C29.779 23.2384 29.9336 23.0464 30.0296 22.801C30.1363 22.545 30.1896 22.2517 30.1896 21.921V13.905H32.1096V21.921C32.1096 23.009 31.8056 23.8464 31.1976 24.433C30.6003 25.009 29.7843 25.297 28.7496 25.297ZM38.0664 25.297C37.2984 25.297 36.605 25.121 35.9864 24.769C35.3784 24.4064 34.8984 23.9104 34.5464 23.281C34.205 22.641 34.0344 21.9104 34.0344 21.089C34.0344 20.2464 34.2104 19.5104 34.5624 18.881C34.9144 18.241 35.3944 17.745 36.0024 17.393C36.621 17.0304 37.3144 16.849 38.0824 16.849C38.8504 16.849 39.5384 17.0304 40.1464 17.393C40.765 17.745 41.245 18.2357 41.5864 18.865C41.9384 19.4944 42.1144 20.2304 42.1144 21.073C42.1144 21.9157 41.9384 22.6517 41.5864 23.281C41.2344 23.9104 40.749 24.4064 40.1304 24.769C39.5224 25.121 38.8344 25.297 38.0664 25.297ZM38.0664 23.649C38.4504 23.649 38.797 23.553 39.1064 23.361C39.4264 23.169 39.6824 22.881 39.8744 22.497C40.0664 22.113 40.1624 21.6384 40.1624 21.073C40.1624 20.5077 40.0664 20.0384 39.8744 19.665C39.693 19.281 39.4424 18.993 39.1224 18.801C38.813 18.609 38.4664 18.513 38.0824 18.513C37.709 18.513 37.3624 18.609 37.0424 18.801C36.7224 18.993 36.4664 19.281 36.2744 19.665C36.0824 20.0384 35.9864 20.5077 35.9864 21.073C35.9864 21.6384 36.0824 22.113 36.2744 22.497C36.4664 22.881 36.717 23.169 37.0264 23.361C37.3464 23.553 37.693 23.649 38.0664 23.649ZM44.0739 25.105V17.041H45.9939V25.105H44.0739ZM45.0339 15.761C44.6819 15.761 44.3885 15.6544 44.1539 15.441C43.9299 15.217 43.8179 14.945 43.8179 14.625C43.8179 14.2944 43.9299 14.0277 44.1539 13.825C44.3885 13.6117 44.6819 13.505 45.0339 13.505C45.3859 13.505 45.6739 13.6117 45.8979 13.825C46.1325 14.0277 46.2499 14.2944 46.2499 14.625C46.2499 14.945 46.1325 15.217 45.8979 15.441C45.6739 15.6544 45.3859 15.761 45.0339 15.761ZM48.2126 25.105V17.041H49.9086L50.0526 18.385C50.298 17.9157 50.65 17.5424 51.1086 17.265C51.5673 16.9877 52.1113 16.849 52.7406 16.849C53.3913 16.849 53.946 16.9877 54.4046 17.265C54.8633 17.5317 55.2153 17.9264 55.4606 18.449C55.7166 18.9717 55.8446 19.6224 55.8446 20.401V25.105H53.9246V20.577C53.9246 19.905 53.7753 19.3877 53.4766 19.025C53.178 18.6624 52.7353 18.481 52.1486 18.481C51.7646 18.481 51.418 18.5717 51.1086 18.753C50.81 18.9344 50.57 19.201 50.3886 19.553C50.218 19.8944 50.1326 20.3104 50.1326 20.801V25.105H48.2126ZM66.9431 25.297C65.8658 25.297 64.9111 25.057 64.0791 24.577C63.2578 24.0864 62.6125 23.409 62.1431 22.545C61.6738 21.6704 61.4391 20.657 61.4391 19.505C61.4391 18.3637 61.6738 17.361 62.1431 16.497C62.6125 15.6224 63.2578 14.9397 64.0791 14.449C64.9111 13.9584 65.8658 13.713 66.9431 13.713C68.0418 13.713 69.0071 13.9584 69.8391 14.449C70.6711 14.9397 71.3165 15.6224 71.7751 16.497C72.2338 17.361 72.4631 18.3637 72.4631 19.505C72.4631 20.657 72.2338 21.6704 71.7751 22.545C71.3165 23.409 70.6711 24.0864 69.8391 24.577C69.0071 25.057 68.0418 25.297 66.9431 25.297ZM66.9591 23.569C67.6738 23.569 68.2978 23.409 68.8311 23.089C69.3645 22.7584 69.7751 22.289 70.0631 21.681C70.3511 21.073 70.4951 20.3477 70.4951 19.505C70.4951 18.6624 70.3511 17.937 70.0631 17.329C69.7751 16.721 69.3645 16.257 68.8311 15.937C68.2978 15.6064 67.6738 15.441 66.9591 15.441C66.2445 15.441 65.6205 15.6064 65.0871 15.937C64.5538 16.257 64.1378 16.721 63.8391 17.329C63.5511 17.937 63.4071 18.6624 63.4071 19.505C63.4071 20.3477 63.5511 21.073 63.8391 21.681C64.1378 22.289 64.5538 22.7584 65.0871 23.089C65.6205 23.409 66.2445 23.569 66.9591 23.569ZM78.0991 25.297C77.2885 25.297 76.5685 25.153 75.9391 24.865C75.3098 24.577 74.8191 24.1664 74.4671 23.633C74.1151 23.0997 73.9338 22.465 73.9231 21.729H75.9551C75.9551 22.1024 76.0405 22.4384 76.2111 22.737C76.3925 23.025 76.6378 23.2544 76.9471 23.425C77.2671 23.5957 77.6511 23.681 78.0991 23.681C78.4831 23.681 78.8138 23.6224 79.0911 23.505C79.3791 23.377 79.5978 23.201 79.7471 22.977C79.9071 22.7424 79.9871 22.4704 79.9871 22.161C79.9871 21.809 79.9018 21.521 79.7311 21.297C79.5711 21.0624 79.3471 20.865 79.0591 20.705C78.7711 20.545 78.4405 20.4064 78.0671 20.289C77.6938 20.161 77.2991 20.0277 76.8831 19.889C75.9978 19.5904 75.3311 19.2117 74.8831 18.753C74.4351 18.2837 74.2111 17.6597 74.2111 16.881C74.2111 16.2304 74.3658 15.6704 74.6751 15.201C74.9845 14.7317 75.4165 14.369 75.9711 14.113C76.5365 13.8464 77.1871 13.713 77.9231 13.713C78.6698 13.713 79.3205 13.8464 79.8751 14.113C80.4405 14.3797 80.8831 14.753 81.2031 15.233C81.5338 15.7024 81.7045 16.2677 81.7151 16.929H79.6671C79.6565 16.6517 79.5818 16.3957 79.4431 16.161C79.3045 15.9157 79.1018 15.7184 78.8351 15.569C78.5791 15.409 78.2645 15.329 77.8911 15.329C77.5711 15.3184 77.2831 15.3717 77.0271 15.489C76.7818 15.5957 76.5845 15.7557 76.4351 15.969C76.2965 16.1717 76.2271 16.4277 76.2271 16.737C76.2271 17.0357 76.2911 17.2864 76.4191 17.489C76.5578 17.681 76.7551 17.8464 77.0111 17.985C77.2671 18.113 77.5658 18.2357 77.9071 18.353C78.2485 18.4704 78.6218 18.5984 79.0271 18.737C79.5818 18.9184 80.0831 19.1424 80.5311 19.409C80.9898 19.665 81.3525 20.001 81.6191 20.417C81.8858 20.833 82.0191 21.3717 82.0191 22.033C82.0191 22.609 81.8698 23.1477 81.5711 23.649C81.2725 24.1397 80.8351 24.5397 80.2591 24.849C79.6831 25.1477 78.9631 25.297 78.0991 25.297ZM87.646 25.297C86.8353 25.297 86.1153 25.153 85.486 24.865C84.8567 24.577 84.366 24.1664 84.014 23.633C83.662 23.0997 83.4807 22.465 83.47 21.729H85.502C85.502 22.1024 85.5873 22.4384 85.758 22.737C85.9393 23.025 86.1847 23.2544 86.494 23.425C86.814 23.5957 87.198 23.681 87.646 23.681C88.03 23.681 88.3607 23.6224 88.638 23.505C88.926 23.377 89.1447 23.201 89.294 22.977C89.454 22.7424 89.534 22.4704 89.534 22.161C89.534 21.809 89.4487 21.521 89.278 21.297C89.118 21.0624 88.894 20.865 88.606 20.705C88.318 20.545 87.9873 20.4064 87.614 20.289C87.2407 20.161 86.846 20.0277 86.43 19.889C85.5447 19.5904 84.878 19.2117 84.43 18.753C83.982 18.2837 83.758 17.6597 83.758 16.881C83.758 16.2304 83.9127 15.6704 84.222 15.201C84.5313 14.7317 84.9633 14.369 85.518 14.113C86.0833 13.8464 86.734 13.713 87.47 13.713C88.2167 13.713 88.8673 13.8464 89.422 14.113C89.9873 14.3797 90.43 14.753 90.75 15.233C91.0807 15.7024 91.2513 16.2677 91.262 16.929H89.214C89.2033 16.6517 89.1287 16.3957 88.99 16.161C88.8513 15.9157 88.6487 15.7184 88.382 15.569C88.126 15.409 87.8113 15.329 87.438 15.329C87.118 15.3184 86.83 15.3717 86.574 15.489C86.3287 15.5957 86.1313 15.7557 85.982 15.969C85.8433 16.1717 85.774 16.4277 85.774 16.737C85.774 17.0357 85.838 17.2864 85.966 17.489C86.1047 17.681 86.302 17.8464 86.558 17.985C86.814 18.113 87.1127 18.2357 87.454 18.353C87.7953 18.4704 88.1687 18.5984 88.574 18.737C89.1287 18.9184 89.63 19.1424 90.078 19.409C90.5367 19.665 90.8993 20.001 91.166 20.417C91.4327 20.833 91.566 21.3717 91.566 22.033C91.566 22.609 91.4167 23.1477 91.118 23.649C90.8193 24.1397 90.382 24.5397 89.806 24.849C89.23 25.1477 88.51 25.297 87.646 25.297ZM102.315 25.297C101.206 25.297 100.246 25.057 99.4351 24.577C98.6351 24.0864 98.0165 23.409 97.5791 22.545C97.1525 21.6704 96.9391 20.6624 96.9391 19.521C96.9391 18.369 97.1525 17.361 97.5791 16.497C98.0165 15.6224 98.6351 14.9397 99.4351 14.449C100.246 13.9584 101.206 13.713 102.315 13.713C103.648 13.713 104.736 14.0437 105.579 14.705C106.422 15.3557 106.955 16.2784 107.179 17.473H105.067C104.918 16.8437 104.614 16.3477 104.155 15.985C103.696 15.6224 103.078 15.441 102.299 15.441C101.595 15.441 100.987 15.6064 100.475 15.937C99.9738 16.257 99.5845 16.7264 99.3071 17.345C99.0405 17.953 98.9071 18.6784 98.9071 19.521C98.9071 20.3637 99.0405 21.089 99.3071 21.697C99.5845 22.2944 99.9738 22.7584 100.475 23.089C100.987 23.409 101.595 23.569 102.299 23.569C103.078 23.569 103.696 23.4037 104.155 23.073C104.614 22.7317 104.918 22.2624 105.067 21.665H107.179C106.966 22.7957 106.432 23.6864 105.579 24.337C104.736 24.977 103.648 25.297 102.315 25.297ZM108.994 25.105V13.585H110.914V25.105H108.994ZM116.048 25.297C115.398 25.297 114.838 25.169 114.368 24.913C113.91 24.6464 113.558 24.2517 113.312 23.729C113.067 23.1957 112.944 22.5397 112.944 21.761V17.041H114.864V21.569C114.864 22.2624 115.008 22.7904 115.296 23.153C115.595 23.505 116.043 23.681 116.64 23.681C117.024 23.681 117.366 23.5904 117.664 23.409C117.974 23.2277 118.214 22.9664 118.384 22.625C118.566 22.273 118.656 21.8464 118.656 21.345V17.041H120.576V25.105H118.88L118.736 23.761C118.491 24.2304 118.134 24.6037 117.664 24.881C117.206 25.1584 116.667 25.297 116.048 25.297ZM127.321 25.297C126.894 25.297 126.51 25.2384 126.169 25.121C125.827 25.0144 125.529 24.865 125.273 24.673C125.017 24.4704 124.803 24.241 124.633 23.985L124.425 25.105H122.713V13.585H124.633V18.225C124.889 17.8304 125.235 17.505 125.673 17.249C126.11 16.9824 126.654 16.849 127.305 16.849C128.062 16.849 128.729 17.0357 129.305 17.409C129.891 17.7717 130.35 18.273 130.681 18.913C131.022 19.5424 131.193 20.2677 131.193 21.089C131.193 21.889 131.027 22.609 130.697 23.249C130.366 23.889 129.907 24.3904 129.321 24.753C128.745 25.1157 128.078 25.297 127.321 25.297ZM126.921 23.633C127.369 23.633 127.769 23.5264 128.121 23.313C128.473 23.089 128.745 22.7904 128.937 22.417C129.139 22.033 129.241 21.585 129.241 21.073C129.241 20.5717 129.139 20.129 128.937 19.745C128.745 19.361 128.473 19.0624 128.121 18.849C127.769 18.6357 127.369 18.529 126.921 18.529C126.462 18.529 126.057 18.6357 125.705 18.849C125.363 19.0624 125.091 19.361 124.889 19.745C124.697 20.129 124.601 20.5717 124.601 21.073C124.601 21.585 124.697 22.033 124.889 22.417C125.091 22.7904 125.363 23.089 125.705 23.313C126.057 23.5264 126.462 23.633 126.921 23.633ZM139.747 27.425C139.16 26.8384 138.632 26.1504 138.163 25.361C137.693 24.5824 137.32 23.7237 137.043 22.785C136.765 21.8464 136.627 20.8437 136.627 19.777C136.627 18.7104 136.765 17.7077 137.043 16.769C137.32 15.8304 137.693 14.9664 138.163 14.177C138.632 13.3877 139.16 12.705 139.747 12.129H141.683V12.305C141.043 12.977 140.483 13.713 140.003 14.513C139.533 15.3024 139.171 16.1397 138.915 17.025C138.659 17.9104 138.531 18.8277 138.531 19.777C138.531 20.7264 138.659 21.6437 138.915 22.529C139.171 23.4144 139.533 24.257 140.003 25.057C140.483 25.8464 141.043 26.577 141.683 27.249V27.425H139.747ZM147.474 25.297C146.397 25.297 145.442 25.057 144.61 24.577C143.789 24.0864 143.144 23.409 142.674 22.545C142.205 21.6704 141.97 20.657 141.97 19.505C141.97 18.3637 142.205 17.361 142.674 16.497C143.144 15.6224 143.789 14.9397 144.61 14.449C145.442 13.9584 146.397 13.713 147.474 13.713C148.573 13.713 149.538 13.9584 150.37 14.449C151.202 14.9397 151.848 15.6224 152.306 16.497C152.765 17.361 152.994 18.3637 152.994 19.505C152.994 20.657 152.765 21.6704 152.306 22.545C151.848 23.409 151.202 24.0864 150.37 24.577C149.538 25.057 148.573 25.297 147.474 25.297ZM147.49 23.569C148.205 23.569 148.829 23.409 149.362 23.089C149.896 22.7584 150.306 22.289 150.594 21.681C150.882 21.073 151.026 20.3477 151.026 19.505C151.026 18.6624 150.882 17.937 150.594 17.329C150.306 16.721 149.896 16.257 149.362 15.937C148.829 15.6064 148.205 15.441 147.49 15.441C146.776 15.441 146.152 15.6064 145.618 15.937C145.085 16.257 144.669 16.721 144.37 17.329C144.082 17.937 143.938 18.6624 143.938 19.505C143.938 20.3477 144.082 21.073 144.37 21.681C144.669 22.289 145.085 22.7584 145.618 23.089C146.152 23.409 146.776 23.569 147.49 23.569ZM154.806 28.625V17.041H156.518L156.726 18.209C156.897 17.9744 157.1 17.7557 157.334 17.553C157.58 17.3397 157.873 17.169 158.214 17.041C158.566 16.913 158.966 16.849 159.414 16.849C160.172 16.849 160.838 17.0357 161.414 17.409C162.001 17.7824 162.46 18.289 162.79 18.929C163.121 19.5584 163.286 20.2784 163.286 21.089C163.286 21.8997 163.116 22.625 162.774 23.265C162.444 23.8944 161.985 24.3904 161.398 24.753C160.822 25.1157 160.161 25.297 159.414 25.297C158.806 25.297 158.273 25.185 157.814 24.961C157.366 24.7264 157.004 24.3957 156.726 23.969V28.625H154.806ZM159.014 23.633C159.462 23.633 159.862 23.5264 160.214 23.313C160.566 23.0997 160.838 22.801 161.03 22.417C161.233 22.033 161.334 21.5904 161.334 21.089C161.334 20.577 161.233 20.129 161.03 19.745C160.838 19.361 160.566 19.0624 160.214 18.849C159.862 18.6357 159.462 18.529 159.014 18.529C158.556 18.529 158.15 18.6357 157.798 18.849C157.457 19.0624 157.185 19.361 156.982 19.745C156.79 20.129 156.694 20.5717 156.694 21.073C156.694 21.585 156.79 22.033 156.982 22.417C157.185 22.7904 157.457 23.089 157.798 23.313C158.15 23.5264 158.556 23.633 159.014 23.633ZM168.926 25.297C168.126 25.297 167.422 25.1264 166.814 24.785C166.206 24.433 165.731 23.9424 165.39 23.313C165.049 22.6837 164.878 21.9584 164.878 21.137C164.878 20.2837 165.043 19.537 165.374 18.897C165.715 18.257 166.19 17.7557 166.798 17.393C167.417 17.0304 168.131 16.849 168.942 16.849C169.731 16.849 170.419 17.025 171.006 17.377C171.593 17.729 172.046 18.2037 172.366 18.801C172.686 19.3877 172.846 20.049 172.846 20.785C172.846 20.8917 172.846 21.009 172.846 21.137C172.846 21.265 172.835 21.3984 172.814 21.537H166.254V20.305H170.91C170.889 19.7184 170.691 19.2597 170.318 18.929C169.945 18.5877 169.481 18.417 168.926 18.417C168.531 18.417 168.169 18.5077 167.838 18.689C167.507 18.8704 167.246 19.1424 167.054 19.505C166.862 19.857 166.766 20.305 166.766 20.849V21.313C166.766 21.8144 166.857 22.2464 167.038 22.609C167.23 22.9717 167.486 23.249 167.806 23.441C168.137 23.6224 168.505 23.713 168.91 23.713C169.358 23.713 169.726 23.617 170.014 23.425C170.313 23.233 170.531 22.977 170.67 22.657H172.622C172.473 23.1584 172.227 23.6117 171.886 24.017C171.545 24.4117 171.123 24.7264 170.622 24.961C170.121 25.185 169.555 25.297 168.926 25.297ZM174.619 25.105V17.041H176.315L176.459 18.385C176.704 17.9157 177.056 17.5424 177.515 17.265C177.974 16.9877 178.518 16.849 179.147 16.849C179.798 16.849 180.352 16.9877 180.811 17.265C181.27 17.5317 181.622 17.9264 181.867 18.449C182.123 18.9717 182.251 19.6224 182.251 20.401V25.105H180.331V20.577C180.331 19.905 180.182 19.3877 179.883 19.025C179.584 18.6624 179.142 18.481 178.555 18.481C178.171 18.481 177.824 18.5717 177.515 18.753C177.216 18.9344 176.976 19.201 176.795 19.553C176.624 19.8944 176.539 20.3104 176.539 20.801V25.105H174.619ZM184.355 25.105V17.041H186.275V25.105H184.355ZM185.315 15.761C184.963 15.761 184.67 15.6544 184.435 15.441C184.211 15.217 184.099 14.945 184.099 14.625C184.099 14.2944 184.211 14.0277 184.435 13.825C184.67 13.6117 184.963 13.505 185.315 13.505C185.667 13.505 185.955 13.6117 186.179 13.825C186.414 14.0277 186.531 14.2944 186.531 14.625C186.531 14.945 186.414 15.217 186.179 15.441C185.955 15.6544 185.667 15.761 185.315 15.761ZM188.494 25.105V17.041H190.19L190.334 18.385C190.579 17.9157 190.931 17.5424 191.39 17.265C191.849 16.9877 192.393 16.849 193.022 16.849C193.673 16.849 194.227 16.9877 194.686 17.265C195.145 17.5317 195.497 17.9264 195.742 18.449C195.998 18.9717 196.126 19.6224 196.126 20.401V25.105H194.206V20.577C194.206 19.905 194.057 19.3877 193.758 19.025C193.459 18.6624 193.017 18.481 192.43 18.481C192.046 18.481 191.699 18.5717 191.39 18.753C191.091 18.9344 190.851 19.201 190.67 19.553C190.499 19.8944 190.414 20.3104 190.414 20.801V25.105H188.494ZM201.542 28.817C200.785 28.817 200.118 28.721 199.542 28.529C198.977 28.3477 198.534 28.065 198.214 27.681C197.905 27.3077 197.75 26.8384 197.75 26.273C197.75 25.9424 197.83 25.617 197.99 25.297C198.161 24.9877 198.411 24.6997 198.742 24.433C199.083 24.1557 199.515 23.9157 200.038 23.713L200.886 24.641C200.374 24.8224 200.017 25.041 199.814 25.297C199.611 25.553 199.51 25.8144 199.51 26.081C199.51 26.3584 199.595 26.5877 199.766 26.769C199.947 26.961 200.187 27.105 200.486 27.201C200.795 27.297 201.142 27.345 201.526 27.345C201.899 27.345 202.225 27.2917 202.502 27.185C202.779 27.089 202.993 26.9504 203.142 26.769C203.302 26.5877 203.382 26.369 203.382 26.113C203.382 25.793 203.27 25.5317 203.046 25.329C202.822 25.137 202.379 25.0197 201.718 24.977C201.153 24.9344 200.657 24.8757 200.23 24.801C199.803 24.7157 199.435 24.6197 199.126 24.513C198.827 24.4064 198.571 24.289 198.358 24.161C198.145 24.0224 197.969 23.8837 197.83 23.745V23.377L199.51 21.617L200.934 22.081L199.046 23.921L199.542 22.993C199.649 23.0677 199.755 23.137 199.862 23.201C199.979 23.265 200.123 23.3237 200.294 23.377C200.475 23.4197 200.71 23.4624 200.998 23.505C201.286 23.5477 201.659 23.5904 202.118 23.633C202.833 23.6864 203.414 23.8144 203.862 24.017C204.31 24.2197 204.641 24.4917 204.854 24.833C205.067 25.1744 205.174 25.585 205.174 26.065C205.174 26.5344 205.041 26.977 204.774 27.393C204.518 27.809 204.123 28.1504 203.59 28.417C203.057 28.6837 202.374 28.817 201.542 28.817ZM201.542 22.689C200.87 22.689 200.289 22.561 199.798 22.305C199.318 22.0384 198.95 21.6864 198.694 21.249C198.438 20.801 198.31 20.3104 198.31 19.777C198.31 19.233 198.438 18.7424 198.694 18.305C198.95 17.8677 199.318 17.5157 199.798 17.249C200.289 16.9824 200.87 16.849 201.542 16.849C202.214 16.849 202.79 16.9824 203.27 17.249C203.75 17.5157 204.118 17.8677 204.374 18.305C204.63 18.7424 204.758 19.233 204.758 19.777C204.758 20.3104 204.63 20.801 204.374 21.249C204.118 21.6864 203.75 22.0384 203.27 22.305C202.79 22.561 202.214 22.689 201.542 22.689ZM201.542 21.201C202.001 21.201 202.369 21.0784 202.646 20.833C202.923 20.5877 203.062 20.2357 203.062 19.777C203.062 19.3184 202.923 18.9717 202.646 18.737C202.369 18.4917 202.001 18.369 201.542 18.369C201.083 18.369 200.71 18.4917 200.422 18.737C200.134 18.9717 199.99 19.3184 199.99 19.777C199.99 20.2357 200.134 20.5877 200.422 20.833C200.71 21.0784 201.083 21.201 201.542 21.201ZM202.87 18.449L202.502 17.041H205.814V18.241L202.87 18.449ZM215.24 25.297C214.429 25.297 213.709 25.153 213.08 24.865C212.45 24.577 211.96 24.1664 211.608 23.633C211.256 23.0997 211.074 22.465 211.064 21.729H213.096C213.096 22.1024 213.181 22.4384 213.352 22.737C213.533 23.025 213.778 23.2544 214.088 23.425C214.408 23.5957 214.792 23.681 215.24 23.681C215.624 23.681 215.954 23.6224 216.232 23.505C216.52 23.377 216.738 23.201 216.888 22.977C217.048 22.7424 217.128 22.4704 217.128 22.161C217.128 21.809 217.042 21.521 216.872 21.297C216.712 21.0624 216.488 20.865 216.2 20.705C215.912 20.545 215.581 20.4064 215.208 20.289C214.834 20.161 214.44 20.0277 214.024 19.889C213.138 19.5904 212.472 19.2117 212.024 18.753C211.576 18.2837 211.352 17.6597 211.352 16.881C211.352 16.2304 211.506 15.6704 211.816 15.201C212.125 14.7317 212.557 14.369 213.112 14.113C213.677 13.8464 214.328 13.713 215.064 13.713C215.81 13.713 216.461 13.8464 217.016 14.113C217.581 14.3797 218.024 14.753 218.344 15.233C218.674 15.7024 218.845 16.2677 218.856 16.929H216.808C216.797 16.6517 216.722 16.3957 216.584 16.161C216.445 15.9157 216.242 15.7184 215.976 15.569C215.72 15.409 215.405 15.329 215.032 15.329C214.712 15.3184 214.424 15.3717 214.168 15.489C213.922 15.5957 213.725 15.7557 213.576 15.969C213.437 16.1717 213.368 16.4277 213.368 16.737C213.368 17.0357 213.432 17.2864 213.56 17.489C213.698 17.681 213.896 17.8464 214.152 17.985C214.408 18.113 214.706 18.2357 215.048 18.353C215.389 18.4704 215.762 18.5984 216.168 18.737C216.722 18.9184 217.224 19.1424 217.672 19.409C218.13 19.665 218.493 20.001 218.76 20.417C219.026 20.833 219.16 21.3717 219.16 22.033C219.16 22.609 219.01 23.1477 218.712 23.649C218.413 24.1397 217.976 24.5397 217.4 24.849C216.824 25.1477 216.104 25.297 215.24 25.297ZM224.723 25.297C223.955 25.297 223.261 25.121 222.643 24.769C222.035 24.4064 221.555 23.9104 221.203 23.281C220.861 22.641 220.691 21.9104 220.691 21.089C220.691 20.2464 220.867 19.5104 221.219 18.881C221.571 18.241 222.051 17.745 222.659 17.393C223.277 17.0304 223.971 16.849 224.739 16.849C225.507 16.849 226.195 17.0304 226.803 17.393C227.421 17.745 227.901 18.2357 228.243 18.865C228.595 19.4944 228.771 20.2304 228.771 21.073C228.771 21.9157 228.595 22.6517 228.243 23.281C227.891 23.9104 227.405 24.4064 226.787 24.769C226.179 25.121 225.491 25.297 224.723 25.297ZM224.723 23.649C225.107 23.649 225.453 23.553 225.763 23.361C226.083 23.169 226.339 22.881 226.531 22.497C226.723 22.113 226.819 21.6384 226.819 21.073C226.819 20.5077 226.723 20.0384 226.531 19.665C226.349 19.281 226.099 18.993 225.779 18.801C225.469 18.609 225.123 18.513 224.739 18.513C224.365 18.513 224.019 18.609 223.699 18.801C223.379 18.993 223.123 19.281 222.931 19.665C222.739 20.0384 222.643 20.5077 222.643 21.073C222.643 21.6384 222.739 22.113 222.931 22.497C223.123 22.881 223.373 23.169 223.683 23.361C224.003 23.553 224.349 23.649 224.723 23.649ZM234.41 25.297C233.642 25.297 232.949 25.121 232.33 24.769C231.722 24.4064 231.242 23.9104 230.89 23.281C230.549 22.641 230.378 21.9104 230.378 21.089C230.378 20.2464 230.554 19.5104 230.906 18.881C231.258 18.241 231.738 17.745 232.346 17.393C232.965 17.0304 233.658 16.849 234.426 16.849C235.194 16.849 235.882 17.0304 236.49 17.393C237.109 17.745 237.589 18.2357 237.93 18.865C238.282 19.4944 238.458 20.2304 238.458 21.073C238.458 21.9157 238.282 22.6517 237.93 23.281C237.578 23.9104 237.093 24.4064 236.474 24.769C235.866 25.121 235.178 25.297 234.41 25.297ZM234.41 23.649C234.794 23.649 235.141 23.553 235.45 23.361C235.77 23.169 236.026 22.881 236.218 22.497C236.41 22.113 236.506 21.6384 236.506 21.073C236.506 20.5077 236.41 20.0384 236.218 19.665C236.037 19.281 235.786 18.993 235.466 18.801C235.157 18.609 234.81 18.513 234.426 18.513C234.053 18.513 233.706 18.609 233.386 18.801C233.066 18.993 232.81 19.281 232.618 19.665C232.426 20.0384 232.33 20.5077 232.33 21.073C232.33 21.6384 232.426 22.113 232.618 22.497C232.81 22.881 233.061 23.169 233.37 23.361C233.69 23.553 234.037 23.649 234.41 23.649ZM240.338 25.105V17.041H242.034L242.178 18.385C242.423 17.9157 242.775 17.5424 243.234 17.265C243.692 16.9877 244.236 16.849 244.866 16.849C245.516 16.849 246.071 16.9877 246.53 17.265C246.988 17.5317 247.34 17.9264 247.586 18.449C247.842 18.9717 247.97 19.6224 247.97 20.401V25.105H246.05V20.577C246.05 19.905 245.9 19.3877 245.602 19.025C245.303 18.6624 244.86 18.481 244.274 18.481C243.89 18.481 243.543 18.5717 243.234 18.753C242.935 18.9344 242.695 19.201 242.514 19.553C242.343 19.8944 242.258 20.3104 242.258 20.801V25.105H240.338ZM251.386 27.425H249.45V27.249C250.101 26.577 250.661 25.8464 251.13 25.057C251.599 24.257 251.962 23.4144 252.218 22.529C252.485 21.6437 252.618 20.7264 252.618 19.777C252.618 18.8277 252.485 17.9104 252.218 17.025C251.962 16.1397 251.599 15.3024 251.13 14.513C250.661 13.713 250.101 12.977 249.45 12.305V12.129H251.386C251.983 12.705 252.517 13.3877 252.986 14.177C253.455 14.9664 253.823 15.8304 254.09 16.769C254.367 17.7077 254.506 18.7104 254.506 19.777C254.506 20.8437 254.367 21.8464 254.09 22.785C253.823 23.7237 253.455 24.5824 252.986 25.361C252.517 26.1504 251.983 26.8384 251.386 27.425Z" fill="#F2F2F2"/>
</g>
<defs>
<linearGradient id="paint0_linear_1_90" x1="140.112" y1="40.1461" x2="140.445" y2="0.0518043" gradientUnits="userSpaceOnUse">
<stop stop-color="#E13E00"/>
<stop offset="1" stop-color="#FF812A"/>
</linearGradient>
<linearGradient id="paint1_linear_1_90" x1="140" y1="0.105042" x2="140" y2="40.105" gradientUnits="userSpaceOnUse">
<stop stop-color="white"/>
<stop offset="0.0001" stop-color="#FFFEFE"/>
<stop offset="1" stop-color="#F25011"/>
</linearGradient>
</defs>
</svg>
