<svg width="16" height="16" viewBox="0 0 16 16" fill="none" xmlns="http://www.w3.org/2000/svg">
<g clip-path="url(#clip0_479_1112)">
<path d="M0 0H16V16H0V0Z" fill="#FFDF00"/>
<path d="M10.748 12.5001C11.0703 13.0264 11.4896 13.4131 12.2312 13.4131C12.8542 13.4131 13.2521 13.1018 13.2521 12.6716C13.2521 12.156 12.8433 11.9734 12.1575 11.6735L11.7817 11.5122C10.6967 11.05 9.97595 10.4709 9.97595 9.24677C9.97595 8.11915 10.8351 7.26074 12.1779 7.26074C13.1338 7.26074 13.821 7.59343 14.3163 8.46455L13.1455 9.2163C12.8877 8.75409 12.6096 8.57199 12.1779 8.57199C11.7375 8.57199 11.4584 8.85137 11.4584 9.2163C11.4584 9.66737 11.7377 9.84996 12.3828 10.1293L12.7587 10.2903C14.0361 10.8381 14.7574 11.3966 14.7574 12.6522C14.7574 14.0059 13.694 14.7475 12.266 14.7475C10.8696 14.7475 9.96755 14.0821 9.52614 13.21L10.748 12.5001ZM5.43677 12.6304C5.67295 13.0495 5.88783 13.4038 6.40439 13.4038C6.89836 13.4038 7.20998 13.2105 7.20998 12.459V7.34662H8.71348V12.4793C8.71348 14.0361 7.80073 14.7447 6.46839 14.7447C5.26458 14.7447 4.56745 14.1217 4.21289 13.3714L5.43677 12.6304Z" fill="black"/>
</g>
<defs>
<clipPath id="clip0_479_1112">
<rect width="16" height="16" fill="white"/>
</clipPath>
</defs>
</svg>
