<svg width="16" height="17" viewBox="0 0 16 17" fill="none" xmlns="http://www.w3.org/2000/svg">
<rect y="0.125" width="16" height="16" rx="8" fill="#34A23B"/>
<g clip-path="url(#clip0_241_1287)">
<path d="M11.4143 8.4502H10.6719C10.7476 8.65738 10.7889 8.88098 10.7889 9.11402V11.92C10.7889 12.0171 10.772 12.1104 10.7412 12.1971H11.9686C12.4271 12.1971 12.8001 11.8241 12.8001 11.3656V9.83599C12.8001 9.07187 12.1784 8.4502 11.4143 8.4502Z" fill="black"/>
<path d="M5.21142 9.11402C5.21142 8.88096 5.25276 8.65738 5.32844 8.4502H4.58601C3.82187 8.4502 3.2002 9.07187 3.2002 9.83601V11.3657C3.2002 11.8241 3.57319 12.1971 4.03168 12.1971H5.2591C5.22833 12.1104 5.21142 12.0171 5.21142 11.92V9.11402Z" fill="black"/>
<path d="M8.84873 7.72803H7.15144C6.3873 7.72803 5.76562 8.3497 5.76562 9.11384V11.9198C5.76562 12.0728 5.88971 12.1969 6.04279 12.1969H9.95738C10.1105 12.1969 10.2345 12.0729 10.2345 11.9198V9.11384C10.2345 8.3497 9.61287 7.72803 8.84873 7.72803Z" fill="black"/>
<path d="M8.0006 4.05322C7.08162 4.05322 6.33398 4.80086 6.33398 5.71986C6.33398 6.3432 6.67803 6.88761 7.18612 7.17344C7.42711 7.309 7.70495 7.38647 8.0006 7.38647C8.29625 7.38647 8.57409 7.309 8.81508 7.17344C9.32319 6.88761 9.66722 6.34318 9.66722 5.71986C9.66722 4.80088 8.91958 4.05322 8.0006 4.05322Z" fill="black"/>
<path d="M5.07356 5.60693C4.38627 5.60693 3.82715 6.16606 3.82715 6.85334C3.82715 7.54062 4.38627 8.09975 5.07356 8.09975C5.24789 8.09975 5.41391 8.06364 5.56471 7.99873C5.82545 7.88647 6.04044 7.68776 6.17347 7.43885C6.26685 7.26416 6.31997 7.06486 6.31997 6.85334C6.31997 6.16608 5.76084 5.60693 5.07356 5.60693Z" fill="black"/>
<path d="M10.9271 5.60693C10.2398 5.60693 9.68066 6.16606 9.68066 6.85334C9.68066 7.06488 9.73378 7.26417 9.82716 7.43885C9.96019 7.68778 10.1752 7.88649 10.4359 7.99873C10.5867 8.06364 10.7527 8.09975 10.9271 8.09975C11.6144 8.09975 12.1735 7.54062 12.1735 6.85334C12.1735 6.16606 11.6144 5.60693 10.9271 5.60693Z" fill="black"/>
</g>
<defs>
<clipPath id="clip0_241_1287">
<rect width="9.6" height="9.6" fill="white" transform="translate(3.2002 3.3252)"/>
</clipPath>
</defs>
</svg>
