<svg width="16" height="16" viewBox="0 0 16 16" fill="none" xmlns="http://www.w3.org/2000/svg">
<rect width="16" height="16" rx="8" fill="#34A23B"/>
<g clip-path="url(#clip0_1_526)">
<path d="M8.00006 3.2002C6.60433 3.2002 5.46881 4.33571 5.46881 5.73145C5.46881 7.12718 6.60433 8.2627 8.00006 8.2627C9.39579 8.2627 10.5313 7.12718 10.5313 5.73145C10.5313 4.33571 9.39579 3.2002 8.00006 3.2002Z" fill="black"/>
<path d="M11.1494 9.91635C10.4564 9.2127 9.53773 8.8252 8.56256 8.8252H7.43756C6.46241 8.8252 5.5437 9.2127 4.8507 9.91635C4.16109 10.6166 3.78131 11.5408 3.78131 12.5189C3.78131 12.6743 3.90724 12.8002 4.06256 12.8002H11.9376C12.0929 12.8002 12.2188 12.6743 12.2188 12.5189C12.2188 11.5408 11.839 10.6166 11.1494 9.91635Z" fill="black"/>
</g>
<defs>
<clipPath id="clip0_1_526">
<rect width="9.6" height="9.6" fill="white" transform="translate(3.20001 3.2002)"/>
</clipPath>
</defs>
</svg>
