<svg width="192" height="168" viewBox="0 0 192 168" fill="none" xmlns="http://www.w3.org/2000/svg">
<rect width="192" height="168" rx="6" fill="#2A2A2A"/>
<g clip-path="url(#clip0_95_154)">
<path fill-rule="evenodd" clip-rule="evenodd" d="M58.0001 11.7778H81.1112V17.5556H92.6667V11.7778H98.4445V29.1112H92.6667V34.8889H98.4445V52.2223H92.6667V46.4445H86.8889V40.6667H81.1112V46.4445H75.3334V40.6667H69.5556V29.1112H75.3334V17.5556H58.0001V11.7778ZM81.1112 23.3334H86.8889V34.8889H81.1112V23.3334ZM63.7778 23.3334H69.5556V29.1112H63.7778V23.3334ZM98.4445 29.1112H110V34.8889H98.4445V29.1112ZM63.7778 40.6667H69.5556V46.4445H63.7778V40.6667ZM58.0001 46.4445H63.7778V52.2223H69.5556V63.7778H63.7778V58.0001H58.0001V46.4445ZM69.5556 46.4445H75.3334V52.2223H69.5556V46.4445ZM81.1112 46.4445H86.8889V52.2223H92.6667V58.0001H86.8889V63.7778H81.1112V46.4445ZM104.222 46.4445H110V52.2223H104.222V46.4445ZM98.4445 52.2223H104.222V69.5556H110V63.7778H115.778V69.5556H121.556V63.7778H150.444V69.5556H138.889V75.3334H150.444V69.5556H156.222V86.8889H150.444V81.1112H133.111V75.3334H115.778V81.1112H121.556V86.8889H110V92.6667H115.778V98.4445H127.333V104.222H133.111V133.111H121.556V138.889H115.778V144.667H127.333V138.889H144.667V133.111H156.222V156.222H150.444V150.444H138.889V144.667H133.111V150.444H110V144.667H104.222V138.889H110V133.111H104.222V138.889H98.4445V133.111H92.6667V138.889H86.8889V133.111H81.1112V127.333H75.3334V115.778H81.1112V121.556H86.8889V115.778H92.6667V110H98.4445V121.556H92.6667V127.333H98.4445V121.556H104.222V110H98.4445V104.222H110V98.4445H92.6667V92.6667H98.4445V81.1112H110V75.3334H98.4445V69.5556H92.6667V75.3334H81.1112V69.5556H86.8889V63.7778H98.4445V52.2223ZM110 110H127.333V127.333H110V110ZM11.7778 58.0001H23.3334V63.7778H11.7778V58.0001ZM29.1112 58.0001H40.6667V63.7778H34.8889V69.5556H29.1112V86.8889H23.3334V92.6667H34.8889V110H29.1112V104.222H23.3334V98.4445H17.5556V110H11.7778V81.1112H17.5556V75.3334H23.3334V63.7778H29.1112V58.0001ZM46.4445 58.0001H52.2223V63.7778H46.4445V58.0001ZM115.778 58.0001H121.556V63.7778H115.778V58.0001ZM150.444 58.0001H156.222V63.7778H150.444V58.0001ZM40.6667 63.7778H46.4445V69.5556H40.6667V63.7778ZM52.2223 63.7778H63.7778V69.5556H52.2223V63.7778ZM69.5556 63.7778H75.3334V69.5556H69.5556V63.7778ZM46.4445 69.5556H52.2223V75.3334H46.4445V69.5556ZM63.7778 69.5556H69.5556V75.3334H63.7778V69.5556ZM92.6667 75.3334H98.4445V81.1112H92.6667V75.3334ZM46.4445 81.1112H75.3334V92.6667H69.5556V86.8889H63.7778V92.6667H58.0001V86.8889H46.4445V81.1112ZM81.1112 81.1112H86.8889V86.8889H92.6667V92.6667H81.1112V81.1112ZM40.6667 86.8889H46.4445V92.6667H52.2223V98.4445H46.4445V104.222H63.7778V110H69.5556V115.778H58.0001V110H40.6667V86.8889ZM127.333 86.8889H133.111V92.6667H144.667V86.8889H150.444V92.6667H156.222V104.222H150.444V98.4445H144.667V104.222H150.444V115.778H138.889V104.222H133.111V98.4445H127.333V86.8889ZM63.7778 92.6667H69.5556V104.222H63.7778V92.6667ZM81.1112 98.4445H86.8889V104.222H81.1112V98.4445ZM69.5556 104.222H81.1112V110H69.5556V104.222ZM115.778 115.778H121.556V121.556H115.778V115.778ZM150.444 115.778H156.222V121.556H150.444V115.778ZM63.7778 121.556H69.5556V127.333H75.3334V133.111H63.7778V138.889H58.0001V127.333H63.7778V121.556ZM63.7778 138.889H86.8889V144.667H75.3334V150.444H69.5556V144.667H63.7778V138.889ZM92.6667 138.889H98.4445V156.222H92.6667V138.889ZM58.0001 144.667H63.7778V150.444H69.5556V156.222H58.0001V144.667ZM75.3334 150.444H81.1112V156.222H75.3334V150.444ZM104.222 150.444H110V156.222H104.222V150.444ZM133.111 150.444H138.889V156.222H133.111V150.444Z" fill="white"/>
<path fill-rule="evenodd" clip-rule="evenodd" d="M11.7778 11.7778H52.2223V52.2223H11.7778V11.7778ZM17.5556 17.5556H46.4445V46.4445H17.5556V17.5556ZM23.3334 23.3334H40.6667V40.6667H23.3334V23.3334ZM115.778 11.7778H156.222V52.2223H115.778V11.7778ZM121.556 17.5556H150.444V46.4445H121.556V17.5556ZM127.333 23.3334H144.667V40.6667H127.333V23.3334ZM11.7778 115.778H52.2223V156.222H11.7778V115.778ZM17.5556 121.556H46.4445V150.444H17.5556V121.556ZM23.3334 127.333H40.6667V144.667H23.3334V127.333Z" fill="white"/>
</g>
<path d="M169.856 53.0361C169.856 52.4201 169.964 51.8801 170.18 51.4161C170.404 50.9521 170.716 50.5921 171.116 50.3361C171.516 50.0801 171.984 49.9521 172.52 49.9521V51.2121C172.216 51.2201 171.936 51.2921 171.68 51.4281C171.432 51.5721 171.232 51.7761 171.08 52.0401C170.936 52.3121 170.864 52.6441 170.864 53.0361C170.864 53.3721 170.92 53.6601 171.032 53.9001C171.144 54.1481 171.296 54.3361 171.488 54.4641C171.688 54.5921 171.916 54.6561 172.172 54.6561C172.468 54.6561 172.712 54.5881 172.904 54.4521C173.096 54.3161 173.252 54.1321 173.372 53.9001C173.5 53.6761 173.612 53.4121 173.708 53.1081C173.804 52.8121 173.908 52.5001 174.02 52.1721C174.236 51.5081 174.516 51.0121 174.86 50.6841C175.204 50.3641 175.652 50.2041 176.204 50.2041C176.676 50.2041 177.084 50.3161 177.428 50.5401C177.78 50.7641 178.052 51.0761 178.244 51.4761C178.444 51.8841 178.544 52.3641 178.544 52.9161C178.544 53.4601 178.444 53.9361 178.244 54.3441C178.044 54.7521 177.768 55.0721 177.416 55.3041C177.064 55.5361 176.652 55.6521 176.18 55.6521V54.3801C176.396 54.3801 176.608 54.3241 176.816 54.2121C177.024 54.1001 177.192 53.9321 177.32 53.7081C177.456 53.4841 177.524 53.2081 177.524 52.8801C177.532 52.6081 177.488 52.3641 177.392 52.1481C177.296 51.9321 177.156 51.7641 176.972 51.6441C176.788 51.5241 176.568 51.4641 176.312 51.4641C176.056 51.4641 175.848 51.5161 175.688 51.6201C175.536 51.7321 175.404 51.8921 175.292 52.1001C175.18 52.3081 175.076 52.5481 174.98 52.8201C174.892 53.1001 174.792 53.4081 174.68 53.7441C174.544 54.1601 174.376 54.5281 174.176 54.8481C173.984 55.1761 173.732 55.4321 173.42 55.6161C173.116 55.8081 172.724 55.9041 172.244 55.9041C171.828 55.9041 171.44 55.7961 171.08 55.5801C170.72 55.3641 170.424 55.0441 170.192 54.6201C169.968 54.1961 169.856 53.6681 169.856 53.0361ZM169.856 60.0671C169.856 59.4831 169.988 58.9631 170.252 58.5071C170.524 58.0511 170.896 57.6911 171.368 57.4271C171.84 57.1711 172.388 57.0431 173.012 57.0431C173.644 57.0431 174.196 57.1711 174.668 57.4271C175.148 57.6911 175.52 58.0511 175.784 58.5071C176.056 58.9631 176.192 59.4831 176.192 60.0671C176.192 60.8031 176 61.4191 175.616 61.9151C175.232 62.4111 174.712 62.7271 174.056 62.8631V61.6151C174.408 61.5351 174.68 61.3511 174.872 61.0631C175.064 60.7831 175.16 60.4471 175.16 60.0551C175.16 59.7351 175.076 59.4391 174.908 59.1671C174.748 58.8951 174.508 58.6751 174.188 58.5071C173.876 58.3471 173.488 58.2671 173.024 58.2671C172.68 58.2671 172.372 58.3151 172.1 58.4111C171.836 58.5071 171.612 58.6351 171.428 58.7951C171.244 58.9631 171.104 59.1551 171.008 59.3711C170.92 59.5871 170.876 59.8151 170.876 60.0551C170.876 60.3191 170.916 60.5551 170.996 60.7631C171.084 60.9791 171.212 61.1591 171.38 61.3031C171.548 61.4551 171.748 61.5591 171.98 61.6151V62.8631C171.34 62.7271 170.824 62.4111 170.432 61.9151C170.048 61.4191 169.856 60.8031 169.856 60.0671ZM169.856 66.2712C169.856 65.7752 169.94 65.3632 170.108 65.0352C170.276 64.7072 170.5 64.4632 170.78 64.3032C171.068 64.1432 171.376 64.0632 171.704 64.0632C172.104 64.0632 172.444 64.1672 172.724 64.3752C173.012 64.5832 173.232 64.8792 173.384 65.2632C173.536 65.6472 173.612 66.1072 173.612 66.6432V68.2152C173.964 68.2152 174.256 68.1632 174.488 68.0592C174.72 67.9552 174.892 67.7992 175.004 67.5912C175.124 67.3912 175.184 67.1352 175.184 66.8232C175.184 66.4632 175.096 66.1552 174.92 65.8992C174.752 65.6432 174.5 65.4832 174.164 65.4192V64.2192C174.588 64.2672 174.948 64.4112 175.244 64.6512C175.548 64.8992 175.78 65.2152 175.94 65.5992C176.108 65.9832 176.192 66.3912 176.192 66.8232C176.192 67.3912 176.092 67.8672 175.892 68.2512C175.692 68.6352 175.408 68.9232 175.04 69.1152C174.68 69.3152 174.248 69.4152 173.744 69.4152H170V68.3712L171.02 68.2752C170.86 68.1872 170.708 68.0832 170.564 67.9632C170.42 67.8432 170.296 67.6992 170.192 67.5312C170.088 67.3712 170.008 67.1832 169.952 66.9672C169.888 66.7592 169.856 66.5272 169.856 66.2712ZM170.828 66.4992C170.828 66.7552 170.88 66.9872 170.984 67.1952C171.088 67.4032 171.228 67.5792 171.404 67.7232C171.588 67.8752 171.792 67.9872 172.016 68.0592C172.248 68.1392 172.484 68.1832 172.724 68.1912H172.76V66.7632C172.76 66.4192 172.716 66.1392 172.628 65.9232C172.548 65.7152 172.436 65.5632 172.292 65.4672C172.148 65.3712 171.98 65.3232 171.788 65.3232C171.588 65.3232 171.416 65.3672 171.272 65.4552C171.136 65.5512 171.028 65.6872 170.948 65.8632C170.868 66.0392 170.828 66.2512 170.828 66.4992ZM170 70.9469H176.048V72.0269L175.016 72.0989C175.376 72.2909 175.66 72.5629 175.868 72.9149C176.084 73.2669 176.192 73.6709 176.192 74.1269C176.192 74.6069 176.096 75.0189 175.904 75.3629C175.712 75.7069 175.42 75.9749 175.028 76.1669C174.644 76.3589 174.16 76.4549 173.576 76.4549H170V75.2549H173.456C174.016 75.2549 174.44 75.1309 174.728 74.8829C175.016 74.6349 175.16 74.2749 175.16 73.8029C175.16 73.4909 175.084 73.2109 174.932 72.9629C174.788 72.7149 174.572 72.5149 174.284 72.3629C173.996 72.2189 173.644 72.1469 173.228 72.1469H170V70.9469ZM170 83.5561C170 83.1721 170.06 82.8401 170.18 82.5601C170.3 82.2801 170.5 82.0641 170.78 81.9121C171.06 81.7601 171.44 81.6841 171.92 81.6841H175.028V80.6401H176.048V81.6841L177.56 81.8281V82.8841H176.048V84.6001H175.028V82.8841H171.908C171.564 82.8841 171.328 82.9561 171.2 83.1001C171.08 83.2441 171.02 83.4921 171.02 83.8441V84.5401H170V83.5561ZM169.856 88.5194C169.856 87.9514 169.988 87.4394 170.252 86.9834C170.516 86.5354 170.884 86.1794 171.356 85.9154C171.836 85.6594 172.388 85.5314 173.012 85.5314C173.652 85.5314 174.208 85.6634 174.68 85.9274C175.16 86.1914 175.532 86.5514 175.796 87.0074C176.06 87.4634 176.192 87.9754 176.192 88.5434C176.192 89.1194 176.06 89.6314 175.796 90.0794C175.532 90.5274 175.164 90.8794 174.692 91.1354C174.22 91.3994 173.664 91.5314 173.024 91.5314C172.384 91.5314 171.828 91.3994 171.356 91.1354C170.884 90.8794 170.516 90.5234 170.252 90.0674C169.988 89.6114 169.856 89.0954 169.856 88.5194ZM170.888 88.5194C170.888 88.8474 170.968 89.1434 171.128 89.4074C171.288 89.6794 171.524 89.8954 171.836 90.0554C172.156 90.2234 172.552 90.3074 173.024 90.3074C173.496 90.3074 173.888 90.2274 174.2 90.0674C174.52 89.9074 174.76 89.6914 174.92 89.4194C175.08 89.1554 175.16 88.8634 175.16 88.5434C175.16 88.2234 175.08 87.9274 174.92 87.6554C174.76 87.3834 174.52 87.1634 174.2 86.9954C173.888 86.8354 173.496 86.7554 173.024 86.7554C172.552 86.7554 172.156 86.8354 171.836 86.9954C171.524 87.1634 171.288 87.3794 171.128 87.6434C170.968 87.9154 170.888 88.2074 170.888 88.5194ZM169.856 98.0653C169.856 97.5453 169.952 97.0973 170.144 96.7213C170.344 96.3453 170.632 96.0533 171.008 95.8453C171.384 95.6373 171.832 95.5333 172.352 95.5333V96.7453C172.08 96.7453 171.836 96.7893 171.62 96.8773C171.404 96.9653 171.232 97.1013 171.104 97.2853C170.984 97.4773 170.924 97.7293 170.924 98.0413C170.924 98.3533 170.984 98.5973 171.104 98.7733C171.224 98.9573 171.384 99.0893 171.584 99.1693C171.792 99.2493 172.028 99.2893 172.292 99.2893H178.4V100.489H172.292C171.516 100.489 170.916 100.273 170.492 99.8413C170.068 99.4093 169.856 98.8173 169.856 98.0653ZM169.856 104.937C169.856 104.369 169.988 103.857 170.252 103.401C170.516 102.953 170.884 102.597 171.356 102.333C171.836 102.077 172.388 101.949 173.012 101.949C173.652 101.949 174.208 102.081 174.68 102.345C175.16 102.609 175.532 102.969 175.796 103.425C176.06 103.881 176.192 104.393 176.192 104.961C176.192 105.537 176.06 106.049 175.796 106.497C175.532 106.945 175.164 107.297 174.692 107.553C174.22 107.817 173.664 107.949 173.024 107.949C172.384 107.949 171.828 107.817 171.356 107.553C170.884 107.297 170.516 106.941 170.252 106.485C169.988 106.029 169.856 105.513 169.856 104.937ZM170.888 104.937C170.888 105.265 170.968 105.561 171.128 105.825C171.288 106.097 171.524 106.313 171.836 106.473C172.156 106.641 172.552 106.725 173.024 106.725C173.496 106.725 173.888 106.645 174.2 106.485C174.52 106.325 174.76 106.109 174.92 105.837C175.08 105.573 175.16 105.281 175.16 104.961C175.16 104.641 175.08 104.345 174.92 104.073C174.76 103.801 174.52 103.581 174.2 103.413C173.888 103.253 173.496 103.173 173.024 103.173C172.552 103.173 172.156 103.253 171.836 103.413C171.524 103.581 171.288 103.797 171.128 104.061C170.968 104.333 170.888 104.625 170.888 104.937ZM170 109.445H176.048V110.645H170V109.445ZM177.188 110.057C177.188 109.825 177.26 109.633 177.404 109.481C177.548 109.337 177.732 109.265 177.956 109.265C178.172 109.265 178.348 109.337 178.484 109.481C178.628 109.633 178.7 109.825 178.7 110.057C178.7 110.281 178.628 110.469 178.484 110.621C178.348 110.773 178.172 110.849 177.956 110.849C177.732 110.849 177.548 110.773 177.404 110.621C177.26 110.469 177.188 110.281 177.188 110.057ZM170 112.361H176.048V113.441L175.016 113.513C175.376 113.705 175.66 113.977 175.868 114.329C176.084 114.681 176.192 115.085 176.192 115.541C176.192 116.021 176.096 116.433 175.904 116.777C175.712 117.121 175.42 117.389 175.028 117.581C174.644 117.773 174.16 117.869 173.576 117.869H170V116.669H173.456C174.016 116.669 174.44 116.545 174.728 116.297C175.016 116.049 175.16 115.689 175.16 115.217C175.16 114.905 175.084 114.625 174.932 114.377C174.788 114.129 174.572 113.929 174.284 113.777C173.996 113.633 173.644 113.561 173.228 113.561H170V112.361Z" fill="white"/>
<defs>
<clipPath id="clip0_95_154">
<rect width="156" height="156" fill="white" transform="translate(6 6)"/>
</clipPath>
</defs>
</svg>
