<svg width="276" height="330" viewBox="0 0 276 330" fill="none" xmlns="http://www.w3.org/2000/svg">
<mask id="path-1-inside-1_1_537" fill="white">
<path d="M0 0H276V329.125H0V0Z"/>
</mask>
<path d="M276 0H275V329.125H276H277V0H276Z" fill="#2A2A2A" mask="url(#path-1-inside-1_1_537)"/>
<circle cx="138.444" cy="144" r="100.722" stroke="#2A2A2A"/>
<line x1="139.953" y1="243.5" x2="139.953" y2="43.5" stroke="#2A2A2A" stroke-linecap="round"/>
<line x1="38.4998" y1="143.5" x2="238.389" y2="143.5" stroke="#2A2A2A" stroke-linecap="round"/>
<line x1="0.5" y1="-0.5" x2="199.945" y2="-0.5" transform="matrix(0.708673 -0.705537 0.708673 0.705537 68.1331 215.421)" stroke="#2A2A2A" stroke-linecap="round"/>
<line x1="0.5" y1="-0.5" x2="199.945" y2="-0.5" transform="matrix(0.708673 0.705537 -0.708673 0.705537 68.1331 73)" stroke="#2A2A2A" stroke-linecap="round"/>
<path d="M139.449 119.5C153.043 119.5 164.06 130.471 164.06 144C164.06 157.529 153.043 168.5 139.449 168.5C125.854 168.5 114.838 157.529 114.838 144C114.838 130.471 125.854 119.5 139.449 119.5Z" fill="#111111" stroke="#2A2A2A"/>
<path d="M188.419 143.562C188.419 171.006 166.072 193.254 138.507 193.254C110.941 193.254 88.5944 171.006 88.5944 143.562C88.5944 116.119 110.941 93.8711 138.507 93.8711C166.072 93.8711 188.419 116.119 188.419 143.562ZM106.064 143.562C106.064 161.401 120.589 175.862 138.507 175.862C156.424 175.862 170.95 161.401 170.95 143.562C170.95 125.724 156.424 111.263 138.507 111.263C120.589 111.263 106.064 125.724 106.064 143.562Z" fill="#241C28"/>
<path d="M207.796 143.563C207.796 181.83 176.774 212.852 138.507 212.852C100.239 212.852 69.2175 181.83 69.2175 143.563C69.2175 105.295 100.239 74.2734 138.507 74.2734C176.774 74.2734 207.796 105.295 207.796 143.563ZM86.2434 143.563C86.2434 172.427 109.643 195.826 138.507 195.826C167.371 195.826 190.77 172.427 190.77 143.563C190.77 114.698 167.371 91.2994 138.507 91.2994C109.643 91.2994 86.2434 114.698 86.2434 143.563Z" fill="#281C13"/>
<path d="M225.618 143.562C225.618 191.887 186.443 231.062 138.118 231.062C89.7929 231.062 50.6178 191.887 50.6178 143.562C50.6178 95.2376 89.7929 56.0625 138.118 56.0625C186.443 56.0625 225.618 95.2376 225.618 143.562ZM66.6126 143.562C66.6126 183.054 98.6266 215.068 138.118 215.068C177.609 215.068 209.623 183.054 209.623 143.562C209.623 104.071 177.609 72.0573 138.118 72.0573C98.6266 72.0573 66.6126 104.071 66.6126 143.562Z" fill="#282828"/>
<path d="M92.5944 143.562C90.3853 143.562 88.5776 141.769 88.756 139.567C89.1739 134.41 90.3988 129.341 92.3938 124.546C94.9021 118.518 98.5786 113.04 103.213 108.425C107.848 103.811 113.35 100.151 119.406 97.6536C125.462 95.1564 131.952 93.8711 138.507 93.8711C145.061 93.8711 151.552 95.1564 157.607 97.6536C163.663 100.151 169.165 103.811 173.8 108.425C178.435 113.04 182.111 118.518 184.619 124.546C186.614 129.341 187.839 134.41 188.257 139.567C188.436 141.769 186.628 143.562 184.419 143.562H174.95C172.74 143.562 170.975 141.765 170.701 139.573C170.342 136.702 169.597 133.886 168.48 131.202C166.85 127.283 164.46 123.723 161.447 120.723C158.435 117.724 154.858 115.345 150.922 113.722C146.986 112.099 142.767 111.263 138.507 111.263C134.246 111.263 130.027 112.099 126.091 113.722C122.155 115.345 118.579 117.724 115.566 120.723C112.553 123.723 110.164 127.283 108.533 131.202C107.417 133.886 106.671 136.702 106.312 139.573C106.038 141.765 104.273 143.562 102.064 143.562H92.5944Z" fill="#D387FF"/>
<path d="M73.2175 143.563C71.0083 143.563 69.2054 141.77 69.3329 139.565C69.9907 128.182 73.4492 117.116 79.4279 107.359C86.1047 96.4637 95.6644 87.6268 107.05 81.8255C118.436 76.0242 131.204 73.4844 143.943 74.487C156.682 75.4896 168.896 79.9955 179.234 87.5065C189.572 95.0175 197.632 105.241 202.522 117.047C207.412 128.853 208.942 141.781 206.943 154.402C204.944 167.023 199.494 178.846 191.195 188.562C183.763 197.264 174.307 203.973 163.685 208.116C161.627 208.918 159.365 207.758 158.682 205.656L155.893 197.072C155.21 194.971 156.368 192.729 158.41 191.888C166.052 188.741 172.856 183.818 178.248 177.505C184.508 170.176 188.619 161.258 190.127 151.738C191.634 142.219 190.48 132.467 186.792 123.562C183.103 114.658 177.024 106.946 169.226 101.281C161.429 95.6154 152.216 92.2168 142.607 91.4605C132.998 90.7043 123.368 92.62 114.78 96.9958C106.192 101.372 98.9811 108.037 93.945 116.255C89.6072 123.334 87.0283 131.327 86.3964 139.566C86.2275 141.769 84.4526 143.563 82.2434 143.563H73.2175Z" fill="#FF812A"/>
<path d="M55.3956 143.562C53.1864 143.562 51.386 141.77 51.487 139.564C52.1613 124.821 56.5558 110.464 64.2896 97.8439C72.7211 84.0849 84.7933 72.9254 99.1714 65.5994C113.55 58.2734 129.674 55.0661 145.761 56.3322C160.517 57.4936 174.714 62.377 187.038 70.497C188.883 71.7125 189.274 74.2224 187.976 76.0096L183.276 82.4775C181.978 84.2648 179.482 84.6506 177.625 83.4541C167.698 77.0574 156.321 73.2076 144.506 72.2777C131.359 71.2431 118.183 73.8641 106.433 79.8509C94.6831 85.8378 84.8177 94.9572 77.9274 106.201C71.7351 116.306 68.1625 127.773 67.5022 139.564C67.3787 141.77 65.5995 143.562 63.3904 143.562H55.3956Z" fill="white"/>
<path d="M33 155.822H28.496L28.752 156.814H28.008L27.4 155.438V154.838H33V155.822ZM33.096 151.481C33.096 151.988 32.976 152.423 32.736 152.785C32.4907 153.148 32.152 153.428 31.72 153.625C31.2827 153.817 30.776 153.913 30.2 153.913C29.624 153.913 29.12 153.817 28.688 153.625C28.2507 153.428 27.912 153.148 27.672 152.785C27.4267 152.423 27.304 151.988 27.304 151.481C27.304 150.98 27.4267 150.551 27.672 150.193C27.912 149.831 28.2507 149.553 28.688 149.361C29.12 149.164 29.624 149.065 30.2 149.065C30.776 149.065 31.2827 149.164 31.72 149.361C32.152 149.553 32.4907 149.831 32.736 150.193C32.976 150.551 33.096 150.98 33.096 151.481ZM32.232 151.489C32.232 151.207 32.152 150.956 31.992 150.737C31.8267 150.519 31.592 150.351 31.288 150.233C30.984 150.111 30.6213 150.049 30.2 150.049C29.7787 150.049 29.416 150.111 29.112 150.233C28.808 150.351 28.576 150.519 28.416 150.737C28.2507 150.956 28.168 151.207 28.168 151.489C28.168 151.772 28.2507 152.023 28.416 152.241C28.576 152.46 28.808 152.631 29.112 152.753C29.416 152.871 29.7787 152.929 30.2 152.929C30.6213 152.929 30.984 152.871 31.288 152.753C31.592 152.631 31.8267 152.46 31.992 152.241C32.152 152.023 32.232 151.772 32.232 151.489ZM33.096 145.895C33.096 146.402 32.976 146.837 32.736 147.199C32.4907 147.562 32.152 147.842 31.72 148.039C31.2827 148.231 30.776 148.327 30.2 148.327C29.624 148.327 29.12 148.231 28.688 148.039C28.2507 147.842 27.912 147.562 27.672 147.199C27.4267 146.837 27.304 146.402 27.304 145.895C27.304 145.394 27.4267 144.965 27.672 144.607C27.912 144.245 28.2507 143.967 28.688 143.775C29.12 143.578 29.624 143.479 30.2 143.479C30.776 143.479 31.2827 143.578 31.72 143.775C32.152 143.967 32.4907 144.245 32.736 144.607C32.976 144.965 33.096 145.394 33.096 145.895ZM32.232 145.903C32.232 145.621 32.152 145.37 31.992 145.151C31.8267 144.933 31.592 144.765 31.288 144.647C30.984 144.525 30.6213 144.463 30.2 144.463C29.7787 144.463 29.416 144.525 29.112 144.647C28.808 144.765 28.576 144.933 28.416 145.151C28.2507 145.37 28.168 145.621 28.168 145.903C28.168 146.186 28.2507 146.437 28.416 146.655C28.576 146.874 28.808 147.045 29.112 147.167C29.416 147.285 29.7787 147.343 30.2 147.343C30.6213 147.343 30.984 147.285 31.288 147.167C31.592 147.045 31.8267 146.874 31.992 146.655C32.152 146.437 32.232 146.186 32.232 145.903ZM33.864 143.238L26.8 141.23V140.294L33.864 142.302V143.238ZM33.096 137.45C33.096 137.957 32.976 138.391 32.736 138.754C32.4907 139.117 32.152 139.397 31.72 139.594C31.2827 139.786 30.776 139.882 30.2 139.882C29.624 139.882 29.12 139.786 28.688 139.594C28.2507 139.397 27.912 139.117 27.672 138.754C27.4267 138.391 27.304 137.957 27.304 137.45C27.304 136.949 27.4267 136.519 27.672 136.162C27.912 135.799 28.2507 135.522 28.688 135.33C29.12 135.133 29.624 135.034 30.2 135.034C30.776 135.034 31.2827 135.133 31.72 135.33C32.152 135.522 32.4907 135.799 32.736 136.162C32.976 136.519 33.096 136.949 33.096 137.45ZM32.232 137.458C32.232 137.175 32.152 136.925 31.992 136.706C31.8267 136.487 31.592 136.319 31.288 136.202C30.984 136.079 30.6213 136.018 30.2 136.018C29.7787 136.018 29.416 136.079 29.112 136.202C28.808 136.319 28.576 136.487 28.416 136.706C28.2507 136.925 28.168 137.175 28.168 137.458C28.168 137.741 28.2507 137.991 28.416 138.21C28.576 138.429 28.808 138.599 29.112 138.722C29.416 138.839 29.7787 138.898 30.2 138.898C30.6213 138.898 30.984 138.839 31.288 138.722C31.592 138.599 31.8267 138.429 31.992 138.21C32.152 137.991 32.232 137.741 32.232 137.458ZM33 133.272L27.4 130.096V129.152L33 132.328V133.272ZM33.096 129.408C33.096 129.659 33.04 129.888 32.928 130.096C32.8107 130.299 32.648 130.461 32.44 130.584C32.2267 130.707 31.976 130.768 31.688 130.768C31.3947 130.768 31.144 130.707 30.936 130.584C30.728 130.461 30.568 130.299 30.456 130.096C30.3387 129.888 30.28 129.659 30.28 129.408C30.28 129.147 30.3387 128.917 30.456 128.72C30.568 128.517 30.728 128.357 30.936 128.24C31.144 128.117 31.3947 128.056 31.688 128.056C31.976 128.056 32.2267 128.117 32.44 128.24C32.648 128.357 32.8107 128.517 32.928 128.72C33.04 128.923 33.096 129.152 33.096 129.408ZM32.424 129.416C32.424 129.304 32.3973 129.203 32.344 129.112C32.2853 129.021 32.2027 128.949 32.096 128.896C31.984 128.843 31.848 128.816 31.688 128.816C31.5227 128.816 31.3867 128.843 31.28 128.896C31.1733 128.949 31.0933 129.021 31.04 129.112C30.9813 129.197 30.952 129.296 30.952 129.408C30.952 129.515 30.9813 129.613 31.04 129.704C31.0933 129.795 31.1733 129.867 31.28 129.92C31.3867 129.973 31.5227 130 31.688 130C31.848 130 31.984 129.973 32.096 129.92C32.2027 129.867 32.2853 129.797 32.344 129.712C32.3973 129.621 32.424 129.523 32.424 129.416ZM30.12 132.968C30.12 133.224 30.064 133.456 29.952 133.664C29.84 133.867 29.6773 134.029 29.464 134.152C29.2507 134.269 29 134.328 28.712 134.328C28.424 134.328 28.176 134.269 27.968 134.152C27.7547 134.029 27.592 133.864 27.48 133.656C27.368 133.448 27.312 133.219 27.312 132.968C27.312 132.712 27.368 132.483 27.48 132.28C27.592 132.077 27.7547 131.917 27.968 131.8C28.176 131.677 28.424 131.616 28.712 131.616C29 131.616 29.2507 131.677 29.464 131.8C29.6773 131.917 29.84 132.077 29.952 132.28C30.064 132.483 30.12 132.712 30.12 132.968ZM29.448 132.976C29.448 132.864 29.4213 132.763 29.368 132.672C29.3093 132.581 29.2267 132.512 29.12 132.464C29.008 132.411 28.872 132.384 28.712 132.384C28.552 132.384 28.416 132.411 28.304 132.464C28.192 132.512 28.1093 132.581 28.056 132.672C27.9973 132.763 27.968 132.861 27.968 132.968C27.968 133.075 27.9973 133.176 28.056 133.272C28.1093 133.363 28.192 133.435 28.304 133.488C28.416 133.541 28.552 133.568 28.712 133.568C28.872 133.568 29.008 133.541 29.12 133.488C29.2267 133.435 29.3093 133.363 29.368 133.272C29.4213 133.181 29.448 133.083 29.448 132.976Z" fill="#9F9F9F"/>
<path d="M57.6634 74.3886L54.4715 71.2108L53.9499 72.0913L53.4227 71.5664L53.9669 70.1666L54.3921 69.7433L58.3607 73.6943L57.6634 74.3886ZM59.0618 72.9964L58.5685 72.5053C58.6214 72.0538 58.663 71.6135 58.6933 71.1846C58.7235 70.7556 58.7329 70.3511 58.7216 69.971C58.7103 69.591 58.663 69.2542 58.5799 68.9607C58.4967 68.6672 58.3682 68.4339 58.1943 68.2608C58.081 68.1479 57.9543 68.0633 57.8145 68.0068C57.6747 67.9504 57.5291 67.9372 57.378 67.9673C57.2306 67.9936 57.0831 68.0802 56.9357 68.2269C56.7921 68.3699 56.7014 68.5242 56.6636 68.6898C56.6296 68.8516 56.6428 69.0115 56.7033 69.1695C56.76 69.3238 56.8564 69.4687 56.9924 69.6041L56.3348 70.2589C56.0551 69.9654 55.8775 69.6644 55.8019 69.3558C55.7263 69.0472 55.7414 68.7462 55.8472 68.4527C55.9493 68.1554 56.125 67.8826 56.3745 67.6343C56.6428 67.3671 56.9206 67.1884 57.2079 67.0981C57.4951 67.0078 57.7786 67.0002 58.0583 67.0755C58.338 67.1508 58.5988 67.3088 58.8407 67.5496C59.0183 67.7265 59.16 67.9353 59.2659 68.1761C59.3717 68.4094 59.4473 68.6653 59.4926 68.9438C59.5342 69.2185 59.5569 69.5044 59.5607 69.8017C59.5644 70.0914 59.5569 70.3812 59.538 70.6709C59.5153 70.9569 59.4889 71.2278 59.4586 71.4837L61.2331 69.717L61.7944 70.2758L59.0618 72.9964ZM62.7307 69.4001C62.6022 69.5281 62.4586 69.592 62.2998 69.592C62.1411 69.592 62.0069 69.5375 61.8973 69.4283C61.7801 69.3117 61.7215 69.1743 61.7215 69.0163C61.7215 68.8583 61.7858 68.7153 61.9143 68.5873C62.039 68.4632 62.1808 68.4011 62.3395 68.4011C62.4982 68.4011 62.6362 68.4594 62.7534 68.576C62.863 68.6852 62.9178 68.8188 62.9178 68.9768C62.9178 69.1348 62.8554 69.2759 62.7307 69.4001ZM65.2328 66.9881C64.9493 67.2704 64.6545 67.466 64.3483 67.5752C64.0422 67.6768 63.7436 67.6993 63.4526 67.6429C63.1578 67.5827 62.8875 67.4529 62.6418 67.2534L63.3052 66.593C63.5055 66.7247 63.7304 66.7793 63.9798 66.7567C64.2255 66.7304 64.4504 66.6156 64.6545 66.4124C64.8094 66.2582 64.9058 66.0907 64.9436 65.9101C64.9776 65.7257 64.9625 65.5413 64.8983 65.3569C64.834 65.165 64.7225 64.9901 64.5638 64.832C64.4012 64.6702 64.2274 64.5611 64.0422 64.5047C63.8608 64.4445 63.6831 64.4369 63.5093 64.4821C63.3316 64.5235 63.171 64.6157 63.0274 64.7587C62.8497 64.9355 62.7382 65.1293 62.6929 65.34C62.6475 65.5432 62.657 65.7332 62.7212 65.9101L62.0636 66.5648L60.153 64.008L62.3414 61.8293L62.9367 62.4219L61.2585 64.0926L62.0579 65.2497C62.0503 65.0691 62.09 64.8791 62.177 64.6796C62.2601 64.4764 62.3943 64.2826 62.5795 64.0983C62.7874 63.8913 63.0066 63.7446 63.2371 63.658C63.4677 63.5715 63.7001 63.5357 63.9345 63.5508C64.1688 63.5658 64.3956 63.6298 64.6148 63.7427C64.834 63.848 65.0343 63.991 65.2157 64.1716C65.4198 64.3748 65.5748 64.5968 65.6806 64.8377C65.7827 65.0747 65.8356 65.3193 65.8394 65.5714C65.8469 65.8198 65.7997 66.0662 65.6976 66.3108C65.5994 66.5517 65.4444 66.7774 65.2328 66.9881ZM67.8586 64.2384L66.1408 58.0467L66.8098 57.3806L68.5276 63.5724L67.8586 64.2384ZM70.665 61.58C70.4873 61.7568 70.2851 61.8791 70.0583 61.9469C69.8316 62.0071 69.601 62.0071 69.3667 61.9469C69.1285 61.8829 68.9074 61.7493 68.7033 61.5461C68.4955 61.3392 68.3613 61.119 68.3008 60.8857C68.2403 60.6524 68.2422 60.4248 68.3065 60.2028C68.3707 59.9732 68.4917 59.77 68.6693 59.5932C68.8545 59.4088 69.0586 59.2884 69.2816 59.232C69.5046 59.168 69.7314 59.168 69.9619 59.232C70.1963 59.2922 70.4174 59.4257 70.6253 59.6327C70.8294 59.8359 70.9635 60.056 71.0278 60.2931C71.092 60.5226 71.0939 60.7503 71.0335 60.976C70.9692 61.1981 70.8464 61.3994 70.665 61.58ZM70.1831 61.1115C70.2624 61.0325 70.3153 60.9422 70.3418 60.8406C70.3645 60.7352 70.3569 60.6261 70.3191 60.5132C70.2775 60.3966 70.2001 60.2818 70.0867 60.1689C69.9695 60.0523 69.8542 59.9751 69.7408 59.9375C69.6275 59.8999 69.5197 59.8942 69.4177 59.9206C69.3156 59.9394 69.2249 59.9883 69.1456 60.0673C69.07 60.1426 69.0208 60.2329 68.9982 60.3382C68.9717 60.4398 68.9774 60.5471 69.0152 60.66C69.053 60.7728 69.1304 60.8876 69.2476 61.0043C69.361 61.1172 69.4763 61.1943 69.5934 61.2357C69.7068 61.2733 69.8145 61.2827 69.9166 61.2639C70.0186 61.2376 70.1075 61.1868 70.1831 61.1115ZM66.0331 61.992C65.8516 62.1726 65.6475 62.2968 65.4208 62.3645C65.1978 62.4285 64.9672 62.4285 64.7291 62.3645C64.4948 62.2968 64.2756 62.1613 64.0715 61.9582C63.8674 61.755 63.7332 61.5386 63.6689 61.3091C63.6047 61.072 63.6066 60.8406 63.6746 60.6148C63.7426 60.389 63.8655 60.1877 64.0431 60.0109C64.2245 59.8303 64.4267 59.708 64.6497 59.644C64.8727 59.58 65.1014 59.5819 65.3357 59.6496C65.5701 59.7098 65.7893 59.8415 65.9934 60.0447C66.1975 60.2479 66.3317 60.4681 66.3959 60.7051C66.4639 60.9384 66.4658 61.1661 66.4016 61.3881C66.3373 61.6101 66.2145 61.8114 66.0331 61.992ZM65.5512 61.5235C65.6305 61.4445 65.6835 61.3542 65.7099 61.2526C65.7326 61.1473 65.7231 61.04 65.6816 60.9309C65.64 60.8142 65.5625 60.6995 65.4491 60.5866C65.3357 60.4737 65.2205 60.3966 65.1033 60.3552C64.9899 60.31 64.8822 60.3006 64.7801 60.327C64.6743 60.3495 64.5836 60.3984 64.508 60.4737C64.4324 60.549 64.3814 60.6411 64.3549 60.7503C64.3285 60.8519 64.336 60.961 64.3776 61.0776C64.4192 61.1943 64.4967 61.3091 64.6101 61.4219C64.7234 61.5348 64.8387 61.612 64.9559 61.6534C65.0693 61.691 65.1789 61.6985 65.2847 61.6759C65.3868 61.6496 65.4756 61.5988 65.5512 61.5235Z" fill="#9F9F9F"/>
<path d="M132.908 39.0625V38.3665C133.265 38.0838 133.606 37.8012 133.932 37.5185C134.257 37.2358 134.55 36.9558 134.812 36.6785C135.073 36.4012 135.278 36.1292 135.428 35.8625C135.577 35.5958 135.652 35.3398 135.652 35.0945C135.652 34.9345 135.622 34.7852 135.564 34.6465C135.505 34.5078 135.412 34.3958 135.284 34.3105C135.161 34.2252 134.996 34.1825 134.788 34.1825C134.585 34.1825 134.412 34.2278 134.268 34.3185C134.129 34.4092 134.025 34.5318 133.956 34.6865C133.886 34.8358 133.852 35.0065 133.852 35.1985H132.924C132.934 34.7932 133.022 34.4545 133.188 34.1825C133.353 33.9105 133.577 33.7078 133.86 33.5745C134.142 33.4358 134.46 33.3665 134.812 33.3665C135.19 33.3665 135.513 33.4358 135.78 33.5745C136.046 33.7132 136.252 33.9078 136.396 34.1585C136.54 34.4092 136.612 34.7052 136.612 35.0465C136.612 35.2972 136.564 35.5452 136.468 35.7905C136.377 36.0305 136.249 36.2652 136.084 36.4945C135.918 36.7185 135.732 36.9372 135.524 37.1505C135.321 37.3585 135.11 37.5585 134.892 37.7505C134.673 37.9372 134.462 38.1105 134.26 38.2705H136.764V39.0625H132.908ZM139.629 39.1585C139.229 39.1585 138.882 39.0892 138.589 38.9505C138.301 38.8065 138.074 38.6118 137.909 38.3665C137.743 38.1158 137.645 37.8332 137.613 37.5185H138.549C138.597 37.7532 138.717 37.9505 138.909 38.1105C139.101 38.2652 139.341 38.3425 139.629 38.3425C139.847 38.3425 140.034 38.2918 140.189 38.1905C140.343 38.0838 140.463 37.9425 140.549 37.7665C140.639 37.5852 140.685 37.3825 140.685 37.1585C140.685 36.9292 140.639 36.7292 140.549 36.5585C140.463 36.3878 140.343 36.2572 140.189 36.1665C140.034 36.0705 139.855 36.0225 139.653 36.0225C139.402 36.0225 139.186 36.0812 139.005 36.1985C138.829 36.3105 138.701 36.4518 138.621 36.6225H137.693L138.157 33.4625H141.245V34.3025H138.877L138.621 35.6865C138.743 35.5532 138.906 35.4465 139.109 35.3665C139.311 35.2812 139.543 35.2385 139.805 35.2385C140.098 35.2385 140.357 35.2892 140.581 35.3905C140.805 35.4918 140.994 35.6305 141.149 35.8065C141.303 35.9825 141.418 36.1878 141.493 36.4225C141.573 36.6518 141.613 36.8945 141.613 37.1505C141.613 37.4385 141.565 37.7052 141.469 37.9505C141.373 38.1905 141.237 38.4012 141.061 38.5825C140.89 38.7638 140.682 38.9052 140.437 39.0065C140.197 39.1078 139.927 39.1585 139.629 39.1585ZM143.43 39.0625L146.606 33.4625H147.55L144.374 39.0625H143.43ZM147.294 39.1585C147.043 39.1585 146.814 39.1025 146.606 38.9905C146.403 38.8732 146.241 38.7105 146.118 38.5025C145.995 38.2892 145.934 38.0385 145.934 37.7505C145.934 37.4572 145.995 37.2065 146.118 36.9985C146.241 36.7905 146.403 36.6305 146.606 36.5185C146.814 36.4012 147.043 36.3425 147.294 36.3425C147.555 36.3425 147.785 36.4012 147.982 36.5185C148.185 36.6305 148.345 36.7905 148.462 36.9985C148.585 37.2065 148.646 37.4572 148.646 37.7505C148.646 38.0385 148.585 38.2892 148.462 38.5025C148.345 38.7105 148.185 38.8732 147.982 38.9905C147.779 39.1025 147.55 39.1585 147.294 39.1585ZM147.286 38.4865C147.398 38.4865 147.499 38.4598 147.59 38.4065C147.681 38.3478 147.753 38.2652 147.806 38.1585C147.859 38.0465 147.886 37.9105 147.886 37.7505C147.886 37.5852 147.859 37.4492 147.806 37.3425C147.753 37.2358 147.681 37.1558 147.59 37.1025C147.505 37.0438 147.406 37.0145 147.294 37.0145C147.187 37.0145 147.089 37.0438 146.998 37.1025C146.907 37.1558 146.835 37.2358 146.782 37.3425C146.729 37.4492 146.702 37.5852 146.702 37.7505C146.702 37.9105 146.729 38.0465 146.782 38.1585C146.835 38.2652 146.905 38.3478 146.99 38.4065C147.081 38.4598 147.179 38.4865 147.286 38.4865ZM143.734 36.1825C143.478 36.1825 143.246 36.1265 143.038 36.0145C142.835 35.9025 142.673 35.7398 142.55 35.5265C142.433 35.3132 142.374 35.0625 142.374 34.7745C142.374 34.4865 142.433 34.2385 142.55 34.0305C142.673 33.8172 142.838 33.6545 143.046 33.5425C143.254 33.4305 143.483 33.3745 143.734 33.3745C143.99 33.3745 144.219 33.4305 144.422 33.5425C144.625 33.6545 144.785 33.8172 144.902 34.0305C145.025 34.2385 145.086 34.4865 145.086 34.7745C145.086 35.0625 145.025 35.3132 144.902 35.5265C144.785 35.7398 144.625 35.9025 144.422 36.0145C144.219 36.1265 143.99 36.1825 143.734 36.1825ZM143.726 35.5105C143.838 35.5105 143.939 35.4838 144.03 35.4305C144.121 35.3718 144.19 35.2892 144.238 35.1825C144.291 35.0705 144.318 34.9345 144.318 34.7745C144.318 34.6145 144.291 34.4785 144.238 34.3665C144.19 34.2545 144.121 34.1718 144.03 34.1185C143.939 34.0598 143.841 34.0305 143.734 34.0305C143.627 34.0305 143.526 34.0598 143.43 34.1185C143.339 34.1718 143.267 34.2545 143.214 34.3665C143.161 34.4785 143.134 34.6145 143.134 34.7745C143.134 34.9345 143.161 35.0705 143.214 35.1825C143.267 35.2892 143.339 35.3718 143.43 35.4305C143.521 35.4838 143.619 35.5105 143.726 35.5105Z" fill="#9F9F9F"/>
<path d="M209.565 63.4565C209.308 63.2007 209.119 62.9222 208.998 62.6212C208.881 62.3164 208.853 62.0059 208.913 61.6899C208.981 61.3738 209.157 61.0671 209.441 60.7698L210.11 61.4359C209.981 61.5713 209.89 61.7219 209.837 61.8874C209.792 62.053 209.792 62.2223 209.837 62.3954C209.887 62.5647 209.989 62.7265 210.144 62.8808C210.291 63.0276 210.444 63.1235 210.603 63.1687C210.765 63.2176 210.922 63.2195 211.073 63.1743C211.225 63.1292 211.361 63.0464 211.482 62.926C211.629 62.7792 211.714 62.6231 211.737 62.4575C211.763 62.2882 211.739 62.117 211.663 61.9439C211.587 61.7708 211.47 61.6052 211.312 61.4472L211.017 61.1537L211.578 60.5949L211.873 60.8884C212.081 61.0953 212.298 61.2176 212.525 61.2553C212.755 61.2891 212.963 61.2139 213.148 61.0295C213.303 60.8752 213.377 60.7002 213.369 60.5046C213.366 60.3127 213.271 60.1245 213.086 59.9401C212.893 59.7482 212.684 59.6523 212.457 59.6523C212.234 59.656 212.033 59.7351 211.856 59.8893L211.187 59.2233C211.436 58.9975 211.703 58.8527 211.986 58.7887C212.277 58.7247 212.566 58.7417 212.854 58.8395C213.141 58.9373 213.413 59.1142 213.67 59.3701C213.938 59.6372 214.118 59.91 214.209 60.1885C214.299 60.4669 214.313 60.7322 214.248 60.9843C214.188 61.2402 214.063 61.4622 213.874 61.6504C213.727 61.7971 213.564 61.9025 213.387 61.9664C213.209 62.0304 213.029 62.0549 212.848 62.0398C212.674 62.0248 212.504 61.9721 212.338 61.8818C212.455 62.0586 212.527 62.2468 212.553 62.4462C212.583 62.6494 212.563 62.8507 212.491 63.0501C212.426 63.2496 212.306 63.4377 212.128 63.6146C211.912 63.8291 211.659 63.9758 211.368 64.0548C211.085 64.1338 210.786 64.1263 210.472 64.0322C210.163 63.9419 209.86 63.75 209.565 63.4565ZM211.957 65.7022L216.821 63.8057L214.826 61.8189L215.41 61.2376L218.103 63.9186L217.615 64.404L212.666 66.4077L211.957 65.7022ZM214.631 68.4203C214.502 68.2924 214.438 68.1494 214.438 67.9913C214.438 67.8333 214.493 67.6997 214.602 67.5906C214.719 67.4739 214.857 67.4156 215.016 67.4156C215.175 67.4156 215.318 67.4796 215.447 67.6075C215.572 67.7317 215.634 67.8728 215.634 68.0308C215.634 68.1889 215.575 68.3262 215.458 68.4429C215.349 68.552 215.214 68.6066 215.056 68.6066C214.897 68.6066 214.755 68.5445 214.631 68.4203ZM217.053 70.9113C216.77 70.6291 216.573 70.3356 216.464 70.0308C216.362 69.726 216.339 69.4287 216.396 69.139C216.456 68.8455 216.586 68.5764 216.787 68.3318L217.45 68.9922C217.318 69.1917 217.263 69.4155 217.286 69.6639C217.312 69.9085 217.427 70.1324 217.632 70.3356C217.786 70.4898 217.955 70.5858 218.136 70.6234C218.321 70.6573 218.506 70.6422 218.692 70.5783C218.884 70.5143 219.06 70.4033 219.219 70.2453C219.381 70.0835 219.491 69.9104 219.548 69.726C219.608 69.5454 219.616 69.3685 219.57 69.1954C219.529 69.0186 219.436 68.8586 219.293 68.7157C219.115 68.5388 218.92 68.4278 218.709 68.3826C218.505 68.3375 218.314 68.3469 218.136 68.4109L217.478 67.7561L220.047 65.854L222.235 68.0327L221.64 68.6253L219.962 66.9546L218.799 67.7505C218.981 67.7429 219.172 67.7825 219.372 67.869C219.576 67.9518 219.771 68.0854 219.956 68.2698C220.164 68.4767 220.311 68.695 220.398 68.9245C220.485 69.154 220.521 69.3854 220.506 69.6187C220.491 69.852 220.427 70.0778 220.313 70.2961C220.207 70.5143 220.064 70.7137 219.882 70.8943C219.678 71.0975 219.455 71.2518 219.213 71.3572C218.975 71.4588 218.729 71.5115 218.476 71.5152C218.227 71.5227 217.979 71.4757 217.734 71.3741C217.492 71.2763 217.265 71.122 217.053 70.9113ZM219.815 73.5255L226.034 71.8153L226.703 72.4813L220.484 74.1915L219.815 73.5255ZM222.485 76.3194C222.308 76.1426 222.185 75.9413 222.117 75.7155C222.056 75.4897 222.056 75.2602 222.117 75.0269C222.181 74.7898 222.315 74.5697 222.519 74.3665C222.727 74.1596 222.948 74.026 223.183 73.9658C223.417 73.9056 223.646 73.9074 223.869 73.9714C224.099 74.0354 224.303 74.1558 224.481 74.3327C224.666 74.517 224.787 74.7202 224.844 74.9422C224.908 75.1642 224.908 75.39 224.844 75.6196C224.783 75.8529 224.649 76.073 224.441 76.2799C224.237 76.4831 224.016 76.6167 223.778 76.6807C223.547 76.7447 223.319 76.7465 223.092 76.6863C222.869 76.6224 222.667 76.5001 222.485 76.3194ZM222.956 75.8397C223.035 75.9187 223.126 75.9714 223.228 75.9977C223.334 76.0203 223.444 76.0128 223.557 75.9751C223.674 75.9338 223.789 75.8566 223.903 75.7437C224.02 75.6271 224.097 75.5123 224.135 75.3994C224.173 75.2865 224.179 75.1793 224.152 75.0777C224.133 74.9761 224.084 74.8858 224.005 74.8068C223.929 74.7315 223.839 74.6826 223.733 74.66C223.631 74.6337 223.523 74.6393 223.41 74.677C223.296 74.7146 223.181 74.7917 223.064 74.9084C222.95 75.0213 222.873 75.136 222.831 75.2527C222.793 75.3656 222.784 75.4728 222.803 75.5744C222.829 75.676 222.88 75.7644 222.956 75.8397ZM222.072 71.7081C221.89 71.5274 221.765 71.3242 221.697 71.0985C221.633 70.8765 221.633 70.6469 221.697 70.4099C221.765 70.1766 221.901 69.9583 222.106 69.7551C222.31 69.5519 222.527 69.4184 222.758 69.3544C222.996 69.2904 223.228 69.2923 223.455 69.36C223.682 69.4278 223.884 69.5501 224.062 69.7269C224.243 69.9075 224.366 70.1088 224.43 70.3308C224.494 70.5529 224.492 70.7805 224.424 71.0138C224.364 71.2471 224.232 71.4653 224.027 71.6685C223.823 71.8717 223.602 72.0053 223.364 72.0693C223.13 72.137 222.901 72.1389 222.678 72.0749C222.455 72.011 222.253 71.8887 222.072 71.7081ZM222.542 71.2283C222.621 71.3073 222.712 71.36 222.814 71.3863C222.92 71.4089 223.028 71.3995 223.137 71.3581C223.255 71.3167 223.37 71.2396 223.483 71.1267C223.597 71.0138 223.674 70.899 223.716 70.7824C223.761 70.6695 223.77 70.5623 223.744 70.4607C223.721 70.3553 223.672 70.265 223.597 70.1897C223.521 70.1145 223.428 70.0637 223.319 70.0373C223.217 70.011 223.107 70.0185 222.99 70.0599C222.873 70.1013 222.758 70.1784 222.644 70.2913C222.531 70.4042 222.453 70.519 222.412 70.6356C222.374 70.7485 222.366 70.8576 222.389 70.963C222.416 71.0646 222.467 71.153 222.542 71.2283Z" fill="#9F9F9F"/>
<path d="M242.904 136.599C242.904 136.199 242.973 135.852 243.112 135.559C243.256 135.271 243.451 135.044 243.696 134.879C243.947 134.713 244.229 134.615 244.544 134.583V135.519C244.309 135.567 244.112 135.687 243.952 135.879C243.797 136.071 243.72 136.311 243.72 136.599C243.72 136.817 243.771 137.004 243.872 137.159C243.979 137.313 244.12 137.433 244.296 137.519C244.477 137.609 244.68 137.655 244.904 137.655C245.133 137.655 245.333 137.609 245.504 137.519C245.675 137.433 245.805 137.313 245.896 137.159C245.992 137.004 246.04 136.825 246.04 136.623C246.04 136.372 245.981 136.156 245.864 135.975C245.752 135.799 245.611 135.671 245.44 135.591V134.663L248.6 135.127V138.215H247.76V135.847L246.376 135.591C246.509 135.713 246.616 135.876 246.696 136.079C246.781 136.281 246.824 136.513 246.824 136.775C246.824 137.068 246.773 137.327 246.672 137.551C246.571 137.775 246.432 137.964 246.256 138.119C246.08 138.273 245.875 138.388 245.64 138.463C245.411 138.543 245.168 138.583 244.912 138.583C244.624 138.583 244.357 138.535 244.112 138.439C243.872 138.343 243.661 138.207 243.48 138.031C243.299 137.86 243.157 137.652 243.056 137.407C242.955 137.167 242.904 136.897 242.904 136.599ZM242.904 141.808C242.904 141.301 243.024 140.866 243.264 140.504C243.509 140.141 243.848 139.861 244.28 139.664C244.717 139.472 245.224 139.376 245.8 139.376C246.376 139.376 246.88 139.472 247.312 139.664C247.749 139.861 248.088 140.141 248.328 140.504C248.573 140.866 248.696 141.301 248.696 141.808C248.696 142.309 248.573 142.738 248.328 143.096C248.088 143.458 247.749 143.736 247.312 143.928C246.88 144.125 246.376 144.224 245.8 144.224C245.224 144.224 244.717 144.125 244.28 143.928C243.848 143.736 243.509 143.458 243.264 143.096C243.024 142.738 242.904 142.309 242.904 141.808ZM243.768 141.8C243.768 142.082 243.848 142.333 244.008 142.552C244.173 142.77 244.408 142.938 244.712 143.056C245.016 143.178 245.379 143.24 245.8 143.24C246.221 143.24 246.584 143.178 246.888 143.056C247.192 142.938 247.424 142.77 247.584 142.552C247.749 142.333 247.832 142.082 247.832 141.8C247.832 141.517 247.749 141.266 247.584 141.048C247.424 140.829 247.192 140.658 246.888 140.536C246.584 140.418 246.221 140.36 245.8 140.36C245.379 140.36 245.016 140.418 244.712 140.536C244.408 140.658 244.173 140.829 244.008 141.048C243.848 141.266 243.768 141.517 243.768 141.8ZM243 145.986L248.6 149.162V150.106L243 146.93V145.986ZM242.904 149.85C242.904 149.599 242.96 149.37 243.072 149.162C243.189 148.959 243.352 148.796 243.56 148.674C243.773 148.551 244.024 148.49 244.312 148.49C244.605 148.49 244.856 148.551 245.064 148.674C245.272 148.796 245.432 148.959 245.544 149.162C245.661 149.37 245.72 149.599 245.72 149.85C245.72 150.111 245.661 150.34 245.544 150.538C245.432 150.74 245.272 150.9 245.064 151.018C244.856 151.14 244.605 151.202 244.312 151.202C244.024 151.202 243.773 151.14 243.56 151.018C243.352 150.9 243.189 150.74 243.072 150.538C242.96 150.335 242.904 150.106 242.904 149.85ZM243.576 149.842C243.576 149.954 243.603 150.055 243.656 150.146C243.715 150.236 243.797 150.308 243.904 150.362C244.016 150.415 244.152 150.442 244.312 150.442C244.477 150.442 244.613 150.415 244.72 150.362C244.827 150.308 244.907 150.236 244.96 150.146C245.019 150.06 245.048 149.962 245.048 149.85C245.048 149.743 245.019 149.644 244.96 149.554C244.907 149.463 244.827 149.391 244.72 149.338C244.613 149.284 244.477 149.258 244.312 149.258C244.152 149.258 244.016 149.284 243.904 149.338C243.797 149.391 243.715 149.46 243.656 149.546C243.603 149.636 243.576 149.735 243.576 149.842ZM245.88 146.29C245.88 146.034 245.936 145.802 246.048 145.594C246.16 145.391 246.323 145.228 246.536 145.106C246.749 144.988 247 144.93 247.288 144.93C247.576 144.93 247.824 144.988 248.032 145.106C248.245 145.228 248.408 145.394 248.52 145.602C248.632 145.81 248.688 146.039 248.688 146.29C248.688 146.546 248.632 146.775 248.52 146.978C248.408 147.18 248.245 147.34 248.032 147.458C247.824 147.58 247.576 147.642 247.288 147.642C247 147.642 246.749 147.58 246.536 147.458C246.323 147.34 246.16 147.18 246.048 146.978C245.936 146.775 245.88 146.546 245.88 146.29ZM246.552 146.282C246.552 146.394 246.579 146.495 246.632 146.586C246.691 146.676 246.773 146.746 246.88 146.794C246.992 146.847 247.128 146.874 247.288 146.874C247.448 146.874 247.584 146.847 247.696 146.794C247.808 146.746 247.891 146.676 247.944 146.586C248.003 146.495 248.032 146.396 248.032 146.29C248.032 146.183 248.003 146.082 247.944 145.986C247.891 145.895 247.808 145.823 247.696 145.77C247.584 145.716 247.448 145.69 247.288 145.69C247.128 145.69 246.992 145.716 246.88 145.77C246.773 145.823 246.691 145.895 246.632 145.986C246.579 146.076 246.552 146.175 246.552 146.282Z" fill="#9F9F9F"/>
<path d="M222.045 210.991C222.34 210.698 222.644 210.504 222.958 210.41C223.268 210.32 223.574 210.305 223.876 210.365C224.182 210.429 224.477 210.546 224.761 210.715C225.044 210.884 225.305 211.087 225.543 211.324C225.985 211.765 226.306 212.209 226.507 212.656C226.711 213.108 226.788 213.539 226.739 213.949C226.686 214.363 226.495 214.734 226.167 215.061C225.895 215.332 225.613 215.507 225.322 215.586C225.031 215.672 224.747 215.684 224.472 215.62C224.196 215.556 223.946 215.435 223.723 215.258L224.358 214.626C224.57 214.769 224.783 214.828 224.999 214.801C225.214 214.782 225.416 214.679 225.605 214.491C225.775 214.322 225.874 214.118 225.9 213.881C225.927 213.644 225.872 213.383 225.736 213.097C225.6 212.811 225.375 212.5 225.061 212.165C225.054 212.158 225.046 212.15 225.038 212.143C225.035 212.139 225.029 212.133 225.021 212.126C225.071 212.295 225.086 212.472 225.067 212.656C225.052 212.845 225.003 213.029 224.919 213.21C224.832 213.394 224.712 213.563 224.557 213.718C224.334 213.94 224.075 214.092 223.78 214.175C223.485 214.265 223.183 214.273 222.873 214.197C222.559 214.126 222.272 213.96 222.011 213.701C221.773 213.464 221.608 213.187 221.518 212.871C221.427 212.555 221.423 212.231 221.506 211.9C221.59 211.569 221.769 211.266 222.045 210.991ZM222.669 211.533C222.521 211.68 222.423 211.842 222.374 212.019C222.325 212.196 222.323 212.37 222.368 212.544C222.41 212.72 222.5 212.878 222.64 213.018C222.788 213.164 222.95 213.259 223.128 213.3C223.302 213.345 223.477 213.339 223.655 213.283C223.829 213.23 223.99 213.131 224.137 212.984C224.281 212.841 224.379 212.679 224.432 212.498C224.485 212.325 224.49 212.15 224.449 211.974C224.407 211.797 224.317 211.639 224.177 211.499C224.033 211.356 223.872 211.264 223.695 211.223C223.517 211.181 223.34 211.185 223.162 211.234C222.98 211.287 222.816 211.387 222.669 211.533ZM220.179 212.985L220.672 213.476C220.619 213.928 220.577 214.368 220.547 214.797C220.517 215.226 220.508 215.63 220.519 216.01C220.53 216.39 220.577 216.727 220.661 217.021C220.744 217.314 220.872 217.547 221.046 217.72C221.16 217.833 221.286 217.918 221.426 217.974C221.566 218.031 221.711 218.044 221.863 218.014C222.01 217.988 222.157 217.901 222.305 217.754C222.448 217.611 222.539 217.457 222.577 217.292C222.611 217.13 222.598 216.97 222.537 216.812C222.48 216.657 222.384 216.513 222.248 216.377L222.906 215.722C223.185 216.016 223.363 216.317 223.439 216.625C223.514 216.934 223.499 217.235 223.393 217.529C223.291 217.826 223.115 218.099 222.866 218.347C222.598 218.614 222.32 218.793 222.033 218.883C221.745 218.974 221.462 218.981 221.182 218.906C220.903 218.831 220.642 218.672 220.4 218.432C220.222 218.255 220.08 218.046 219.975 217.805C219.869 217.572 219.793 217.316 219.748 217.038C219.706 216.763 219.684 216.477 219.68 216.18C219.676 215.89 219.684 215.6 219.702 215.31C219.725 215.024 219.752 214.753 219.782 214.498L218.007 216.264L217.446 215.705L220.179 212.985ZM216.51 216.581C216.638 216.453 216.782 216.389 216.941 216.389C217.099 216.389 217.234 216.444 217.343 216.553C217.46 216.67 217.519 216.807 217.519 216.965C217.519 217.123 217.455 217.266 217.326 217.394C217.201 217.518 217.06 217.58 216.901 217.58C216.742 217.58 216.604 217.522 216.487 217.405C216.377 217.296 216.323 217.163 216.323 217.004C216.323 216.846 216.385 216.705 216.51 216.581ZM214.008 218.993C214.291 218.711 214.586 218.515 214.892 218.406C215.198 218.305 215.497 218.282 215.788 218.338C216.083 218.399 216.353 218.528 216.599 218.728L215.935 219.388C215.735 219.257 215.51 219.202 215.261 219.225C215.015 219.251 214.79 219.366 214.586 219.569C214.431 219.723 214.335 219.891 214.297 220.071C214.263 220.256 214.278 220.44 214.342 220.624C214.406 220.816 214.518 220.991 214.677 221.149C214.839 221.311 215.013 221.42 215.198 221.477C215.38 221.537 215.557 221.544 215.731 221.499C215.909 221.458 216.069 221.366 216.213 221.223C216.391 221.046 216.502 220.852 216.548 220.641C216.593 220.438 216.584 220.248 216.519 220.071L217.177 219.416L219.087 221.973L216.899 224.152L216.304 223.559L217.982 221.889L217.183 220.732C217.19 220.912 217.15 221.102 217.064 221.302C216.98 221.505 216.846 221.699 216.661 221.883C216.453 222.09 216.234 222.237 216.003 222.323C215.773 222.41 215.54 222.446 215.306 222.431C215.072 222.415 214.845 222.351 214.626 222.239C214.406 222.133 214.206 221.99 214.025 221.81C213.821 221.606 213.666 221.384 213.56 221.144C213.458 220.907 213.405 220.662 213.401 220.41C213.394 220.161 213.441 219.915 213.543 219.67C213.641 219.43 213.796 219.204 214.008 218.993ZM211.382 221.743L213.1 227.935L212.431 228.601L210.713 222.409L211.382 221.743ZM208.576 224.401C208.753 224.224 208.955 224.102 209.182 224.034C209.409 223.974 209.639 223.974 209.874 224.034C210.112 224.098 210.333 224.232 210.537 224.435C210.745 224.642 210.879 224.862 210.94 225.096C211 225.329 210.998 225.556 210.934 225.779C210.87 226.008 210.749 226.211 210.571 226.388C210.386 226.572 210.182 226.693 209.959 226.749C209.736 226.813 209.509 226.813 209.279 226.749C209.044 226.689 208.823 226.556 208.615 226.349C208.411 226.145 208.277 225.925 208.213 225.688C208.148 225.459 208.147 225.231 208.207 225.005C208.271 224.783 208.394 224.582 208.576 224.401ZM209.057 224.87C208.978 224.949 208.925 225.039 208.899 225.141C208.876 225.246 208.884 225.355 208.921 225.468C208.963 225.585 209.04 225.699 209.154 225.812C209.271 225.929 209.386 226.006 209.5 226.044C209.613 226.081 209.721 226.087 209.823 226.061C209.925 226.042 210.016 225.993 210.095 225.914C210.171 225.839 210.22 225.748 210.242 225.643C210.269 225.541 210.263 225.434 210.225 225.321C210.188 225.208 210.11 225.094 209.993 224.977C209.879 224.864 209.764 224.787 209.647 224.746C209.534 224.708 209.426 224.699 209.324 224.717C209.222 224.744 209.133 224.795 209.057 224.87ZM213.207 223.989C213.389 223.809 213.593 223.684 213.82 223.617C214.043 223.553 214.273 223.553 214.511 223.617C214.746 223.684 214.965 223.82 215.169 224.023C215.373 224.226 215.507 224.443 215.572 224.672C215.636 224.909 215.634 225.141 215.566 225.366C215.498 225.592 215.375 225.794 215.197 225.97C215.016 226.151 214.814 226.273 214.591 226.337C214.368 226.401 214.139 226.399 213.905 226.332C213.67 226.271 213.451 226.14 213.247 225.937C213.043 225.733 212.909 225.513 212.845 225.276C212.777 225.043 212.775 224.815 212.839 224.593C212.903 224.371 213.026 224.17 213.207 223.989ZM213.689 224.458C213.61 224.537 213.557 224.627 213.531 224.729C213.508 224.834 213.517 224.941 213.559 225.05C213.6 225.167 213.678 225.282 213.791 225.395C213.905 225.508 214.02 225.585 214.137 225.626C214.251 225.671 214.358 225.681 214.46 225.654C214.566 225.632 214.657 225.583 214.732 225.508C214.808 225.432 214.859 225.34 214.886 225.231C214.912 225.129 214.904 225.02 214.863 224.904C214.821 224.787 214.744 224.672 214.63 224.559C214.517 224.446 214.402 224.369 214.285 224.328C214.171 224.29 214.062 224.283 213.956 224.305C213.854 224.332 213.765 224.382 213.689 224.458Z" fill="#9F9F9F"/>
<path d="M148.599 249.062L146.511 253.838H149.327V254.663H145.527V253.974L147.599 249.062H148.599ZM142.929 248.966C143.329 248.966 143.676 249.036 143.969 249.174C144.257 249.318 144.484 249.513 144.649 249.758C144.814 250.009 144.913 250.292 144.945 250.606H144.009C143.961 250.372 143.841 250.174 143.649 250.014C143.457 249.86 143.217 249.782 142.929 249.782C142.71 249.782 142.524 249.833 142.369 249.934C142.214 250.041 142.094 250.182 142.009 250.358C141.918 250.54 141.873 250.742 141.873 250.966C141.873 251.196 141.918 251.396 142.009 251.566C142.094 251.737 142.214 251.868 142.369 251.958C142.524 252.054 142.702 252.102 142.905 252.102C143.156 252.102 143.372 252.044 143.553 251.926C143.729 251.814 143.857 251.673 143.937 251.502H144.865L144.401 254.663H141.313V253.822H143.681L143.937 252.438C143.814 252.572 143.652 252.678 143.449 252.758C143.246 252.844 143.014 252.886 142.753 252.886C142.46 252.886 142.201 252.836 141.977 252.734C141.753 252.633 141.564 252.494 141.409 252.318C141.254 252.142 141.14 251.937 141.065 251.702C140.985 251.473 140.945 251.23 140.945 250.974C140.945 250.686 140.993 250.42 141.089 250.174C141.185 249.934 141.321 249.724 141.497 249.542C141.668 249.361 141.876 249.22 142.121 249.118C142.361 249.017 142.63 248.966 142.929 248.966ZM139.128 249.062L135.952 254.663H135.008L138.184 249.062H139.128ZM135.264 248.966C135.514 248.966 135.744 249.022 135.952 249.134C136.154 249.252 136.317 249.414 136.44 249.622C136.562 249.836 136.624 250.086 136.624 250.374C136.624 250.668 136.562 250.918 136.44 251.126C136.317 251.334 136.154 251.494 135.952 251.606C135.744 251.724 135.514 251.782 135.264 251.782C135.002 251.782 134.773 251.724 134.576 251.606C134.373 251.494 134.213 251.334 134.096 251.126C133.973 250.918 133.912 250.668 133.912 250.374C133.912 250.086 133.973 249.836 134.096 249.622C134.213 249.414 134.373 249.252 134.576 249.134C134.778 249.022 135.008 248.966 135.264 248.966ZM135.272 249.638C135.16 249.638 135.058 249.665 134.968 249.718C134.877 249.777 134.805 249.86 134.752 249.966C134.698 250.078 134.672 250.214 134.672 250.374C134.672 250.54 134.698 250.676 134.752 250.782C134.805 250.889 134.877 250.969 134.968 251.022C135.053 251.081 135.152 251.11 135.264 251.11C135.37 251.11 135.469 251.081 135.56 251.022C135.65 250.969 135.722 250.889 135.776 250.782C135.829 250.676 135.856 250.54 135.856 250.374C135.856 250.214 135.829 250.078 135.776 249.966C135.722 249.86 135.653 249.777 135.568 249.718C135.477 249.665 135.378 249.638 135.272 249.638ZM138.824 251.942C139.08 251.942 139.312 251.998 139.52 252.11C139.722 252.222 139.885 252.385 140.008 252.598C140.125 252.812 140.184 253.062 140.184 253.35C140.184 253.638 140.125 253.886 140.008 254.094C139.885 254.308 139.72 254.471 139.512 254.583C139.304 254.695 139.074 254.75 138.824 254.75C138.568 254.75 138.338 254.695 138.136 254.583C137.933 254.471 137.773 254.308 137.656 254.094C137.533 253.886 137.472 253.638 137.472 253.35C137.472 253.062 137.533 252.812 137.656 252.598C137.773 252.385 137.933 252.222 138.136 252.11C138.338 251.998 138.568 251.942 138.824 251.942ZM138.832 252.614C138.72 252.614 138.618 252.641 138.528 252.694C138.437 252.753 138.368 252.836 138.32 252.942C138.266 253.054 138.24 253.19 138.24 253.35C138.24 253.51 138.266 253.646 138.32 253.758C138.368 253.87 138.437 253.953 138.528 254.006C138.618 254.065 138.717 254.094 138.824 254.094C138.93 254.094 139.032 254.065 139.128 254.006C139.218 253.953 139.29 253.87 139.344 253.758C139.397 253.646 139.424 253.51 139.424 253.35C139.424 253.19 139.397 253.054 139.344 252.942C139.29 252.836 139.218 252.753 139.128 252.694C139.037 252.641 138.938 252.614 138.832 252.614Z" fill="#9F9F9F"/>
<path d="M69.4053 222.625C69.6736 222.892 69.8683 223.18 69.9892 223.489C70.1064 223.801 70.1423 224.108 70.0969 224.409C70.044 224.71 69.8985 224.979 69.6604 225.216C69.5017 225.374 69.3259 225.493 69.1332 225.572C68.9404 225.651 68.742 225.686 68.5379 225.679C68.33 225.675 68.1316 225.628 67.9426 225.538C68.0446 225.805 68.0768 226.066 68.039 226.322C67.9936 226.578 67.8783 226.798 67.6931 226.983C67.5004 227.175 67.2736 227.299 67.0128 227.355C66.752 227.412 66.4742 227.391 66.1794 227.293C65.8808 227.192 65.5879 226.998 65.3006 226.712C65.0134 226.426 64.8206 226.136 64.7224 225.843C64.6241 225.549 64.6033 225.272 64.66 225.013C64.7167 224.753 64.8414 224.527 65.0342 224.336C65.2156 224.155 65.4386 224.042 65.7032 223.997C65.9602 223.952 66.221 223.982 66.4855 224.087C66.3911 223.895 66.3438 223.698 66.3438 223.495C66.34 223.288 66.3778 223.088 66.4572 222.896C66.529 222.704 66.6443 222.529 66.803 222.371C67.0411 222.134 67.3133 221.991 67.6194 221.942C67.9218 221.897 68.2298 221.933 68.5435 222.05C68.8497 222.166 69.1369 222.358 69.4053 222.625ZM68.8327 223.195C68.5832 222.947 68.3357 222.821 68.09 222.817C67.8368 222.813 67.6156 222.906 67.4267 223.094C67.215 223.305 67.1205 223.534 67.1432 223.782C67.1583 224.031 67.283 224.272 67.5174 224.505C67.7517 224.738 67.9974 224.866 68.2544 224.889C68.5038 224.911 68.7344 224.817 68.9461 224.606C69.135 224.418 69.2276 224.198 69.2239 223.946C69.2125 223.694 69.0821 223.444 68.8327 223.195ZM67.0015 225.018C66.7974 224.815 66.5857 224.71 66.3665 224.702C66.1397 224.695 65.9451 224.772 65.7825 224.934C65.5973 225.118 65.5142 225.318 65.5331 225.532C65.5444 225.747 65.6521 225.955 65.8562 226.159C66.0603 226.362 66.272 226.471 66.4912 226.486C66.7029 226.501 66.9013 226.416 67.0865 226.232C67.2528 226.066 67.3322 225.875 67.3246 225.656C67.3133 225.434 67.2056 225.222 67.0015 225.018ZM66.9823 220.349L62.118 222.245L64.1136 224.232L63.5297 224.813L60.8367 222.132L61.3243 221.647L66.2737 219.643L66.9823 220.349ZM64.3089 217.63C64.4374 217.758 64.5016 217.901 64.5016 218.059C64.5016 218.217 64.4468 218.351 64.3372 218.46C64.22 218.577 64.0821 218.635 63.9233 218.635C63.7646 218.635 63.621 218.571 63.4925 218.443C63.3677 218.319 63.3054 218.178 63.3054 218.02C63.3054 217.862 63.364 217.725 63.4811 217.608C63.5907 217.499 63.7249 217.444 63.8837 217.444C64.0424 217.444 64.1841 217.506 64.3089 217.63ZM61.8862 215.139C62.1696 215.422 62.3662 215.715 62.4758 216.02C62.5778 216.325 62.6005 216.622 62.5438 216.912C62.4833 217.205 62.353 217.474 62.1526 217.719L61.4893 217.059C61.6216 216.859 61.6764 216.635 61.6537 216.387C61.6273 216.142 61.512 215.918 61.3079 215.715C61.1529 215.561 60.9847 215.465 60.8033 215.427C60.6181 215.393 60.4329 215.409 60.2477 215.472C60.055 215.536 59.8792 215.647 59.7205 215.805C59.5579 215.967 59.4483 216.14 59.3916 216.325C59.3312 216.505 59.3236 216.682 59.369 216.855C59.4105 217.032 59.5031 217.192 59.6468 217.335C59.8244 217.512 60.0191 217.623 60.2307 217.668C60.4348 217.713 60.6257 217.704 60.8033 217.64L61.461 218.295L58.8927 220.197L56.7044 218.018L57.2996 217.425L58.9778 219.096L60.14 218.3C59.9586 218.308 59.7677 218.268 59.5674 218.182C59.3633 218.099 59.1686 217.965 58.9834 217.781C58.7756 217.574 58.6282 217.356 58.5412 217.126C58.4543 216.897 58.4184 216.665 58.4335 216.432C58.4486 216.199 58.5129 215.973 58.6263 215.755C58.7321 215.536 58.8757 215.337 59.0572 215.156C59.2612 214.953 59.4842 214.799 59.7261 214.694C59.9643 214.592 60.2099 214.539 60.4632 214.536C60.7126 214.528 60.9602 214.575 61.2058 214.677C61.4477 214.774 61.6745 214.929 61.8862 215.139ZM59.1243 212.525L52.9049 214.235L52.236 213.569L58.4553 211.859L59.1243 212.525ZM56.454 209.731C56.6316 209.908 56.7545 210.109 56.8225 210.335C56.883 210.561 56.883 210.791 56.8225 211.024C56.7582 211.261 56.6241 211.481 56.42 211.684C56.2121 211.891 55.991 212.025 55.7566 212.085C55.5223 212.145 55.2936 212.143 55.0706 212.079C54.8401 212.015 54.636 211.895 54.4584 211.718C54.2732 211.534 54.1522 211.331 54.0955 211.109C54.0313 210.887 54.0313 210.661 54.0955 210.431C54.156 210.198 54.2902 209.978 54.498 209.771C54.7021 209.568 54.9232 209.434 55.1614 209.37C55.3919 209.306 55.6206 209.304 55.8473 209.364C56.0703 209.428 56.2726 209.551 56.454 209.731ZM55.9834 210.211C55.904 210.132 55.8133 210.079 55.7113 210.053C55.6055 210.03 55.4958 210.038 55.3825 210.076C55.2653 210.117 55.15 210.194 55.0366 210.307C54.9195 210.424 54.842 210.538 54.8042 210.651C54.7664 210.764 54.7607 210.871 54.7872 210.973C54.8061 211.075 54.8552 211.165 54.9346 211.244C55.0102 211.319 55.1009 211.368 55.2067 211.391C55.3088 211.417 55.4165 211.411 55.5299 211.374C55.6433 211.336 55.7585 211.259 55.8757 211.142C55.9891 211.029 56.0666 210.915 56.1081 210.798C56.1459 210.685 56.1554 210.578 56.1365 210.476C56.11 210.375 56.059 210.286 55.9834 210.211ZM56.8678 214.343C57.0493 214.523 57.174 214.727 57.242 214.952C57.3063 215.174 57.3063 215.404 57.242 215.641C57.174 215.874 57.0379 216.092 56.8338 216.296C56.6297 216.499 56.4124 216.632 56.1818 216.696C55.9437 216.76 55.7113 216.758 55.4845 216.691C55.2577 216.623 55.0555 216.501 54.8779 216.324C54.6965 216.143 54.5736 215.942 54.5094 215.72C54.4451 215.498 54.447 215.27 54.515 215.037C54.5755 214.804 54.7078 214.585 54.9119 214.382C55.116 214.179 55.3371 214.045 55.5752 213.981C55.8096 213.914 56.0382 213.912 56.2612 213.976C56.4842 214.04 56.6864 214.162 56.8678 214.343ZM56.3973 214.822C56.3179 214.743 56.2272 214.691 56.1251 214.664C56.0193 214.642 55.9116 214.651 55.802 214.693C55.6848 214.734 55.5695 214.811 55.4562 214.924C55.3428 215.037 55.2653 215.152 55.2237 215.268C55.1784 215.381 55.1689 215.488 55.1954 215.59C55.218 215.695 55.2672 215.786 55.3428 215.861C55.4184 215.936 55.511 215.987 55.6206 216.013C55.7226 216.04 55.8322 216.032 55.9494 215.991C56.0666 215.949 56.1818 215.872 56.2952 215.759C56.4086 215.647 56.4861 215.532 56.5277 215.415C56.5655 215.302 56.573 215.193 56.5504 215.088C56.5239 214.986 56.4729 214.898 56.3973 214.822Z" fill="#9F9F9F"/>
<path d="M93.0992 141.197C92.7992 141.197 92.5392 141.145 92.3192 141.041C92.1032 140.933 91.9332 140.787 91.8092 140.603C91.6852 140.415 91.6112 140.203 91.5872 139.967H92.2892C92.3252 140.143 92.4152 140.291 92.5592 140.411C92.7032 140.527 92.8832 140.585 93.0992 140.585C93.2632 140.585 93.4032 140.547 93.5192 140.471C93.6352 140.391 93.7252 140.285 93.7892 140.153C93.8572 140.017 93.8912 139.865 93.8912 139.697C93.8912 139.525 93.8572 139.375 93.7892 139.247C93.7252 139.119 93.6352 139.021 93.5192 138.953C93.4032 138.881 93.2692 138.845 93.1172 138.845C92.9292 138.845 92.7672 138.889 92.6312 138.977C92.4992 139.061 92.4032 139.167 92.3432 139.295H91.6472L91.9952 136.925H94.3112V137.555H92.5352L92.3432 138.593C92.4352 138.493 92.5572 138.413 92.7092 138.353C92.8612 138.289 93.0352 138.257 93.2312 138.257C93.4512 138.257 93.6452 138.295 93.8132 138.371C93.9812 138.447 94.1232 138.551 94.2392 138.683C94.3552 138.815 94.4412 138.969 94.4972 139.145C94.5572 139.317 94.5872 139.499 94.5872 139.691C94.5872 139.907 94.5512 140.107 94.4792 140.291C94.4072 140.471 94.3052 140.629 94.1732 140.765C94.0452 140.901 93.8892 141.007 93.7052 141.083C93.5252 141.159 93.3232 141.197 93.0992 141.197ZM97.0062 141.197C96.6262 141.197 96.3002 141.107 96.0282 140.927C95.7562 140.743 95.5462 140.489 95.3982 140.165C95.2542 139.837 95.1822 139.457 95.1822 139.025C95.1822 138.593 95.2542 138.215 95.3982 137.891C95.5462 137.563 95.7562 137.309 96.0282 137.129C96.3002 136.945 96.6262 136.853 97.0062 136.853C97.3822 136.853 97.7042 136.945 97.9722 137.129C98.2442 137.309 98.4522 137.563 98.5962 137.891C98.7442 138.215 98.8182 138.593 98.8182 139.025C98.8182 139.457 98.7442 139.837 98.5962 140.165C98.4522 140.489 98.2442 140.743 97.9722 140.927C97.7042 141.107 97.3822 141.197 97.0062 141.197ZM97.0002 140.549C97.2122 140.549 97.4002 140.489 97.5642 140.369C97.7282 140.245 97.8542 140.069 97.9422 139.841C98.0342 139.613 98.0802 139.341 98.0802 139.025C98.0802 138.709 98.0342 138.437 97.9422 138.209C97.8542 137.981 97.7282 137.807 97.5642 137.687C97.4002 137.563 97.2122 137.501 97.0002 137.501C96.7882 137.501 96.6002 137.563 96.4362 137.687C96.2722 137.807 96.1442 137.981 96.0522 138.209C95.9642 138.437 95.9202 138.709 95.9202 139.025C95.9202 139.341 95.9642 139.613 96.0522 139.841C96.1442 140.069 96.2722 140.245 96.4362 140.369C96.6002 140.489 96.7882 140.549 97.0002 140.549ZM100.14 141.125L102.522 136.925H103.23L100.848 141.125H100.14ZM103.038 141.197C102.85 141.197 102.678 141.155 102.522 141.071C102.37 140.983 102.248 140.861 102.156 140.705C102.064 140.545 102.018 140.357 102.018 140.141C102.018 139.921 102.064 139.733 102.156 139.577C102.248 139.421 102.37 139.301 102.522 139.217C102.678 139.129 102.85 139.085 103.038 139.085C103.234 139.085 103.406 139.129 103.554 139.217C103.706 139.301 103.826 139.421 103.914 139.577C104.006 139.733 104.052 139.921 104.052 140.141C104.052 140.357 104.006 140.545 103.914 140.705C103.826 140.861 103.706 140.983 103.554 141.071C103.402 141.155 103.23 141.197 103.038 141.197ZM103.032 140.693C103.116 140.693 103.192 140.673 103.26 140.633C103.328 140.589 103.382 140.527 103.422 140.447C103.462 140.363 103.482 140.261 103.482 140.141C103.482 140.017 103.462 139.915 103.422 139.835C103.382 139.755 103.328 139.695 103.26 139.655C103.196 139.611 103.122 139.589 103.038 139.589C102.958 139.589 102.884 139.611 102.816 139.655C102.748 139.695 102.694 139.755 102.654 139.835C102.614 139.915 102.594 140.017 102.594 140.141C102.594 140.261 102.614 140.363 102.654 140.447C102.694 140.527 102.746 140.589 102.81 140.633C102.878 140.673 102.952 140.693 103.032 140.693ZM100.368 138.965C100.176 138.965 100.002 138.923 99.8456 138.839C99.6936 138.755 99.5716 138.633 99.4796 138.473C99.3916 138.313 99.3476 138.125 99.3476 137.909C99.3476 137.693 99.3916 137.507 99.4796 137.351C99.5716 137.191 99.6956 137.069 99.8516 136.985C100.008 136.901 100.18 136.859 100.368 136.859C100.56 136.859 100.732 136.901 100.884 136.985C101.036 137.069 101.156 137.191 101.244 137.351C101.336 137.507 101.382 137.693 101.382 137.909C101.382 138.125 101.336 138.313 101.244 138.473C101.156 138.633 101.036 138.755 100.884 138.839C100.732 138.923 100.56 138.965 100.368 138.965ZM100.362 138.461C100.446 138.461 100.522 138.441 100.59 138.401C100.658 138.357 100.71 138.295 100.746 138.215C100.786 138.131 100.806 138.029 100.806 137.909C100.806 137.789 100.786 137.687 100.746 137.603C100.71 137.519 100.658 137.457 100.59 137.417C100.522 137.373 100.448 137.351 100.368 137.351C100.288 137.351 100.212 137.373 100.14 137.417C100.072 137.457 100.018 137.519 99.9776 137.603C99.9376 137.687 99.9176 137.789 99.9176 137.909C99.9176 138.029 99.9376 138.131 99.9776 138.215C100.018 138.295 100.072 138.357 100.14 138.401C100.208 138.441 100.282 138.461 100.362 138.461Z" fill="white"/>
<path d="M71.8223 141.125L73.3883 137.543H71.2763V136.925H74.1263V137.441L72.5723 141.125H71.8223ZM76.3783 141.197C75.9983 141.197 75.6723 141.107 75.4003 140.927C75.1283 140.743 74.9183 140.489 74.7703 140.165C74.6263 139.837 74.5543 139.457 74.5543 139.025C74.5543 138.593 74.6263 138.215 74.7703 137.891C74.9183 137.563 75.1283 137.309 75.4003 137.129C75.6723 136.945 75.9983 136.853 76.3783 136.853C76.7543 136.853 77.0763 136.945 77.3443 137.129C77.6163 137.309 77.8243 137.563 77.9683 137.891C78.1163 138.215 78.1903 138.593 78.1903 139.025C78.1903 139.457 78.1163 139.837 77.9683 140.165C77.8243 140.489 77.6163 140.743 77.3443 140.927C77.0763 141.107 76.7543 141.197 76.3783 141.197ZM76.3723 140.549C76.5843 140.549 76.7723 140.489 76.9363 140.369C77.1003 140.245 77.2263 140.069 77.3143 139.841C77.4063 139.613 77.4523 139.341 77.4523 139.025C77.4523 138.709 77.4063 138.437 77.3143 138.209C77.2263 137.981 77.1003 137.807 76.9363 137.687C76.7723 137.563 76.5843 137.501 76.3723 137.501C76.1603 137.501 75.9723 137.563 75.8083 137.687C75.6443 137.807 75.5163 137.981 75.4243 138.209C75.3363 138.437 75.2923 138.709 75.2923 139.025C75.2923 139.341 75.3363 139.613 75.4243 139.841C75.5163 140.069 75.6443 140.245 75.8083 140.369C75.9723 140.489 76.1603 140.549 76.3723 140.549ZM79.5117 141.125L81.8937 136.925H82.6017L80.2197 141.125H79.5117ZM82.4097 141.197C82.2217 141.197 82.0497 141.155 81.8937 141.071C81.7417 140.983 81.6197 140.861 81.5277 140.705C81.4357 140.545 81.3897 140.357 81.3897 140.141C81.3897 139.921 81.4357 139.733 81.5277 139.577C81.6197 139.421 81.7417 139.301 81.8937 139.217C82.0497 139.129 82.2217 139.085 82.4097 139.085C82.6057 139.085 82.7777 139.129 82.9257 139.217C83.0777 139.301 83.1977 139.421 83.2857 139.577C83.3777 139.733 83.4237 139.921 83.4237 140.141C83.4237 140.357 83.3777 140.545 83.2857 140.705C83.1977 140.861 83.0777 140.983 82.9257 141.071C82.7737 141.155 82.6017 141.197 82.4097 141.197ZM82.4037 140.693C82.4877 140.693 82.5637 140.673 82.6317 140.633C82.6997 140.589 82.7537 140.527 82.7937 140.447C82.8337 140.363 82.8537 140.261 82.8537 140.141C82.8537 140.017 82.8337 139.915 82.7937 139.835C82.7537 139.755 82.6997 139.695 82.6317 139.655C82.5677 139.611 82.4937 139.589 82.4097 139.589C82.3297 139.589 82.2557 139.611 82.1877 139.655C82.1197 139.695 82.0657 139.755 82.0257 139.835C81.9857 139.915 81.9657 140.017 81.9657 140.141C81.9657 140.261 81.9857 140.363 82.0257 140.447C82.0657 140.527 82.1177 140.589 82.1817 140.633C82.2497 140.673 82.3237 140.693 82.4037 140.693ZM79.7397 138.965C79.5477 138.965 79.3737 138.923 79.2177 138.839C79.0657 138.755 78.9437 138.633 78.8517 138.473C78.7637 138.313 78.7197 138.125 78.7197 137.909C78.7197 137.693 78.7637 137.507 78.8517 137.351C78.9437 137.191 79.0677 137.069 79.2237 136.985C79.3797 136.901 79.5517 136.859 79.7397 136.859C79.9317 136.859 80.1037 136.901 80.2557 136.985C80.4077 137.069 80.5277 137.191 80.6157 137.351C80.7077 137.507 80.7537 137.693 80.7537 137.909C80.7537 138.125 80.7077 138.313 80.6157 138.473C80.5277 138.633 80.4077 138.755 80.2557 138.839C80.1037 138.923 79.9317 138.965 79.7397 138.965ZM79.7337 138.461C79.8177 138.461 79.8937 138.441 79.9617 138.401C80.0297 138.357 80.0817 138.295 80.1177 138.215C80.1577 138.131 80.1777 138.029 80.1777 137.909C80.1777 137.789 80.1577 137.687 80.1177 137.603C80.0817 137.519 80.0297 137.457 79.9617 137.417C79.8937 137.373 79.8197 137.351 79.7397 137.351C79.6597 137.351 79.5837 137.373 79.5117 137.417C79.4437 137.457 79.3897 137.519 79.3497 137.603C79.3097 137.687 79.2897 137.789 79.2897 137.909C79.2897 138.029 79.3097 138.131 79.3497 138.215C79.3897 138.295 79.4437 138.357 79.5117 138.401C79.5797 138.441 79.6537 138.461 79.7337 138.461Z" fill="white"/>
<path d="M55.8114 141.197C55.5394 141.197 55.2914 141.149 55.0674 141.053C54.8434 140.953 54.6634 140.803 54.5274 140.603C54.3954 140.399 54.3254 140.143 54.3174 139.835H55.0254C55.0294 139.975 55.0614 140.103 55.1214 140.219C55.1854 140.331 55.2754 140.421 55.3914 140.489C55.5074 140.553 55.6474 140.585 55.8114 140.585C55.9674 140.585 56.0994 140.555 56.2074 140.495C56.3194 140.435 56.4034 140.353 56.4594 140.249C56.5154 140.145 56.5434 140.029 56.5434 139.901C56.5434 139.745 56.5054 139.617 56.4294 139.517C56.3534 139.413 56.2494 139.335 56.1174 139.283C55.9854 139.231 55.8354 139.205 55.6674 139.205H55.3554V138.611H55.6674C55.8874 138.611 56.0674 138.561 56.2074 138.461C56.3474 138.357 56.4174 138.207 56.4174 138.011C56.4174 137.847 56.3634 137.715 56.2554 137.615C56.1514 137.515 56.0014 137.465 55.8054 137.465C55.6014 137.465 55.4394 137.525 55.3194 137.645C55.2034 137.765 55.1394 137.913 55.1274 138.089H54.4194C54.4314 137.837 54.4954 137.619 54.6114 137.435C54.7314 137.247 54.8934 137.103 55.0974 137.003C55.3014 136.903 55.5394 136.853 55.8114 136.853C56.0954 136.853 56.3354 136.903 56.5314 137.003C56.7274 137.103 56.8754 137.237 56.9754 137.405C57.0794 137.573 57.1314 137.757 57.1314 137.957C57.1314 138.113 57.1014 138.255 57.0414 138.383C56.9814 138.511 56.8994 138.619 56.7954 138.707C56.6954 138.791 56.5774 138.853 56.4414 138.893C56.5974 138.925 56.7354 138.987 56.8554 139.079C56.9794 139.171 57.0754 139.289 57.1434 139.433C57.2154 139.573 57.2514 139.737 57.2514 139.925C57.2514 140.153 57.1954 140.365 57.0834 140.561C56.9754 140.753 56.8134 140.907 56.5974 141.023C56.3854 141.139 56.1234 141.197 55.8114 141.197ZM59.5172 141.197C59.2172 141.197 58.9572 141.145 58.7372 141.041C58.5212 140.933 58.3512 140.787 58.2272 140.603C58.1032 140.415 58.0292 140.203 58.0052 139.967H58.7072C58.7432 140.143 58.8332 140.291 58.9772 140.411C59.1212 140.527 59.3012 140.585 59.5172 140.585C59.6812 140.585 59.8212 140.547 59.9372 140.471C60.0532 140.391 60.1432 140.285 60.2072 140.153C60.2752 140.017 60.3092 139.865 60.3092 139.697C60.3092 139.525 60.2752 139.375 60.2072 139.247C60.1432 139.119 60.0532 139.021 59.9372 138.953C59.8212 138.881 59.6872 138.845 59.5352 138.845C59.3472 138.845 59.1852 138.889 59.0492 138.977C58.9172 139.061 58.8212 139.167 58.7612 139.295H58.0652L58.4132 136.925H60.7292V137.555H58.9532L58.7612 138.593C58.8532 138.493 58.9752 138.413 59.1272 138.353C59.2792 138.289 59.4532 138.257 59.6492 138.257C59.8692 138.257 60.0632 138.295 60.2312 138.371C60.3992 138.447 60.5412 138.551 60.6572 138.683C60.7732 138.815 60.8592 138.969 60.9152 139.145C60.9752 139.317 61.0052 139.499 61.0052 139.691C61.0052 139.907 60.9692 140.107 60.8972 140.291C60.8252 140.471 60.7232 140.629 60.5912 140.765C60.4632 140.901 60.3072 141.007 60.1232 141.083C59.9432 141.159 59.7412 141.197 59.5172 141.197ZM62.3682 141.125L64.7502 136.925H65.4582L63.0762 141.125H62.3682ZM65.2662 141.197C65.0782 141.197 64.9062 141.155 64.7502 141.071C64.5982 140.983 64.4762 140.861 64.3842 140.705C64.2922 140.545 64.2462 140.357 64.2462 140.141C64.2462 139.921 64.2922 139.733 64.3842 139.577C64.4762 139.421 64.5982 139.301 64.7502 139.217C64.9062 139.129 65.0782 139.085 65.2662 139.085C65.4622 139.085 65.6342 139.129 65.7822 139.217C65.9342 139.301 66.0542 139.421 66.1422 139.577C66.2342 139.733 66.2802 139.921 66.2802 140.141C66.2802 140.357 66.2342 140.545 66.1422 140.705C66.0542 140.861 65.9342 140.983 65.7822 141.071C65.6302 141.155 65.4582 141.197 65.2662 141.197ZM65.2602 140.693C65.3442 140.693 65.4202 140.673 65.4882 140.633C65.5562 140.589 65.6102 140.527 65.6502 140.447C65.6902 140.363 65.7102 140.261 65.7102 140.141C65.7102 140.017 65.6902 139.915 65.6502 139.835C65.6102 139.755 65.5562 139.695 65.4882 139.655C65.4242 139.611 65.3502 139.589 65.2662 139.589C65.1862 139.589 65.1122 139.611 65.0442 139.655C64.9762 139.695 64.9222 139.755 64.8822 139.835C64.8422 139.915 64.8222 140.017 64.8222 140.141C64.8222 140.261 64.8422 140.363 64.8822 140.447C64.9222 140.527 64.9742 140.589 65.0382 140.633C65.1062 140.673 65.1802 140.693 65.2602 140.693ZM62.5962 138.965C62.4042 138.965 62.2302 138.923 62.0742 138.839C61.9222 138.755 61.8002 138.633 61.7082 138.473C61.6202 138.313 61.5762 138.125 61.5762 137.909C61.5762 137.693 61.6202 137.507 61.7082 137.351C61.8002 137.191 61.9242 137.069 62.0802 136.985C62.2362 136.901 62.4082 136.859 62.5962 136.859C62.7882 136.859 62.9602 136.901 63.1122 136.985C63.2642 137.069 63.3842 137.191 63.4722 137.351C63.5642 137.507 63.6102 137.693 63.6102 137.909C63.6102 138.125 63.5642 138.313 63.4722 138.473C63.3842 138.633 63.2642 138.755 63.1122 138.839C62.9602 138.923 62.7882 138.965 62.5962 138.965ZM62.5902 138.461C62.6742 138.461 62.7502 138.441 62.8182 138.401C62.8862 138.357 62.9382 138.295 62.9742 138.215C63.0142 138.131 63.0342 138.029 63.0342 137.909C63.0342 137.789 63.0142 137.687 62.9742 137.603C62.9382 137.519 62.8862 137.457 62.8182 137.417C62.7502 137.373 62.6762 137.351 62.5962 137.351C62.5162 137.351 62.4402 137.373 62.3682 137.417C62.3002 137.457 62.2462 137.519 62.2062 137.603C62.1662 137.687 62.1462 137.789 62.1462 137.909C62.1462 138.029 62.1662 138.131 62.2062 138.215C62.2462 138.295 62.3002 138.357 62.3682 138.401C62.4362 138.441 62.5102 138.461 62.5902 138.461Z" fill="black"/>
<rect x="24" y="282.562" width="14" height="14" rx="4" fill="white"/>
<path d="M42.9 294.062V285.662H45.372C46.356 285.662 47.164 285.834 47.796 286.178C48.436 286.514 48.908 286.998 49.212 287.63C49.524 288.254 49.68 289.006 49.68 289.886C49.68 290.75 49.524 291.494 49.212 292.118C48.908 292.742 48.436 293.222 47.796 293.558C47.164 293.894 46.356 294.062 45.372 294.062H42.9ZM43.908 293.222H45.348C46.164 293.222 46.812 293.09 47.292 292.826C47.772 292.554 48.116 292.17 48.324 291.674C48.532 291.17 48.636 290.574 48.636 289.886C48.636 289.182 48.532 288.578 48.324 288.074C48.116 287.57 47.772 287.182 47.292 286.91C46.812 286.638 46.164 286.502 45.348 286.502H43.908V293.222ZM51.1977 294.062V288.014H52.2057V294.062H51.1977ZM51.7017 286.73C51.5017 286.73 51.3337 286.666 51.1977 286.538C51.0697 286.402 51.0057 286.234 51.0057 286.034C51.0057 285.834 51.0697 285.674 51.1977 285.554C51.3337 285.426 51.5017 285.362 51.7017 285.362C51.8937 285.362 52.0577 285.426 52.1937 285.554C52.3297 285.674 52.3977 285.834 52.3977 286.034C52.3977 286.234 52.3297 286.402 52.1937 286.538C52.0577 286.666 51.8937 286.73 51.7017 286.73ZM54.3205 294.062V287.078C54.3205 286.694 54.3845 286.382 54.5125 286.142C54.6405 285.894 54.8285 285.714 55.0765 285.602C55.3325 285.482 55.6445 285.422 56.0125 285.422H56.6965V286.286H56.1685C55.8725 286.286 55.6565 286.346 55.5205 286.466C55.3925 286.586 55.3285 286.798 55.3285 287.102V294.062H54.3205ZM53.3965 288.866V288.014H56.8525V288.866H53.3965ZM58.3987 294.062V288.866H57.4747V288.014H58.3987V287.078C58.3987 286.694 58.4627 286.382 58.5907 286.142C58.7187 285.894 58.9067 285.714 59.1547 285.602C59.4107 285.482 59.7227 285.422 60.0907 285.422H60.6907V286.286H60.2467C59.9507 286.286 59.7347 286.346 59.5987 286.466C59.4707 286.586 59.4067 286.798 59.4067 287.102V288.014H63.0307V294.062H62.0227V288.866H59.4067V294.062H58.3987ZM62.5387 286.862C62.3467 286.862 62.1827 286.798 62.0467 286.67C61.9107 286.534 61.8427 286.366 61.8427 286.166C61.8427 285.966 61.9107 285.806 62.0467 285.686C62.1827 285.558 62.3467 285.494 62.5387 285.494C62.7387 285.494 62.9027 285.558 63.0307 285.686C63.1667 285.806 63.2347 285.966 63.2347 286.166C63.2347 286.366 63.1667 286.534 63.0307 286.67C62.9027 286.798 62.7387 286.862 62.5387 286.862ZM67.5484 294.207C66.9804 294.207 66.4684 294.074 66.0124 293.81C65.5644 293.546 65.2124 293.178 64.9564 292.706C64.7004 292.226 64.5724 291.674 64.5724 291.05C64.5724 290.41 64.7004 289.854 64.9564 289.382C65.2124 288.91 65.5644 288.542 66.0124 288.278C66.4684 288.006 66.9804 287.87 67.5484 287.87C68.2684 287.87 68.8684 288.058 69.3484 288.434C69.8284 288.802 70.1324 289.298 70.2604 289.922H69.2284C69.1484 289.546 68.9524 289.254 68.6404 289.046C68.3284 288.838 67.9604 288.734 67.5364 288.734C67.1924 288.734 66.8724 288.822 66.5764 288.998C66.2804 289.166 66.0444 289.422 65.8684 289.766C65.6924 290.11 65.6044 290.534 65.6044 291.038C65.6044 291.414 65.6564 291.75 65.7604 292.046C65.8644 292.334 66.0044 292.574 66.1804 292.766C66.3564 292.958 66.5604 293.106 66.7924 293.21C67.0324 293.306 67.2804 293.354 67.5364 293.354C67.8244 293.354 68.0844 293.31 68.3164 293.222C68.5484 293.126 68.7444 292.986 68.9044 292.802C69.0644 292.618 69.1724 292.402 69.2284 292.154H70.2604C70.1324 292.762 69.8244 293.258 69.3364 293.642C68.8564 294.019 68.2604 294.207 67.5484 294.207ZM73.8876 294.207C73.4236 294.207 73.0156 294.114 72.6636 293.93C72.3196 293.746 72.0516 293.462 71.8596 293.078C71.6756 292.694 71.5836 292.214 71.5836 291.638V288.014H72.5916V291.53C72.5916 292.13 72.7236 292.582 72.9876 292.886C73.2516 293.19 73.6236 293.342 74.1036 293.342C74.4396 293.342 74.7436 293.262 75.0156 293.102C75.2876 292.934 75.4996 292.698 75.6516 292.394C75.8116 292.082 75.8916 291.702 75.8916 291.254V288.014H76.8996V294.062H75.9876L75.9276 293.006C75.7436 293.382 75.4716 293.678 75.1116 293.894C74.7516 294.102 74.3436 294.207 73.8876 294.207ZM78.5705 294.062V285.422H79.5785V294.062H78.5705ZM83.6183 294.062C83.2583 294.062 82.9463 294.006 82.6823 293.894C82.4183 293.782 82.2143 293.594 82.0703 293.33C81.9343 293.058 81.8663 292.694 81.8663 292.238V288.866H80.8103V288.014H81.8663L81.9983 286.55H82.8743V288.014H84.6263V288.866H82.8743V292.238C82.8743 292.614 82.9503 292.87 83.1023 293.006C83.2543 293.134 83.5223 293.198 83.9063 293.198H84.5543V294.062H83.6183ZM86.6016 296.703L88.0776 293.39H87.7296L85.3536 288.014H86.4456L88.4136 292.634L90.4776 288.014H91.5216L87.6576 296.703H86.6016Z" fill="#9F9F9F"/>
<rect x="111" y="282.562" width="14" height="14" rx="4" fill="#FF812A"/>
<path d="M133.548 294.207C132.732 294.207 132.024 294.027 131.424 293.667C130.832 293.298 130.376 292.79 130.056 292.142C129.736 291.486 129.576 290.726 129.576 289.862C129.576 288.998 129.736 288.242 130.056 287.594C130.376 286.938 130.832 286.43 131.424 286.07C132.024 285.702 132.732 285.518 133.548 285.518C134.508 285.518 135.288 285.746 135.888 286.202C136.488 286.658 136.872 287.302 137.04 288.134H135.924C135.796 287.614 135.536 287.198 135.144 286.886C134.752 286.566 134.22 286.406 133.548 286.406C132.948 286.406 132.428 286.546 131.988 286.826C131.548 287.098 131.208 287.494 130.968 288.014C130.728 288.526 130.608 289.142 130.608 289.862C130.608 290.582 130.728 291.202 130.968 291.722C131.208 292.234 131.548 292.63 131.988 292.91C132.428 293.182 132.948 293.318 133.548 293.318C134.22 293.318 134.752 293.166 135.144 292.862C135.536 292.55 135.796 292.138 135.924 291.626H137.04C136.872 292.434 136.488 293.066 135.888 293.522C135.288 293.978 134.508 294.207 133.548 294.207ZM141.142 294.207C140.582 294.207 140.078 294.078 139.63 293.822C139.182 293.558 138.83 293.19 138.574 292.718C138.318 292.238 138.19 291.682 138.19 291.05C138.19 290.402 138.318 289.842 138.574 289.37C138.838 288.89 139.194 288.522 139.642 288.266C140.098 288.002 140.606 287.87 141.166 287.87C141.742 287.87 142.25 288.002 142.69 288.266C143.138 288.522 143.49 288.89 143.746 289.37C144.01 289.842 144.142 290.398 144.142 291.038C144.142 291.678 144.01 292.238 143.746 292.718C143.482 293.19 143.126 293.558 142.678 293.822C142.23 294.078 141.718 294.207 141.142 294.207ZM141.154 293.342C141.498 293.342 141.818 293.258 142.114 293.09C142.41 292.914 142.65 292.654 142.834 292.31C143.018 291.966 143.11 291.542 143.11 291.038C143.11 290.526 143.018 290.102 142.834 289.766C142.658 289.422 142.422 289.166 142.126 288.998C141.838 288.822 141.518 288.734 141.166 288.734C140.83 288.734 140.51 288.822 140.206 288.998C139.91 289.166 139.67 289.422 139.486 289.766C139.31 290.102 139.222 290.526 139.222 291.038C139.222 291.542 139.31 291.966 139.486 292.31C139.67 292.654 139.906 292.914 140.194 293.09C140.49 293.258 140.81 293.342 141.154 293.342ZM148.219 294.207C147.635 294.207 147.123 294.07 146.683 293.798C146.243 293.518 145.903 293.138 145.663 292.658C145.423 292.178 145.303 291.634 145.303 291.026C145.303 290.418 145.423 289.878 145.663 289.406C145.903 288.926 146.243 288.55 146.683 288.278C147.131 288.006 147.647 287.87 148.231 287.87C148.727 287.87 149.159 287.97 149.527 288.17C149.903 288.37 150.191 288.65 150.391 289.01V285.422H151.399V294.062H150.487L150.403 293.066C150.275 293.266 150.111 293.454 149.911 293.63C149.711 293.798 149.471 293.938 149.191 294.05C148.911 294.155 148.587 294.207 148.219 294.207ZM148.339 293.33C148.739 293.33 149.091 293.234 149.395 293.042C149.699 292.85 149.935 292.586 150.103 292.25C150.271 291.906 150.355 291.502 150.355 291.038C150.355 290.582 150.271 290.182 150.103 289.838C149.935 289.494 149.699 289.226 149.395 289.034C149.091 288.842 148.739 288.746 148.339 288.746C147.947 288.746 147.599 288.842 147.295 289.034C146.991 289.226 146.755 289.494 146.587 289.838C146.419 290.182 146.335 290.582 146.335 291.038C146.335 291.502 146.419 291.906 146.587 292.25C146.755 292.586 146.991 292.85 147.295 293.042C147.599 293.234 147.947 293.33 148.339 293.33ZM155.73 294.207C155.162 294.207 154.658 294.074 154.218 293.81C153.786 293.546 153.446 293.178 153.198 292.706C152.95 292.226 152.826 291.67 152.826 291.038C152.826 290.398 152.946 289.842 153.186 289.37C153.434 288.898 153.778 288.53 154.218 288.266C154.666 288.002 155.178 287.87 155.754 287.87C156.346 287.87 156.846 288.002 157.254 288.266C157.67 288.53 157.986 288.878 158.202 289.31C158.426 289.734 158.538 290.202 158.538 290.714C158.538 290.794 158.538 290.878 158.538 290.966C158.538 291.054 158.534 291.154 158.526 291.266H153.582V290.486H157.554C157.53 289.934 157.346 289.502 157.002 289.19C156.666 288.878 156.242 288.722 155.73 288.722C155.386 288.722 155.066 288.802 154.77 288.962C154.482 289.114 154.25 289.342 154.074 289.646C153.898 289.942 153.81 290.314 153.81 290.762V291.098C153.81 291.594 153.898 292.01 154.074 292.346C154.258 292.682 154.494 292.934 154.782 293.102C155.078 293.27 155.394 293.354 155.73 293.354C156.154 293.354 156.502 293.262 156.774 293.078C157.054 292.886 157.254 292.63 157.374 292.31H158.37C158.274 292.67 158.106 292.994 157.866 293.282C157.626 293.57 157.326 293.798 156.966 293.966C156.614 294.126 156.202 294.207 155.73 294.207Z" fill="#9F9F9F"/>
<rect x="179" y="282.562" width="14" height="14" rx="4" fill="#D387FF"/>
<path d="M201.548 294.207C200.732 294.207 200.024 294.027 199.424 293.667C198.832 293.298 198.376 292.79 198.056 292.142C197.736 291.486 197.576 290.726 197.576 289.862C197.576 288.998 197.736 288.242 198.056 287.594C198.376 286.938 198.832 286.43 199.424 286.07C200.024 285.702 200.732 285.518 201.548 285.518C202.508 285.518 203.288 285.746 203.888 286.202C204.488 286.658 204.872 287.302 205.04 288.134H203.924C203.796 287.614 203.536 287.198 203.144 286.886C202.752 286.566 202.22 286.406 201.548 286.406C200.948 286.406 200.428 286.546 199.988 286.826C199.548 287.098 199.208 287.494 198.968 288.014C198.728 288.526 198.608 289.142 198.608 289.862C198.608 290.582 198.728 291.202 198.968 291.722C199.208 292.234 199.548 292.63 199.988 292.91C200.428 293.182 200.948 293.318 201.548 293.318C202.22 293.318 202.752 293.166 203.144 292.862C203.536 292.55 203.796 292.138 203.924 291.626H205.04C204.872 292.434 204.488 293.066 203.888 293.522C203.288 293.978 202.508 294.207 201.548 294.207ZM206.442 294.062V288.014H207.354L207.426 289.166C207.562 288.894 207.734 288.662 207.942 288.47C208.158 288.278 208.414 288.13 208.71 288.026C209.014 287.922 209.358 287.87 209.742 287.87V288.926H209.37C209.114 288.926 208.87 288.962 208.638 289.034C208.406 289.098 208.198 289.206 208.014 289.358C207.838 289.51 207.698 289.718 207.594 289.982C207.498 290.238 207.45 290.558 207.45 290.942V294.062H206.442ZM213.312 294.207C212.744 294.207 212.24 294.074 211.8 293.81C211.368 293.546 211.028 293.178 210.78 292.706C210.532 292.226 210.408 291.67 210.408 291.038C210.408 290.398 210.528 289.842 210.768 289.37C211.016 288.898 211.36 288.53 211.8 288.266C212.248 288.002 212.76 287.87 213.336 287.87C213.928 287.87 214.428 288.002 214.836 288.266C215.252 288.53 215.568 288.878 215.784 289.31C216.008 289.734 216.12 290.202 216.12 290.714C216.12 290.794 216.12 290.878 216.12 290.966C216.12 291.054 216.116 291.154 216.108 291.266H211.164V290.486H215.136C215.112 289.934 214.928 289.502 214.584 289.19C214.248 288.878 213.824 288.722 213.312 288.722C212.968 288.722 212.648 288.802 212.352 288.962C212.064 289.114 211.832 289.342 211.656 289.646C211.48 289.942 211.392 290.314 211.392 290.762V291.098C211.392 291.594 211.48 292.01 211.656 292.346C211.84 292.682 212.076 292.934 212.364 293.102C212.66 293.27 212.976 293.354 213.312 293.354C213.736 293.354 214.084 293.262 214.356 293.078C214.636 292.886 214.836 292.63 214.956 292.31H215.952C215.856 292.67 215.688 292.994 215.448 293.282C215.208 293.57 214.908 293.798 214.548 293.966C214.196 294.126 213.784 294.207 213.312 294.207ZM219.449 294.207C218.961 294.207 218.553 294.122 218.225 293.954C217.897 293.778 217.653 293.55 217.493 293.271C217.333 292.982 217.253 292.67 217.253 292.334C217.253 291.926 217.357 291.582 217.565 291.302C217.781 291.014 218.081 290.798 218.465 290.654C218.857 290.502 219.317 290.426 219.845 290.426H221.441C221.441 290.05 221.381 289.738 221.261 289.49C221.149 289.234 220.981 289.042 220.757 288.914C220.541 288.786 220.269 288.722 219.941 288.722C219.557 288.722 219.225 288.818 218.945 289.01C218.665 289.202 218.493 289.486 218.429 289.862H217.397C217.445 289.43 217.589 289.07 217.829 288.782C218.077 288.486 218.389 288.262 218.765 288.11C219.141 287.95 219.533 287.87 219.941 287.87C220.501 287.87 220.965 287.974 221.333 288.182C221.709 288.382 221.989 288.666 222.173 289.034C222.357 289.394 222.449 289.822 222.449 290.318V294.062H221.549L221.489 292.994C221.409 293.162 221.305 293.322 221.177 293.474C221.057 293.618 220.913 293.746 220.745 293.858C220.577 293.962 220.385 294.046 220.169 294.111C219.961 294.175 219.721 294.207 219.449 294.207ZM219.605 293.354C219.885 293.354 220.137 293.298 220.361 293.186C220.593 293.066 220.789 292.906 220.949 292.706C221.109 292.498 221.229 292.27 221.309 292.022C221.397 291.774 221.441 291.514 221.441 291.242V291.206H219.929C219.537 291.206 219.221 291.254 218.981 291.35C218.741 291.438 218.569 291.566 218.465 291.734C218.361 291.894 218.309 292.078 218.309 292.286C218.309 292.502 218.357 292.69 218.453 292.85C218.557 293.01 218.705 293.134 218.897 293.222C219.097 293.31 219.333 293.354 219.605 293.354ZM226.22 294.062C225.86 294.062 225.548 294.006 225.284 293.894C225.02 293.782 224.816 293.594 224.672 293.33C224.536 293.058 224.468 292.694 224.468 292.238V288.866H223.412V288.014H224.468L224.6 286.55H225.476V288.014H227.228V288.866H225.476V292.238C225.476 292.614 225.552 292.87 225.704 293.006C225.856 293.134 226.124 293.198 226.508 293.198H227.156V294.062H226.22ZM228.639 294.062V288.014H229.647V294.062H228.639ZM229.143 286.73C228.943 286.73 228.775 286.666 228.639 286.538C228.511 286.402 228.447 286.234 228.447 286.034C228.447 285.834 228.511 285.674 228.639 285.554C228.775 285.426 228.943 285.362 229.143 285.362C229.335 285.362 229.499 285.426 229.635 285.554C229.771 285.674 229.839 285.834 229.839 286.034C229.839 286.234 229.771 286.402 229.635 286.538C229.499 286.666 229.335 286.73 229.143 286.73ZM233.166 294.062L230.874 288.014H231.93L233.754 293.09L235.59 288.014H236.622L234.33 294.062H233.166ZM237.85 294.062V288.014H238.858V294.062H237.85ZM238.354 286.73C238.154 286.73 237.986 286.666 237.85 286.538C237.722 286.402 237.658 286.234 237.658 286.034C237.658 285.834 237.722 285.674 237.85 285.554C237.986 285.426 238.154 285.362 238.354 285.362C238.546 285.362 238.71 285.426 238.846 285.554C238.982 285.674 239.05 285.834 239.05 286.034C239.05 286.234 238.982 286.402 238.846 286.538C238.71 286.666 238.546 286.73 238.354 286.73ZM243.013 294.062C242.653 294.062 242.341 294.006 242.077 293.894C241.813 293.782 241.609 293.594 241.465 293.33C241.329 293.058 241.261 292.694 241.261 292.238V288.866H240.205V288.014H241.261L241.393 286.55H242.269V288.014H244.021V288.866H242.269V292.238C242.269 292.614 242.345 292.87 242.497 293.006C242.649 293.134 242.917 293.198 243.301 293.198H243.949V294.062H243.013ZM245.996 296.703L247.472 293.39H247.124L244.748 288.014H245.84L247.808 292.634L249.872 288.014H250.916L247.052 296.703H245.996Z" fill="#9F9F9F"/>
</svg>
