<svg width="16" height="16" viewBox="0 0 16 16" fill="none" xmlns="http://www.w3.org/2000/svg">
<mask id="mask0_1_175" style="mask-type:alpha" maskUnits="userSpaceOnUse" x="0" y="0" width="16" height="16">
<path fill-rule="evenodd" clip-rule="evenodd" d="M11.3459 15.8905C11.4732 15.9402 11.6094 15.9631 11.746 15.9578C11.8825 15.9526 12.0165 15.9193 12.1397 15.86L15.4338 14.2749C15.6034 14.1932 15.7466 14.0653 15.8468 13.9059C15.9469 13.7465 16.0001 13.562 16 13.3738V2.6259C16.0001 2.4376 15.947 2.25312 15.8468 2.09368C15.7466 1.93424 15.6035 1.80632 15.4338 1.72465L12.1397 0.139774C11.9535 0.0502119 11.7442 0.0207239 11.5405 0.0553909C11.3369 0.0900578 11.1491 0.187165 11.003 0.333274L4.69679 6.08652L1.95004 4.0014C1.82612 3.90737 1.6732 3.85966 1.51779 3.86656C1.36238 3.87345 1.21428 3.93451 1.09917 4.03915L0.21817 4.84052C0.149513 4.90297 0.0946465 4.97906 0.0570791 5.06392C0.0195116 5.14878 7.07861e-05 5.24055 1.92945e-07 5.33336C-7.04002e-05 5.42616 0.0192308 5.51796 0.0566691 5.60288C0.0941074 5.6878 0.148858 5.76397 0.21742 5.82652L2.59954 7.99977L0.217545 10.1731C0.149021 10.2357 0.0943025 10.3119 0.0568875 10.3968C0.0194725 10.4817 0.000183783 10.5735 0.000254369 10.6663C0.000324955 10.759 0.0197532 10.8508 0.0572974 10.9356C0.0948416 11.0205 0.149676 11.0966 0.218295 11.159L1.09929 11.9604C1.21439 12.0651 1.36248 12.1261 1.51789 12.1331C1.6733 12.14 1.82623 12.0923 1.95017 11.9983L4.69692 9.91327L11.0032 15.6664C11.1008 15.764 11.2174 15.8403 11.3459 15.8905ZM12.0024 4.36765L7.21755 7.99977L12.0025 11.632L12.0024 4.36765Z" fill="white"/>
</mask>
<g mask="url(#mask0_1_175)">
<path d="M15.434 1.72719L12.1373 0.139692C11.9511 0.0500155 11.7416 0.0204651 11.5379 0.0551346C11.3341 0.089804 11.1462 0.186977 11.0001 0.333192L0.20789 10.1731C0.139315 10.2356 0.0845501 10.3118 0.0471019 10.3967C0.00965379 10.4816 -0.00965293 10.5734 -0.00958233 10.6662C-0.00951173 10.759 0.00993463 10.8507 0.0475119 10.9356C0.0850892 11.0204 0.13997 11.0965 0.20864 11.1589L1.09014 11.9603C1.20527 12.0651 1.35346 12.1263 1.50898 12.1332C1.6645 12.1401 1.81753 12.0923 1.94151 11.9982L14.9379 2.13882C15.3739 1.80807 16.0001 2.11907 16.0001 2.66632V2.62807C16.0001 2.43983 15.947 2.2554 15.8469 2.09602C15.7467 1.93663 15.6036 1.80887 15.434 1.72719Z" fill="#0065A9"/>
<g filter="url(#filter0_d_1_175)">
<path d="M15.4339 14.2722L12.1371 15.8595C11.951 15.9492 11.7415 15.9788 11.5378 15.9442C11.334 15.9095 11.1461 15.8124 11 15.6662L0.207768 5.82625C0.139193 5.76372 0.084428 5.68757 0.0469799 5.60265C0.00953172 5.51774 -0.009775 5.42595 -0.0097044 5.33315C-0.0096338 5.24034 0.00981256 5.14858 0.0473899 5.06373C0.0849672 4.97887 0.139848 4.9028 0.208518 4.84038L1.09002 4.039C1.20515 3.93422 1.35334 3.87306 1.50886 3.86614C1.66438 3.85922 1.81741 3.90698 1.94139 4.00113L14.9378 13.8604C15.3738 14.1912 16 13.8802 16 13.333V13.3712C16 13.5595 15.9469 13.7439 15.8467 13.9033C15.7466 14.0627 15.6035 14.1906 15.4339 14.2722Z" fill="#007ACC"/>
</g>
<g filter="url(#filter1_d_1_175)">
<path d="M12.1372 15.8599C11.951 15.9494 11.7415 15.9789 11.5378 15.9442C11.3341 15.9095 11.1462 15.8124 11 15.6663C11.369 16.0353 12 15.7739 12 15.2521V0.747181C12 0.225306 11.369 -0.0360688 11 0.333056C11.1462 0.186955 11.3341 0.0898524 11.5378 0.0551671C11.7415 0.0204819 11.951 0.0499261 12.1372 0.139431L15.4334 1.72468C15.6031 1.8063 15.7463 1.9342 15.8466 2.09364C15.9468 2.25308 16 2.43759 16 2.62593V13.3737C16 13.562 15.9468 13.7465 15.8466 13.906C15.7463 14.0654 15.6031 14.1933 15.4334 14.2749L12.1372 15.8599Z" fill="#1F9CF0"/>
</g>
<path opacity="0.25" fill-rule="evenodd" clip-rule="evenodd" d="M11.3363 15.8905C11.4636 15.9401 11.5997 15.963 11.7363 15.9578C11.8728 15.9525 12.0068 15.9193 12.1299 15.86L15.424 14.2749C15.5937 14.1932 15.7368 14.0653 15.837 13.9059C15.9372 13.7464 15.9903 13.5619 15.9903 13.3736V2.6259C15.9903 2.4376 15.9372 2.25312 15.837 2.09368C15.7368 1.93424 15.5937 1.80632 15.424 1.72465L12.1299 0.139774C11.9438 0.0502119 11.7344 0.0207239 11.5308 0.0553909C11.3271 0.0900578 11.1393 0.187165 10.9933 0.333274L4.68703 6.08652L1.94028 4.00152C1.81635 3.90749 1.66343 3.85979 1.50802 3.86668C1.35261 3.87358 1.20452 3.93464 1.0894 4.03927L0.208405 4.84065C0.139765 4.9031 0.0849138 4.97919 0.0473574 5.06406C0.009801 5.14892 -0.00963381 5.24068 -0.0097044 5.33348C-0.00977499 5.42628 0.0095202 5.51808 0.0469474 5.603C0.0843747 5.68791 0.13911 5.76409 0.207655 5.82665L2.58978 7.99977L0.20778 10.173C0.139218 10.2356 0.0844672 10.3117 0.0470289 10.3967C0.00959061 10.4816 -0.00971059 10.5734 -0.00964 10.6662C-0.00956941 10.759 0.00987143 10.8508 0.0474389 10.9356C0.0850063 11.0205 0.139873 11.0966 0.20853 11.159L1.08953 11.9604C1.20463 12.0651 1.35272 12.1261 1.50812 12.1331C1.66353 12.14 1.81647 12.0923 1.9404 11.9983L4.68728 9.91315L10.9935 15.6664C11.0911 15.764 11.2078 15.8403 11.3363 15.8905ZM11.9928 4.36752L7.20778 7.99977L11.9928 11.6319V4.36752Z" fill="url(#paint0_linear_1_175)"/>
</g>
<defs>
<filter id="filter0_d_1_175" x="-8.3437" y="-4.46852" width="32.6777" height="28.7608" filterUnits="userSpaceOnUse" color-interpolation-filters="sRGB">
<feFlood flood-opacity="0" result="BackgroundImageFix"/>
<feColorMatrix in="SourceAlpha" type="matrix" values="0 0 0 0 0 0 0 0 0 0 0 0 0 0 0 0 0 0 127 0" result="hardAlpha"/>
<feOffset/>
<feGaussianBlur stdDeviation="4.167"/>
<feColorMatrix type="matrix" values="0 0 0 0 0 0 0 0 0 0 0 0 0 0 0 0 0 0 0.25 0"/>
<feBlend mode="overlay" in2="BackgroundImageFix" result="effect1_dropShadow_1_175"/>
<feBlend mode="normal" in="SourceGraphic" in2="effect1_dropShadow_1_175" result="shape"/>
</filter>
<filter id="filter1_d_1_175" x="2.666" y="-8.29298" width="21.668" height="32.5852" filterUnits="userSpaceOnUse" color-interpolation-filters="sRGB">
<feFlood flood-opacity="0" result="BackgroundImageFix"/>
<feColorMatrix in="SourceAlpha" type="matrix" values="0 0 0 0 0 0 0 0 0 0 0 0 0 0 0 0 0 0 127 0" result="hardAlpha"/>
<feOffset/>
<feGaussianBlur stdDeviation="4.167"/>
<feColorMatrix type="matrix" values="0 0 0 0 0 0 0 0 0 0 0 0 0 0 0 0 0 0 0.25 0"/>
<feBlend mode="overlay" in2="BackgroundImageFix" result="effect1_dropShadow_1_175"/>
<feBlend mode="normal" in="SourceGraphic" in2="effect1_dropShadow_1_175" result="shape"/>
</filter>
<linearGradient id="paint0_linear_1_175" x1="7.99028" y1="0.0410236" x2="7.99028" y2="15.9585" gradientUnits="userSpaceOnUse">
<stop stop-color="white"/>
<stop offset="1" stop-color="white" stop-opacity="0"/>
</linearGradient>
</defs>
</svg>
